<svg xmlns="http://www.w3.org/2000/svg" xmlns:xlink="http://www.w3.org/1999/xlink" viewBox="0 0 736 574.85"><defs><style>.cls-1,.cls-19,.cls-20,.cls-21{fill:none;}.cls-2{fill:url(#Безымянный_градиент_263);}.cls-3{fill:url(#Безымянный_градиент_19);}.cls-4{fill:url(#Безымянный_градиент_157);}.cls-5{fill:url(#Безымянный_градиент_157-2);}.cls-6{fill:#1f1844;}.cls-7{fill:#fff;}.cls-8{fill:url(#Безымянный_градиент_157-3);}.cls-9{clip-path:url(#clip-path);}.cls-10{fill:url(#Безымянный_градиент_123);}.cls-11{fill:url(#Безымянный_градиент_122);}.cls-12{fill:url(#Безымянный_градиент_48);}.cls-13{fill:url(#Безымянный_градиент_123-2);}.cls-14{fill:url(#Безымянный_градиент_13);}.cls-15{fill:url(#Безымянный_градиент_250);}.cls-16{fill:url(#Безымянный_градиент_250-2);}.cls-17{fill:url(#Безымянный_градиент_9);}.cls-18{fill:url(#Безымянный_градиент_13-2);}.cls-19,.cls-21{stroke-linecap:round;}.cls-19,.cls-20,.cls-21{stroke-miterlimit:10;stroke-width:3.1px;}.cls-19{stroke:url(#Безымянный_градиент_263-2);}.cls-20{stroke:url(#Безымянный_градиент_263-3);}.cls-21{stroke:url(#Безымянный_градиент_263-4);}.cls-22{fill:url(#Безымянный_градиент_263-5);}</style><linearGradient id="Безымянный_градиент_263" x1="39.71" y1="289.21" x2="665.51" y2="289.21" gradientUnits="userSpaceOnUse"><stop offset="0" stop-color="#f0f2f5"/><stop offset="0.99" stop-color="#f5f7f8"/></linearGradient><linearGradient id="Безымянный_градиент_19" x1="239.58" y1="264.71" x2="701.02" y2="264.71" gradientUnits="userSpaceOnUse"><stop offset="0" stop-color="#fff"/><stop offset="0.16" stop-color="#f2f3f8"/><stop offset="0.71" stop-color="#cacde2"/><stop offset="0.99" stop-color="#bbbfd9"/></linearGradient><linearGradient id="Безымянный_градиент_157" x1="34.98" y1="459.49" x2="152.67" y2="459.49" gradientUnits="userSpaceOnUse"><stop offset="0" stop-color="#a96e46"/><stop offset="1" stop-color="#ffd0b9"/></linearGradient><linearGradient id="Безымянный_градиент_157-2" x1="194.14" y1="407.23" x2="234.88" y2="407.23" xlink:href="#Безымянный_градиент_157"/><linearGradient id="Безымянный_градиент_157-3" x1="174.72" y1="455.93" x2="204.08" y2="455.93" xlink:href="#Безымянный_градиент_157"/><clipPath id="clip-path"><circle class="cls-1" cx="470.3" cy="264.71" r="230.72"/></clipPath><linearGradient id="Безымянный_градиент_123" x1="469.5" y1="188.77" x2="561.03" y2="188.77" gradientUnits="userSpaceOnUse"><stop offset="0" stop-color="#753200"/><stop offset="1" stop-color="#a04400"/></linearGradient><linearGradient id="Безымянный_градиент_122" x1="485.67" y1="224.42" x2="533.08" y2="193.78" gradientTransform="translate(51.72 -145.23) rotate(8.19)" gradientUnits="userSpaceOnUse"><stop offset="0" stop-color="#a04400" stop-opacity="0"/><stop offset="0.18" stop-color="#9a4100" stop-opacity="0.14"/><stop offset="0.52" stop-color="#8a3b00" stop-opacity="0.52"/><stop offset="0.9" stop-color="#753200"/></linearGradient><linearGradient id="Безымянный_градиент_48" x1="547.26" y1="187.33" x2="504.6" y2="229.21" gradientUnits="userSpaceOnUse"><stop offset="0" stop-color="#a04400"/><stop offset="1" stop-color="#753200"/></linearGradient><linearGradient id="Безымянный_градиент_123-2" x1="545.49" y1="236.65" x2="540.58" y2="241.47" gradientTransform="translate(51.72 -145.23) rotate(8.19)" xlink:href="#Безымянный_градиент_123"/><linearGradient id="Безымянный_градиент_13" x1="319.7" y1="293.52" x2="465.76" y2="293.52" gradientUnits="userSpaceOnUse"><stop offset="0" stop-color="#a04400"/><stop offset="0.3" stop-color="#9c4200"/><stop offset="0.62" stop-color="#8e3d00"/><stop offset="0.95" stop-color="#793300"/><stop offset="1" stop-color="#753200"/></linearGradient><linearGradient id="Безымянный_градиент_250" x1="440.2" y1="275.2" x2="441.18" y2="275.2" gradientUnits="userSpaceOnUse"><stop offset="0" stop-color="#a7a5ee"/><stop offset="0.44" stop-color="#9d9ce8"/><stop offset="0.89" stop-color="#8988d5"/></linearGradient><linearGradient id="Безымянный_градиент_250-2" x1="428.92" y1="349.14" x2="620.56" y2="349.14" xlink:href="#Безымянный_градиент_250"/><linearGradient id="Безымянный_градиент_9" x1="473.78" y1="390.58" x2="563.88" y2="390.58" gradientUnits="userSpaceOnUse"><stop offset="0.09" stop-color="#d9d9d9"/><stop offset="1" stop-color="#e6e6e6"/></linearGradient><linearGradient id="Безымянный_градиент_13-2" x1="521.03" y1="330.28" x2="591.18" y2="412.97" xlink:href="#Безымянный_градиент_13"/><linearGradient id="Безымянный_градиент_263-2" x1="556.62" y1="242.29" x2="566.79" y2="242.29" xlink:href="#Безымянный_градиент_263"/><linearGradient id="Безымянный_градиент_263-3" x1="590.84" y1="118.72" x2="625.03" y2="118.72" gradientTransform="translate(-37.57 136.12) rotate(4.19)" xlink:href="#Безымянный_градиент_263"/><linearGradient id="Безымянный_градиент_263-4" x1="467.69" y1="272.62" x2="477.57" y2="272.62" xlink:href="#Безымянный_градиент_263"/><linearGradient id="Безымянный_градиент_263-5" x1="460.89" y1="305.81" x2="484.25" y2="305.81" xlink:href="#Безымянный_градиент_263"/></defs><title>01</title><g id="Слой_1" data-name="Слой 1"><path class="cls-2" d="M648.62,300.48C593.6,188,436.25,23.27,231.78,22.85,18.42,22.4,8.07,183.56,79.35,287.06c58,84.16-89.43,151.3,30.78,225,121.66,74.56,440.81,42.6,504.81-15.4S672.39,349.07,648.62,300.48Z"/></g><g id="Слой_3" data-name="Слой 3"><circle class="cls-3" cx="470.3" cy="264.71" r="230.72"/><path class="cls-4" d="M35,506.92s30.63-18.15,33.46-35.73S75.81,427.51,84.32,419s22.12-18.43,28.08-33.75,11.82-26.16,18.05-12.83c-4,14.18-30.25,97.63-30.25,97.63l52.47,17.86S128.28,506.64,110.13,512s-42,40.55-42,40.55S37.53,514,35,506.92Z"/><path class="cls-5" d="M201.51,402.31c.85-.28,29.78-17.3,33.18-10.78s-40.55,32.9-40.55,32.9Z"/><rect class="cls-6" x="120.16" y="333.65" width="76.85" height="152.16" rx="3.54" ry="3.54" transform="matrix(0.95, 0.31, -0.31, 0.95, 136.76, -29.08)"/><rect class="cls-7" x="127.23" y="346.47" width="64.01" height="122.55" rx="8.07" ry="8.07" transform="translate(136.16 -29.38) rotate(18.31)"/><path class="cls-8" d="M192.7,428.94s12.93-2.85,11.23,7.36-5.54,11.91-5.54,11.91,5.52,4.89,0,10.42a31.72,31.72,0,0,1-11.69,7.44s9.71-.21,7.94,5.32-19.93,11.89-19.93,11.89Z"/><circle class="cls-7" cx="136.31" cy="473.37" r="5.96"/><path class="cls-6" d="M165.31,385.65v5.48a3.69,3.69,0,0,1-3.69,3.69h-2.08a4.26,4.26,0,0,0-4.26,4.26v19.68a4.26,4.26,0,0,0,4.26,4.26h2.08a3.69,3.69,0,0,1,3.69,3.69v5.67a3.69,3.69,0,0,1-3.69,3.69h-2.27a11.83,11.83,0,0,1-11.83-11.83V393.79A11.83,11.83,0,0,1,159.35,382h2.27A3.69,3.69,0,0,1,165.31,385.65Z"/><g class="cls-9"><path class="cls-10" d="M552.76,185.16l-.18.23-.19.24a.6.6,0,0,0-.05.19c0,.17-.06.43-.1.77s-.08.9-.11,1.46c0,.21,0,.41,0,.63,0,.39-.05.8-.07,1.21,0,.64-.06,1.3-.08,1.93s0,1.24-.05,1.78,0,.81,0,1.24c-.05,4.91-.12,11.29-.2,17.44-.07,8.9.2,16.55.25,19.52.11,7.2-11.46,32.66-26.63,32.92S494.49,245,494.49,245l1.1-4.79L498.8,226l1.67-7.33a7.26,7.26,0,0,1-1.5-.43c-.65-.24-1.49-.58-2.46-1-6.66-3-17.94-11.13-21.89-24-3.66-11.87-.93-22.19-.82-29.17s-2.71-11.94-3.94-19.75c-1.57-10,2.49-22.54,7.44-25.46,22.23-13.26,62.34-.65,62.34-.65s20.17,4.06,14.71,32.05c1.38-.91-.45,5.15,1.45,4.78,4-.71-.38,1.74,1.93,3.55C562.76,162.57,562.76,172.08,552.76,185.16Z"/><path class="cls-11" d="M555.51,147.71c5.47-28-15.89-29.47-15.89-29.47s-40.1-12.61-62.33.65c-3.49,2.06-4.11,7.48-4.92,12.11,8.9-7,31.37-6.07,45.52-5.53,6.77.26,4.41,6.2,6.29,6.55,15-2.57,26.81,9.12,23.93,30.3l4-5.43C550.61,156.86,556.85,146.83,555.51,147.71Z"/><path class="cls-12" d="M552.76,185.16l-.18.23c-.05.08-.11.16-.18.24a.53.53,0,0,0-.06.19c0,.17-.06.43-.1.77s-.07.9-.11,1.46c0,.21,0,.41,0,.63,0,.39-.05.8-.07,1.21,0,.64-.05,1.3-.08,1.93s0,1.24-.05,1.78,0,.81,0,1.24c-12.11,20.07-32.39,27.5-52.61,29.2l1.21-5.35C527.71,214.39,541.54,195,552.76,185.16Z"/><path class="cls-13" d="M550.68,165.8s3.77-5.15,6.41-1.21-1.53,10.64-1.53,10.64Z"/><path class="cls-6" d="M530.68,98c-4.33-9.62-28.92-17.36-46.31-13.54-11.14,2.45-24.68,9.29-30.07,22.63-4.53,11.2-11.87,38.36,17.13,53.89,6.57-21.49,34.66-9.49,50.91-39.5,3.12-5.76,4.09,6.94,5.93,7.14,16.15-4,25.37,5,20.61,32.36.7-2.79,7.87-3.12,9.63-.62,1,1.36,6.27,6.91-4.06,22,.11.07-2.37,1.46-2.87,8.14-.91,12.09-.14,32.85.16,32.93,4.83,1.37,37.43,20.28,38.64,15.42,2.3-9.26-12.13-71.49-9.55-89.16C584.13,127.07,560.44,92.87,530.68,98Z"/><path class="cls-7" d="M430.24,127.5H403.87V101.13a7.35,7.35,0,0,0-7.35-7.35H385.08a7.35,7.35,0,0,0-7.35,7.35V127.5H351.36a7.35,7.35,0,0,0-7.35,7.35v11.44a7.35,7.35,0,0,0,7.35,7.35h26.37V180a7.35,7.35,0,0,0,7.35,7.35h11.44a7.35,7.35,0,0,0,7.35-7.35V153.65h26.37a7.35,7.35,0,0,0,7.35-7.35V134.85A7.35,7.35,0,0,0,430.24,127.5Z"/><path class="cls-6" d="M569.42,565.49c23.46-91,2.12-157.79,2.12-157.79L463.06,417.81s-18.56,167.6-22.38,185.94c-.3,1.46-.53,8.65-.68,11.8h55.26c2.95-30.23,10.83-102.79,10.83-102.79s1.12,61.69,5.68,102.79h54.09C564.17,604.13,564,586.49,569.42,565.49Z"/><circle class="cls-6" cx="587.82" cy="232.07" r="11.43"/><path class="cls-14" d="M465.75,326.49c-.84-15.13-17.68-24.92-28.42-37.67-12.66,25.57-25.59,51.78-25.59,51.78l-43.37-64.72h0a7.66,7.66,0,0,1,0-4.64c1.87-4.25,4.94-6.71,6.55-17.78s6.09-18,7.1-19.26-.65-5.54-4.61-3.11-6.73,6.63-8,13.8-5.62,2.7-7.85-1.72-4.88-21.9-5.69-28.5-2.51-11.61-5.5-10.57-1.51,14.56-.78,18.68,1.52,12,.21,12.51-4.19-13.35-6.23-19.23-3.82-13.37-7.58-12,.52,12,1.94,16.62,4.29,16.84,3.72,17.31-6.15-13.85-7.33-17.54-3.19-11.1-7.13-8.93,4,18.71,5.31,21.73,4.76,11.24,3.57,12.08-9.53-15.42-11.85-17.17-5.36-2.45-4.38,3,8.1,14.34,10.83,20.71,6.59,15.94,10.9,20.56-5.71-3,45.71,98.62c6.13,12.1,26.52,14.75,33.84,9.94S466.31,342.8,465.75,326.49Z"/><path class="cls-15" d="M440.28,275.4c1.27.11,1.14-.05-.06-.43C440.18,275.24,440.2,275.4,440.28,275.4Z"/><path class="cls-16" d="M619.83,312.76c2.24-26.15-.82-49.63-7.25-58.8-6.57-9.39-45.71-26.27-58.26-33.24,0,2.86-33.16,42.27-33.16,42.27s-29.46-27.2-30.05-35.76c0-.5-38.25,17.66-40.53,22.24-4.87,9.78-18.5,35.26-21.67,49.29,13.33,10.63,27,22.72,34.17,28-11.27,19-1.79,33.6-4.52,60.75-3.76,37.44-13.23,74.75-13.23,74.75s53.88,37.17,138.39-4.19C582,435.82,608.85,313,619.83,312.76Z"/><polygon class="cls-17" points="473.78 331.8 557.05 326.15 563.88 452.39 479.81 455.01 473.78 331.8"/><path class="cls-18" d="M582.08,318.72l-9,57.83s-52.52,3.94-53,3.66a69.52,69.52,0,0,1-12.79-9.77c-5.39-5.39-15.48-10.48-20-8.83a2.45,2.45,0,0,0-1.4,2.7c1.23,5.85,9.73,6.85,7.92,8.82a131.65,131.65,0,0,1-15.57-3.63c-3.93-1.21-7,2.64-6.1,5.3a2.36,2.36,0,0,1-1.11,2.65c-2.56,1.68-1.73,5.23-.42,6.45,1.66,1.54-5.18,3.85-1.38,7.69s-2.39,7,1.84,10.47,10.49,7.52,19.72,6.36c8.76-1.09,27-6,29.17-5.88,0,0,55.57,9.32,69.85,7.17,7.82-1.17,13-5.61,13.83-9.61,4-18.55,10.67-55,13.44-87.35C606.12,313,582.08,318.72,582.08,318.72Z"/><path class="cls-19" d="M558.17,263s8-23.36,7-41.39"/><path class="cls-20" d="M574.17,331.46s-22,8.07-27.36-32.43S557,261,564.18,265c7.87,4.48,20,43.3-13.4,69.55"/><circle class="cls-6" cx="574.17" cy="331.46" r="3.62" transform="translate(201.6 879.85) rotate(-85.81)"/><circle class="cls-6" cx="548.29" cy="336.05" r="3.62" transform="translate(173.05 858.3) rotate(-85.81)"/><path class="cls-21" d="M476,239.44s-12.59,47.76-3.45,66.38"/><circle class="cls-22" cx="472.57" cy="305.81" r="11.68"/><circle class="cls-1" cx="470.3" cy="264.71" r="230.72"/></g><circle class="cls-6" cx="576.39" cy="171.24" r="11.43"/><circle class="cls-6" cx="581.05" cy="188.49" r="11.43"/><circle class="cls-6" cx="585.32" cy="210.74" r="11.43"/><circle class="cls-6" cx="576.39" cy="152.24" r="11.43"/><circle class="cls-6" cx="573.89" cy="131.74" r="11.43"/><circle class="cls-6" cx="564.96" cy="115.99" r="11.43"/><circle class="cls-6" cx="551.03" cy="104.56" r="11.43"/><circle class="cls-6" cx="539.6" cy="103.05" r="11.43"/><circle class="cls-6" cx="524.15" cy="91.62" r="11.43"/><circle class="cls-6" cx="506.82" cy="88.38" r="11.43"/><circle class="cls-6" cx="489.48" cy="89.72" r="11.43"/><circle class="cls-6" cx="473.82" cy="96.38" r="11.43"/><circle class="cls-6" cx="460.48" cy="107.81" r="11.43"/><circle class="cls-6" cx="455.48" cy="127.42" r="11.43"/><circle class="cls-6" cx="457.15" cy="143.17" r="11.43"/><circle class="cls-6" cx="462.39" cy="154.6" r="11.43"/></g></svg>