<svg xmlns="http://www.w3.org/2000/svg" xmlns:xlink="http://www.w3.org/1999/xlink" viewBox="0 0 736 574.85"><defs><style>.cls-1,.cls-20,.cls-21,.cls-22{fill:none;}.cls-2{fill:url(#Безымянный_градиент_263);}.cls-3{fill:url(#Безымянный_градиент_19);}.cls-4{fill:url(#Безымянный_градиент_123);}.cls-5{fill:url(#Безымянный_градиент_123-2);}.cls-6{fill:#1f1844;}.cls-7{fill:#fff;}.cls-8{fill:url(#Безымянный_градиент_123-3);}.cls-9{clip-path:url(#clip-path);}.cls-10{fill:url(#Безымянный_градиент_123-4);}.cls-11{fill:url(#Безымянный_градиент_122);}.cls-12{fill:url(#Безымянный_градиент_48);}.cls-13{fill:url(#Безымянный_градиент_123-5);}.cls-14{fill:url(#Безымянный_градиент_9);}.cls-15{fill:url(#Безымянный_градиент_13);}.cls-16{fill:url(#Безымянный_градиент_250);}.cls-17{fill:url(#Безымянный_градиент_250-2);}.cls-18{fill:url(#Безымянный_градиент_9-2);}.cls-19{fill:url(#Безымянный_градиент_13-2);}.cls-20,.cls-22{stroke-linecap:round;}.cls-20,.cls-21,.cls-22{stroke-miterlimit:10;stroke-width:3.1px;}.cls-20{stroke:url(#Безымянный_градиент_263-2);}.cls-21{stroke:url(#Безымянный_градиент_263-3);}.cls-22{stroke:url(#Безымянный_градиент_263-4);}.cls-23{fill:url(#Безымянный_градиент_263-5);}</style><linearGradient id="Безымянный_градиент_263" x1="34.08" y1="289.21" x2="659.88" y2="289.21" gradientUnits="userSpaceOnUse"><stop offset="0" stop-color="#f0f2f5"/><stop offset="0.99" stop-color="#f5f7f8"/></linearGradient><linearGradient id="Безымянный_градиент_19" x1="233.95" y1="264.71" x2="695.39" y2="264.71" gradientUnits="userSpaceOnUse"><stop offset="0" stop-color="#fff"/><stop offset="0.16" stop-color="#f2f3f8"/><stop offset="0.71" stop-color="#cacde2"/><stop offset="0.99" stop-color="#bbbfd9"/></linearGradient><linearGradient id="Безымянный_градиент_123" x1="29.34" y1="459.49" x2="147.04" y2="459.49" gradientUnits="userSpaceOnUse"><stop offset="0" stop-color="#753200"/><stop offset="1" stop-color="#a04400"/></linearGradient><linearGradient id="Безымянный_градиент_123-2" x1="188.51" y1="407.23" x2="229.25" y2="407.23" xlink:href="#Безымянный_градиент_123"/><linearGradient id="Безымянный_градиент_123-3" x1="169.09" y1="455.93" x2="198.45" y2="455.93" xlink:href="#Безымянный_градиент_123"/><clipPath id="clip-path"><circle class="cls-1" cx="464.67" cy="264.71" r="230.72"/></clipPath><linearGradient id="Безымянный_градиент_123-4" x1="463.87" y1="188.77" x2="555.01" y2="188.77" xlink:href="#Безымянный_градиент_123"/><linearGradient id="Безымянный_градиент_122" x1="488.43" y1="341.59" x2="535.85" y2="310.95" gradientTransform="translate(60.06 -261.59) rotate(8.19)" gradientUnits="userSpaceOnUse"><stop offset="0" stop-color="#a04400" stop-opacity="0"/><stop offset="0.18" stop-color="#9a4100" stop-opacity="0.14"/><stop offset="0.52" stop-color="#8a3b00" stop-opacity="0.52"/><stop offset="0.9" stop-color="#753200"/></linearGradient><linearGradient id="Безымянный_градиент_48" x1="541.63" y1="187.33" x2="498.97" y2="229.21" gradientUnits="userSpaceOnUse"><stop offset="0" stop-color="#a04400"/><stop offset="1" stop-color="#753200"/></linearGradient><linearGradient id="Безымянный_градиент_123-5" x1="548.25" y1="353.81" x2="543.34" y2="358.64" gradientTransform="translate(60.06 -261.59) rotate(8.19)" xlink:href="#Безымянный_градиент_123"/><linearGradient id="Безымянный_градиент_9" x1="465.79" y1="190.15" x2="544.54" y2="190.15" gradientUnits="userSpaceOnUse"><stop offset="0.09" stop-color="#d9d9d9"/><stop offset="1" stop-color="#e6e6e6"/></linearGradient><linearGradient id="Безымянный_градиент_13" x1="314.07" y1="293.52" x2="460.13" y2="293.52" gradientUnits="userSpaceOnUse"><stop offset="0" stop-color="#a04400"/><stop offset="0.3" stop-color="#9c4200"/><stop offset="0.62" stop-color="#8e3d00"/><stop offset="0.95" stop-color="#793300"/><stop offset="1" stop-color="#753200"/></linearGradient><linearGradient id="Безымянный_градиент_250" x1="434.57" y1="275.2" x2="435.55" y2="275.2" gradientUnits="userSpaceOnUse"><stop offset="0" stop-color="#a7a5ee"/><stop offset="0.44" stop-color="#9d9ce8"/><stop offset="0.89" stop-color="#8988d5"/></linearGradient><linearGradient id="Безымянный_градиент_250-2" x1="423.29" y1="349.14" x2="614.93" y2="349.14" xlink:href="#Безымянный_градиент_250"/><linearGradient id="Безымянный_градиент_9-2" x1="468.15" y1="390.58" x2="558.25" y2="390.58" xlink:href="#Безымянный_градиент_9"/><linearGradient id="Безымянный_градиент_13-2" x1="515.39" y1="330.28" x2="585.55" y2="412.97" xlink:href="#Безымянный_градиент_13"/><linearGradient id="Безымянный_градиент_263-2" x1="550.98" y1="242.29" x2="561.16" y2="242.29" xlink:href="#Безымянный_градиент_263"/><linearGradient id="Безымянный_градиент_263-3" x1="587.41" y1="178.84" x2="621.6" y2="178.84" gradientTransform="translate(-35.39 76.41) rotate(4.19)" xlink:href="#Безымянный_градиент_263"/><linearGradient id="Безымянный_градиент_263-4" x1="462.06" y1="272.62" x2="471.94" y2="272.62" xlink:href="#Безымянный_градиент_263"/><linearGradient id="Безымянный_градиент_263-5" x1="455.26" y1="305.81" x2="478.62" y2="305.81" xlink:href="#Безымянный_градиент_263"/></defs><title>01</title><g id="Слой_1" data-name="Слой 1"><path class="cls-2" d="M643,300.48C588,188,430.62,23.27,226.15,22.85,12.79,22.4,2.44,183.56,73.72,287.06c58,84.16-89.43,151.3,30.78,225,121.66,74.56,440.81,42.6,504.81-15.4S666.76,349.07,643,300.48Z"/></g><g id="Слой_3" data-name="Слой 3"><circle class="cls-3" cx="464.67" cy="264.71" r="230.72"/><path class="cls-4" d="M29.34,506.92S60,488.77,62.81,471.19,70.18,427.51,78.69,419s22.12-18.43,28.08-33.75,11.82-26.16,18.05-12.83c-4,14.18-30.25,97.63-30.25,97.63L147,487.92S122.65,506.64,104.5,512s-42,40.55-42,40.55S31.9,514,29.34,506.92Z"/><path class="cls-5" d="M195.88,402.31c.85-.28,29.78-17.3,33.18-10.78s-40.55,32.9-40.55,32.9Z"/><rect class="cls-6" x="114.53" y="333.65" width="76.85" height="152.16" rx="3.54" ry="3.54" transform="translate(136.47 -27.31) rotate(18.31)"/><rect class="cls-7" x="121.6" y="346.47" width="64.01" height="122.55" rx="8.07" ry="8.07" transform="translate(135.88 -27.61) rotate(18.31)"/><path class="cls-8" d="M187.07,428.94s12.93-2.85,11.23,7.36-5.54,11.91-5.54,11.91,5.52,4.89,0,10.42a31.72,31.72,0,0,1-11.69,7.44s9.71-.21,7.94,5.32-19.93,11.89-19.93,11.89Z"/><circle class="cls-7" cx="133.43" cy="474.87" r="5.96"/><path class="cls-6" d="M159.68,385.65v5.48a3.69,3.69,0,0,1-3.69,3.69h-2.08a4.26,4.26,0,0,0-4.26,4.26v19.68a4.26,4.26,0,0,0,4.26,4.26H156a3.69,3.69,0,0,1,3.69,3.69v5.67a3.69,3.69,0,0,1-3.69,3.69h-2.27a11.83,11.83,0,0,1-11.83-11.83V393.79A11.83,11.83,0,0,1,153.72,382H156A3.69,3.69,0,0,1,159.68,385.65Z"/><path class="cls-6" d="M467,188.58l-2.63,25.09a35.38,35.38,0,0,0,36.28,39h0l12.53-37.13Z"/><g class="cls-9"><path class="cls-10" d="M547.13,185.16l-.18.23-.19.24a.6.6,0,0,0-.05.19c0,.17-.06.43-.1.77s-.08.9-.11,1.46c0,.21,0,.41,0,.63,0,.39-.05.8-.07,1.21,0,.64-.06,1.3-.08,1.93s0,1.24-.05,1.78,0,.81,0,1.24c-.05,4.91-.12,11.29-.2,17.44-.07,8.9.2,16.55.25,19.52.11,7.2-11.46,32.66-26.63,32.92S488.86,245,488.86,245l1.1-4.79L493.17,226l1.67-7.33a7.26,7.26,0,0,1-1.5-.43c-.65-.24-1.49-.58-2.46-1-6.66-3-17.94-11.13-21.89-24-3.66-11.87-.93-22.19-.82-29.17s-2.71-11.94-3.94-19.75c-1.57-10,2.49-22.54,7.44-25.46,22.23-13.26,62.34-.65,62.34-.65s20.17,4.06,14.71,32.05c1.38-.91-.45,5.15,1.45,4.78,4-.71-.38,1.74,1.93,3.55C557.13,162.57,555.77,185.78,547.13,185.16Z"/><path class="cls-11" d="M549.88,147.71c5.47-28-15.89-29.47-15.89-29.47s-40.1-12.61-62.33.65c-3.49,2.06-4.11,7.48-4.92,12.11,8.9-7,31.37-6.07,45.52-5.53,6.77.26,4.41,6.2,6.29,6.55,15-2.57,26.81,9.12,23.93,30.3l4-5.43C545,156.86,551.22,146.83,549.88,147.71Z"/><path class="cls-12" d="M547.13,185.16l-.18.23c-.05.08-.11.16-.18.24a.53.53,0,0,0-.06.19c0,.17-.06.43-.1.77s-.07.9-.11,1.46c0,.21,0,.41,0,.63,0,.39-.05.8-.07,1.21,0,.64-.05,1.3-.08,1.93s0,1.24-.05,1.78,0,.81,0,1.24c-12.11,20.07-32.39,27.5-52.61,29.2l1.21-5.35C522.08,214.39,535.91,195,547.13,185.16Z"/><path class="cls-13" d="M545.05,165.8s3.77-5.15,6.41-1.21-1.53,10.64-1.53,10.64Z"/><path class="cls-14" d="M487.25,164c9.25.25,25.5,13.5,34.5,11s21.49-14,21.49-14-9.51,14,0,27.77-36,32.08-49.62,30.36-24.94-20.44-27.06-32.87.77-17.6.77-17.6S478,163.78,487.25,164Z"/><path class="cls-6" d="M525,98c-4.33-9.62-28.92-17.36-46.31-13.54-11.14,2.45-24.68,9.29-30.07,22.63-4.53,11.2-11.87,38.36,17.13,53.89,6.57-21.49,34.66-9.49,50.91-39.5,3.12-5.76,4.09,6.94,5.93,7.14,16.15-4,25.37,5,20.61,32.36.7-2.79,7.23-3.33,9.63-.62,5.08,5.73-.89,24.38-5.75,24.23-4.53,9.2-1.88,43.7-1.42,43.83,4.83,1.37,45.63,15.13,45.63,15.13S596.71,221.74,595,204C591.29,166.88,572.87,86.38,525,98Z"/><path class="cls-7" d="M424.61,127.5H398.24V101.13a7.35,7.35,0,0,0-7.35-7.35H379.45a7.35,7.35,0,0,0-7.35,7.35V127.5H345.72a7.35,7.35,0,0,0-7.35,7.35v11.44a7.35,7.35,0,0,0,7.35,7.35H372.1V180a7.35,7.35,0,0,0,7.35,7.35h11.44a7.35,7.35,0,0,0,7.35-7.35V153.65h26.37a7.35,7.35,0,0,0,7.35-7.35V134.85A7.35,7.35,0,0,0,424.61,127.5Z"/><path class="cls-6" d="M563.79,565.49c23.46-91,2.12-157.79,2.12-157.79L457.43,417.81s-18.56,167.6-22.38,185.94c-.3,1.46-.53,8.65-.68,11.8h55.26c2.95-30.23,10.83-102.79,10.83-102.79s1.12,61.69,5.68,102.79h54.09C558.54,604.13,558.37,586.49,563.79,565.49Z"/><path class="cls-15" d="M460.12,326.49c-.84-15.13-17.68-24.92-28.42-37.67C419,314.39,406.12,340.6,406.12,340.6l-43.37-64.72h0a7.66,7.66,0,0,1,0-4.64c1.87-4.25,4.94-6.71,6.55-17.78s6.09-18,7.1-19.26-.65-5.54-4.61-3.11-6.73,6.63-8,13.8-5.62,2.7-7.85-1.72-4.88-21.9-5.69-28.5-2.51-11.61-5.5-10.57-1.51,14.56-.78,18.68,1.52,12,.21,12.51S340,221.93,338,216s-3.82-13.37-7.58-12,.52,12,1.94,16.62,4.29,16.84,3.72,17.31-6.15-13.85-7.33-17.54-3.19-11.1-7.13-8.93,4,18.71,5.31,21.73,4.76,11.24,3.57,12.08-9.53-15.42-11.85-17.17-5.36-2.45-4.38,3,8.1,14.34,10.83,20.71,6.59,15.94,10.9,20.56-5.71-3,45.71,98.62c6.13,12.1,26.52,14.75,33.84,9.94S460.68,342.8,460.12,326.49Z"/><path class="cls-16" d="M434.65,275.4c1.27.11,1.14-.05-.06-.43C434.55,275.24,434.57,275.4,434.65,275.4Z"/><path class="cls-17" d="M614.2,312.76c2.24-26.15-.82-49.63-7.25-58.8-6.57-9.39-45.71-26.27-58.26-33.24,0,2.86-33.16,42.27-33.16,42.27s-29.46-27.2-30.05-35.76c0-.5-38.25,17.66-40.53,22.24-4.87,9.78-18.5,35.26-21.67,49.29,13.33,10.63,30.75,25.63,34.17,28-10.58,18,1.17,34.4-1.58,61.67-3.77,37.39-16.17,73.83-16.17,73.83S493.59,499.38,578.1,458C576.41,435.82,603.21,313,614.2,312.76Z"/><polygon class="cls-18" points="468.15 331.8 551.42 326.15 558.25 452.39 474.18 455.01 468.15 331.8"/><path class="cls-19" d="M576.45,318.72l-9,57.83s-52.52,3.94-53,3.66a69.52,69.52,0,0,1-12.79-9.77c-5.39-5.39-15.48-10.48-20-8.83a2.45,2.45,0,0,0-1.4,2.7c1.23,5.85,9.73,6.85,7.92,8.82a131.65,131.65,0,0,1-15.57-3.63c-3.93-1.21-7,2.64-6.1,5.3a2.36,2.36,0,0,1-1.11,2.65c-2.56,1.68-1.73,5.23-.42,6.45,1.66,1.54-5.18,3.85-1.38,7.69s-2.39,7,1.84,10.47,10.49,7.52,19.72,6.36c8.76-1.09,27-6,29.17-5.88,0,0,55.57,9.32,69.85,7.17,7.82-1.17,13-5.61,13.83-9.61,4-18.55,10.67-55,13.44-87.35C600.49,313,576.45,318.72,576.45,318.72Z"/><path class="cls-20" d="M552.54,263s8-23.36,7-41.39"/><path class="cls-21" d="M568.54,331.46s-22,8.07-27.36-32.43,10.2-38.07,17.36-34c7.87,4.48,20,43.3-13.4,69.55"/><circle class="cls-6" cx="568.54" cy="331.46" r="3.62" transform="translate(196.38 874.24) rotate(-85.81)"/><circle class="cls-6" cx="542.66" cy="336.05" r="3.62" transform="translate(167.83 852.68) rotate(-85.81)"/><path class="cls-22" d="M470.39,239.44s-12.59,47.76-3.45,66.38"/><circle class="cls-23" cx="466.94" cy="305.81" r="11.68"/><circle class="cls-1" cx="464.67" cy="264.71" r="230.72"/></g></g></svg>