<svg xmlns="http://www.w3.org/2000/svg" xmlns:xlink="http://www.w3.org/1999/xlink" viewBox="0 0 736 574.85"><defs><style>.cls-1,.cls-18,.cls-19,.cls-20{fill:none;}.cls-2{fill:url(#Безымянный_градиент_19);}.cls-3{fill:url(#Безымянный_градиент_157);}.cls-4{fill:url(#Безымянный_градиент_157-2);}.cls-5{fill:#1f1844;}.cls-6{fill:#fff;}.cls-7{fill:url(#Безымянный_градиент_157-3);}.cls-8{clip-path:url(#clip-path);}.cls-9{fill:url(#Безымянный_градиент_157-4);}.cls-10{fill:url(#Безымянный_градиент_162);}.cls-11{fill:url(#Безымянный_градиент_162-2);}.cls-12{fill:url(#Безымянный_градиент_162-3);}.cls-13{fill:url(#Безымянный_градиент_157-5);}.cls-14{fill:url(#Безымянный_градиент_250);}.cls-15{fill:url(#Безымянный_градиент_250-2);}.cls-16{fill:url(#Безымянный_градиент_9);}.cls-17{fill:url(#Безымянный_градиент_157-6);}.cls-18,.cls-20{stroke-linecap:round;}.cls-18,.cls-19,.cls-20{stroke-miterlimit:10;stroke-width:3.1px;}.cls-18{stroke:url(#Безымянный_градиент_263);}.cls-19{stroke:url(#Безымянный_градиент_263-2);}.cls-20{stroke:url(#Безымянный_градиент_263-3);}.cls-21{fill:url(#Безымянный_градиент_263-4);}</style><linearGradient id="Безымянный_градиент_19" x1="245.11" y1="287.22" x2="706.56" y2="287.22" gradientUnits="userSpaceOnUse"><stop offset="0" stop-color="#fff"/><stop offset="0.16" stop-color="#f2f3f8"/><stop offset="0.71" stop-color="#cacde2"/><stop offset="0.99" stop-color="#bbbfd9"/></linearGradient><linearGradient id="Безымянный_градиент_157" x1="40.51" y1="482" x2="158.2" y2="482" gradientUnits="userSpaceOnUse"><stop offset="0" stop-color="#a96e46"/><stop offset="1" stop-color="#ffd0b9"/></linearGradient><linearGradient id="Безымянный_градиент_157-2" x1="199.67" y1="429.74" x2="240.41" y2="429.74" xlink:href="#Безымянный_градиент_157"/><linearGradient id="Безымянный_градиент_157-3" x1="180.25" y1="478.44" x2="209.62" y2="478.44" xlink:href="#Безымянный_градиент_157"/><clipPath id="clip-path"><circle class="cls-1" cx="475.83" cy="287.22" r="230.72"/></clipPath><linearGradient id="Безымянный_градиент_157-4" x1="475.24" y1="215.99" x2="566.77" y2="215.99" xlink:href="#Безымянный_градиент_157"/><linearGradient id="Безымянный_градиент_162" x1="605.23" y1="464.87" x2="652.64" y2="434.23" gradientTransform="translate(-27.29 -385.3) rotate(8.19)" gradientUnits="userSpaceOnUse"><stop offset="0" stop-color="#a96e46"/><stop offset="1" stop-color="#ffd0b9" stop-opacity="0"/></linearGradient><linearGradient id="Безымянный_градиент_162-2" x1="552.99" y1="203.77" x2="510.33" y2="245.64" gradientTransform="matrix(1, 0, 0, 1, 0, 0)" xlink:href="#Безымянный_градиент_162"/><linearGradient id="Безымянный_градиент_162-3" x1="665.93" y1="478.46" x2="661.02" y2="483.28" xlink:href="#Безымянный_градиент_162"/><linearGradient id="Безымянный_градиент_157-5" x1="325.23" y1="321.26" x2="471.29" y2="321.26" xlink:href="#Безымянный_градиент_157"/><linearGradient id="Безымянный_градиент_250" x1="445.73" y1="297.71" x2="446.71" y2="297.71" gradientUnits="userSpaceOnUse"><stop offset="0" stop-color="#a7a5ee"/><stop offset="0.44" stop-color="#9d9ce8"/><stop offset="0.89" stop-color="#8988d5"/></linearGradient><linearGradient id="Безымянный_градиент_250-2" x1="434.45" y1="370.66" x2="623.89" y2="370.66" xlink:href="#Безымянный_градиент_250"/><linearGradient id="Безымянный_градиент_9" x1="479.31" y1="413.09" x2="569.42" y2="413.09" gradientUnits="userSpaceOnUse"><stop offset="0.09" stop-color="#d9d9d9"/><stop offset="1" stop-color="#e6e6e6"/></linearGradient><linearGradient id="Безымянный_градиент_157-6" x1="526.56" y1="352.79" x2="596.82" y2="435.6" xlink:href="#Безымянный_градиент_157"/><linearGradient id="Безымянный_градиент_263" x1="562.15" y1="266.22" x2="572.41" y2="266.22" gradientUnits="userSpaceOnUse"><stop offset="0" stop-color="#f0f2f5"/><stop offset="0.99" stop-color="#f5f7f8"/></linearGradient><linearGradient id="Безымянный_градиент_263-2" x1="651.5" y1="258.63" x2="685.7" y2="258.63" gradientTransform="translate(-82.31 14.65) rotate(4.19)" xlink:href="#Безымянный_градиент_263"/><linearGradient id="Безымянный_градиент_263-3" x1="473.23" y1="295.13" x2="483.11" y2="295.13" xlink:href="#Безымянный_градиент_263"/><linearGradient id="Безымянный_градиент_263-4" x1="466.42" y1="328.32" x2="489.79" y2="328.32" xlink:href="#Безымянный_градиент_263"/></defs><title>01</title><g id="Слой_3" data-name="Слой 3"><circle class="cls-2" cx="475.83" cy="287.22" r="230.72"/><path class="cls-3" d="M40.51,529.43S71.14,511.28,74,493.69,81.35,450,89.86,441.51s22.12-18.43,28.08-33.75S129.75,381.6,136,394.93c-4,14.18-30.25,97.63-30.25,97.63l52.47,17.86s-24.39,18.72-42.54,24.11-42,40.55-42,40.55S43.06,536.52,40.51,529.43Z"/><path class="cls-4" d="M207,424.81c.85-.28,29.78-17.3,33.18-10.78s-40.55,32.9-40.55,32.9Z"/><rect class="cls-5" x="125.69" y="356.16" width="76.85" height="152.16" rx="3.54" ry="3.54" transform="translate(144.11 -29.67) rotate(18.31)"/><rect class="cls-6" x="132.77" y="368.98" width="64.01" height="122.55" rx="8.07" ry="8.07" transform="translate(143.52 -29.98) rotate(18.31)"/><path class="cls-7" d="M198.23,451.45s12.93-2.85,11.23,7.36-5.54,11.91-5.54,11.91,5.52,4.89,0,10.42a31.72,31.72,0,0,1-11.69,7.44s9.71-.21,7.94,5.32-19.93,11.89-19.93,11.89Z"/><circle class="cls-6" cx="144.59" cy="497.38" r="5.96"/><path class="cls-5" d="M170.85,408.16v5.48a3.69,3.69,0,0,1-3.69,3.69h-2.08a4.26,4.26,0,0,0-4.26,4.26v19.68a4.26,4.26,0,0,0,4.26,4.26h2.08a3.69,3.69,0,0,1,3.69,3.69v5.67a3.69,3.69,0,0,1-3.69,3.69h-2.27a11.83,11.83,0,0,1-11.83-11.83V416.29a11.83,11.83,0,0,1,11.83-11.83h2.27A3.69,3.69,0,0,1,170.85,408.16Z"/><g class="cls-8"><path class="cls-6" d="M435.78,150H409.41V123.64a7.35,7.35,0,0,0-7.35-7.35H390.61a7.35,7.35,0,0,0-7.35,7.35V150H356.89a7.35,7.35,0,0,0-7.35,7.35V168.8a7.35,7.35,0,0,0,7.35,7.35h26.37v26.37a7.35,7.35,0,0,0,7.35,7.35h11.44a7.35,7.35,0,0,0,7.35-7.35V176.15h26.37a7.35,7.35,0,0,0,7.35-7.35V157.36A7.35,7.35,0,0,0,435.78,150Z"/><path class="cls-5" d="M575,588c23.46-91,2.12-157.79,2.12-157.79L468.6,440.32S450,607.93,446.22,626.26c-.3,1.46-.53,8.65-.68,11.8H500.8c2.95-30.23,10.83-102.79,10.83-102.79s1.12,61.69,5.68,102.79H571.4C569.7,626.64,569.54,609,575,588Z"/><path class="cls-9" d="M558.49,201.6l-.18.23-.19.24a.6.6,0,0,0-.05.19c0,.17-.06.43-.1.77s-.08.9-.11,1.46c0,.21,0,.41,0,.63,0,.39-.05.8-.07,1.21,0,.64-.06,1.3-.08,1.93s0,1.24-.05,1.78,0,.81,0,1.24c-.05,4.91-.12,11.29-.2,17.44-.07,8.9.2,16.55.25,19.52.11,7.2-21.48,54.23-36.64,54.49s-20.78-41.3-20.78-41.3l1.1-4.79,3.22-14.17,1.67-7.33a7.26,7.26,0,0,1-1.5-.43c-.65-.24-1.49-.58-2.46-1-6.66-3-17.94-11.13-21.89-24-3.66-11.87-.93-22.19-.82-29.17s-2.71-11.94-3.94-19.75c-1.57-10,2.49-22.54,7.44-25.46,22.23-13.26,62.34-.65,62.34-.65s20.17,4.06,14.71,32.05c1.38-.91-.45,5.15,1.45,4.78,4-.71-.38,1.74,1.93,3.55C568.5,179,568.5,188.52,558.49,201.6Z"/><path class="cls-10" d="M561.25,164.15c5.47-28-15.89-29.47-15.89-29.47s-40.1-12.61-62.33.65c-3.49,2.06-4.11,7.48-4.92,12.11,8.9-7,31.37-6.07,45.52-5.53,6.77.26,4.41,6.2,6.29,6.55,15-2.57,24.85,5.08,22,26.25l6-1.39C556.34,173.3,562.59,163.26,561.25,164.15Z"/><path class="cls-5" d="M543,112.19c-3.7-10.27-28.45-20.2-46.7-17.63-11.69,1.64-26.39,12.59-28.53,21.94-2.47,10.77,7.25,22,8.58,30.67,8.48-21.64,23.81,6.79,55.15-12,5.81-3.48,3.67,7.48,5.55,7.83,17-2.9,24.62,6.59,17.55,34.45,1.18-3.51,8.54-7.35,12.14,4.69C580.91,144.47,583.43,108.32,543,112.19Z"/><path class="cls-11" d="M558.49,201.6l-.18.23c-.05.08-.11.16-.18.24a.53.53,0,0,0-.06.19c0,.17-.06.43-.1.77s-.07.9-.11,1.46c0,.21,0,.41,0,.63,0,.39-.05.8-.07,1.21,0,.64-.05,1.3-.08,1.93s0,1.24-.05,1.78,0,.81,0,1.24c-12.11,20.07-32.39,27.5-52.61,29.2l1.21-5.35C533.45,230.82,547.28,211.46,558.49,201.6Z"/><path class="cls-12" d="M556.42,182.24s3.77-5.15,6.41-1.21-1.53,10.64-1.53,10.64Z"/><path class="cls-13" d="M471.29,349c-.84-15.13-17.68-24.92-28.42-37.67-12.66,25.57-25.59,51.78-25.59,51.78l-43.37-64.72h0a7.66,7.66,0,0,1,0-4.64c1.87-4.25,4.94-6.71,6.55-17.78s6.09-18,7.1-19.26-.65-5.54-4.61-3.11-6.73,6.63-8,13.8-5.62,2.7-7.85-1.72-4.88-21.9-5.69-28.5-2.51-11.61-5.5-10.57-1.51,14.56-.78,18.68,1.52,12,.21,12.51-4.19-13.35-6.23-19.23-3.82-13.37-7.58-12,.52,12,1.94,16.62,4.29,16.84,3.72,17.31-6.15-13.85-7.33-17.54-3.19-11.1-7.13-8.93,4,18.71,5.31,21.73,4.76,11.24,3.57,12.08-9.53-15.42-11.85-17.17-5.36-2.45-4.38,3,8.1,14.34,10.83,20.71,6.59,15.94,10.9,20.56-1.45,7.46,50,109.08c6.13,12.1,26.52,14.75,33.84,9.94S471.85,365.31,471.29,349Z"/><path class="cls-14" d="M445.82,297.91c1.27.11,1.14-.05-.06-.43C445.72,297.75,445.73,297.9,445.82,297.91Z"/><path class="cls-15" d="M622.64,335.27c2.24-26.15,1.9-49.63-4.52-58.8-6.57-9.39-45.51-28.24-58.06-35.22,0,2.86-39.06,44.17-39.06,44.17s-24.32-35.21-24.36-35.68S458.4,267.39,456.12,272c-4.87,9.78-18.5,35.26-21.67,49.29,13.33,10.63,34.17,28,34.17,28l-17.75,135.5s53.88,37.17,138.39-4.19C587.57,458.32,611.65,335.52,622.64,335.27Z"/><polygon class="cls-16" points="479.31 354.31 562.58 348.65 569.42 474.9 485.35 477.52 479.31 354.31"/><path class="cls-17" d="M586,342.22l-7.34,56.83s-52.52,3.94-53,3.66A69.52,69.52,0,0,1,512.84,393c-5.39-5.39-15.48-10.48-20-8.83a2.45,2.45,0,0,0-1.4,2.7c1.23,5.85,9.73,6.85,7.92,8.82A131.65,131.65,0,0,1,483.81,392c-3.93-1.21-7,2.64-6.1,5.3A2.36,2.36,0,0,1,476.6,400c-2.56,1.68-1.73,5.23-.42,6.45,1.66,1.54-5.18,3.85-1.38,7.69s-2.39,7,1.84,10.47,10.49,7.52,19.72,6.36c8.76-1.09,30.26,0,32.44.09,0,0,53.15,6.52,66.57,1.21,3.69-1.46,11.86-2,13.83-9.61,4.75-18.37,10.67-55,13.44-87.35C611.65,335.52,586,342.22,586,342.22Z"/><path class="cls-18" d="M563.7,285.5s8.09-20.53,7.07-38.56"/><path class="cls-19" d="M579.71,354s-22,8.07-27.36-32.43,10.2-38.07,17.36-34c7.87,4.48,20,43.3-13.4,69.55"/><circle class="cls-5" cx="579.71" cy="353.97" r="3.62" transform="translate(184.28 906.24) rotate(-85.81)"/><circle class="cls-5" cx="553.83" cy="358.56" r="3.62" transform="translate(155.73 884.68) rotate(-85.81)"/><path class="cls-20" d="M481.55,261.94S469,309.7,478.1,328.32"/><circle class="cls-21" cx="478.1" cy="328.32" r="11.68"/><circle class="cls-1" cx="475.83" cy="287.22" r="230.72"/></g></g></svg>