<svg xmlns="http://www.w3.org/2000/svg" xmlns:xlink="http://www.w3.org/1999/xlink" viewBox="0 0 736 574.85"><defs><style>.cls-1,.cls-19,.cls-20,.cls-21{fill:none;}.cls-2{fill:url(#Безымянный_градиент_263);}.cls-3{fill:url(#Безымянный_градиент_19);}.cls-4{fill:url(#Безымянный_градиент_123);}.cls-5{fill:url(#Безымянный_градиент_123-2);}.cls-6{fill:#1f1844;}.cls-7{fill:#fff;}.cls-8{fill:url(#Безымянный_градиент_123-3);}.cls-9{clip-path:url(#clip-path);}.cls-10{fill:url(#Безымянный_градиент_123-4);}.cls-11{fill:url(#Безымянный_градиент_122);}.cls-12{fill:url(#Безымянный_градиент_48);}.cls-13{fill:url(#Безымянный_градиент_123-5);}.cls-14{fill:url(#Безымянный_градиент_13);}.cls-15{fill:url(#Безымянный_градиент_250);}.cls-16{fill:url(#Безымянный_градиент_250-2);}.cls-17{fill:url(#Безымянный_градиент_9);}.cls-18{fill:url(#Безымянный_градиент_13-2);}.cls-19,.cls-21{stroke-linecap:round;}.cls-19,.cls-20,.cls-21{stroke-miterlimit:10;stroke-width:3.1px;}.cls-19{stroke:url(#Безымянный_градиент_263-2);}.cls-20{stroke:url(#Безымянный_градиент_263-3);}.cls-21{stroke:url(#Безымянный_градиент_263-4);}.cls-22{fill:url(#Безымянный_градиент_263-5);}</style><linearGradient id="Безымянный_градиент_263" x1="45.24" y1="289.21" x2="671.04" y2="289.21" gradientUnits="userSpaceOnUse"><stop offset="0" stop-color="#f0f2f5"/><stop offset="0.99" stop-color="#f5f7f8"/></linearGradient><linearGradient id="Безымянный_градиент_19" x1="245.11" y1="264.71" x2="706.56" y2="264.71" gradientUnits="userSpaceOnUse"><stop offset="0" stop-color="#fff"/><stop offset="0.16" stop-color="#f2f3f8"/><stop offset="0.71" stop-color="#cacde2"/><stop offset="0.99" stop-color="#bbbfd9"/></linearGradient><linearGradient id="Безымянный_градиент_123" x1="40.51" y1="459.49" x2="158.2" y2="459.49" gradientUnits="userSpaceOnUse"><stop offset="0" stop-color="#753200"/><stop offset="1" stop-color="#a04400"/></linearGradient><linearGradient id="Безымянный_градиент_123-2" x1="199.67" y1="407.23" x2="240.41" y2="407.23" xlink:href="#Безымянный_градиент_123"/><linearGradient id="Безымянный_градиент_123-3" x1="180.25" y1="455.93" x2="209.62" y2="455.93" xlink:href="#Безымянный_градиент_123"/><clipPath id="clip-path"><circle class="cls-1" cx="475.83" cy="264.71" r="230.72"/></clipPath><linearGradient id="Безымянный_градиент_123-4" x1="475.24" y1="193.49" x2="566.77" y2="193.49" xlink:href="#Безымянный_градиент_123"/><linearGradient id="Безымянный_градиент_122" x1="506.31" y1="449.45" x2="553.72" y2="418.81" gradientTransform="translate(68.43 -378.44) rotate(8.19)" gradientUnits="userSpaceOnUse"><stop offset="0" stop-color="#a04400" stop-opacity="0"/><stop offset="0.18" stop-color="#9a4100" stop-opacity="0.14"/><stop offset="0.52" stop-color="#8a3b00" stop-opacity="0.52"/><stop offset="0.9" stop-color="#753200"/></linearGradient><linearGradient id="Безымянный_градиент_48" x1="552.99" y1="181.26" x2="510.33" y2="223.14" gradientUnits="userSpaceOnUse"><stop offset="0" stop-color="#a04400"/><stop offset="1" stop-color="#753200"/></linearGradient><linearGradient id="Безымянный_градиент_123-5" x1="567.01" y1="463.03" x2="562.09" y2="467.86" gradientTransform="translate(68.43 -378.44) rotate(8.19)" xlink:href="#Безымянный_градиент_123"/><linearGradient id="Безымянный_градиент_13" x1="325.23" y1="298.75" x2="471.29" y2="298.75" gradientUnits="userSpaceOnUse"><stop offset="0" stop-color="#a04400"/><stop offset="0.3" stop-color="#9c4200"/><stop offset="0.62" stop-color="#8e3d00"/><stop offset="0.95" stop-color="#793300"/><stop offset="1" stop-color="#753200"/></linearGradient><linearGradient id="Безымянный_градиент_250" x1="445.73" y1="275.2" x2="446.71" y2="275.2" gradientUnits="userSpaceOnUse"><stop offset="0" stop-color="#a7a5ee"/><stop offset="0.44" stop-color="#9d9ce8"/><stop offset="0.89" stop-color="#8988d5"/></linearGradient><linearGradient id="Безымянный_градиент_250-2" x1="434.45" y1="348.15" x2="623.89" y2="348.15" xlink:href="#Безымянный_градиент_250"/><linearGradient id="Безымянный_градиент_9" x1="479.31" y1="390.58" x2="569.42" y2="390.58" gradientUnits="userSpaceOnUse"><stop offset="0.09" stop-color="#d9d9d9"/><stop offset="1" stop-color="#e6e6e6"/></linearGradient><linearGradient id="Безымянный_градиент_13-2" x1="526.56" y1="330.28" x2="596.82" y2="413.09" xlink:href="#Безымянный_градиент_13"/><linearGradient id="Безымянный_градиент_263-2" x1="562.15" y1="243.71" x2="572.41" y2="243.71" xlink:href="#Безымянный_градиент_263"/><linearGradient id="Безымянный_градиент_263-3" x1="600.74" y1="237.98" x2="634.93" y2="237.98" gradientTransform="translate(-33.19 16.45) rotate(4.19)" xlink:href="#Безымянный_градиент_263"/><linearGradient id="Безымянный_градиент_263-4" x1="473.23" y1="272.62" x2="483.11" y2="272.62" xlink:href="#Безымянный_градиент_263"/><linearGradient id="Безымянный_градиент_263-5" x1="466.42" y1="305.81" x2="489.79" y2="305.81" xlink:href="#Безымянный_градиент_263"/></defs><title>01</title><g id="Слой_1" data-name="Слой 1"><path class="cls-2" d="M654.15,300.48C599.14,188,441.78,23.27,237.31,22.85,24,22.4,13.61,183.56,84.89,287.06c58,84.16-89.43,151.3,30.78,225,121.66,74.56,440.81,42.6,504.81-15.4S677.92,349.07,654.15,300.48Z"/></g><g id="Слой_3" data-name="Слой 3"><circle class="cls-3" cx="475.83" cy="264.71" r="230.72"/><path class="cls-4" d="M40.51,506.92S71.14,488.77,74,471.19,81.35,427.51,89.86,419s22.12-18.43,28.08-33.75S129.75,359.1,136,372.42c-4,14.18-30.25,97.63-30.25,97.63l52.47,17.86S133.81,506.64,115.66,512s-42,40.55-42,40.55S43.06,514,40.51,506.92Z"/><path class="cls-5" d="M207,402.31c.85-.28,29.78-17.3,33.18-10.78s-40.55,32.9-40.55,32.9Z"/><rect class="cls-6" x="125.69" y="333.65" width="76.85" height="152.16" rx="3.54" ry="3.54" transform="translate(137.04 -30.81) rotate(18.31)"/><rect class="cls-7" x="132.77" y="346.47" width="64.01" height="122.55" rx="8.07" ry="8.07" transform="translate(136.44 -31.12) rotate(18.31)"/><path class="cls-8" d="M198.23,428.94s12.93-2.85,11.23,7.36-5.54,11.91-5.54,11.91,5.52,4.89,0,10.42a31.72,31.72,0,0,1-11.69,7.44s9.71-.21,7.94,5.32-19.93,11.89-19.93,11.89Z"/><circle class="cls-7" cx="144.59" cy="474.87" r="5.96"/><path class="cls-6" d="M170.85,385.65v5.48a3.69,3.69,0,0,1-3.69,3.69h-2.08a4.26,4.26,0,0,0-4.26,4.26v19.68a4.26,4.26,0,0,0,4.26,4.26h2.08a3.69,3.69,0,0,1,3.69,3.69v5.67a3.69,3.69,0,0,1-3.69,3.69h-2.27a11.83,11.83,0,0,1-11.83-11.83V393.79A11.83,11.83,0,0,1,164.89,382h2.27A3.69,3.69,0,0,1,170.85,385.65Z"/><g class="cls-9"><path class="cls-7" d="M435.78,127.5H409.41V101.13a7.35,7.35,0,0,0-7.35-7.35H390.61a7.35,7.35,0,0,0-7.35,7.35V127.5H356.89a7.35,7.35,0,0,0-7.35,7.35v11.44a7.35,7.35,0,0,0,7.35,7.35h26.37V180a7.35,7.35,0,0,0,7.35,7.35h11.44a7.35,7.35,0,0,0,7.35-7.35V153.65h26.37a7.35,7.35,0,0,0,7.35-7.35V134.85A7.35,7.35,0,0,0,435.78,127.5Z"/><path class="cls-6" d="M575,565.49c23.46-91,2.12-157.79,2.12-157.79L468.6,417.81S450,585.42,446.22,603.76c-.3,1.46-.53,8.65-.68,11.8H500.8c2.95-30.23,10.83-102.79,10.83-102.79s1.12,61.69,5.68,102.79H571.4C569.7,604.13,569.54,586.49,575,565.49Z"/><path class="cls-10" d="M558.49,179.09l-.18.23-.19.24a.6.6,0,0,0-.05.19c0,.17-.06.43-.1.77s-.08.9-.11,1.46c0,.21,0,.41,0,.63,0,.39-.05.8-.07,1.21,0,.64-.06,1.3-.08,1.93s0,1.24-.05,1.78,0,.81,0,1.24c-.05,4.91-.12,11.29-.2,17.44-.07,8.9.2,16.55.25,19.52.11,7.2-21.48,54.23-36.64,54.49s-20.78-41.3-20.78-41.3l1.1-4.79L504.54,220l1.67-7.33a7.26,7.26,0,0,1-1.5-.43c-.65-.24-1.49-.58-2.46-1-6.66-3-17.94-11.13-21.89-24-3.66-11.87-.93-22.19-.82-29.17s-2.71-11.94-3.94-19.75c-1.57-10,2.49-22.54,7.44-25.46,22.23-13.26,62.34-.65,62.34-.65s20.17,4.06,14.71,32.05c1.38-.91-.45,5.15,1.45,4.78,4-.71-.38,1.74,1.93,3.55C568.5,156.5,568.5,166,558.49,179.09Z"/><path class="cls-11" d="M561.25,141.64c5.47-28-15.89-29.47-15.89-29.47s-40.1-12.61-62.33.65c-3.49,2.06-4.11,7.48-4.92,12.11,8.9-7,31.37-6.07,45.52-5.53,6.77.26,4.41,6.2,6.29,6.55,15-2.57,24.85,5.08,22,26.25l6-1.39C556.34,150.79,562.59,140.76,561.25,141.64Z"/><path class="cls-6" d="M543,89.68c-3.7-10.27-28.45-20.2-46.7-17.63C484.63,73.69,469.93,84.64,467.79,94c-2.47,10.77,7.25,22,8.58,30.67,8.48-21.64,23.81,6.79,55.15-12,5.81-3.48,3.67,7.48,5.55,7.83,17-2.9,24.62,6.59,17.55,34.45,1.18-3.51,8.54-7.35,12.14,4.69C580.91,122,583.43,85.81,543,89.68Z"/><path class="cls-12" d="M558.49,179.09l-.18.23c-.05.08-.11.16-.18.24a.53.53,0,0,0-.06.19c0,.17-.06.43-.1.77s-.07.9-.11,1.46c0,.21,0,.41,0,.63,0,.39-.05.8-.07,1.21,0,.64-.05,1.3-.08,1.93s0,1.24-.05,1.78,0,.81,0,1.24C545.48,208.83,525.2,216.27,505,218l1.21-5.35C533.45,208.32,547.28,189,558.49,179.09Z"/><path class="cls-13" d="M556.42,159.73s3.77-5.15,6.41-1.21-1.53,10.64-1.53,10.64Z"/><path class="cls-14" d="M471.29,326.49c-.84-15.13-17.68-24.92-28.42-37.67-12.66,25.57-25.59,51.78-25.59,51.78l-43.37-64.72h0a7.66,7.66,0,0,1,0-4.64c1.87-4.25,4.94-6.71,6.55-17.78s6.09-18,7.1-19.26-.65-5.54-4.61-3.11-6.73,6.63-8,13.8-5.62,2.7-7.85-1.72-4.88-21.9-5.69-28.5-2.51-11.61-5.5-10.57-1.51,14.56-.78,18.68,1.52,12,.21,12.51-4.19-13.35-6.23-19.23-3.82-13.37-7.58-12,.52,12,1.94,16.62,4.29,16.84,3.72,17.31-6.15-13.85-7.33-17.54-3.19-11.1-7.13-8.93,4,18.71,5.31,21.73,4.76,11.24,3.57,12.08-9.53-15.42-11.85-17.17-5.36-2.45-4.38,3,8.1,14.34,10.83,20.71,6.59,15.94,10.9,20.56-1.45,7.46,50,109.08c6.13,12.1,26.52,14.75,33.84,9.94S471.85,342.8,471.29,326.49Z"/><path class="cls-15" d="M445.82,275.4c1.27.11,1.14-.05-.06-.43C445.72,275.24,445.73,275.4,445.82,275.4Z"/><path class="cls-16" d="M622.64,312.76c2.24-26.15,1.9-49.63-4.52-58.8-6.57-9.39-45.51-28.24-58.06-35.22,0,2.86-39.06,44.17-39.06,44.17s-24.32-35.21-24.36-35.68-38.25,17.66-40.53,22.24c-4.87,9.78-18.5,35.26-21.67,49.29,13.33,10.63,34.17,28,34.17,28l-17.75,135.5s53.88,37.17,138.39-4.19C587.57,435.82,611.65,313,622.64,312.76Z"/><polygon class="cls-17" points="479.31 331.8 562.58 326.15 569.42 452.39 485.35 455.01 479.31 331.8"/><path class="cls-18" d="M586,319.72l-7.34,56.83s-52.52,3.94-53,3.66a69.52,69.52,0,0,1-12.79-9.77c-5.39-5.39-15.48-10.48-20-8.83a2.45,2.45,0,0,0-1.4,2.7c1.23,5.85,9.73,6.85,7.92,8.82a131.65,131.65,0,0,1-15.57-3.63c-3.93-1.21-7,2.64-6.1,5.3a2.36,2.36,0,0,1-1.11,2.65c-2.56,1.68-1.73,5.23-.42,6.45,1.66,1.54-5.18,3.85-1.38,7.69s-2.39,7,1.84,10.47,10.49,7.52,19.72,6.36c8.76-1.09,30.26,0,32.44.09,0,0,53.15,6.52,66.57,1.21,3.69-1.46,11.86-2,13.83-9.61,4.75-18.37,10.67-55,13.44-87.35C611.65,313,586,319.72,586,319.72Z"/><path class="cls-19" d="M563.7,263s8.09-20.53,7.07-38.56"/><path class="cls-20" d="M579.71,331.46s-22,8.07-27.36-32.43,10.2-38.07,17.36-34c7.87,4.48,20,43.3-13.4,69.55"/><circle class="cls-6" cx="579.71" cy="331.46" r="3.62" transform="translate(206.73 885.37) rotate(-85.81)"/><circle class="cls-6" cx="553.83" cy="336.05" r="3.62" transform="translate(178.17 863.81) rotate(-85.81)"/><path class="cls-21" d="M481.55,239.44S469,287.19,478.1,305.81"/><circle class="cls-22" cx="478.1" cy="305.81" r="11.68"/><circle class="cls-1" cx="475.83" cy="264.71" r="230.72"/></g></g></svg>