<svg xmlns="http://www.w3.org/2000/svg" xmlns:xlink="http://www.w3.org/1999/xlink" viewBox="0 0 736 574.85"><defs><style>.cls-1,.cls-19,.cls-20,.cls-21{fill:none;}.cls-2{fill:url(#Безымянный_градиент_263);}.cls-3{fill:url(#Безымянный_градиент_19);}.cls-4{fill:url(#Безымянный_градиент_123);}.cls-5{fill:url(#Безымянный_градиент_123-2);}.cls-6{fill:#1f1844;}.cls-7{fill:#fff;}.cls-8{fill:url(#Безымянный_градиент_123-3);}.cls-9{clip-path:url(#clip-path);}.cls-10{fill:url(#Безымянный_градиент_123-4);}.cls-11{fill:url(#Безымянный_градиент_122);}.cls-12{fill:url(#Безымянный_градиент_48);}.cls-13{fill:url(#Безымянный_градиент_123-5);}.cls-14{fill:url(#Безымянный_градиент_13);}.cls-15{fill:url(#Безымянный_градиент_250);}.cls-16{fill:url(#Безымянный_градиент_250-2);}.cls-17{fill:url(#Безымянный_градиент_9);}.cls-18{fill:url(#Безымянный_градиент_13-2);}.cls-19,.cls-21{stroke-linecap:round;}.cls-19,.cls-20,.cls-21{stroke-miterlimit:10;stroke-width:3.1px;}.cls-19{stroke:url(#Безымянный_градиент_263-2);}.cls-20{stroke:url(#Безымянный_градиент_263-3);}.cls-21{stroke:url(#Безымянный_градиент_263-4);}.cls-22{fill:url(#Безымянный_градиент_263-5);}.cls-23{fill:url(#Безымянный_градиент_9-2);}</style><linearGradient id="Безымянный_градиент_263" x1="31.88" y1="289.21" x2="657.68" y2="289.21" gradientUnits="userSpaceOnUse"><stop offset="0" stop-color="#f0f2f5"/><stop offset="0.99" stop-color="#f5f7f8"/></linearGradient><linearGradient id="Безымянный_градиент_19" x1="231.75" y1="264.71" x2="693.2" y2="264.71" gradientUnits="userSpaceOnUse"><stop offset="0" stop-color="#fff"/><stop offset="0.16" stop-color="#f2f3f8"/><stop offset="0.71" stop-color="#cacde2"/><stop offset="0.99" stop-color="#bbbfd9"/></linearGradient><linearGradient id="Безымянный_градиент_123" x1="27.15" y1="459.49" x2="144.84" y2="459.49" gradientUnits="userSpaceOnUse"><stop offset="0" stop-color="#753200"/><stop offset="1" stop-color="#a04400"/></linearGradient><linearGradient id="Безымянный_градиент_123-2" x1="186.31" y1="407.23" x2="227.05" y2="407.23" xlink:href="#Безымянный_градиент_123"/><linearGradient id="Безымянный_градиент_123-3" x1="166.89" y1="455.93" x2="196.26" y2="455.93" xlink:href="#Безымянный_градиент_123"/><clipPath id="clip-path"><circle class="cls-1" cx="462.47" cy="264.71" r="230.72"/></clipPath><linearGradient id="Безымянный_градиент_123-4" x1="461.88" y1="193.49" x2="553.41" y2="193.49" xlink:href="#Безымянный_градиент_123"/><linearGradient id="Безымянный_градиент_122" x1="500.94" y1="561" x2="548.35" y2="530.36" gradientTransform="translate(76.28 -488.08) rotate(8.19)" gradientUnits="userSpaceOnUse"><stop offset="0" stop-color="#a04400" stop-opacity="0"/><stop offset="0.18" stop-color="#9a4100" stop-opacity="0.14"/><stop offset="0.52" stop-color="#8a3b00" stop-opacity="0.52"/><stop offset="0.9" stop-color="#753200"/></linearGradient><linearGradient id="Безымянный_градиент_48" x1="539.63" y1="181.26" x2="496.97" y2="223.14" gradientUnits="userSpaceOnUse"><stop offset="0" stop-color="#a04400"/><stop offset="1" stop-color="#753200"/></linearGradient><linearGradient id="Безымянный_градиент_123-5" x1="561.64" y1="574.58" x2="556.73" y2="579.41" gradientTransform="translate(76.28 -488.08) rotate(8.19)" xlink:href="#Безымянный_градиент_123"/><linearGradient id="Безымянный_градиент_13" x1="311.87" y1="298.75" x2="457.93" y2="298.75" gradientUnits="userSpaceOnUse"><stop offset="0" stop-color="#a04400"/><stop offset="0.3" stop-color="#9c4200"/><stop offset="0.62" stop-color="#8e3d00"/><stop offset="0.95" stop-color="#793300"/><stop offset="1" stop-color="#753200"/></linearGradient><linearGradient id="Безымянный_градиент_250" x1="432.37" y1="275.2" x2="433.35" y2="275.2" gradientUnits="userSpaceOnUse"><stop offset="0" stop-color="#a7a5ee"/><stop offset="0.44" stop-color="#9d9ce8"/><stop offset="0.89" stop-color="#8988d5"/></linearGradient><linearGradient id="Безымянный_градиент_250-2" x1="421.09" y1="348.15" x2="610.53" y2="348.15" xlink:href="#Безымянный_градиент_250"/><linearGradient id="Безымянный_градиент_9" x1="465.95" y1="390.58" x2="556.06" y2="390.58" gradientUnits="userSpaceOnUse"><stop offset="0.09" stop-color="#d9d9d9"/><stop offset="1" stop-color="#e6e6e6"/></linearGradient><linearGradient id="Безымянный_градиент_13-2" x1="513.2" y1="330.28" x2="583.46" y2="413.09" xlink:href="#Безымянный_градиент_13"/><linearGradient id="Безымянный_градиент_263-2" x1="548.79" y1="243.71" x2="559.05" y2="243.71" xlink:href="#Безымянный_градиент_263"/><linearGradient id="Безымянный_градиент_263-3" x1="589.48" y1="295.22" x2="623.67" y2="295.22" gradientTransform="translate(-31.13 -39.81) rotate(4.19)" xlink:href="#Безымянный_градиент_263"/><linearGradient id="Безымянный_градиент_263-4" x1="459.87" y1="272.62" x2="469.75" y2="272.62" xlink:href="#Безымянный_градиент_263"/><linearGradient id="Безымянный_градиент_263-5" x1="453.06" y1="305.81" x2="476.43" y2="305.81" xlink:href="#Безымянный_градиент_263"/><linearGradient id="Безымянный_градиент_9-2" x1="463.8" y1="184.08" x2="542.55" y2="184.08" xlink:href="#Безымянный_градиент_9"/></defs><title>01</title><g id="Слой_1" data-name="Слой 1"><path class="cls-2" d="M640.79,300.48C585.78,188,428.42,23.27,224,22.85,10.59,22.4.25,183.56,71.53,287.06c58,84.16-89.43,151.3,30.78,225,121.66,74.56,440.81,42.6,504.81-15.4S664.56,349.07,640.79,300.48Z"/></g><g id="Слой_3" data-name="Слой 3"><circle class="cls-3" cx="462.47" cy="264.71" r="230.72"/><path class="cls-4" d="M27.15,506.92s30.63-18.15,33.46-35.73S68,427.51,76.5,419s22.12-18.43,28.08-33.75,11.82-26.16,18.05-12.83c-4,14.18-30.25,97.63-30.25,97.63l52.47,17.86S120.45,506.64,102.3,512s-42,40.55-42,40.55S29.7,514,27.15,506.92Z"/><path class="cls-5" d="M193.68,402.31c.85-.28,29.78-17.3,33.18-10.78s-40.55,32.9-40.55,32.9Z"/><rect class="cls-6" x="112.33" y="333.65" width="76.85" height="152.16" rx="3.54" ry="3.54" transform="translate(136.36 -26.62) rotate(18.31)"/><rect class="cls-7" x="119.41" y="346.47" width="64.01" height="122.55" rx="8.07" ry="8.07" transform="translate(135.77 -26.92) rotate(18.31)"/><path class="cls-8" d="M184.87,428.94s12.93-2.85,11.23,7.36-5.54,11.91-5.54,11.91,5.52,4.89,0,10.42a31.72,31.72,0,0,1-11.69,7.44s9.71-.21,7.94,5.32-19.93,11.89-19.93,11.89Z"/><circle class="cls-7" cx="131.23" cy="474.87" r="5.96"/><path class="cls-6" d="M157.49,385.65v5.48a3.69,3.69,0,0,1-3.69,3.69h-2.08a4.26,4.26,0,0,0-4.26,4.26v19.68a4.26,4.26,0,0,0,4.26,4.26h2.08a3.69,3.69,0,0,1,3.69,3.69v5.67a3.69,3.69,0,0,1-3.69,3.69h-2.27a11.83,11.83,0,0,1-11.83-11.83V393.79A11.83,11.83,0,0,1,151.53,382h2.27A3.69,3.69,0,0,1,157.49,385.65Z"/><g class="cls-9"><path class="cls-7" d="M422.42,127.5H396V101.13a7.35,7.35,0,0,0-7.35-7.35H377.25a7.35,7.35,0,0,0-7.35,7.35V127.5H343.53a7.35,7.35,0,0,0-7.35,7.35v11.44a7.35,7.35,0,0,0,7.35,7.35H369.9V180a7.35,7.35,0,0,0,7.35,7.35h11.44A7.35,7.35,0,0,0,396,180V153.65h26.37a7.35,7.35,0,0,0,7.35-7.35V134.85A7.35,7.35,0,0,0,422.42,127.5Z"/><path class="cls-6" d="M561.59,565.49c23.46-91,2.12-157.79,2.12-157.79L455.24,417.81s-18.56,167.6-22.38,185.94c-.3,1.46-.53,8.65-.68,11.8h55.26c2.95-30.23,10.83-102.79,10.83-102.79s1.12,61.69,5.68,102.79H558C556.34,604.13,556.18,586.49,561.59,565.49Z"/><path class="cls-10" d="M545.13,179.09l-.18.23-.19.24a.6.6,0,0,0-.05.19c0,.17-.06.43-.1.77s-.08.9-.11,1.46c0,.21,0,.41,0,.63,0,.39-.05.8-.07,1.21,0,.64-.06,1.3-.08,1.93s0,1.24-.05,1.78,0,.81,0,1.24c-.05,4.91-.12,11.29-.2,17.44-.07,8.9.2,16.55.25,19.52.11,7.2-21.48,54.23-36.64,54.49s-20.78-41.3-20.78-41.3l1.1-4.79L491.18,220l1.67-7.33a7.26,7.26,0,0,1-1.5-.43c-.65-.24-1.49-.58-2.46-1-6.66-3-17.94-11.13-21.89-24-3.66-11.87-.93-22.19-.82-29.17s-2.71-11.94-3.94-19.75c-1.57-10,2.49-22.54,7.44-25.46,22.23-13.26,62.34-.65,62.34-.65s20.17,4.06,14.71,32.05c1.38-.91-.45,5.15,1.45,4.78,4-.71-.38,1.74,1.93,3.55C555.14,156.5,555.14,166,545.13,179.09Z"/><path class="cls-11" d="M547.89,141.64c5.47-28-15.89-29.47-15.89-29.47s-40.1-12.61-62.33.65c-3.49,2.06-4.11,7.48-4.92,12.11,8.9-7,31.37-6.07,45.52-5.53,6.77.26,4.41,6.2,6.29,6.55,15-2.57,24.85,5.08,22,26.25l6-1.39C543,150.79,549.23,140.76,547.89,141.64Z"/><path class="cls-6" d="M556.82,92.86a12.63,12.63,0,0,0-11.4-9.9c-22.94-1.68-45.32-1.41-60.12-1.41-15.65,0-28.92,10.28-25.73,25.6,1.65,7.94,3,14.72,3.44,17.51,8.48-21.64,67.81-9.24,67.81-9.24l1.28,8s16.23,3.71,9.16,31.57c1.18-3.51,8.54-7.35,12.14,4.69C563.33,133.2,559.8,106.46,556.82,92.86Z"/><path class="cls-12" d="M545.13,179.09l-.18.23c-.05.08-.11.16-.18.24a.53.53,0,0,0-.06.19c0,.17-.06.43-.1.77s-.07.9-.11,1.46c0,.21,0,.41,0,.63,0,.39-.05.8-.07,1.21,0,.64-.05,1.3-.08,1.93s0,1.24-.05,1.78,0,.81,0,1.24c-12.11,20.07-32.39,27.5-52.61,29.2l1.21-5.35C520.09,208.32,533.92,189,545.13,179.09Z"/><path class="cls-13" d="M543.06,159.73s3.77-5.15,6.41-1.21-1.53,10.64-1.53,10.64Z"/><path class="cls-14" d="M457.93,326.49c-.84-15.13-17.68-24.92-28.42-37.67-12.66,25.57-25.59,51.78-25.59,51.78l-43.37-64.72h0a7.66,7.66,0,0,1,0-4.64c1.87-4.25,4.94-6.71,6.55-17.78s6.09-18,7.1-19.26-.65-5.54-4.61-3.11-6.73,6.63-8,13.8-5.62,2.7-7.85-1.72-4.88-21.9-5.69-28.5-2.51-11.61-5.5-10.57-1.51,14.56-.78,18.68,1.52,12,.21,12.51-4.19-13.35-6.23-19.23-3.82-13.37-7.58-12,.52,12,1.94,16.62,4.29,16.84,3.72,17.31-6.15-13.85-7.33-17.54-3.19-11.1-7.13-8.93,4,18.71,5.31,21.73,4.76,11.24,3.57,12.08-9.53-15.42-11.85-17.17-5.36-2.45-4.38,3,8.1,14.34,10.83,20.71,6.59,15.94,10.9,20.56-1.45,7.46,50,109.08c6.13,12.1,26.52,14.75,33.84,9.94S458.49,342.8,457.93,326.49Z"/><path class="cls-15" d="M432.46,275.4c1.27.11,1.14-.05-.06-.43C432.36,275.24,432.37,275.4,432.46,275.4Z"/><path class="cls-16" d="M609.28,312.76c2.24-26.15,1.9-49.63-4.52-58.8-6.57-9.39-45.51-28.24-58.06-35.22,0,2.86-39.06,44.17-39.06,44.17s-24.32-35.21-24.36-35.68S445,244.88,442.76,249.46c-4.87,9.78-18.5,35.26-21.67,49.29,13.33,10.63,34.17,28,34.17,28l-17.75,135.5S491.39,499.38,575.9,458C574.21,435.82,598.29,313,609.28,312.76Z"/><polygon class="cls-17" points="465.95 331.8 549.23 326.15 556.06 452.39 471.99 455.01 465.95 331.8"/><path class="cls-18" d="M572.6,319.72l-7.34,56.83s-52.52,3.94-53,3.66a69.52,69.52,0,0,1-12.79-9.77c-5.39-5.39-15.48-10.48-20-8.83a2.45,2.45,0,0,0-1.4,2.7c1.23,5.85,9.73,6.85,7.92,8.82a131.65,131.65,0,0,1-15.57-3.63c-3.93-1.21-7,2.64-6.1,5.3a2.36,2.36,0,0,1-1.11,2.65c-2.56,1.68-1.73,5.23-.42,6.45,1.66,1.54-5.18,3.85-1.38,7.69s-2.39,7,1.84,10.47,10.49,7.52,19.72,6.36c8.76-1.09,30.26,0,32.44.09,0,0,53.15,6.52,66.57,1.21,3.69-1.46,11.86-2,13.83-9.61,4.75-18.37,10.67-55,13.44-87.35C598.29,313,572.6,319.72,572.6,319.72Z"/><path class="cls-19" d="M550.34,263s8.09-20.53,7.07-38.56"/><path class="cls-20" d="M566.35,331.46s-22,8.07-27.36-32.43,10.2-38.07,17.36-34c7.87,4.48,20,43.3-13.4,69.55"/><circle class="cls-6" cx="566.35" cy="331.46" r="3.62" transform="translate(194.35 872.05) rotate(-85.81)"/><circle class="cls-6" cx="540.47" cy="336.05" r="3.62" transform="translate(165.79 850.49) rotate(-85.81)"/><path class="cls-21" d="M468.19,239.44s-12.59,47.76-3.45,66.38"/><circle class="cls-22" cx="464.74" cy="305.81" r="11.68"/><circle class="cls-1" cx="462.47" cy="264.71" r="230.72"/><path class="cls-23" d="M485.26,158c9.25.25,25.5,13.5,34.5,11s21.49-14,21.49-14-9.51,14,0,27.77-36,32.08-49.62,30.36-24.94-20.44-27.06-32.87.77-17.6.77-17.6S476,157.71,485.26,158Z"/></g></g></svg>