<svg xmlns="http://www.w3.org/2000/svg" xmlns:xlink="http://www.w3.org/1999/xlink" viewBox="0 0 736 574.85"><defs><style>.cls-1,.cls-17,.cls-21,.cls-23,.cls-24{fill:none;}.cls-2{fill:url(#Безымянный_градиент_263);}.cls-3{fill:url(#Безымянный_градиент_19);}.cls-4{clip-path:url(#clip-path);}.cls-5{fill:#fff;}.cls-6{fill:url(#Безымянный_градиент_13);}.cls-7{fill:#1f1844;}.cls-8{fill:url(#Безымянный_градиент_123);}.cls-9{fill:url(#Безымянный_градиент_122);}.cls-10{fill:url(#Безымянный_градиент_48);}.cls-11{fill:url(#Безымянный_градиент_123-2);}.cls-12{fill:url(#Безымянный_градиент_9);}.cls-13{fill:url(#Безымянный_градиент_250);}.cls-14{fill:url(#Безымянный_градиент_250-2);}.cls-15{fill:url(#Безымянный_градиент_250-3);}.cls-16{fill:url(#Безымянный_градиент_250-4);}.cls-17{stroke:#fff;stroke-width:1.21px;}.cls-17,.cls-21,.cls-23,.cls-24{stroke-miterlimit:10;}.cls-18{fill:url(#Безымянный_градиент_9-2);}.cls-19{fill:url(#Безымянный_градиент_16);}.cls-20{fill:url(#Безымянный_градиент_13-2);}.cls-21,.cls-24{stroke-linecap:round;}.cls-21,.cls-23,.cls-24{stroke-width:3.1px;}.cls-21{stroke:url(#Безымянный_градиент_263-2);}.cls-22{fill:url(#Безымянный_градиент_3);}.cls-23{stroke:url(#Безымянный_градиент_263-3);}.cls-24{stroke:url(#Безымянный_градиент_263-4);}.cls-25{fill:url(#Безымянный_градиент_263-5);}.cls-26{fill:url(#Безымянный_градиент_250-5);}.cls-27{fill:url(#Безымянный_градиент_9-3);}.cls-28{fill:url(#Безымянный_градиент_157);}.cls-29{fill:url(#Безымянный_градиент_157-2);}.cls-30{fill:url(#Безымянный_градиент_157-3);}</style><linearGradient id="Безымянный_градиент_263" x1="39.71" y1="296.7" x2="665.51" y2="296.7" gradientUnits="userSpaceOnUse"><stop offset="0" stop-color="#f0f2f5"/><stop offset="0.99" stop-color="#f5f7f8"/></linearGradient><linearGradient id="Безымянный_градиент_19" x1="239.58" y1="272.21" x2="701.02" y2="272.21" gradientUnits="userSpaceOnUse"><stop offset="0" stop-color="#fff"/><stop offset="0.16" stop-color="#f2f3f8"/><stop offset="0.71" stop-color="#cacde2"/><stop offset="0.99" stop-color="#bbbfd9"/></linearGradient><clipPath id="clip-path"><circle class="cls-1" cx="470.3" cy="272.21" r="230.72"/></clipPath><linearGradient id="Безымянный_градиент_13" x1="180.54" y1="823.75" x2="242.92" y2="823.75" gradientTransform="translate(-151.81 -445.37) rotate(-21.28)" gradientUnits="userSpaceOnUse"><stop offset="0" stop-color="#a04400"/><stop offset="0.3" stop-color="#9c4200"/><stop offset="0.62" stop-color="#8e3d00"/><stop offset="0.95" stop-color="#793300"/><stop offset="1" stop-color="#753200"/></linearGradient><linearGradient id="Безымянный_градиент_123" x1="469.7" y1="190.2" x2="561.23" y2="190.2" gradientUnits="userSpaceOnUse"><stop offset="0" stop-color="#753200"/><stop offset="1" stop-color="#a04400"/></linearGradient><linearGradient id="Безымянный_градиент_122" x1="396.6" y1="349.18" x2="444.01" y2="318.54" gradientTransform="translate(157.87 -254.58) rotate(8.19)" gradientUnits="userSpaceOnUse"><stop offset="0" stop-color="#a04400" stop-opacity="0"/><stop offset="0.18" stop-color="#9a4100" stop-opacity="0.14"/><stop offset="0.52" stop-color="#8a3b00" stop-opacity="0.52"/><stop offset="0.9" stop-color="#753200"/></linearGradient><linearGradient id="Безымянный_градиент_48" x1="547.46" y1="188.76" x2="504.8" y2="230.63" gradientUnits="userSpaceOnUse"><stop offset="0" stop-color="#a04400"/><stop offset="1" stop-color="#753200"/></linearGradient><linearGradient id="Безымянный_градиент_123-2" x1="456.42" y1="361.4" x2="451.5" y2="366.23" gradientTransform="translate(157.87 -254.58) rotate(8.19)" xlink:href="#Безымянный_градиент_123"/><linearGradient id="Безымянный_градиент_9" x1="482.42" y1="336.63" x2="547.83" y2="336.63" gradientUnits="userSpaceOnUse"><stop offset="0.09" stop-color="#d9d9d9"/><stop offset="1" stop-color="#e6e6e6"/></linearGradient><linearGradient id="Безымянный_градиент_250" x1="440.2" y1="282.7" x2="441.18" y2="282.7" gradientUnits="userSpaceOnUse"><stop offset="0" stop-color="#a7a5ee"/><stop offset="0.44" stop-color="#9d9ce8"/><stop offset="0.89" stop-color="#8988d5"/></linearGradient><linearGradient id="Безымянный_градиент_250-2" x1="498.3" y1="416.61" x2="618.36" y2="416.61" xlink:href="#Безымянный_градиент_250"/><linearGradient id="Безымянный_градиент_250-3" x1="331.86" y1="420.32" x2="498.3" y2="420.32" xlink:href="#Безымянный_градиент_250"/><linearGradient id="Безымянный_градиент_250-4" x1="509.78" y1="357.7" x2="570.62" y2="357.7" xlink:href="#Безымянный_градиент_250"/><linearGradient id="Безымянный_градиент_9-2" x1="473.78" y1="398.08" x2="563.88" y2="398.08" xlink:href="#Безымянный_градиент_9"/><linearGradient id="Безымянный_градиент_16" x1="520.86" y1="399.61" x2="565.15" y2="399.61" gradientUnits="userSpaceOnUse"><stop offset="0.11" stop-color="#8988d5"/><stop offset="1" stop-color="#9695e1"/></linearGradient><linearGradient id="Безымянный_градиент_13-2" x1="476.23" y1="375.79" x2="515.85" y2="422.48" gradientTransform="matrix(1, 0, 0, 1, 0, 0)" xlink:href="#Безымянный_градиент_13"/><linearGradient id="Безымянный_градиент_263-2" x1="556.62" y1="249.79" x2="566.79" y2="249.79" xlink:href="#Безымянный_градиент_263"/><linearGradient id="Безымянный_градиент_3" x1="517.3" y1="278.54" x2="572.05" y2="278.54" xlink:href="#Безымянный_градиент_250"/><linearGradient id="Безымянный_градиент_263-3" x1="543.38" y1="187.74" x2="577.58" y2="187.74" gradientTransform="translate(14.8 78.25) rotate(4.19)" xlink:href="#Безымянный_градиент_263"/><linearGradient id="Безымянный_градиент_263-4" x1="467.69" y1="280.12" x2="477.57" y2="280.12" xlink:href="#Безымянный_градиент_263"/><linearGradient id="Безымянный_градиент_263-5" x1="460.89" y1="313.31" x2="484.25" y2="313.31" xlink:href="#Безымянный_градиент_263"/><linearGradient id="Безымянный_градиент_250-5" x1="468.27" y1="274.43" x2="499.45" y2="274.43" xlink:href="#Безымянный_градиент_250"/><linearGradient id="Безымянный_градиент_9-3" x1="471.62" y1="191.58" x2="550.37" y2="191.58" xlink:href="#Безымянный_градиент_9"/><linearGradient id="Безымянный_градиент_157" x1="34.98" y1="466.99" x2="152.67" y2="466.99" gradientUnits="userSpaceOnUse"><stop offset="0" stop-color="#a96e46"/><stop offset="1" stop-color="#ffd0b9"/></linearGradient><linearGradient id="Безымянный_градиент_157-2" x1="194.14" y1="414.73" x2="234.88" y2="414.73" xlink:href="#Безымянный_градиент_157"/><linearGradient id="Безымянный_градиент_157-3" x1="174.72" y1="463.43" x2="204.08" y2="463.43" xlink:href="#Безымянный_градиент_157"/></defs><title>01</title><g id="Слой_1" data-name="Слой 1"><path class="cls-2" d="M648.62,308C593.6,195.5,436.25,30.77,231.78,30.35,18.42,29.9,8.07,191.06,79.35,294.56c58,84.16-89.43,151.3,30.78,225,121.66,74.56,440.81,42.6,504.81-15.4S672.39,356.57,648.62,308Z"/></g><g id="Слой_3" data-name="Слой 3"><circle class="cls-3" cx="470.3" cy="272.21" r="230.72"/><g class="cls-4"><path class="cls-5" d="M430.24,135H403.87V108.63a7.35,7.35,0,0,0-7.35-7.35H385.08a7.35,7.35,0,0,0-7.35,7.35V135H351.36a7.35,7.35,0,0,0-7.35,7.35v11.44a7.35,7.35,0,0,0,7.35,7.35h26.37v26.37a7.35,7.35,0,0,0,7.35,7.35h11.44a7.35,7.35,0,0,0,7.35-7.35V161.14h26.37a7.35,7.35,0,0,0,7.35-7.35V142.35A7.35,7.35,0,0,0,430.24,135Z"/><path class="cls-6" d="M362.52,290S356,279.19,358,274.6s5.33-7.24,7.06-19.19,6.57-19.4,7.66-20.78-.7-6-5-3.36-7.27,7.16-8.6,14.89-6.06,2.92-8.47-1.85-5.26-23.62-6.14-30.76-2.71-12.53-5.94-11.41-1.62,15.71-.84,20.16,1.64,12.94.23,13.49-4.52-14.4-6.72-20.75-4.12-14.42-8.18-13,.56,13,2.09,17.93,4.63,18.17,4,18.68-6.63-14.94-7.91-18.92-3.44-12-7.69-9.64,4.33,20.18,5.73,23.44,5.13,12.13,3.85,13-10.28-16.64-12.78-18.52-5.78-2.64-4.73,3.2,8.74,15.48,11.69,22.34,7.11,17.2,11.76,22.18,9.37,16.73,11.15,22C344.82,295.09,362.52,290,362.52,290Z"/><path class="cls-7" d="M569.42,573c23.46-91,2.12-157.79,2.12-157.79L463.06,425.31s-18.56,167.6-22.38,185.94c-.3,1.46-.53,8.65-.68,11.8h55.26c2.95-30.23,10.83-102.79,10.83-102.79s1.12,61.69,5.68,102.79h54.09C564.17,611.63,564,594,569.42,573Z"/><path class="cls-7" d="M429.22,159.59c6,7.49,4.49,6.5,7,10.48s5.5,5.5,8.84,5.06h0c3.34-.4,3.14,6.43,8.11,8.42s-4.24,5.66.77,10.16,12.5-2,8.5,7.5,6.22,7.31,12.54,14.3,14.65,5,13.41,15,15.72,12.49,25.2,12a44,44,0,0,0,5.13-.6c9.35-1.53,21.33-5.3,26.34-4.88,6,.49,17-5.5,20-13.5s10.48-9,15-12.47,3-10,1-21,6-9,12-12.49-1.5-9.48-7-20,7-8.49,7-17-7.49-8.47-13.48-10.48-3.49-14-9-23.47-19.47-.49-19-11.49-3-9.48-10.48-12-4.8.09-12.69-8.81c-9.89-11.16-19.69,3.1-35.17,2.6s-11.54-2.27-20.53.72-13.5,17-16.49,22-15.47,5-18,9-1.5,15.47-5.5,20.46-9,6-3.49,11S423.23,152.1,429.22,159.59Z"/><path class="cls-8" d="M553,186.59l-.18.23-.19.24a.6.6,0,0,0-.05.19c0,.17-.06.43-.1.77s-.08.9-.11,1.46c0,.21,0,.41,0,.63,0,.39-.05.8-.07,1.21,0,.64-.06,1.3-.08,1.93s0,1.24-.05,1.78,0,.81,0,1.24c-.05,4.91-.12,11.29-.2,17.44-.07,8.9.2,16.55.25,19.52.11,7.2-11.46,32.66-26.63,32.92s-30.8-19.73-30.8-19.73l1.1-4.79L499,227.45l1.67-7.33a7.26,7.26,0,0,1-1.5-.43c-.65-.24-1.49-.58-2.46-1-6.66-3-17.94-11.13-21.89-24-3.66-11.87-.93-22.19-.82-29.17s-2.71-11.94-3.94-19.75c-1.57-10,2.49-22.54,7.44-25.46,22.23-13.26,62.34-.65,62.34-.65s20.17,4.06,14.71,32.05c1.38-.91-.45,5.15,1.45,4.78,4-.71-.38,1.74,1.93,3.55C563,164,563,173.51,553,186.59Z"/><path class="cls-9" d="M555.72,149.14c5.47-28-15.89-29.47-15.89-29.47s-40.1-12.61-62.33.65c-3.49,2.06-4.11,7.48-4.92,12.11,8.9-7,31.37-6.07,45.52-5.53,6.77.26,4.41,6.2,6.29,6.55,15-2.57,26.81,9.12,23.93,30.3l4-5.43C550.81,158.29,557.05,148.25,555.72,149.14Z"/><path class="cls-10" d="M553,186.59l-.18.23c-.05.08-.11.16-.18.24a.53.53,0,0,0-.06.19c0,.17-.06.43-.1.77s-.07.9-.11,1.46c0,.21,0,.41,0,.63,0,.39-.05.8-.07,1.21,0,.64-.05,1.3-.08,1.93s0,1.24-.05,1.78,0,.81,0,1.24c-12.11,20.07-32.39,27.5-52.61,29.2l1.21-5.35C527.91,215.82,541.74,196.46,553,186.59Z"/><path class="cls-11" d="M550.89,167.23s3.77-5.15,6.41-1.21-1.53,10.64-1.53,10.64Z"/><path class="cls-12" d="M499,243.24l-.72-.72c-.73,14.87.1,29.74-.89,44.62-4.26,37.32-9.42,74.81-14.75,113.2-1.69,16,6.39,29.73,6.39,29.73l17.7.69s13.5-22.55,17.67-44.28c8-50.22,13.37-96.73,23.41-143.84C547.49,242.59,521.32,265.64,499,243.24Z"/><path class="cls-13" d="M440.28,282.9c1.27.11,1.14-.05-.06-.43C440.18,282.74,440.2,282.89,440.28,282.9Z"/><path class="cls-14" d="M612.59,261.46c-6.57-9.39-48.2-33.19-60.75-40.17,0,2.86,10.56,15.21-13.19,26.51-3.51,16.49-28.87,144.62-28.87,144.62s-3.6-.16-6.52-.12c-2.49,6.34-5,26.19-5,26.19l8.74,1.39s-1.39,172.74-4,189.24c13.64.35,33.84,2.75,51.79,2.81,26.84.1,44.68-13.22,43.9-34-2.06-54.87-12.07-147.32-10-159.63.27-1.64,14-5.84,15-10.67C610.86,374.05,627,282,612.59,261.46Z"/><path class="cls-15" d="M494.21,400.15c5.33-38.38,3.36-142.76,4.09-157.63-4-4-7.15-7.31-7.19-7.79S452.87,252.38,450.59,257c-14.83,29.76-45.77,92.48-45.77,92.48l-38.19-64.57a10,10,0,0,0-11.22-4.55l-17.49,4.79a8.22,8.22,0,0,0-5.12,11.72l50.28,96.66a31.37,31.37,0,0,0,36.37,14.42l35-24.6L420.7,578.14c-2.4,11.45,7.67,20.86,17.35,23.53a167.13,167.13,0,0,0,18.84,4.26C456.68,589.89,492.52,416.19,494.21,400.15Z"/><polygon class="cls-16" points="570.62 321.78 565.15 379.71 509.78 393.62 553.22 380.29 570.62 321.78"/><path class="cls-17" d="M570.62,452.1h9.8s5.8,54.66-20.4,55-23.91-36.16-23.91-36.16"/><polygon class="cls-18" points="473.78 339.3 557.05 333.64 563.88 459.89 479.81 462.51 473.78 339.3"/><polygon class="cls-19" points="561.38 380.42 520.86 385.98 523.47 418.43 565.15 418.8 561.38 380.42"/><path class="cls-20" d="M521.26,389.59a2.41,2.41,0,0,0-1.17-1.87,69.52,69.52,0,0,1-12.79-9.77c-5.39-5.39-15.48-10.48-20-8.83a2.45,2.45,0,0,0-1.4,2.7c1.23,5.85,9.73,6.85,7.92,8.82A131.65,131.65,0,0,1,478.28,377c-3.93-1.21-7,2.64-6.1,5.3a2.36,2.36,0,0,1-1.11,2.65c-2.56,1.68-1.73,5.23-.42,6.45,1.66,1.54-5.18,3.85-1.38,7.69s-2.39,7,1.84,10.47,10.49,7.52,19.72,6.36,32.63.1,32.63.1Z"/><path class="cls-21" d="M558.17,270.49s8-23.36,7-41.39"/><path class="cls-22" d="M545.28,257.8l26.77-6.9-20.42-30.27s-.57,23.09-13,27.17c-1.83,11.69-15,64-21.34,88.65l3.82-.37L552.75,277Z"/><path class="cls-23" d="M574.17,339s-22,8.07-27.36-32.43,10.2-38.07,17.36-34c7.87,4.48,20,43.3-13.4,69.55"/><circle class="cls-7" cx="574.17" cy="338.96" r="3.62" transform="translate(194.12 886.81) rotate(-85.81)"/><circle class="cls-7" cx="548.29" cy="343.55" r="3.62" transform="translate(165.57 865.25) rotate(-85.81)"/><path class="cls-24" d="M476,246.93s-12.59,47.76-3.45,66.38"/><circle class="cls-25" cx="472.57" cy="313.31" r="11.68"/><path class="cls-26" d="M497.86,323.39l-18.58-40.45L487,267.7,468.27,250a288.48,288.48,0,0,1,26.92-22.6,44.61,44.61,0,0,0,4.26-1.93v24.49C496.63,282.4,497.86,323.39,497.86,323.39Z"/></g><path class="cls-27" d="M493.09,165.46c9.25.25,25.5,13.5,34.5,11s21.49-14,21.49-14-9.51,14,0,27.77-36,32.08-49.62,30.36-24.94-20.44-27.06-32.87.77-17.6.77-17.6S483.84,165.21,493.09,165.46Z"/><path class="cls-28" d="M35,514.42s30.63-18.15,33.46-35.73S75.81,435,84.32,426.5s22.12-18.43,28.08-33.75,11.82-26.16,18.05-12.83c-4,14.18-30.25,97.63-30.25,97.63l52.47,17.86s-24.39,18.72-42.54,24.11-42,40.55-42,40.55S37.53,521.51,35,514.42Z"/><path class="cls-29" d="M201.51,409.81c.85-.28,29.78-17.3,33.18-10.78s-40.55,32.9-40.55,32.9Z"/><rect class="cls-7" x="120.16" y="341.15" width="76.85" height="152.16" rx="3.54" ry="3.54" transform="matrix(0.95, 0.31, -0.31, 0.95, 139.11, -28.7)"/><rect class="cls-5" x="127.23" y="353.97" width="64.01" height="122.55" rx="8.07" ry="8.07" transform="translate(138.52 -29) rotate(18.31)"/><path class="cls-30" d="M192.7,436.44s12.93-2.85,11.23,7.36-5.54,11.91-5.54,11.91,5.52,4.89,0,10.42a31.72,31.72,0,0,1-11.69,7.44s9.71-.21,7.94,5.32-19.93,11.89-19.93,11.89Z"/><circle class="cls-5" cx="139.06" cy="482.37" r="5.96"/><path class="cls-7" d="M165.31,393.15v5.48a3.69,3.69,0,0,1-3.69,3.69h-2.08a4.26,4.26,0,0,0-4.26,4.26v19.68a4.26,4.26,0,0,0,4.26,4.26h2.08a3.69,3.69,0,0,1,3.69,3.69v5.67a3.69,3.69,0,0,1-3.69,3.69h-2.27a11.83,11.83,0,0,1-11.83-11.83V401.28a11.83,11.83,0,0,1,11.83-11.83h2.27A3.69,3.69,0,0,1,165.31,393.15Z"/></g><g id="Слой_4" data-name="Слой 4"><path class="cls-7" d="M530.88,99.48c-4.33-9.62-28.92-17.36-46.31-13.54-11.14,2.45-24.68,9.29-30.07,22.63-4.53,11.2-11.87,38.36,17.13,53.89C478.19,141,506.28,153,522.54,123c3.12-5.76,4.09,6.94,5.93,7.14,16.15-4,25.37,5,20.61,32.36.7-2.79,7.87-3.12,9.63-.62,1,1.36,6.27,6.91-4.06,22a4.8,4.8,0,0,0,1.18.48c4.83,1.37,8-1.65,9.22-6.51,2.3-9.26,2.5-11.67,5.08-29.34C573.43,125.8,560.64,94.3,530.88,99.48Z"/></g></svg>