<svg xmlns="http://www.w3.org/2000/svg" xmlns:xlink="http://www.w3.org/1999/xlink" viewBox="0 0 736 574.85"><defs><style>.cls-1,.cls-16,.cls-20,.cls-22,.cls-23{fill:none;}.cls-2{fill:url(#Безымянный_градиент_263);}.cls-3{fill:url(#Безымянный_градиент_19);}.cls-4{clip-path:url(#clip-path);}.cls-5{fill:#fff;}.cls-6{fill:url(#Безымянный_градиент_13);}.cls-7{fill:#1f1844;}.cls-8{fill:url(#Безымянный_градиент_123);}.cls-9{fill:url(#Безымянный_градиент_48);}.cls-10{fill:url(#Безымянный_градиент_123-2);}.cls-11{fill:url(#Безымянный_градиент_9);}.cls-12{fill:url(#Безымянный_градиент_250);}.cls-13{fill:url(#Безымянный_градиент_250-2);}.cls-14{fill:url(#Безымянный_градиент_250-3);}.cls-15{fill:url(#Безымянный_градиент_250-4);}.cls-16{stroke:#fff;stroke-width:1.21px;}.cls-16,.cls-20,.cls-22,.cls-23{stroke-miterlimit:10;}.cls-17{fill:url(#Безымянный_градиент_9-2);}.cls-18{fill:url(#Безымянный_градиент_16);}.cls-19{fill:url(#Безымянный_градиент_13-2);}.cls-20,.cls-23{stroke-linecap:round;}.cls-20,.cls-22,.cls-23{stroke-width:3.1px;}.cls-20{stroke:url(#Безымянный_градиент_263-2);}.cls-21{fill:url(#Безымянный_градиент_3);}.cls-22{stroke:url(#Безымянный_градиент_263-3);}.cls-23{stroke:url(#Безымянный_градиент_263-4);}.cls-24{fill:url(#Безымянный_градиент_263-5);}.cls-25{fill:url(#Безымянный_градиент_250-5);}.cls-26{fill:url(#Безымянный_градиент_9-3);}.cls-27{fill:url(#Безымянный_градиент_64);}.cls-28{fill:url(#Безымянный_градиент_64-2);}.cls-29{fill:url(#Безымянный_градиент_64-3);}</style><linearGradient id="Безымянный_градиент_263" x1="58.46" y1="296.7" x2="684.25" y2="296.7" gradientUnits="userSpaceOnUse"><stop offset="0" stop-color="#f0f2f5"/><stop offset="0.99" stop-color="#f5f7f8"/></linearGradient><linearGradient id="Безымянный_градиент_19" x1="258.33" y1="272.21" x2="719.77" y2="272.21" gradientUnits="userSpaceOnUse"><stop offset="0" stop-color="#fff"/><stop offset="0.16" stop-color="#f2f3f8"/><stop offset="0.71" stop-color="#cacde2"/><stop offset="0.99" stop-color="#bbbfd9"/></linearGradient><clipPath id="clip-path"><circle class="cls-1" cx="489.05" cy="272.21" r="230.72"/></clipPath><linearGradient id="Безымянный_градиент_13" x1="308.16" y1="244.24" x2="370.53" y2="244.24" gradientTransform="translate(-41.66 140.95) rotate(-21.28)" gradientUnits="userSpaceOnUse"><stop offset="0" stop-color="#a04400"/><stop offset="0.3" stop-color="#9c4200"/><stop offset="0.62" stop-color="#8e3d00"/><stop offset="0.95" stop-color="#793300"/><stop offset="1" stop-color="#753200"/></linearGradient><linearGradient id="Безымянный_градиент_123" x1="488.2" y1="183.32" x2="580.31" y2="183.32" gradientUnits="userSpaceOnUse"><stop offset="0" stop-color="#753200"/><stop offset="1" stop-color="#a04400"/></linearGradient><linearGradient id="Безымянный_градиент_48" x1="566.21" y1="188.76" x2="523.55" y2="230.63" gradientUnits="userSpaceOnUse"><stop offset="0" stop-color="#a04400"/><stop offset="1" stop-color="#753200"/></linearGradient><linearGradient id="Безымянный_градиент_123-2" x1="491.47" y1="589.01" x2="486.56" y2="593.84" gradientTransform="translate(174.37 -484.87) rotate(8.19)" xlink:href="#Безымянный_градиент_123"/><linearGradient id="Безымянный_градиент_9" x1="501.17" y1="336.63" x2="566.58" y2="336.63" gradientUnits="userSpaceOnUse"><stop offset="0.09" stop-color="#d9d9d9"/><stop offset="1" stop-color="#e6e6e6"/></linearGradient><linearGradient id="Безымянный_градиент_250" x1="458.95" y1="282.7" x2="459.93" y2="282.7" gradientUnits="userSpaceOnUse"><stop offset="0" stop-color="#a7a5ee"/><stop offset="0.44" stop-color="#9d9ce8"/><stop offset="0.89" stop-color="#8988d5"/></linearGradient><linearGradient id="Безымянный_градиент_250-2" x1="517.05" y1="416.61" x2="637.11" y2="416.61" xlink:href="#Безымянный_градиент_250"/><linearGradient id="Безымянный_градиент_250-3" x1="350.61" y1="420.32" x2="517.05" y2="420.32" xlink:href="#Безымянный_градиент_250"/><linearGradient id="Безымянный_градиент_250-4" x1="528.53" y1="357.7" x2="589.37" y2="357.7" xlink:href="#Безымянный_градиент_250"/><linearGradient id="Безымянный_градиент_9-2" x1="492.53" y1="398.08" x2="582.63" y2="398.08" xlink:href="#Безымянный_градиент_9"/><linearGradient id="Безымянный_градиент_16" x1="539.61" y1="399.61" x2="583.89" y2="399.61" gradientUnits="userSpaceOnUse"><stop offset="0.11" stop-color="#8988d5"/><stop offset="1" stop-color="#9695e1"/></linearGradient><linearGradient id="Безымянный_градиент_13-2" x1="494.98" y1="375.79" x2="534.6" y2="422.48" gradientTransform="matrix(1, 0, 0, 1, 0, 0)" xlink:href="#Безымянный_градиент_13"/><linearGradient id="Безымянный_градиент_263-2" x1="575.36" y1="249.79" x2="585.54" y2="249.79" xlink:href="#Безымянный_градиент_263"/><linearGradient id="Безымянный_градиент_3" x1="536.05" y1="278.54" x2="590.8" y2="278.54" xlink:href="#Безымянный_градиент_250"/><linearGradient id="Безымянный_градиент_263-3" x1="566.41" y1="304.54" x2="600.6" y2="304.54" gradientTransform="translate(19.13 -39.92) rotate(4.19)" xlink:href="#Безымянный_градиент_263"/><linearGradient id="Безымянный_градиент_263-4" x1="486.44" y1="280.12" x2="496.32" y2="280.12" xlink:href="#Безымянный_градиент_263"/><linearGradient id="Безымянный_градиент_263-5" x1="479.64" y1="313.31" x2="503" y2="313.31" xlink:href="#Безымянный_градиент_263"/><linearGradient id="Безымянный_градиент_250-5" x1="487.01" y1="274.43" x2="518.2" y2="274.43" xlink:href="#Безымянный_градиент_250"/><linearGradient id="Безымянный_градиент_9-3" x1="490.37" y1="191.58" x2="569.12" y2="191.58" xlink:href="#Безымянный_градиент_9"/><linearGradient id="Безымянный_градиент_64" x1="53.72" y1="466.99" x2="171.42" y2="466.99" gradientUnits="userSpaceOnUse"><stop offset="0" stop-color="#592600"/><stop offset="1" stop-color="#773200"/></linearGradient><linearGradient id="Безымянный_градиент_64-2" x1="212.88" y1="414.73" x2="253.63" y2="414.73" xlink:href="#Безымянный_градиент_64"/><linearGradient id="Безымянный_градиент_64-3" x1="193.47" y1="463.43" x2="222.83" y2="463.43" xlink:href="#Безымянный_градиент_64"/></defs><title>01</title><g id="Слой_1" data-name="Слой 1"><path class="cls-2" d="M667.37,308C612.35,195.5,455,30.77,250.53,30.35,37.17,29.9,26.82,191.06,98.1,294.56c58,84.16-89.43,151.3,30.78,225,121.66,74.56,440.81,42.6,504.81-15.4S691.14,356.57,667.37,308Z"/></g><g id="Слой_3" data-name="Слой 3"><circle class="cls-3" cx="489.05" cy="272.21" r="230.72"/><g class="cls-4"><path class="cls-5" d="M449,135H422.62V108.63a7.35,7.35,0,0,0-7.35-7.35H403.83a7.35,7.35,0,0,0-7.35,7.35V135H370.1a7.35,7.35,0,0,0-7.35,7.35v11.44a7.35,7.35,0,0,0,7.35,7.35h26.37v26.37a7.35,7.35,0,0,0,7.35,7.35h11.44a7.35,7.35,0,0,0,7.35-7.35V161.14H449a7.35,7.35,0,0,0,7.35-7.35V142.35A7.35,7.35,0,0,0,449,135Z"/><path class="cls-6" d="M381.27,290s-6.51-10.78-4.49-15.37,5.33-7.24,7.06-19.19,6.57-19.4,7.66-20.78-.7-6-5-3.36-7.27,7.16-8.6,14.89-6.06,2.92-8.47-1.85-5.26-23.62-6.14-30.76-2.71-12.53-5.94-11.41-1.62,15.71-.84,20.16,1.64,12.94.23,13.49-4.52-14.4-6.72-20.75-4.12-14.42-8.18-13,.56,13,2.09,17.93,4.63,18.17,4,18.68-6.63-14.94-7.91-18.92-3.44-12-7.69-9.64,4.33,20.18,5.73,23.44,5.13,12.13,3.85,13-10.28-16.64-12.78-18.52-5.78-2.64-4.73,3.2,8.74,15.48,11.69,22.34,7.11,17.2,11.76,22.18,9.37,16.73,11.15,22C363.57,295.09,381.27,290,381.27,290Z"/><path class="cls-7" d="M588.17,573c23.46-91,2.12-157.79,2.12-157.79L481.81,425.31s-18.56,167.6-22.38,185.94c-.3,1.46-.53,8.65-.68,11.8H514c2.95-30.23,10.83-102.79,10.83-102.79S526,582,530.53,623.06h54.09C582.92,611.63,582.75,594,588.17,573Z"/><path class="cls-8" d="M571.71,186.59l-.18.23-.19.24a.6.6,0,0,0-.05.19c0,.17-.06.43-.1.77s-.08.9-.11,1.46c0,.21,0,.41,0,.63,0,.39-.05.8-.07,1.21,0,.64-.06,1.3-.08,1.93s0,1.24-.05,1.78,0,.81,0,1.24c-.05,4.91-.12,11.29-.2,17.44-.07,8.9.2,16.55.25,19.52.11,7.2-11.46,32.66-26.63,32.92s-30.8-19.73-30.8-19.73l1.1-4.79,3.22-14.17,1.67-7.33a7.26,7.26,0,0,1-1.5-.43c-.65-.24-1.49-.58-2.46-1-6.66-3-17.94-11.13-21.89-24-3.66-11.87-.93-22.19-.82-29.17s-2.71-11.94-3.94-19.75c-1.57-10-.46-29.15,8.37-35.82,20.66-15.59,55.78-8.47,66-2.83,25.67,14.17,4.5,48.83,13.48,52.93C582.49,162.72,581.71,173.51,571.71,186.59Z"/><path class="cls-9" d="M571.71,186.59l-.18.23c-.05.08-.11.16-.18.24a.53.53,0,0,0-.06.19c0,.17-.06.43-.1.77s-.07.9-.11,1.46c0,.21,0,.41,0,.63,0,.39-.05.8-.07,1.21,0,.64-.05,1.3-.08,1.93s0,1.24-.05,1.78,0,.81,0,1.24c-12.11,20.07-32.39,27.5-52.61,29.2l1.21-5.35C546.66,215.82,560.49,196.46,571.71,186.59Z"/><path class="cls-10" d="M569.63,167.23s3.77-5.15,6.41-1.21-1.53,10.64-1.53,10.64Z"/><path class="cls-11" d="M517.77,243.24l-.72-.72c-.73,14.87.1,29.74-.89,44.62-4.26,37.32-9.42,74.81-14.75,113.2-1.69,16,6.39,29.73,6.39,29.73l17.7.69s13.5-22.55,17.67-44.28c8-50.22,13.37-96.73,23.41-143.84C566.24,242.59,540.07,265.64,517.77,243.24Z"/><path class="cls-12" d="M459,282.9c1.27.11,1.14-.05-.06-.43C458.93,282.74,458.95,282.89,459,282.9Z"/><path class="cls-13" d="M631.33,261.46c-6.57-9.39-48.2-33.19-60.75-40.17,0,2.86,10.56,15.21-13.19,26.51-3.51,16.49-28.87,144.62-28.87,144.62s-3.6-.16-6.52-.12c-2.49,6.34-5,26.19-5,26.19l8.74,1.39s-1.39,172.74-4,189.24c13.64.35,33.84,2.75,51.79,2.81,26.84.1,44.68-13.22,43.9-34-2.06-54.87-12.07-147.32-10-159.63.27-1.64,14-5.84,15-10.67C629.61,374.05,645.71,282,631.33,261.46Z"/><path class="cls-14" d="M513,400.15c5.33-38.38,3.36-142.76,4.09-157.63-4-4-7.15-7.31-7.19-7.79S471.62,252.38,469.33,257c-14.83,29.76-45.77,92.48-45.77,92.48l-38.19-64.57a10,10,0,0,0-11.22-4.55l-17.49,4.79a8.22,8.22,0,0,0-5.12,11.72l50.28,96.66a31.37,31.37,0,0,0,36.37,14.42l35-24.6L439.45,578.14c-2.4,11.45,7.67,20.86,17.35,23.53a167.13,167.13,0,0,0,18.84,4.26C475.43,589.89,511.27,416.19,513,400.15Z"/><polygon class="cls-15" points="589.37 321.78 583.89 379.71 528.53 393.62 571.97 380.29 589.37 321.78"/><path class="cls-16" d="M589.37,452.1h9.8s5.8,54.66-20.4,55-23.91-36.16-23.91-36.16"/><polygon class="cls-17" points="492.53 339.3 575.8 333.64 582.63 459.89 498.56 462.51 492.53 339.3"/><polygon class="cls-18" points="580.13 380.42 539.61 385.98 542.21 418.43 583.89 418.8 580.13 380.42"/><path class="cls-19" d="M540,389.59a2.41,2.41,0,0,0-1.17-1.87,69.52,69.52,0,0,1-12.79-9.77c-5.39-5.39-15.48-10.48-20-8.83a2.45,2.45,0,0,0-1.4,2.7c1.23,5.85,9.73,6.85,7.92,8.82A131.65,131.65,0,0,1,497,377c-3.93-1.21-7,2.64-6.1,5.3a2.36,2.36,0,0,1-1.11,2.65c-2.56,1.68-1.73,5.23-.42,6.45,1.66,1.54-5.18,3.85-1.38,7.69s-2.39,7,1.84,10.47,10.49,7.52,19.72,6.36,32.63.1,32.63.1Z"/><path class="cls-20" d="M576.92,270.49s8-23.36,7-41.39"/><path class="cls-21" d="M564,257.8l26.77-6.9-20.42-30.27s-.57,23.09-13,27.17c-1.83,11.69-15,64-21.34,88.65l3.82-.37L571.5,277Z"/><path class="cls-22" d="M592.92,339s-22,8.07-27.36-32.43,10.2-38.07,17.36-34c7.87,4.48,20,43.3-13.4,69.55"/><circle class="cls-7" cx="592.92" cy="338.96" r="3.62" transform="translate(211.5 905.5) rotate(-85.81)"/><circle class="cls-7" cx="567.04" cy="343.55" r="3.62" transform="translate(182.94 883.94) rotate(-85.81)"/><path class="cls-23" d="M494.77,246.93s-12.59,47.76-3.45,66.38"/><circle class="cls-24" cx="491.32" cy="313.31" r="11.68"/><path class="cls-25" d="M516.61,323.39,498,282.94l7.74-15.24L487,250a288.48,288.48,0,0,1,26.92-22.6,44.61,44.61,0,0,0,4.26-1.93v24.49C515.38,282.4,516.61,323.39,516.61,323.39Z"/></g><path class="cls-26" d="M511.83,165.46c9.25.25,25.5,13.5,34.5,11s21.49-14,21.49-14-9.51,14,0,27.77-36,32.08-49.62,30.36-24.94-20.44-27.06-32.87.77-17.6.77-17.6S502.58,165.21,511.83,165.46Z"/><path class="cls-27" d="M53.72,514.42s30.63-18.15,33.46-35.73S94.56,435,103.07,426.5s22.12-18.43,28.08-33.75S143,366.59,149.2,379.92c-4,14.18-30.25,97.63-30.25,97.63l52.47,17.86S147,514.13,128.88,519.52s-42,40.55-42,40.55S56.28,521.51,53.72,514.42Z"/><path class="cls-28" d="M220.26,409.81c.85-.28,29.78-17.3,33.18-10.78s-40.55,32.9-40.55,32.9Z"/><rect class="cls-7" x="138.9" y="341.15" width="76.85" height="152.16" rx="3.54" ry="3.54" transform="translate(140.06 -34.59) rotate(18.31)"/><rect class="cls-5" x="145.98" y="353.97" width="64.01" height="122.55" rx="8.07" ry="8.07" transform="translate(139.47 -34.89) rotate(18.31)"/><path class="cls-29" d="M211.45,436.44s12.93-2.85,11.23,7.36-5.54,11.91-5.54,11.91,5.52,4.89,0,10.42a31.72,31.72,0,0,1-11.69,7.44s9.71-.21,7.94,5.32-19.93,11.89-19.93,11.89Z"/><circle class="cls-5" cx="157.81" cy="482.37" r="5.96"/><path class="cls-7" d="M184.06,393.15v5.48a3.69,3.69,0,0,1-3.69,3.69h-2.08a4.26,4.26,0,0,0-4.26,4.26v19.68a4.26,4.26,0,0,0,4.26,4.26h2.08a3.69,3.69,0,0,1,3.69,3.69v5.67a3.69,3.69,0,0,1-3.69,3.69H178.1a11.83,11.83,0,0,1-11.83-11.83V401.28a11.83,11.83,0,0,1,11.83-11.83h2.27A3.69,3.69,0,0,1,184.06,393.15Z"/></g></svg>