<svg xmlns="http://www.w3.org/2000/svg" xmlns:xlink="http://www.w3.org/1999/xlink" viewBox="0 0 736 574.85"><defs><style>.cls-1{fill:url(#Безымянный_градиент_263);}.cls-2{fill:#1f1844;}.cls-3{fill:url(#Безымянный_градиент_9);}.cls-4{fill:url(#Безымянный_градиент_271);}.cls-10,.cls-29,.cls-31,.cls-41,.cls-5{fill:none;stroke-miterlimit:10;}.cls-10,.cls-5{stroke:#fff;}.cls-5{stroke-width:2px;}.cls-6{fill:url(#Безымянный_градиент_250);}.cls-7{fill:url(#Безымянный_градиент_14);}.cls-8{fill:url(#Безымянный_градиент_123);}.cls-9{fill:url(#Безымянный_градиент_9-2);}.cls-10{stroke-width:1.17px;}.cls-11{fill:url(#Безымянный_градиент_139);}.cls-12{fill:url(#Безымянный_градиент_263-2);}.cls-13{fill:url(#Безымянный_градиент_157);}.cls-14{fill:url(#Безымянный_градиент_9-3);}.cls-15{fill:url(#Безымянный_градиент_157-2);}.cls-16{fill:url(#Безымянный_градиент_8);}.cls-17{fill:url(#Безымянный_градиент_162);}.cls-18{fill:url(#Безымянный_градиент_12);}.cls-19{fill:url(#Безымянный_градиент_250-2);}.cls-20{fill:url(#Безымянный_градиент_250-3);}.cls-21{fill:url(#Безымянный_градиент_250-4);}.cls-22{fill:url(#Безымянный_градиент_250-5);}.cls-23{fill:url(#Безымянный_градиент_3);}.cls-24{fill:url(#Безымянный_градиент_250-6);}.cls-25{fill:url(#Безымянный_градиент_9-4);}.cls-26{fill:url(#Безымянный_градиент_16);}.cls-27{fill:url(#Безымянный_градиент_157-3);}.cls-28{fill:url(#Безымянный_градиент_5);}.cls-29{stroke-width:0.9px;stroke:url(#Безымянный_градиент_2);}.cls-30{fill:url(#Безымянный_градиент_17);}.cls-31{stroke-width:2.59px;stroke:url(#Безымянный_градиент_164);}.cls-32{fill:url(#Безымянный_градиент_5-2);}.cls-33{fill:url(#Безымянный_градиент_5-3);}.cls-34{fill:url(#Безымянный_градиент_5-4);}.cls-35{fill:url(#Безымянный_градиент_18);}.cls-36{fill:url(#Безымянный_градиент_33);}.cls-37{fill:url(#Безымянный_градиент_33-2);}.cls-38{fill:url(#Безымянный_градиент_33-3);}.cls-39{fill:url(#Безымянный_градиент_17-2);}.cls-40{fill:url(#Безымянный_градиент_33-4);}.cls-41{stroke-width:1.51px;stroke:url(#Безымянный_градиент_33-5);}.cls-42{fill:url(#Безымянный_градиент_33-6);}.cls-43{fill:url(#Безымянный_градиент_17-3);}.cls-44{fill:url(#Безымянный_градиент_33-7);}.cls-45{fill:url(#Безымянный_градиент_11);}.cls-46{fill:url(#Безымянный_градиент_144);}.cls-47{fill:url(#Безымянный_градиент_17-4);}.cls-48{fill:url(#Безымянный_градиент_123-2);}.cls-49{fill:url(#Безымянный_градиент_87);}.cls-50{fill:url(#Безымянный_градиент_123-3);}.cls-51{fill:url(#Безымянный_градиент_123-4);}.cls-52{fill:url(#Безымянный_градиент_123-5);}</style><linearGradient id="Безымянный_градиент_263" x1="14.56" y1="267.07" x2="660.31" y2="267.07" gradientUnits="userSpaceOnUse"><stop offset="0" stop-color="#f0f2f5"/><stop offset="0.99" stop-color="#f5f7f8"/></linearGradient><linearGradient id="Безымянный_градиент_9" x1="76.72" y1="401.95" x2="332.96" y2="401.95" gradientUnits="userSpaceOnUse"><stop offset="0.09" stop-color="#d9d9d9"/><stop offset="1" stop-color="#e6e6e6"/></linearGradient><linearGradient id="Безымянный_градиент_271" x1="86.15" y1="347.15" x2="202.43" y2="306.17" gradientUnits="userSpaceOnUse"><stop offset="0.01" stop-color="#bbbfd9"/><stop offset="0.29" stop-color="#cacde2"/><stop offset="0.84" stop-color="#f2f3f8"/><stop offset="1" stop-color="#fff"/></linearGradient><linearGradient id="Безымянный_градиент_250" x1="121.23" y1="476.39" x2="417.21" y2="476.39" gradientUnits="userSpaceOnUse"><stop offset="0" stop-color="#a7a5ee"/><stop offset="0.44" stop-color="#9d9ce8"/><stop offset="0.89" stop-color="#8988d5"/></linearGradient><linearGradient id="Безымянный_градиент_14" x1="212.68" y1="368.08" x2="244.4" y2="359.62" gradientUnits="userSpaceOnUse"><stop offset="0" stop-color="#9c9c9c"/><stop offset="0.58" stop-color="#c6c6c6"/><stop offset="0.91" stop-color="#d9d9d9"/></linearGradient><linearGradient id="Безымянный_градиент_123" x1="348.65" y1="789.97" x2="418.57" y2="789.97" gradientTransform="translate(244.68 -381.29) rotate(22.79)" gradientUnits="userSpaceOnUse"><stop offset="0" stop-color="#753200"/><stop offset="1" stop-color="#a04400"/></linearGradient><linearGradient id="Безымянный_градиент_9-2" x1="115.23" y1="398.67" x2="267.97" y2="398.67" xlink:href="#Безымянный_градиент_9"/><linearGradient id="Безымянный_градиент_139" x1="73.34" y1="464.05" x2="178.93" y2="464.05" gradientUnits="userSpaceOnUse"><stop offset="0" stop-color="#201f4f"/><stop offset="0.26" stop-color="#27275a"/><stop offset="0.72" stop-color="#393c76"/><stop offset="1" stop-color="#464b8b"/></linearGradient><linearGradient id="Безымянный_градиент_263-2" x1="269.62" y1="177.59" x2="250.11" y2="29.58" xlink:href="#Безымянный_градиент_263"/><linearGradient id="Безымянный_градиент_157" x1="345.35" y1="358.8" x2="280.68" y2="379.47" gradientUnits="userSpaceOnUse"><stop offset="0" stop-color="#a96e46"/><stop offset="1" stop-color="#ffd0b9"/></linearGradient><linearGradient id="Безымянный_градиент_9-3" x1="482.76" y1="273.26" x2="535.65" y2="273.26" xlink:href="#Безымянный_градиент_9"/><linearGradient id="Безымянный_градиент_157-2" x1="451.11" y1="136.34" x2="549.98" y2="136.34" xlink:href="#Безымянный_градиент_157"/><linearGradient id="Безымянный_градиент_8" x1="399.07" y1="327.32" x2="441.11" y2="300.15" gradientTransform="translate(55.06 -192.58) rotate(-4.83)" gradientUnits="userSpaceOnUse"><stop offset="0" stop-color="#ffd0b9" stop-opacity="0"/><stop offset="1" stop-color="#a96e46"/></linearGradient><linearGradient id="Безымянный_градиент_162" x1="454.27" y1="363.48" x2="410.98" y2="405.96" gradientTransform="translate(55.06 -192.58) rotate(-4.83)" gradientUnits="userSpaceOnUse"><stop offset="0" stop-color="#a96e46"/><stop offset="1" stop-color="#ffd0b9" stop-opacity="0"/></linearGradient><linearGradient id="Безымянный_градиент_12" x1="457.53" y1="340.02" x2="452.78" y2="344.68" xlink:href="#Безымянный_градиент_162"/><linearGradient id="Безымянный_градиент_250-2" x1="441.94" y1="221.7" x2="442.89" y2="221.7" xlink:href="#Безымянный_градиент_250"/><linearGradient id="Безымянный_градиент_250-3" x1="498.11" y1="348.39" x2="611.08" y2="348.39" xlink:href="#Безымянный_градиент_250"/><linearGradient id="Безымянный_градиент_250-4" x1="341.48" y1="354.74" x2="498.11" y2="354.74" xlink:href="#Безымянный_градиент_250"/><linearGradient id="Безымянный_градиент_250-5" x1="469.07" y1="214.63" x2="499.22" y2="214.63" xlink:href="#Безымянный_градиент_250"/><linearGradient id="Безымянный_градиент_3" x1="919.33" y1="221.51" x2="968.81" y2="221.51" gradientTransform="translate(-406.08)" xlink:href="#Безымянный_градиент_250"/><linearGradient id="Безымянный_градиент_250-6" x1="509.21" y1="294.2" x2="568.02" y2="294.2" xlink:href="#Безымянный_градиент_250"/><linearGradient id="Безымянный_градиент_9-4" x1="474.4" y1="333.24" x2="561.51" y2="333.24" xlink:href="#Безымянный_градиент_9"/><linearGradient id="Безымянный_градиент_16" x1="519.92" y1="334.72" x2="562.73" y2="334.72" gradientUnits="userSpaceOnUse"><stop offset="0.11" stop-color="#8988d5"/><stop offset="1" stop-color="#9695e1"/></linearGradient><linearGradient id="Безымянный_градиент_157-3" x1="524.02" y1="330.89" x2="470.02" y2="326.22" xlink:href="#Безымянный_градиент_157"/><linearGradient id="Безымянный_градиент_5" x1="659" y1="489.51" x2="635.33" y2="309.9" gradientUnits="userSpaceOnUse"><stop offset="0" stop-color="#1f1844"/><stop offset="0.99" stop-color="#3d3c99"/></linearGradient><linearGradient id="Безымянный_градиент_2" x1="663.11" y1="484.16" x2="642.19" y2="325.36" gradientUnits="userSpaceOnUse"><stop offset="0" stop-color="#3f3d9e"/><stop offset="0.99" stop-color="#423e9f"/></linearGradient><linearGradient id="Безымянный_градиент_17" x1="675.57" y1="352.4" x2="763.65" y2="332.16" gradientTransform="translate(-103.18 351.42) rotate(-20.88)" gradientUnits="userSpaceOnUse"><stop offset="0.01" stop-color="#bbc0d9"/><stop offset="1" stop-color="#d6dbf8"/></linearGradient><linearGradient id="Безымянный_градиент_164" x1="680.67" y1="310.84" x2="748.22" y2="323.21" gradientTransform="matrix(0.86, -0.52, 0.52, 0.86, -81.34, 538.46)" gradientUnits="userSpaceOnUse"><stop offset="0" stop-color="#bac6d8"/><stop offset="0.99" stop-color="#d6dbf8"/></linearGradient><linearGradient id="Безымянный_градиент_5-2" x1="662.63" y1="426.1" x2="635.56" y2="399.5" xlink:href="#Безымянный_градиент_5"/><linearGradient id="Безымянный_градиент_5-3" x1="661.77" y1="448.46" x2="630.27" y2="437.49" xlink:href="#Безымянный_градиент_5"/><linearGradient id="Безымянный_градиент_5-4" x1="667" y1="469.42" x2="629.98" y2="465" xlink:href="#Безымянный_градиент_5"/><linearGradient id="Безымянный_градиент_18" x1="672.38" y1="367.72" x2="663.72" y2="403.11" gradientUnits="userSpaceOnUse"><stop offset="0.01" stop-color="#3d3c99"/><stop offset="1" stop-color="#1f1844"/></linearGradient><linearGradient id="Безымянный_градиент_33" x1="579.21" y1="356" x2="590.65" y2="356" gradientTransform="translate(-15.09 579.57) rotate(-45.37)" gradientUnits="userSpaceOnUse"><stop offset="0" stop-color="#e0e4eb"/><stop offset="0.99" stop-color="#f3f6fd"/></linearGradient><linearGradient id="Безымянный_градиент_33-2" x1="527.8" y1="402.86" x2="539.35" y2="402.86" gradientTransform="translate(99.11 829.42) rotate(-72.22)" xlink:href="#Безымянный_градиент_33"/><linearGradient id="Безымянный_градиент_33-3" x1="713.69" y1="383.98" x2="725.14" y2="383.98" gradientTransform="matrix(0.63, 0.78, -0.78, 0.63, 522.27, -390.32)" xlink:href="#Безымянный_градиент_33"/><linearGradient id="Безымянный_градиент_17-2" x1="678.66" y1="447.31" x2="690.59" y2="435.07" gradientTransform="matrix(1, 0, 0, 1, 0, 0)" xlink:href="#Безымянный_градиент_17"/><linearGradient id="Безымянный_градиент_33-4" x1="730.41" y1="433.15" x2="742.14" y2="433.15" gradientTransform="matrix(0.5, 0.87, -0.77, 0.45, 639.58, -392.74)" xlink:href="#Безымянный_градиент_33"/><linearGradient id="Безымянный_градиент_33-5" x1="649.76" y1="387.22" x2="666.61" y2="387.22" gradientTransform="translate(-61.31 218.61) rotate(-13.38)" xlink:href="#Безымянный_градиент_33"/><linearGradient id="Безымянный_градиент_33-6" x1="552.86" y1="383.67" x2="564.85" y2="383.67" gradientTransform="matrix(0.04, -0.93, 1, 0.04, 240.76, 973.14)" xlink:href="#Безымянный_градиент_33"/><linearGradient id="Безымянный_градиент_17-3" x1="678.93" y1="466.53" x2="690.84" y2="453.32" gradientTransform="matrix(1, 0, 0, 1, 0, 0)" xlink:href="#Безымянный_градиент_17"/><linearGradient id="Безымянный_градиент_33-7" x1="791.63" y1="484.31" x2="804.6" y2="484.31" gradientTransform="matrix(0.35, 0.94, -0.74, 0.28, 759.33, -425.39)" xlink:href="#Безымянный_градиент_33"/><linearGradient id="Безымянный_градиент_11" x1="674.23" y1="367.21" x2="665.58" y2="402.6" gradientUnits="userSpaceOnUse"><stop offset="0" stop-color="#e6eaf1"/><stop offset="0.99" stop-color="#f3f6fd"/></linearGradient><linearGradient id="Безымянный_градиент_144" x1="638.85" y1="522.5" x2="704.8" y2="507.35" gradientUnits="userSpaceOnUse"><stop offset="0.11" stop-color="#8988d5"/><stop offset="0.56" stop-color="#9d9ce8"/><stop offset="1" stop-color="#a7a5ee"/></linearGradient><linearGradient id="Безымянный_градиент_17-4" x1="266.92" y1="157.14" x2="252.55" y2="48.04" gradientTransform="matrix(1, 0, 0, 1, 0, 0)" xlink:href="#Безымянный_градиент_17"/><linearGradient id="Безымянный_градиент_123-2" x1="875.75" y1="286.45" x2="814.47" y2="228.92" gradientTransform="matrix(-1, 0, 0, 1, 1030.27, 0)" xlink:href="#Безымянный_градиент_123"/><linearGradient id="Безымянный_градиент_87" x1="822.02" y1="236.46" x2="844.15" y2="231.73" gradientTransform="matrix(-1, 0, 0, 1, 1030.27, 0)" gradientUnits="userSpaceOnUse"><stop offset="0" stop-color="#a04400" stop-opacity="0"/><stop offset="0.18" stop-color="#9a4100" stop-opacity="0.14"/><stop offset="0.52" stop-color="#8a3b00" stop-opacity="0.52"/><stop offset="0.9" stop-color="#753200"/></linearGradient><linearGradient id="Безымянный_градиент_123-3" x1="797.63" y1="274.01" x2="809.29" y2="274.01" gradientTransform="matrix(-1, 0, 0, 1, 1030.27, 0)" xlink:href="#Безымянный_градиент_123"/><linearGradient id="Безымянный_градиент_123-4" x1="857.73" y1="302.97" x2="798.75" y2="247.6" gradientTransform="matrix(-1, 0, 0, 1, 1030.27, 0)" xlink:href="#Безымянный_градиент_123"/><linearGradient id="Безымянный_градиент_123-5" x1="839.16" y1="297.14" x2="902.44" y2="275.61" gradientTransform="matrix(-1, 0, 0, 1, 1030.27, 0)" xlink:href="#Безымянный_градиент_123"/></defs><title>01</title><g id="_01" data-name="01"><path class="cls-1" d="M588.9,301.79c-66.36,33.93-41.25,72.56-28,113.31,10.06,31,13.24,63.22-35.93,95.55L60.4,507.11c-22.21-25.64-43.1-52-45.33-83.59C12,380.12,23.3,336.88,36.62,309.66,93.32,193.74,255.51,24,466.25,23.51,686.17,23.05,707.43,241.16,588.9,301.79Z"/><path class="cls-2" d="M566.86,502.32c22.68-88,2.05-152.54,2.05-152.54L464,359.56s-17.94,162-21.63,179.75c-.29,1.41-.51,8.36-.66,11.41h53.42c2.85-29.23,10.47-99.37,10.47-99.37s1.09,59.64,5.49,99.37h52.29C561.78,539.68,561.63,522.63,566.86,502.32Z"/><path class="cls-3" d="M76.72,377.38l46.85,79.46L333,420.15l-44-65.85a21.16,21.16,0,0,0-20.71-6.69Z"/><path class="cls-4" d="M99.84,265.4c-32.41,8.45-33.21,32.3-25.47,56.39l15.54,48.35a34.28,34.28,0,0,0,39.55,23.08l108.18-22.3L176.24,256.17Z"/><path class="cls-5" d="M84.7,279.06s15-5.46,19.84,6.24c11,26.56,6.59,69.36,5.73,92.08"/><path class="cls-6" d="M327.07,411a27.08,27.08,0,0,0-25.68-8.39L131.75,438.14c-7.74,1.62-13.23,10.36-9.11,17.11L179,550.72H417.21Z"/><path class="cls-7" d="M234.27,325.77c-10.37-11.44-14.79-13.13-18.54-14.81l28,73.61,1.81,29.82,23.53-5C267.21,387.89,253.77,347.27,234.27,325.77Z"/><path class="cls-8" d="M274.5,471.16s-5.82,0-8.54,1.54l-9.51,18.23s9,11.45,16.79,17.67c3.59,2.88,9.72,6.38,15.66,9.43,6.91,3.54,15.94,8,16.74,5.17.74-2.65-11.73-8.27-11.84-8.86-.2-1.08,20,8.37,21.52,4,1.16-3.21-19.71-9.87-19.49-10.66s25.26,10.67,26.75,6.3c1.33-3.88-23.71-12.66-23.07-13.89.33-.63,23.56,8.66,24.56,5.62,1.66-5-11.89-7-19.19-10.78s-11-7.34-10.67-11.18c.14-1.92,7.05-.86,7.05-.86s6.77.69,11.38,2.91a1.82,1.82,0,0,0,2.65-1.52c0-3.78-7.26-6.79-10.73-7.94-10-3.31-30.09-5.23-30.09-5.23"/><path class="cls-9" d="M197,303.45a42.4,42.4,0,0,1,27.59,8.15,37,37,0,0,1,8.35,8.6c7.23,10.52,23.19,68.28,23.54,91.86l-67.3,15.05c4.41,1.8,78.82,44.06,78.82,44.06l-11.52,22.78s-117.67-22.78-130.31-78.26c-5-22-10.66-54.85-10.9-68.09-.33-17.91,24.17-32.22,33.37-36.82s30.07-6.41,30.07-6.41Z"/><path class="cls-10" d="M165,319.47s15.88,24.95,40.28,22c16.84-2,1.76-31.68,1.76-31.68"/><path class="cls-11" d="M76.72,377.38,74.4,389.65A61.07,61.07,0,0,0,81,430.51l62.23,108.81a22.65,22.65,0,0,0,19.66,11.41h16.07Z"/><circle class="cls-12" cx="259.37" cy="99.79" r="79.53"/><path class="cls-13" d="M339.68,350.19c-14.91-8-25.52,5.07-36,4.73-4.43-.14-4.59-1.18-5.83.72s3.26,5.58,6.92,6.13a30.53,30.53,0,0,1,7.79,2.66,43.2,43.2,0,0,0-5.29,5.87c-2.22,3-11.59,5.64-15.3,5.27-7.78-.78-12.81-2.3-15.23-.39-1,.79-.85,2.2-.32,3.6a10,10,0,0,0,5.43,5.55c4.57,2,13.37,5.41,18.94,5.16,4.43-.19,11.45.09,18.31-3.82s22.2-12.14,22.2-12.14l12.23-3s-1.79-13.06-2.13-20.25C348,349,340.69,350.73,339.68,350.19Z"/><path class="cls-14" d="M534.7,181.71a13.92,13.92,0,0,1-2.58,2.72l-3.48,2.26a23.84,23.84,0,0,1-29.82-3.14l-.7-.7c-.71,14.38.09,28.75-.86,43.13-4.12,36.07-9.1,72.32-14.26,109.43-1.63,15.51,6.17,28.74,6.17,28.74l17.11.67s13-21.8,17.09-42.81c7.77-48.55,2.59-94.65,12.3-140.19Z"/><path class="cls-15" d="M549.68,169.92c-.7-2.78-2.62-9.94-4.48-18.33l-3.62-16.47q-.12-.6-.25-1.18a60.24,60.24,0,0,1-1.25-7.62c.08-.18.16-.34.24-.52,6.58-14.49,4.49-23.46-1.12-26.07-2.57-1.21-5.88-1.06-9.44.47-1.7.75-.39-5.41-1.49-4.26-.95-27.55-14.89-30.31-14.89-30.31s-40.52-3.14-58.56,14.19c-4,3.82-5.13,16.49-1.46,25.59,2.87,7.09,6.64,11.16,8,17.75S461,141,467,151.43c6.51,11.23,20.41,15.53,27.32,16.86a19,19,0,0,0,4,.49l.08,21.31,0,4.75s19.1,15.43,33.3,11.87S551.36,176.68,549.68,169.92Z"/><path class="cls-16" d="M528.27,96c-.95-27.56-14.9-30.32-14.9-30.32s-40.51-3.14-58.56,14.19c-2.84,2.7-2.24,7.94-2,12.48,6.85-8.55,24.37-9.58,37.81-12.15,6.43-1.23,5.08,6.24,6.94,6.17,13.61-5.7,24.51-.63,26.41,19.94l5.64-6C528.15,100.56,529.34,94.84,528.27,96Z"/><path class="cls-2" d="M506.27,45c-5.72-8.86-31.19-12.83-47.82-6.44-10.65,4.09-22.11,17.61-22.09,26.88,0,10.69,11.62,19.14,14.76,27,3.27-22.23,17,2.31,42.45-22.21,4.71-4.55,5.09,6.24,6.93,6.17,15.36-6.43,27.28.83,26.69,28.61.34-3.57,10.66-9.86,16.68.7C549,67.12,543.49,32.53,506.27,45Z"/><path class="cls-17" d="M541.58,135.12c-7.17,22-25.18,35.44-44.24,41.28a29.84,29.84,0,0,1-4.73-6.53c21.71-4.47,38.44-30.7,47.71-44.05-.07.17-.15.34-.23.51a60.36,60.36,0,0,0,1.25,7.62C541.42,134.32,541.49,134.71,541.58,135.12Z"/><path class="cls-18" d="M532.57,108.4s2.43-5.68,5.77-2.54.87,10.35.87,10.35Z"/><path class="cls-19" d="M442,221.89c1.23.11,1.1-.05-.06-.42C441.93,221.74,441.94,221.89,442,221.89Z"/><path class="cls-20" d="M604.54,200.22c-6.36-9.08-45.23-36.67-57.36-43.42,0,2.77-14.6,32.6-21.52,31.82-3.4,15.94-16.45,139.14-16.45,139.14s-3.48-.15-6.3-.12c-2.41,6.13-4.79,25.32-4.79,25.32l8.44,1.35s-1.35,167-3.9,182.94c13.19.34,32.72,2.66,50.07,2.72,25.95.09,43.19-12.78,42.44-32.89-2-53-11.66-142.42-9.71-154.32.26-1.59,13.52-5.65,14.52-10.32C606.92,310,618.43,220.06,604.54,200.22Z"/><path class="cls-21" d="M494.15,335.23c5.15-37.11,3.25-138,4-152.39-3.83-3.84-6.92-7.07-6.95-7.53s-28.3,23.21-30.51,27.64c-14.34,28.77-35.16,103.87-35.16,103.87l-84,42,7.7,25.8,102.69-29.54L423.09,507.31c-2.32,11.07,7.41,20.17,16.77,22.74a161.56,161.56,0,0,0,18.21,4.12C457.88,518.66,492.52,350.75,494.15,335.23Z"/><path class="cls-22" d="M497.69,261l-18-39.1,7.48-14.73-18.13-17.12s10.81-14.81,26-21.85a19,19,0,0,0,4,.49l.08,21.31C496.49,221.41,497.69,261,497.69,261Z"/><path class="cls-23" d="M562.73,187.25l-19.21,10.38,7.22,18.56-37.49,70s10.06-82.67,12.4-97.6c6.3-8,21.52-31.82,21.52-31.82Z"/><polygon class="cls-24" points="568.02 259.48 562.73 315.48 509.21 328.92 551.2 316.04 568.02 259.48"/><path class="cls-10" d="M568,385.46h9.48s5.61,52.84-19.72,53.17-23.12-35-23.12-35"/><polygon class="cls-25" points="474.4 276.42 554.9 270.95 561.51 392.99 480.24 395.53 474.4 276.42"/><polygon class="cls-26" points="559.09 316.17 519.92 321.54 522.44 352.91 562.73 353.27 559.09 316.17"/><path class="cls-27" d="M520.31,325a2.33,2.33,0,0,0-1.13-1.81,67.2,67.2,0,0,1-12.36-9.45c-5.21-5.21-15-10.13-19.32-8.54a2.37,2.37,0,0,0-1.35,2.61c1.19,5.66,9.4,6.62,7.65,8.53a127.27,127.27,0,0,1-15.05-3.51c-3.8-1.17-6.76,2.55-5.9,5.13a2.28,2.28,0,0,1-1.07,2.56c-2.48,1.62-1.68,5.06-.4,6.24,1.61,1.49-5,3.72-1.33,7.44s-2.31,6.77,1.78,10.12,10.14,7.27,19.07,6.15,31.55.09,31.55.09Z"/><path class="cls-28" d="M664.58,490.1s26.19-29.15,23.41-40.64,13.47-25.44,13.79-42.18c.36-19-9.77-13.89-13.27-22-5.19-12,6.37-22.65-11.11-27.25-11.94-3.14-20.33,3-19.24-11.78s-4.25-33-13.82-39.68c-13.66-9.48-30.92-9.51-21.56,9.59,9.84,20.08-17.67,46.46-23.25,71.55C578.07,484.08,664.58,490.1,664.58,490.1Z"/><path class="cls-29" d="M635.36,326.27c3,24.71,34,64.19,19.94,90.58s7.24,67.23,7.24,67.23"/><path class="cls-30" d="M722,427.27c-13.75,11.68,11.3,25.67-2.55,41.56s-34.33,29.08-37.07,25c-.69-1-17.47-28.11-11.28-44.54a14.8,14.8,0,0,1,1.67-3.24c8.87-13,10.66-10.39,5.84-22.77-8.28-21.21-3.43-26.7,4.5-27.32s13.73-2.15,11.77-10.42-21.76-40.85-5.54-47c28.08-10.61,27.56,30.6,26.94,37.49-1.48,16.52,5.48,18.92,9.74,22C732,402.39,735.74,415.59,722,427.27Z"/><path class="cls-31" d="M690.93,525.55S671.73,488,693.2,454.7c9.7-15.06,21.26-60,4.39-97.44"/><path class="cls-32" d="M635.1,399.09c4-6.73,32.49,21,27.5,27.11S631.32,405.5,635.1,399.09Z"/><path class="cls-33" d="M627.9,436.94c.57-7.84,35,3.43,33.24,11.17S627.36,444.41,627.9,436.94Z"/><path class="cls-34" d="M630.19,465.1c-1.51-7.19,36.45-3.05,36.78,4.35S631.62,472,630.19,465.1Z"/><path class="cls-35" d="M672.89,366.74c7.66.56-2.25,39.16-9.82,37.38S665.59,366.21,672.89,366.74Z"/><path class="cls-36" d="M638,397.26c4-6.73,32.49,21,27.5,27.11S634.2,403.67,638,397.26Z"/><path class="cls-37" d="M630.19,435.33c.57-7.84,35,3.43,33.24,11.17S629.65,442.8,630.19,435.33Z"/><path class="cls-38" d="M694.06,400.64c6.1,4.78-24,30.71-29.38,25S688.25,396.09,694.06,400.64Z"/><path class="cls-39" d="M679.54,448.36c.53-5.26,2-10.1,5-13.58,3.64-.72,6.69-.58,8,.92C695.42,438.92,687.7,444.85,679.54,448.36Z"/><path class="cls-40" d="M691.18,433.8c5.13,5.79-23.95,20.36-28.31,13.79S686.3,428.28,691.18,433.8Z"/><path class="cls-41" d="M665.12,395s.88,20.05-1.78,37.56,4,47.12,15,56.59"/><path class="cls-42" d="M630.19,463.73c-1.51-7.19,36.45-3.05,36.78,4.35S631.62,470.58,630.19,463.73Z"/><path class="cls-43" d="M680.93,469.43c-.06-.33-.12-.68-.19-1a94.47,94.47,0,0,1-1.35-11.06c0-.11,0-.23,0-.34,6.2-3.43,12.81-5.16,14.56-2.19C696.14,458.56,688.56,465.41,680.93,469.43Z"/><path class="cls-44" d="M692.54,452c3.93,6.66-23.26,23.26-26.42,16S688.8,445.63,692.54,452Z"/><path class="cls-45" d="M674.75,366.23c7.66.56-2.25,39.16-9.82,37.38S667.45,365.7,674.75,366.23Z"/><path class="cls-46" d="M681.33,551.46H657.74a21.24,21.24,0,0,1-21.05-18.4l-5.85-43.42a4.91,4.91,0,0,1,4.86-5.56h67.68a4.91,4.91,0,0,1,4.86,5.56l-5.85,43.42A21.24,21.24,0,0,1,681.33,551.46Z"/><path class="cls-47" d="M308.36,83.56H275.6V50.8a9.13,9.13,0,0,0-9.13-9.13H252.26a9.13,9.13,0,0,0-9.13,9.13V83.56H210.38a9.13,9.13,0,0,0-9.13,9.13V106.9a9.13,9.13,0,0,0,9.13,9.13h32.75v32.75a9.13,9.13,0,0,0,9.13,9.13h14.21a9.13,9.13,0,0,0,9.13-9.13V116h32.75a9.13,9.13,0,0,0,9.13-9.13V92.69A9.13,9.13,0,0,0,308.36,83.56Z"/><path class="cls-48" d="M165.9,238.55c2.47,5.26,8.77,10.84,9,12.53h0c2.6,5.4,8.4,17.16,12.22,23,5.05,7.75,20.13,9,25.62,1.43s17.76-17.05,17.76-17.05,5.92-4.59,5.94-7.69c0-5.94-9.61-8.55-11.27-18-1.88-10.63-.75-10-4.09-16.59l-.05-.1c-1.22-2.37-6-2.47-12.26-1.3-1.63.3-3.37.69-5.17,1.16h0c-13.65,3.49-31.06,11-36.38,14.7C164.33,232.69,164.5,235.56,165.9,238.55Z"/><path class="cls-49" d="M158.79,235l9.13,15.8,13.21-3.44,3.93-13.8,28.49-7.43,8.42,1.13c.72-3.37,1.18-6.92-.9-11l-12.31-1.4L203.57,216h0l-32.94,7.37Z"/><path class="cls-2" d="M163.9,258.35c4.13,1,9.4,3.37,11.85,8.07a21.48,21.48,0,0,1,2.16,12.45c.36-.14.57-.25.57-.25s5.17,17.44,10,21.42c2.27,1.87,11.3,2,20.81,1.23,10.75-.81,22.13-2.7,25-4.24,5.49-2.91,2.91-12.59,0-16.47a11.58,11.58,0,0,1-1.71-3.38c-4.24,1.64-10.49,3.66-11.53,1.77-1.21-2.18,6.34-7.84,11.53-10.64a5.11,5.11,0,0,1,.74-1.3c2.26-2.91-2.91-8.51-2.91-8.51s-12.27,9.44-17.76,17.05-20.56,6.32-25.61-1.43c-3.82-5.86-9.62-17.62-12.22-23,0,.27.05.41.05.41S169.51,256.93,163.9,258.35Z"/><path class="cls-50" d="M221.11,279c1,1.89,7.3-.13,11.53-1.77a13.53,13.53,0,0,1,0-8.87C227.45,271.11,219.9,276.77,221.11,279Z"/><path class="cls-51" d="M159.76,275.54a9,9,0,0,0,3.06,3.63c.27,1.62.64,3.85,1,6.43l.76,5.55c.9,7.15,1.59,15.18,1,19.88-1.29,9.9,33.27,20.88,40,17.34,4.78-2.5,4.59-15.5,4.06-23-.12-1.73-.26-3.17-.36-4.1-9.51.74-18.54.64-20.81-1.23a16.45,16.45,0,0,1-3.39-4.64c-3.59-6.57-6.62-16.78-6.62-16.78s.09-8.36-1.94-12.26a19,19,0,0,0-11.62-9c-.19,0-2.38,0-2.59,0C156.52,258.49,154.91,265.71,159.76,275.54Z"/><path class="cls-2" d="M188.85,175.64l2.81,23.94L212.25,221,233,218.12l7.07,8.06h.74a62.5,62.5,0,0,1,5.7,12c1-3.84-2.85-10.91-2.85-10.91h1.61s-4.84-7.65-5.58-9.18a4.31,4.31,0,0,0,.74-3s7.44,3.22,7.81.74-5.75-3.27-5.75-3.27l0-2.31L234,208.44l-.62-2L242,205.3s.41.54,1.32,1.86c1.61-4.84-3.51-9.09-3.51-9.09a1.64,1.64,0,0,1,1.2-.41c-2.23-4-11.28-8.68-11.28-8.68l4.09-1v-1.61s8.56,1.24,7.94,0-6.45-1-6.45-1v-1.49l-10.17.25s-.25,1.24-2.48,1.24-2-.74-2.48-.74-4,.74-4,.74,0-2.44-.87-2.44-5.33.83-5.52-.66,3.66,0,3.66,0l6.2-1.12-.5-2.73,10.66-2.23v-1.05a.64.64,0,0,0-1,0c-.5.56-1.86-1.8-1.86-1.8l-6,1.12v-2.6l-13.76,2v1.61l-1.36.12-1.24-1-4.71,1.55-.5-2.29Zm24.54,24s8.74.43,9.18.43,1.18-1.74,1.18-1.74h-1.12l.19-.87,8.93,1.36.31-1.8-1.24-.56-3.41-1.12.31-1.61,2.61,1.35,6,3.11,1.18-.93,3.91,5.21-6.39.43s.5-2.6,0-2-10.91-.93-10.91-.93l-.93,2.23-7.32-.62Z"/><path class="cls-2" d="M147,206.36l22.83,7.73,18.57-5.37,15.94-24.06,10.31-2.93.32-.67a62.5,62.5,0,0,1,13.31,0c-3-2.55-11.08-2.11-11.08-2.11l.69-1.46s-9,1.09-10.68,1.1a4.31,4.31,0,0,0-2.37-1.95s6.1-5.34,4-6.74-5.41,3.79-5.41,3.79l-2.11-1-5.35,6.93-2.1-.31,2.7-8.28s.66-.14,2.25-.4c-3.68-3.53-9.72-.73-9.72-.73a1.64,1.64,0,0,1,.14-1.26c-4.54.31-12.68,6.47-12.68,6.47l.86-4.12-1.46-.69s4.79-7.2,3.41-7.17-3.66,5.4-3.66,5.4l-1.34-.64-4.14,9.29s1,.76.06,2.77-1.52,1.47-1.74,1.92-1,3.9-1,3.9-2.2-1-2.58-.26-1.54,5.17-3,4.7,1.57-3.3,1.57-3.3l1.65-6.08-2.68-.72L165,169.59l-1-.45a.64.64,0,0,0-.43.9c.29.69-2.42.91-2.42.91l-1.55,5.86-2.35-1.12L153.24,189l1.46.69-.47,1.29-1.43.69-.62,4.92-2.29-.54Zm32.21-11.87s4.14-7.71,4.33-8.1-1.06-1.81-1.06-1.81l-.48,1-.7-.54,5.06-7.48-1.49-1.05-1,.88-2.47,2.6L180,179l2.34-1.78,5.39-4.09-.33-1.46,6.38-1.29-2.35,6s-2.14-1.57-1.79-.85-5.52,9.46-5.52,9.46l1.62,1.8L182,193.1Z"/><path class="cls-2" d="M160.08,192.93l-5.56-2.14-1.24,2.14s-6.8-1.9-7.79-1.07-.74,1.57-.74,1.57l-7.91,1,.87,1.11s-2.47,1.85-2.1,1.85a31.06,31.06,0,0,1,3.34.49,19.76,19.76,0,0,0,2.72,0l.62,1.24,2,.62s-5.19.25-5.81,2.1-8.16,1.36-7.54,2.84a4.12,4.12,0,0,0,1.48,2s-6.06,1.73-5.81,2.6,2,1.24,2,1.24l3.58-.49a3.09,3.09,0,0,1-.12,2.35c-.62.87-4,2.72-4,2.72l.12,1.24s-2.6,1.61-2.35,2.72l.25,1.11s-2.84,3-2.72,3.71,1.85.87,1.85.87-.12,1.11.62,1.24a4.39,4.39,0,0,0,2-.49l1.61.51,1.85-1.5s-6.18,8.9-4.82,9.39l1.36.49s-4.08,7.91-2.1,7.91,2.35-.53,2.35-.53l2-5,1.85.62,2.47-4.08,7.35.25L147,222.85Z"/><path class="cls-2" d="M148.4,208.9c1-.51,0-3-1-4.56a7,7,0,0,1-1-1.84c.8,1,1.32,1.63,1.32,1.63s.29-3.63.46-7.1a11.28,11.28,0,0,0,1.79-.29c10.87-2.17,20.8-5.49,30.93-7.85a2.22,2.22,0,0,0,.78-.18,101.58,101.58,0,0,1,16.48-2.5c1.27,12.12,7.81,23.86,14.14,34.78-8.91,2.73-24.94,7.17-24.94,7.17L163.9,234l24-3,1.19,5.87L173,240.78l5.08,16.86L171,260.18s-5.61-4.42-9.69-1-2.48,14.23,2.63,20.53a48.58,48.58,0,0,0,1,11.36s-15.91-28.35-22.37-34.9S134,241.43,133.94,238c0-2.18-2.66-6.26-4.94-9.58C136,222.51,140.78,214.82,148.4,208.9Z"/><path class="cls-52" d="M163.9,279.71l.69,11.44,0,.09.42,1.08c16.34,13.14,32.52,14.43,44.63,13.06-.12-1.73-.26-3.17-.36-4.1-9.51.74-18.54.64-20.81-1.23a16.45,16.45,0,0,1-3.39-4.64A44,44,0,0,1,163.9,279.71Z"/></g></svg>