<svg xmlns="http://www.w3.org/2000/svg" xmlns:xlink="http://www.w3.org/1999/xlink" viewBox="0 0 736 574.85"><defs><style>.cls-1{fill:url(#Безымянный_градиент_263);}.cls-2{fill:#1f1844;}.cls-3{fill:url(#Безымянный_градиент_9);}.cls-4{fill:url(#Безымянный_градиент_271);}.cls-5{fill:url(#Безымянный_градиент_138);}.cls-14,.cls-38,.cls-40,.cls-50,.cls-6{fill:none;stroke-miterlimit:10;}.cls-14,.cls-6{stroke:#fff;}.cls-6{stroke-width:2px;}.cls-7{fill:url(#Безымянный_градиент_250);}.cls-8{fill:url(#Безымянный_градиент_144);}.cls-9{fill:url(#Безымянный_градиент_157);}.cls-10{fill:url(#Безымянный_градиент_250-2);}.cls-11{fill:url(#Безымянный_градиент_123);}.cls-12{fill:url(#Безымянный_градиент_48);}.cls-13{fill:url(#Безымянный_градиент_123-2);}.cls-14{stroke-width:1.17px;}.cls-15{fill:url(#Безымянный_градиент_139);}.cls-16{fill:url(#Безымянный_градиент_157-2);}.cls-17{fill:url(#Безымянный_градиент_162);}.cls-18{fill:url(#Безымянный_градиент_15);}.cls-19{fill:#201f4f;}.cls-20{fill:url(#Безымянный_градиент_139-2);}.cls-21{fill:url(#Безымянный_градиент_263-2);}.cls-22{fill:url(#Безымянный_градиент_123-3);}.cls-23{fill:url(#Безымянный_градиент_13);}.cls-24{fill:url(#Безымянный_градиент_122);}.cls-25{fill:url(#Безымянный_градиент_48-2);}.cls-26{fill:url(#Безымянный_градиент_123-4);}.cls-27{fill:url(#Безымянный_градиент_9-2);}.cls-28{fill:url(#Безымянный_градиент_250-3);}.cls-29{fill:url(#Безымянный_градиент_250-4);}.cls-30{fill:url(#Безымянный_градиент_250-5);}.cls-31{fill:url(#Безымянный_градиент_250-6);}.cls-32{fill:url(#Безымянный_градиент_3);}.cls-33{fill:url(#Безымянный_градиент_250-7);}.cls-34{fill:url(#Безымянный_градиент_9-3);}.cls-35{fill:url(#Безымянный_градиент_16);}.cls-36{fill:url(#Безымянный_градиент_13-2);}.cls-37{fill:url(#Безымянный_градиент_5);}.cls-38{stroke-width:0.9px;stroke:url(#Безымянный_градиент_2);}.cls-39{fill:url(#Безымянный_градиент_17);}.cls-40{stroke-width:2.59px;stroke:url(#Безымянный_градиент_164);}.cls-41{fill:url(#Безымянный_градиент_5-2);}.cls-42{fill:url(#Безымянный_градиент_5-3);}.cls-43{fill:url(#Безымянный_градиент_5-4);}.cls-44{fill:url(#Безымянный_градиент_18);}.cls-45{fill:url(#Безымянный_градиент_33);}.cls-46{fill:url(#Безымянный_градиент_33-2);}.cls-47{fill:url(#Безымянный_градиент_33-3);}.cls-48{fill:url(#Безымянный_градиент_17-2);}.cls-49{fill:url(#Безымянный_градиент_33-4);}.cls-50{stroke-width:1.51px;stroke:url(#Безымянный_градиент_33-5);}.cls-51{fill:url(#Безымянный_градиент_33-6);}.cls-52{fill:url(#Безымянный_градиент_17-3);}.cls-53{fill:url(#Безымянный_градиент_33-7);}.cls-54{fill:url(#Безымянный_градиент_11);}.cls-55{fill:url(#Безымянный_градиент_144-2);}.cls-56{fill:url(#Безымянный_градиент_17-4);}</style><linearGradient id="Безымянный_градиент_263" x1="11.09" y1="271.76" x2="656.84" y2="271.76" gradientUnits="userSpaceOnUse"><stop offset="0" stop-color="#f0f2f5"/><stop offset="0.99" stop-color="#f5f7f8"/></linearGradient><linearGradient id="Безымянный_градиент_9" x1="73.25" y1="406.64" x2="329.49" y2="406.64" gradientUnits="userSpaceOnUse"><stop offset="0.09" stop-color="#d9d9d9"/><stop offset="1" stop-color="#e6e6e6"/></linearGradient><linearGradient id="Безымянный_градиент_271" x1="82.68" y1="351.83" x2="198.96" y2="310.85" gradientUnits="userSpaceOnUse"><stop offset="0.01" stop-color="#bbbfd9"/><stop offset="0.29" stop-color="#cacde2"/><stop offset="0.84" stop-color="#f2f3f8"/><stop offset="1" stop-color="#fff"/></linearGradient><linearGradient id="Безымянный_градиент_138" x1="171.36" y1="315.03" x2="186.77" y2="230.58" gradientUnits="userSpaceOnUse"><stop offset="0.38" stop-color="#201f4f"/><stop offset="0.54" stop-color="#27275a"/><stop offset="0.83" stop-color="#393c76"/><stop offset="1" stop-color="#464b8b"/></linearGradient><linearGradient id="Безымянный_градиент_250" x1="117.76" y1="481.08" x2="413.74" y2="481.08" gradientUnits="userSpaceOnUse"><stop offset="0" stop-color="#a7a5ee"/><stop offset="0.44" stop-color="#9d9ce8"/><stop offset="0.89" stop-color="#8988d5"/></linearGradient><linearGradient id="Безымянный_градиент_144" x1="230.86" y1="416.03" x2="241.01" y2="364.21" gradientUnits="userSpaceOnUse"><stop offset="0.11" stop-color="#8988d5"/><stop offset="0.56" stop-color="#9d9ce8"/><stop offset="1" stop-color="#a7a5ee"/></linearGradient><linearGradient id="Безымянный_градиент_157" x1="583.42" y1="729.22" x2="646.01" y2="729.22" gradientTransform="translate(-24.08 -435.45) rotate(22.79)" gradientUnits="userSpaceOnUse"><stop offset="0" stop-color="#a96e46"/><stop offset="1" stop-color="#ffd0b9"/></linearGradient><linearGradient id="Безымянный_градиент_250-2" x1="121.68" y1="391.96" x2="246.66" y2="391.96" xlink:href="#Безымянный_градиент_250"/><linearGradient id="Безымянный_градиент_123" x1="116.08" y1="251.12" x2="194.06" y2="215.03" gradientUnits="userSpaceOnUse"><stop offset="0" stop-color="#753200"/><stop offset="1" stop-color="#a04400"/></linearGradient><linearGradient id="Безымянный_градиент_48" x1="524.67" y1="402.14" x2="496.86" y2="429.45" gradientTransform="matrix(-0.98, 0.21, 0.21, 0.98, 578.32, -233.53)" gradientUnits="userSpaceOnUse"><stop offset="0" stop-color="#a04400"/><stop offset="1" stop-color="#753200"/></linearGradient><linearGradient id="Безымянный_градиент_123-2" x1="524.61" y1="382.72" x2="521.02" y2="386.24" gradientTransform="matrix(-0.98, 0.21, 0.21, 0.98, 578.32, -233.53)" xlink:href="#Безымянный_градиент_123"/><linearGradient id="Безымянный_градиент_139" x1="110.55" y1="263.33" x2="246.66" y2="263.33" gradientUnits="userSpaceOnUse"><stop offset="0" stop-color="#201f4f"/><stop offset="0.26" stop-color="#27275a"/><stop offset="0.72" stop-color="#393c76"/><stop offset="1" stop-color="#464b8b"/></linearGradient><linearGradient id="Безымянный_градиент_157-2" x1="221.13" y1="286.68" x2="146.65" y2="270.09" gradientTransform="matrix(1, 0, 0, 1, 0, 0)" xlink:href="#Безымянный_градиент_157"/><linearGradient id="Безымянный_градиент_162" x1="196.81" y1="238.89" x2="159.13" y2="256.81" gradientUnits="userSpaceOnUse"><stop offset="0" stop-color="#a96e46"/><stop offset="1" stop-color="#ffd0b9" stop-opacity="0"/></linearGradient><linearGradient id="Безымянный_градиент_15" x1="150.58" y1="282.52" x2="189.3" y2="304.02" gradientUnits="userSpaceOnUse"><stop offset="0" stop-color="#ffd0b9" stop-opacity="0"/><stop offset="1" stop-color="#a96e46"/></linearGradient><linearGradient id="Безымянный_градиент_139-2" x1="69.87" y1="468.74" x2="175.46" y2="468.74" xlink:href="#Безымянный_градиент_139"/><linearGradient id="Безымянный_градиент_263-2" x1="266.15" y1="182.28" x2="246.64" y2="34.27" xlink:href="#Безымянный_градиент_263"/><linearGradient id="Безымянный_градиент_123-3" x1="448.41" y1="140.97" x2="547.28" y2="140.97" xlink:href="#Безымянный_градиент_123"/><linearGradient id="Безымянный_градиент_13" x1="-594.91" y1="1312.38" x2="-514.69" y2="1312.38" gradientTransform="translate(338.84 -1052.11) rotate(-21.83)" gradientUnits="userSpaceOnUse"><stop offset="0" stop-color="#a04400"/><stop offset="0.3" stop-color="#9c4200"/><stop offset="0.62" stop-color="#8e3d00"/><stop offset="0.95" stop-color="#793300"/><stop offset="1" stop-color="#753200"/></linearGradient><linearGradient id="Безымянный_градиент_122" x1="337.57" y1="329.24" x2="379.62" y2="302.07" gradientTransform="translate(113.47 -195.04) rotate(-4.83)" gradientUnits="userSpaceOnUse"><stop offset="0" stop-color="#a04400" stop-opacity="0"/><stop offset="0.18" stop-color="#9a4100" stop-opacity="0.14"/><stop offset="0.52" stop-color="#8a3b00" stop-opacity="0.52"/><stop offset="0.9" stop-color="#753200"/></linearGradient><linearGradient id="Безымянный_градиент_48-2" x1="392.77" y1="365.4" x2="349.49" y2="407.89" gradientTransform="translate(113.47 -195.04) rotate(-4.83)" xlink:href="#Безымянный_градиент_48"/><linearGradient id="Безымянный_градиент_123-4" x1="396.03" y1="341.94" x2="391.28" y2="346.6" gradientTransform="translate(113.47 -195.04) rotate(-4.83)" xlink:href="#Безымянный_градиент_123"/><linearGradient id="Безымянный_градиент_9-2" x1="479.29" y1="277.95" x2="532.18" y2="277.95" xlink:href="#Безымянный_градиент_9"/><linearGradient id="Безымянный_градиент_250-3" x1="438.47" y1="226.39" x2="439.42" y2="226.39" xlink:href="#Безымянный_градиент_250"/><linearGradient id="Безымянный_градиент_250-4" x1="494.64" y1="353.08" x2="607.61" y2="353.08" xlink:href="#Безымянный_градиент_250"/><linearGradient id="Безымянный_градиент_250-5" x1="338.02" y1="359.43" x2="494.64" y2="359.43" xlink:href="#Безымянный_градиент_250"/><linearGradient id="Безымянный_градиент_250-6" x1="465.61" y1="219.32" x2="495.75" y2="219.32" xlink:href="#Безымянный_градиент_250"/><linearGradient id="Безымянный_градиент_3" x1="915.87" y1="226.2" x2="965.34" y2="226.2" gradientTransform="translate(-406.08)" xlink:href="#Безымянный_градиент_250"/><linearGradient id="Безымянный_градиент_250-7" x1="505.74" y1="298.89" x2="564.55" y2="298.89" xlink:href="#Безымянный_градиент_250"/><linearGradient id="Безымянный_градиент_9-3" x1="470.93" y1="337.92" x2="558.04" y2="337.92" xlink:href="#Безымянный_градиент_9"/><linearGradient id="Безымянный_градиент_16" x1="516.45" y1="339.41" x2="559.26" y2="339.41" gradientUnits="userSpaceOnUse"><stop offset="0.11" stop-color="#8988d5"/><stop offset="1" stop-color="#9695e1"/></linearGradient><linearGradient id="Безымянный_градиент_13-2" x1="473.31" y1="316.38" x2="511.61" y2="361.51" gradientTransform="matrix(1, 0, 0, 1, 0, 0)" xlink:href="#Безымянный_градиент_13"/><linearGradient id="Безымянный_градиент_5" x1="655.53" y1="494.2" x2="631.86" y2="314.59" gradientUnits="userSpaceOnUse"><stop offset="0" stop-color="#1f1844"/><stop offset="0.99" stop-color="#3d3c99"/></linearGradient><linearGradient id="Безымянный_градиент_2" x1="659.64" y1="488.84" x2="638.72" y2="330.05" gradientUnits="userSpaceOnUse"><stop offset="0" stop-color="#3f3d9e"/><stop offset="0.99" stop-color="#423e9f"/></linearGradient><linearGradient id="Безымянный_градиент_17" x1="423.34" y1="309.98" x2="511.42" y2="289.74" gradientTransform="translate(144.14 305.86) rotate(-20.88)" gradientUnits="userSpaceOnUse"><stop offset="0.01" stop-color="#bbc0d9"/><stop offset="1" stop-color="#d6dbf8"/></linearGradient><linearGradient id="Безымянный_градиент_164" x1="317.26" y1="213.58" x2="384.81" y2="225.95" gradientTransform="matrix(0.86, -0.52, 0.52, 0.86, 276.68, 438.98)" gradientUnits="userSpaceOnUse"><stop offset="0" stop-color="#bac6d8"/><stop offset="0.99" stop-color="#d6dbf8"/></linearGradient><linearGradient id="Безымянный_градиент_5-2" x1="659.16" y1="430.79" x2="632.09" y2="404.19" xlink:href="#Безымянный_градиент_5"/><linearGradient id="Безымянный_градиент_5-3" x1="658.3" y1="453.14" x2="626.8" y2="442.18" xlink:href="#Безымянный_градиент_5"/><linearGradient id="Безымянный_градиент_5-4" x1="663.53" y1="474.11" x2="626.51" y2="469.68" xlink:href="#Безымянный_градиент_5"/><linearGradient id="Безымянный_градиент_18" x1="668.91" y1="372.4" x2="660.25" y2="407.8" gradientUnits="userSpaceOnUse"><stop offset="0.01" stop-color="#3d3c99"/><stop offset="1" stop-color="#1f1844"/></linearGradient><linearGradient id="Безымянный_градиент_33" x1="79.55" y1="150.36" x2="90.98" y2="150.36" gradientTransform="translate(478.8 373.11) rotate(-45.37)" gradientUnits="userSpaceOnUse"><stop offset="0" stop-color="#e0e4eb"/><stop offset="0.99" stop-color="#f3f6fd"/></linearGradient><linearGradient id="Безымянный_градиент_33-2" x1="-138.53" y1="-81.04" x2="-126.99" y2="-81.04" gradientTransform="translate(759.92 347.39) rotate(-72.22)" xlink:href="#Безымянный_градиент_33"/><linearGradient id="Безымянный_градиент_33-3" x1="1254.17" y1="132.74" x2="1265.62" y2="132.74" gradientTransform="matrix(0.63, 0.78, -0.78, 0.63, -16.75, -647.21)" xlink:href="#Безымянный_градиент_33"/><linearGradient id="Безымянный_градиент_17-2" x1="675.19" y1="452" x2="687.12" y2="439.76" gradientTransform="matrix(1, 0, 0, 1, 0, 0)" xlink:href="#Безымянный_градиент_17"/><linearGradient id="Безымянный_градиент_33-4" x1="1333.26" y1="136.23" x2="1344.98" y2="136.23" gradientTransform="matrix(0.5, 0.87, -0.77, 0.45, 105.45, -777.38)" xlink:href="#Безымянный_градиент_33"/><linearGradient id="Безымянный_градиент_33-5" x1="484.69" y1="372.13" x2="501.54" y2="372.13" gradientTransform="translate(99.31 199.76) rotate(-13.38)" xlink:href="#Безымянный_градиент_33"/><linearGradient id="Безымянный_градиент_33-6" x1="-196.48" y1="-283.98" x2="-184.5" y2="-283.98" gradientTransform="matrix(0.04, -0.93, 1, 0.04, 937.75, 309.04)" xlink:href="#Безымянный_градиент_33"/><linearGradient id="Безымянный_градиент_17-3" x1="675.46" y1="471.21" x2="687.37" y2="458.01" gradientTransform="matrix(1, 0, 0, 1, 0, 0)" xlink:href="#Безымянный_градиент_17"/><linearGradient id="Безымянный_градиент_33-7" x1="1445.38" y1="101.85" x2="1458.36" y2="101.85" gradientTransform="matrix(0.35, 0.94, -0.74, 0.28, 244.64, -928.26)" xlink:href="#Безымянный_градиент_33"/><linearGradient id="Безымянный_градиент_11" x1="670.76" y1="371.9" x2="662.11" y2="407.29" gradientUnits="userSpaceOnUse"><stop offset="0" stop-color="#e6eaf1"/><stop offset="0.99" stop-color="#f3f6fd"/></linearGradient><linearGradient id="Безымянный_градиент_144-2" x1="635.38" y1="527.19" x2="701.33" y2="512.03" xlink:href="#Безымянный_градиент_144"/><linearGradient id="Безымянный_градиент_17-4" x1="263.45" y1="161.82" x2="249.08" y2="52.73" gradientTransform="matrix(1, 0, 0, 1, 0, 0)" xlink:href="#Безымянный_градиент_17"/></defs><title>01</title><g id="_01" data-name="01"><path class="cls-1" d="M585.43,306.47c-66.36,33.93-41.25,72.56-28,113.31,10.06,31,13.24,63.22-35.93,95.55L56.93,511.79c-22.21-25.64-43.1-52-45.33-83.59-3.06-43.39,8.24-86.63,21.55-113.85C89.85,198.43,252,28.64,462.78,28.19,682.7,27.74,704,245.85,585.43,306.47Z"/><path class="cls-2" d="M563.39,507c22.68-88,2.05-152.54,2.05-152.54l-104.86,9.78s-17.94,162-21.63,179.75c-.29,1.41-.51,8.36-.66,11.41H491.7c2.85-29.23,10.47-99.37,10.47-99.37s1.09,59.64,5.49,99.37H560C558.31,544.36,558.16,527.31,563.39,507Z"/><path class="cls-3" d="M73.25,382.07l46.85,79.46,209.39-36.69-44-65.85a21.16,21.16,0,0,0-20.71-6.69Z"/><path class="cls-4" d="M96.38,270.09c-32.41,8.45-33.21,32.3-25.47,56.39l15.54,48.35A34.28,34.28,0,0,0,126,397.91l108.18-22.3L172.77,260.86Z"/><path class="cls-5" d="M205.68,228.5c-28.16-24.64-66.81,4.54-73.85,36.21-2,8.58-4,21.76-5.67,34.77-2.64,20.78,62.15,14.44,63,15.1s4.34,9.39,13.66,12.81C235.45,305.06,229.75,251.48,205.68,228.5Z"/><path class="cls-6" d="M81.23,283.75s15-5.46,19.84,6.24c11,26.56,11.44,66.22,10.58,88.94"/><path class="cls-7" d="M323.6,415.71a27.08,27.08,0,0,0-25.68-8.39L128.28,442.83c-7.74,1.62-13.23,10.36-9.11,17.11l56.38,95.47H413.74Z"/><path class="cls-8" d="M235.75,324.63c-9.84-11.9-15.37-9.67-19.12-11.34l23.61,76,1.81,29.82,23.53-5C263.74,392.58,249.7,341.5,235.75,324.63Z"/><path class="cls-9" d="M244.21,453.07s-5.21,0-7.65,1.38l-8.51,16.32s8.08,10.25,15,15.82c3.21,2.58,8.7,5.71,14,8.44,6.18,3.17,14.26,7.2,15,4.63.67-2.37-10.5-7.4-10.6-7.93-.18-1,17.86,7.49,19.27,3.62,1-2.87-17.64-8.83-17.44-9.54s22.61,9.55,23.95,5.64C288.44,488,266,480.1,266.61,479c.3-.57,21.09,7.75,22,5,1.49-4.49-10.65-6.24-17.17-9.65s-9.8-6.57-9.55-10c.13-1.72,6.31-.77,6.31-.77s6.06.62,10.19,2.61a1.63,1.63,0,0,0,2.38-1.36c0-3.38-6.5-6.08-9.6-7.11-9-3-26.93-4.68-26.93-4.68"/><path class="cls-10" d="M193.5,308.13a42.4,42.4,0,0,1,27.59,8.15,37,37,0,0,1,8.35,8.6c7.23,10.52,16.87,69.59,17.22,93.17L192,430.26c4.41,1.8,33.55,22.21,49.07,22.81-8.77,4.87-11.52,22.78-11.52,22.78-36.37-.78-91.91-29.67-99.11-58.31-5.5-21.86-8.56-54.07-8.8-67.31-.33-17.91,14.25-30.17,23.46-34.77S175.21,309,175.21,309Z"/><path class="cls-11" d="M208.57,229.47c-.13,1.49-.32,3-.53,4.43-2-7.59-14.92-16.18-29.59-14.84,0,0,0,1.77-2.76,2.27s-4-2.95-4.6,0-.61,6.93-4,6.93-5.52,2.14-5.82,4.29,5.39,9.85,2.54,11.75c-3.27,2.16-5.63,10.27-5.63,10.27s-2.55-18.81-12.68-7.79c-.71,2-1.32,4.06-1.82,6.09-.47-2.95.29-5.25,1.92-6.71a6.14,6.14,0,0,1,1.54-1,52.5,52.5,0,0,1-2.45-15.46,35.67,35.67,0,0,1,1.06-8.93c4-15.47,24.06-20,37.1-19.1S209.82,215,208.57,229.47Z"/><path class="cls-12" d="M151.75,272.24a45.27,45.27,0,0,0,32.5,19.59l-.09-1.74-.11-2.14c-9.32-2.75-20.47-9.2-33.46-22.72l.28.32a45.65,45.65,0,0,1,.8,5.79C151.69,271.63,151.73,271.93,151.75,272.24Z"/><path class="cls-13" d="M152.32,250.92s-3-3.56-4.74-.55,1.67,7.68,1.67,7.68Z"/><path class="cls-14" d="M161.55,324.16s32.36,23.52,40.28,22,1.76-31.68,1.76-31.68"/><path class="cls-15" d="M241.63,321.48c-4.06,4.67-4.12,13.66-7.45,16.55-4.78-15.3-12-22.9-22.7-27.06,19.15-21-7.67-59-9.65-66.64L164.73,267.9s9,22.3-.3,41.1a35.07,35.07,0,0,1-3.63,5.88c-1.29,1.7-4.35,7.1-8.48,12.46-6,7.77-14.3,15.42-22.76,11.4s-2.94-12.34-5-14.58c-6.95-7.68-14.51-15.82-11-22.15s2.22-3.34-1.14-7.2-1.87-9.36.72-12.93-3.57-14.06.19-18.19c8-8.77,6.2-17.58,5.25-20.67s1.89-5.8,4.14-7.43,2.9-5.51,2.47-11.82,5-8.58,6.65-10.2c4.21-4.26,4-6.19,5.13-10.78,2.05-8.21,15.49-8.17,23.17-8.33s5.46-10.93,23.31-6.61c2.86.69,6.71,6.73,16.21,4.76,10-2.07,40,.27,38.29,45.67-.05,1.46,1.55,2.81,2.24,4.71,2.2,6.08-1.69,12.18,0,17.5s4.71,13.27,1.33,21.12c-3.87,9,2,14.2,3.49,17.5C248.37,306.35,246.22,316.18,241.63,321.48Z"/><path class="cls-16" d="M222.94,278.58c-3.32,14.44-16.71,21-25.38,22.85-.83.16-1.62.3-2.35.38-.35.05-.68.09-1,.11l.11,2.44.23,3.1.19,2.76,6.16,25.88a3.63,3.63,0,0,1-5.62,3.82c-12.37-8.64-34.24-20.7-34.49-25.07,0,0-1.28-6.65-3-26.87-.1-1.27-.21-2.59-.32-4,0-.35-.07-.69-.1-1-.05-.68-.14-1.49-.25-2.32a30.25,30.25,0,0,0-.65-4.27,2.65,2.65,0,0,1-.32-.37,40.1,40.1,0,0,1-6.05-8.67,12.74,12.74,0,0,1-.7-9.38v0a10.21,10.21,0,0,1,4.29-5.8c8.78-5.44,11.1,11.74,11.1,11.74s29.65-6.13,37-40.77c1.75-.48,3.41,6.57,8,9.82,3.48,2.43,10-.44,11.7,7.44h0c-.67,4.72-1.47,9.24-1.09,13.49C220.93,259.71,225.27,268.51,222.94,278.58Z"/><path class="cls-17" d="M209.82,233A55.78,55.78,0,0,1,187,256.67c-15.84,9-22.19,7.25-22.19,7.25s29.65-6.13,37-40.77C203.53,222.66,205.19,229.71,209.82,233Z"/><path class="cls-18" d="M194.33,304.37l.22,3.11c-11.22-1.34-24.66-6-36.78-19.47-.11-1.27-.21-2.58-.33-4,0-.35-.07-.69-.09-1-.06-.68-.15-1.5-.25-2.32,14.83,12,27.44,18.23,38.1,21.1-.35.06-.68.09-1,.12Z"/><path class="cls-19" d="M164.43,309a35.07,35.07,0,0,1-3.63,5.88c-1.29,1.7-4.35,7.1-8.48,12.46-14.46-31.91,4.13-50.9,4.13-50.9C161.53,279.86,164.16,295,164.43,309Z"/><path class="cls-20" d="M73.25,382.07l-2.31,12.27A61.07,61.07,0,0,0,77.5,435.2L139.72,544a22.65,22.65,0,0,0,19.66,11.41h16.07Z"/><circle class="cls-21" cx="255.9" cy="104.48" r="79.53"/><path class="cls-22" d="M547,174.54c-.7-2.78-2.62-9.94-4.48-18.33l-3.62-16.47q-.12-.6-.25-1.18a60.24,60.24,0,0,1-1.25-7.62c.08-.18.16-.34.24-.52,6.58-14.49,4.49-23.46-1.12-26.07-2.57-1.21-5.88-1.06-9.44.47-1.7.75-.39-5.41-1.49-4.26-.95-27.55-14.89-30.31-14.89-30.31s-40.52-3.14-58.56,14.19c-4,3.82-5.13,16.49-1.46,25.59,2.87,7.09,6.64,11.16,8,17.75s-.39,17.86,5.65,28.24c6.51,11.23,20.41,15.53,27.32,16.86a19,19,0,0,0,4,.49l.08,21.31,0,4.75s19.1,15.43,33.3,11.87S548.66,181.31,547,174.54Z"/><path class="cls-23" d="M336.21,354.88c-14.91-8-25.52,5.07-36,4.73-4.43-.14-4.59-1.18-5.83.72s3.26,5.58,6.92,6.13a30.53,30.53,0,0,1,7.79,2.66,43.2,43.2,0,0,0-5.29,5.87c-2.22,3-11.59,5.64-15.3,5.27-7.78-.78-12.81-2.3-15.23-.39-1,.79-.85,2.2-.32,3.6a10,10,0,0,0,5.43,5.55c4.57,2,13.37,5.41,18.94,5.16,4.43-.19,11.45.09,18.31-3.82s22.2-12.14,22.2-12.14l12.23-3s-1.79-13.06-2.13-20.25C344.51,353.72,337.22,355.42,336.21,354.88Z"/><path class="cls-24" d="M525.57,100.59c-.95-27.56-14.9-30.32-14.9-30.32s-40.51-3.14-58.56,14.19c-2.84,2.7-2.24,7.94-2,12.48,6.85-8.55,24.37-9.58,37.81-12.15C494.35,83.56,493,91,494.86,91c13.61-5.7,24.51-.63,26.41,19.94l5.64-6C525.45,105.19,526.63,99.47,525.57,100.59Z"/><path class="cls-2" d="M503.57,49.61c-5.72-8.86-31.19-12.83-47.82-6.44-10.65,4.09-22.11,17.61-22.09,26.88,0,10.69,11.62,19.14,14.76,27,3.27-22.23,17,2.31,42.45-22.21,4.71-4.55,5.09,6.24,6.93,6.17,15.36-6.43,27.28.83,26.69,28.61.34-3.57,10.66-9.86,16.68.7C546.29,71.75,540.79,37.15,503.57,49.61Z"/><path class="cls-25" d="M538.88,139.75c-7.17,22-25.18,35.44-44.24,41.28a29.84,29.84,0,0,1-4.73-6.53c21.71-4.47,38.44-30.7,47.71-44.05-.07.17-.15.34-.23.51a60.36,60.36,0,0,0,1.25,7.62C538.72,139,538.79,139.34,538.88,139.75Z"/><path class="cls-26" d="M529.87,113s2.43-5.68,5.77-2.54.87,10.35.87,10.35Z"/><path class="cls-27" d="M531.23,186.4a13.92,13.92,0,0,1-2.58,2.72l-3.48,2.26a23.84,23.84,0,0,1-29.82-3.14l-.7-.7c-.71,14.38.09,28.75-.86,43.13-4.12,36.07-9.1,72.32-14.26,109.43-1.63,15.51,6.17,28.74,6.17,28.74l17.11.67s13-21.8,17.09-42.81c7.77-48.55,2.59-94.65,12.3-140.19Z"/><path class="cls-28" d="M438.55,226.58c1.23.11,1.1-.05-.06-.42C438.46,226.43,438.47,226.57,438.55,226.58Z"/><path class="cls-29" d="M601.07,204.91c-6.36-9.08-45.23-36.67-57.36-43.42,0,2.77-14.6,32.6-21.52,31.82-3.4,15.94-16.45,139.14-16.45,139.14s-3.48-.15-6.3-.12c-2.41,6.13-4.79,25.32-4.79,25.32l8.44,1.35s-1.35,167-3.9,182.94c13.19.34,32.72,2.66,50.07,2.72,25.95.09,43.19-12.78,42.44-32.89-2-53-11.66-142.42-9.71-154.32.26-1.59,13.52-5.65,14.52-10.32C603.45,314.7,615,224.74,601.07,204.91Z"/><path class="cls-30" d="M490.68,339.92c5.15-37.11,3.25-138,4-152.39-3.83-3.84-6.92-7.07-6.95-7.53s-28.3,23.21-30.51,27.64C442.85,236.42,422,311.51,422,311.51l-84,42,7.7,25.8,102.69-29.54L419.62,512c-2.32,11.07,7.41,20.17,16.77,22.74a161.56,161.56,0,0,0,18.21,4.12C454.41,523.35,489,355.43,490.68,339.92Z"/><path class="cls-31" d="M494.22,265.72l-18-39.1,7.48-14.73-18.13-17.12s10.81-14.81,26-21.85a19,19,0,0,0,4,.49l.08,21.31C493,226.1,494.22,265.72,494.22,265.72Z"/><path class="cls-32" d="M559.26,191.94l-19.21,10.38,7.22,18.56-37.49,70s10.06-82.67,12.4-97.6c6.3-8,21.52-31.82,21.52-31.82Z"/><polygon class="cls-33" points="564.55 264.17 559.26 320.17 505.74 333.61 547.73 320.73 564.55 264.17"/><path class="cls-14" d="M564.55,390.14H574s5.61,52.84-19.72,53.17-23.12-35-23.12-35"/><polygon class="cls-34" points="470.93 281.1 551.43 275.63 558.04 397.68 476.77 400.21 470.93 281.1"/><polygon class="cls-35" points="555.62 320.85 516.45 326.23 518.97 357.6 559.26 357.96 555.62 320.85"/><path class="cls-36" d="M516.84,329.71a2.33,2.33,0,0,0-1.13-1.81,67.2,67.2,0,0,1-12.36-9.45c-5.21-5.21-15-10.13-19.32-8.54a2.37,2.37,0,0,0-1.35,2.61c1.19,5.66,9.4,6.62,7.65,8.53a127.27,127.27,0,0,1-15.05-3.51c-3.8-1.17-6.76,2.55-5.9,5.13a2.28,2.28,0,0,1-1.07,2.56c-2.48,1.62-1.68,5.06-.4,6.24,1.61,1.49-5,3.72-1.33,7.44s-2.31,6.77,1.78,10.12,10.14,7.27,19.07,6.15,31.55.09,31.55.09Z"/><path class="cls-37" d="M661.11,494.78s26.19-29.15,23.41-40.64S698,428.7,698.31,412c.36-19-9.77-13.89-13.27-22-5.19-12,6.37-22.65-11.11-27.25-11.94-3.14-20.33,3-19.24-11.78s-4.25-33-13.82-39.68c-13.66-9.48-30.92-9.51-21.56,9.59,9.84,20.08-17.67,46.46-23.25,71.55C574.61,488.77,661.11,494.78,661.11,494.78Z"/><path class="cls-38" d="M631.89,331c3,24.71,34,64.19,19.94,90.58s7.24,67.23,7.24,67.23"/><path class="cls-39" d="M718.54,432c-13.75,11.68,11.3,25.67-2.55,41.56s-34.33,29.08-37.07,25c-.69-1-17.47-28.11-11.28-44.54a14.8,14.8,0,0,1,1.67-3.24c8.87-13,10.66-10.39,5.84-22.77-8.28-21.21-3.43-26.7,4.5-27.32s13.73-2.15,11.77-10.42-21.76-40.85-5.54-47c28.08-10.61,27.56,30.6,26.94,37.49-1.48,16.52,5.48,18.92,9.74,22C728.55,407.07,732.28,420.28,718.54,432Z"/><path class="cls-40" d="M687.46,530.24s-19.2-37.53,2.27-70.86c9.7-15.06,21.26-60,4.39-97.44"/><path class="cls-41" d="M631.63,403.78c4-6.73,32.49,21,27.5,27.11S627.85,410.19,631.63,403.78Z"/><path class="cls-42" d="M624.43,441.63c.57-7.84,35,3.43,33.24,11.17S623.89,449.09,624.43,441.63Z"/><path class="cls-43" d="M626.72,469.79c-1.51-7.19,36.45-3.05,36.78,4.35S628.15,476.64,626.72,469.79Z"/><path class="cls-44" d="M669.43,371.42c7.66.56-2.25,39.16-9.82,37.38S662.13,370.89,669.43,371.42Z"/><path class="cls-45" d="M634.51,401.95c4-6.73,32.49,21,27.5,27.11S630.73,408.36,634.51,401.95Z"/><path class="cls-46" d="M626.73,440c.57-7.84,35,3.43,33.24,11.17S626.18,447.49,626.73,440Z"/><path class="cls-47" d="M690.59,405.32c6.1,4.78-24,30.71-29.38,25S684.78,400.77,690.59,405.32Z"/><path class="cls-48" d="M676.07,453c.53-5.26,2-10.1,5-13.58,3.64-.72,6.69-.58,8,.92C692,443.6,684.24,449.54,676.07,453Z"/><path class="cls-49" d="M687.71,438.49c5.13,5.79-23.95,20.36-28.31,13.79S682.83,433,687.71,438.49Z"/><path class="cls-50" d="M661.65,399.7s.88,20.05-1.78,37.56,4,47.12,15,56.59"/><path class="cls-51" d="M626.72,468.42c-1.51-7.19,36.45-3.05,36.78,4.35S628.15,475.27,626.72,468.42Z"/><path class="cls-52" d="M677.46,474.12c-.06-.33-.12-.68-.19-1A94.47,94.47,0,0,1,675.92,462c0-.11,0-.23,0-.34,6.2-3.43,12.81-5.16,14.56-2.19C692.67,463.24,685.09,470.1,677.46,474.12Z"/><path class="cls-53" d="M689.07,456.66c3.93,6.66-23.26,23.26-26.42,16S685.33,450.32,689.07,456.66Z"/><path class="cls-54" d="M671.28,370.92c7.66.56-2.25,39.16-9.82,37.38S664,370.38,671.28,370.92Z"/><path class="cls-55" d="M677.86,556.15H654.27a21.24,21.24,0,0,1-21.05-18.4l-5.85-43.42a4.91,4.91,0,0,1,4.86-5.56H699.9a4.91,4.91,0,0,1,4.86,5.56l-5.85,43.42A21.24,21.24,0,0,1,677.86,556.15Z"/><path class="cls-56" d="M304.89,88.24H272.13V55.49A9.13,9.13,0,0,0,263,46.36H248.79a9.13,9.13,0,0,0-9.13,9.13V88.24H206.91a9.13,9.13,0,0,0-9.13,9.13v14.21a9.13,9.13,0,0,0,9.13,9.13h32.75v32.75a9.13,9.13,0,0,0,9.13,9.13H263a9.13,9.13,0,0,0,9.13-9.13V120.72h32.75a9.13,9.13,0,0,0,9.13-9.13V97.38A9.13,9.13,0,0,0,304.89,88.24Z"/></g></svg>