<svg xmlns="http://www.w3.org/2000/svg" xmlns:xlink="http://www.w3.org/1999/xlink" viewBox="0 0 736 574.85"><defs><style>.cls-1{fill:url(#Безымянный_градиент_263);}.cls-2{fill:#1f1844;}.cls-3{fill:url(#Безымянный_градиент_9);}.cls-4{fill:url(#Безымянный_градиент_271);}.cls-10,.cls-23,.cls-25,.cls-35,.cls-47,.cls-48,.cls-49,.cls-5{fill:none;stroke-miterlimit:10;}.cls-10,.cls-5{stroke:#fff;}.cls-5{stroke-width:2px;}.cls-6{fill:url(#Безымянный_градиент_250);}.cls-7{fill:url(#Безымянный_градиент_14);}.cls-8{fill:url(#Безымянный_градиент_157);}.cls-9{fill:url(#Безымянный_градиент_9-2);}.cls-10{stroke-width:1.17px;}.cls-11{fill:url(#Безымянный_градиент_139);}.cls-12{fill:url(#Безымянный_градиент_263-2);}.cls-13{fill:url(#Безымянный_градиент_123);}.cls-14{fill:url(#Безымянный_градиент_122);}.cls-15{fill:url(#Безымянный_градиент_48);}.cls-16{fill:url(#Безымянный_градиент_123-2);}.cls-17{fill:url(#Безымянный_градиент_250-2);}.cls-18{fill:url(#Безымянный_градиент_13);}.cls-19{fill:url(#Безымянный_градиент_250-3);}.cls-20{fill:url(#Безымянный_градиент_9-3);}.cls-21{fill:url(#Безымянный_градиент_13-2);}.cls-22{fill:url(#Безымянный_градиент_5);}.cls-23{stroke-width:0.9px;stroke:url(#Безымянный_градиент_2);}.cls-24{fill:url(#Безымянный_градиент_17);}.cls-25{stroke-width:2.59px;stroke:url(#Безымянный_градиент_164);}.cls-26{fill:url(#Безымянный_градиент_5-2);}.cls-27{fill:url(#Безымянный_градиент_5-3);}.cls-28{fill:url(#Безымянный_градиент_5-4);}.cls-29{fill:url(#Безымянный_градиент_18);}.cls-30{fill:url(#Безымянный_градиент_33);}.cls-31{fill:url(#Безымянный_градиент_33-2);}.cls-32{fill:url(#Безымянный_градиент_33-3);}.cls-33{fill:url(#Безымянный_градиент_17-2);}.cls-34{fill:url(#Безымянный_градиент_33-4);}.cls-35{stroke-width:1.51px;stroke:url(#Безымянный_градиент_33-5);}.cls-36{fill:url(#Безымянный_градиент_33-6);}.cls-37{fill:url(#Безымянный_градиент_17-3);}.cls-38{fill:url(#Безымянный_градиент_33-7);}.cls-39{fill:url(#Безымянный_градиент_11);}.cls-40{fill:url(#Безымянный_градиент_144);}.cls-41{fill:url(#Безымянный_градиент_17-4);}.cls-42{fill:url(#Безымянный_градиент_157-2);}.cls-43{fill:url(#Безымянный_градиент_15);}.cls-44{fill:url(#Безымянный_градиент_123-3);}.cls-45{fill:url(#Безымянный_градиент_157-3);}.cls-46{fill:url(#Безымянный_градиент_15-2);}.cls-47,.cls-49{stroke-linecap:round;}.cls-47,.cls-48,.cls-49{stroke-width:3.1px;}.cls-47{stroke:url(#Безымянный_градиент_263-3);}.cls-48{stroke:url(#Безымянный_градиент_263-4);}.cls-49{stroke:url(#Безымянный_градиент_263-5);}.cls-50{fill:url(#Безымянный_градиент_263-6);}</style><linearGradient id="Безымянный_градиент_263" x1="14.78" y1="268.64" x2="660.52" y2="268.64" gradientUnits="userSpaceOnUse"><stop offset="0" stop-color="#f0f2f5"/><stop offset="0.99" stop-color="#f5f7f8"/></linearGradient><linearGradient id="Безымянный_градиент_9" x1="76.93" y1="403.52" x2="333.18" y2="403.52" gradientUnits="userSpaceOnUse"><stop offset="0.09" stop-color="#d9d9d9"/><stop offset="1" stop-color="#e6e6e6"/></linearGradient><linearGradient id="Безымянный_градиент_271" x1="86.36" y1="348.72" x2="202.64" y2="307.74" gradientUnits="userSpaceOnUse"><stop offset="0.01" stop-color="#bbbfd9"/><stop offset="0.29" stop-color="#cacde2"/><stop offset="0.84" stop-color="#f2f3f8"/><stop offset="1" stop-color="#fff"/></linearGradient><linearGradient id="Безымянный_градиент_250" x1="121.44" y1="477.96" x2="417.43" y2="477.96" gradientUnits="userSpaceOnUse"><stop offset="0" stop-color="#a7a5ee"/><stop offset="0.44" stop-color="#9d9ce8"/><stop offset="0.89" stop-color="#8988d5"/></linearGradient><linearGradient id="Безымянный_градиент_14" x1="212.9" y1="369.64" x2="244.62" y2="361.19" gradientUnits="userSpaceOnUse"><stop offset="0" stop-color="#9c9c9c"/><stop offset="0.58" stop-color="#c6c6c6"/><stop offset="0.91" stop-color="#d9d9d9"/></linearGradient><linearGradient id="Безымянный_градиент_157" x1="549.66" y1="429.36" x2="619.58" y2="429.36" gradientTransform="translate(-81.99 -132.64) rotate(22.79)" gradientUnits="userSpaceOnUse"><stop offset="0" stop-color="#a96e46"/><stop offset="1" stop-color="#ffd0b9"/></linearGradient><linearGradient id="Безымянный_градиент_9-2" x1="115.45" y1="396.46" x2="266.29" y2="396.46" xlink:href="#Безымянный_градиент_9"/><linearGradient id="Безымянный_градиент_139" x1="73.56" y1="465.62" x2="179.14" y2="465.62" gradientUnits="userSpaceOnUse"><stop offset="0" stop-color="#201f4f"/><stop offset="0.26" stop-color="#27275a"/><stop offset="0.72" stop-color="#393c76"/><stop offset="1" stop-color="#464b8b"/></linearGradient><linearGradient id="Безымянный_градиент_263-2" x1="269.84" y1="179.16" x2="250.33" y2="31.15" xlink:href="#Безымянный_градиент_263"/><linearGradient id="Безымянный_градиент_123" x1="452.1" y1="145.36" x2="550.87" y2="145.36" gradientUnits="userSpaceOnUse"><stop offset="0" stop-color="#753200"/><stop offset="1" stop-color="#a04400"/></linearGradient><linearGradient id="Безымянный_градиент_122" x1="339.39" y1="392.15" x2="381.43" y2="364.98" gradientTransform="translate(110.05 -260.69) rotate(-4.83)" gradientUnits="userSpaceOnUse"><stop offset="0" stop-color="#a04400" stop-opacity="0"/><stop offset="0.18" stop-color="#9a4100" stop-opacity="0.14"/><stop offset="0.52" stop-color="#8a3b00" stop-opacity="0.52"/><stop offset="0.9" stop-color="#753200"/></linearGradient><linearGradient id="Безымянный_градиент_48" x1="542.44" y1="136.22" x2="499.98" y2="177.89" gradientUnits="userSpaceOnUse"><stop offset="0" stop-color="#a04400"/><stop offset="1" stop-color="#753200"/></linearGradient><linearGradient id="Безымянный_градиент_123-2" x1="397.85" y1="404.85" x2="393.1" y2="409.51" gradientTransform="translate(110.05 -260.69) rotate(-4.83)" xlink:href="#Безымянный_градиент_123"/><linearGradient id="Безымянный_градиент_250-2" x1="442.16" y1="223.27" x2="443.1" y2="223.27" xlink:href="#Безымянный_градиент_250"/><linearGradient id="Безымянный_градиент_13" x1="276.21" y1="319.06" x2="469.13" y2="319.06" gradientUnits="userSpaceOnUse"><stop offset="0" stop-color="#a04400"/><stop offset="0.3" stop-color="#9c4200"/><stop offset="0.62" stop-color="#8e3d00"/><stop offset="0.95" stop-color="#793300"/><stop offset="1" stop-color="#753200"/></linearGradient><linearGradient id="Безымянный_градиент_250-3" x1="440.07" y1="295.49" x2="618.26" y2="295.49" xlink:href="#Безымянный_градиент_250"/><linearGradient id="Безымянный_градиент_9-3" x1="474.62" y1="334.81" x2="561.72" y2="334.81" xlink:href="#Безымянный_градиент_9"/><linearGradient id="Безымянный_градиент_13-2" x1="518.08" y1="278.4" x2="585.92" y2="358.36" xlink:href="#Безымянный_градиент_13"/><linearGradient id="Безымянный_градиент_5" x1="659.21" y1="491.08" x2="635.54" y2="311.47" gradientUnits="userSpaceOnUse"><stop offset="0" stop-color="#1f1844"/><stop offset="0.99" stop-color="#3d3c99"/></linearGradient><linearGradient id="Безымянный_градиент_2" x1="663.33" y1="485.72" x2="642.4" y2="326.93" gradientUnits="userSpaceOnUse"><stop offset="0" stop-color="#3f3d9e"/><stop offset="0.99" stop-color="#423e9f"/></linearGradient><linearGradient id="Безымянный_градиент_17" x1="379.42" y1="586.97" x2="467.49" y2="566.73" gradientTransform="translate(90.15 28.28) rotate(-20.88)" gradientUnits="userSpaceOnUse"><stop offset="0.01" stop-color="#bbc0d9"/><stop offset="1" stop-color="#d6dbf8"/></linearGradient><linearGradient id="Безымянный_градиент_164" x1="214.14" y1="616.48" x2="281.69" y2="628.85" gradientTransform="matrix(0.86, -0.52, 0.52, 0.86, 160.84, 37.52)" gradientUnits="userSpaceOnUse"><stop offset="0" stop-color="#bac6d8"/><stop offset="0.99" stop-color="#d6dbf8"/></linearGradient><linearGradient id="Безымянный_градиент_5-2" x1="662.85" y1="427.67" x2="635.78" y2="401.07" xlink:href="#Безымянный_градиент_5"/><linearGradient id="Безымянный_градиент_5-3" x1="661.99" y1="450.02" x2="630.49" y2="439.06" xlink:href="#Безымянный_градиент_5"/><linearGradient id="Безымянный_градиент_5-4" x1="667.22" y1="470.99" x2="630.19" y2="466.56" xlink:href="#Безымянный_градиент_5"/><linearGradient id="Безымянный_градиент_18" x1="672.59" y1="369.29" x2="663.94" y2="404.68" gradientUnits="userSpaceOnUse"><stop offset="0.01" stop-color="#3d3c99"/><stop offset="1" stop-color="#1f1844"/></linearGradient><linearGradient id="Безымянный_градиент_33" x1="-142.3" y1="708.43" x2="-130.87" y2="708.43" gradientTransform="translate(241.16 -179.94) rotate(-45.37)" gradientUnits="userSpaceOnUse"><stop offset="0" stop-color="#e0e4eb"/><stop offset="0.99" stop-color="#f3f6fd"/></linearGradient><linearGradient id="Безымянный_градиент_33-2" x1="-669.09" y1="669.91" x2="-657.54" y2="669.91" gradientTransform="translate(210.56 -390.27) rotate(-72.22)" xlink:href="#Безымянный_градиент_33"/><linearGradient id="Безымянный_градиент_33-3" x1="959.23" y1="-475.31" x2="970.68" y2="-475.31" gradientTransform="matrix(0.63, 0.78, -0.78, 0.63, -299.6, -38.26)" xlink:href="#Безымянный_градиент_33"/><linearGradient id="Безымянный_градиент_17-2" x1="678.88" y1="448.88" x2="690.81" y2="436.64" gradientTransform="matrix(1, 0, 0, 1, 0, 0)" xlink:href="#Безымянный_градиент_17"/><linearGradient id="Безымянный_градиент_33-4" x1="936.48" y1="-624.93" x2="948.2" y2="-624.93" gradientTransform="matrix(0.5, 0.87, -0.77, 0.45, -277.85, -97.86)" xlink:href="#Безымянный_градиент_33"/><linearGradient id="Безымянный_градиент_33-5" x1="469.59" y1="550.76" x2="486.44" y2="550.76" gradientTransform="translate(76.34 19.37) rotate(-13.38)" xlink:href="#Безымянный_градиент_33"/><linearGradient id="Безымянный_градиент_33-6" x1="-929.13" y1="502.42" x2="-917.15" y2="502.42" gradientTransform="matrix(0.04, -0.93, 1, 0.04, 180.82, -409.91)" xlink:href="#Безымянный_градиент_33"/><linearGradient id="Безымянный_градиент_17-3" x1="679.15" y1="468.1" x2="691.05" y2="454.89" gradientTransform="matrix(1, 0, 0, 1, 0, 0)" xlink:href="#Безымянный_градиент_17"/><linearGradient id="Безымянный_градиент_33-7" x1="927.8" y1="-824.2" x2="940.78" y2="-824.2" gradientTransform="matrix(0.35, 0.94, -0.74, 0.28, -258.33, -191.15)" xlink:href="#Безымянный_градиент_33"/><linearGradient id="Безымянный_градиент_11" x1="674.45" y1="368.78" x2="665.79" y2="404.17" gradientUnits="userSpaceOnUse"><stop offset="0" stop-color="#e6eaf1"/><stop offset="0.99" stop-color="#f3f6fd"/></linearGradient><linearGradient id="Безымянный_градиент_144" x1="639.06" y1="524.07" x2="705.01" y2="508.91" gradientUnits="userSpaceOnUse"><stop offset="0.11" stop-color="#8988d5"/><stop offset="0.56" stop-color="#9d9ce8"/><stop offset="1" stop-color="#a7a5ee"/></linearGradient><linearGradient id="Безымянный_градиент_17-4" x1="267.14" y1="158.7" x2="252.76" y2="49.61" gradientTransform="matrix(1, 0, 0, 1, 0, 0)" xlink:href="#Безымянный_градиент_17"/><linearGradient id="Безымянный_градиент_157-2" x1="-685.07" y1="288.02" x2="-790.12" y2="189.39" gradientTransform="matrix(-1, 0, 0, 1, -530.34, 0)" xlink:href="#Безымянный_градиент_157"/><linearGradient id="Безымянный_градиент_15" x1="-738.81" y1="238.02" x2="-716.67" y2="233.29" gradientTransform="matrix(-1, 0, 0, 1, -530.34, 0)" gradientUnits="userSpaceOnUse"><stop offset="0" stop-color="#ffd0b9" stop-opacity="0"/><stop offset="1" stop-color="#a96e46"/></linearGradient><linearGradient id="Безымянный_градиент_123-3" x1="-763.2" y1="275.58" x2="-751.53" y2="275.58" gradientTransform="matrix(-1, 0, 0, 1, -530.34, 0)" xlink:href="#Безымянный_градиент_123"/><linearGradient id="Безымянный_градиент_157-3" x1="-703.1" y1="304.54" x2="-762.07" y2="249.17" gradientTransform="matrix(-1, 0, 0, 1, -530.34, 0)" xlink:href="#Безымянный_градиент_157"/><linearGradient id="Безымянный_градиент_15-2" x1="-721.66" y1="298.71" x2="-658.38" y2="277.18" xlink:href="#Безымянный_градиент_15"/><linearGradient id="Безымянный_градиент_263-3" x1="549.64" y1="173.14" x2="559.81" y2="173.14" xlink:href="#Безымянный_градиент_263"/><linearGradient id="Безымянный_градиент_263-4" x1="589.79" y1="349.56" x2="623.98" y2="349.56" gradientTransform="translate(-26.61 -163.18) rotate(4.19)" xlink:href="#Безымянный_градиент_263"/><linearGradient id="Безымянный_градиент_263-5" x1="478.38" y1="213.35" x2="495.73" y2="213.35" xlink:href="#Безымянный_градиент_263"/><linearGradient id="Безымянный_градиент_263-6" x1="470.82" y1="250.39" x2="494.18" y2="250.39" xlink:href="#Безымянный_градиент_263"/></defs><title>01</title><g id="_01" data-name="01"><path class="cls-1" d="M589.12,303.36C707.65,242.73,686.39,24.62,466.46,25.08,255.73,25.52,93.53,195.31,36.84,311.23c-13.32,27.22-24.61,70.46-21.55,113.85C17.51,456.67,38.4,483,60.61,508.67l464.55,3.54c49.17-32.32,46-64.55,35.93-95.55-1.61-4.95-3.39-9.86-5.16-14.74-19.84.16-40.25-2.19-59.94.79,19.69-3,40.1-.63,59.94-.79C543.12,366.61,530.82,333.17,589.12,303.36Z"/><path class="cls-2" d="M496,402.72c26.76-4.06,54.84,1.75,81-2.31-2-30.61-7.91-49.05-7.91-49.05l-104.86,9.78L442,552.29h53.42s13.5-77.57,16.94-77.57-1,77.57-1,77.57h52.29S588,435.92,577,400.41C550.84,404.47,522.76,398.66,496,402.72Z"/><path class="cls-3" d="M76.93,378.95l46.85,79.46,209.39-36.69-44-65.85a21.16,21.16,0,0,0-20.71-6.69Z"/><path class="cls-4" d="M100.06,267c-32.41,8.45-33.21,32.3-25.47,56.39l15.54,48.35a34.28,34.28,0,0,0,39.55,23.08l108.18-22.3L176.45,257.74Z"/><path class="cls-5" d="M84.92,280.63s15-5.46,19.84,6.24c11,26.56,6.59,69.36,5.73,92.08"/><path class="cls-6" d="M327.29,412.59a27.08,27.08,0,0,0-25.68-8.39L132,439.71c-7.74,1.62-13.23,10.36-9.11,17.11l56.38,95.47H417.43Z"/><path class="cls-7" d="M234.49,327.33c-10.37-11.44-14.79-13.13-18.54-14.81l28,73.61L245.75,416l23.53-5C267.43,389.46,254,348.83,234.49,327.33Z"/><path class="cls-8" d="M272.82,465.18s-5.82,0-8.54,1.54L254.76,485s9,11.45,16.79,17.67c3.59,2.88,9.72,6.38,15.66,9.43,6.91,3.54,15.94,8,16.74,5.17.74-2.65-11.73-8.27-11.84-8.86-.2-1.08,20,8.37,21.52,4,1.16-3.21-19.71-9.87-19.49-10.66s25.26,10.67,26.75,6.3c1.33-3.88-23.71-12.66-23.07-13.89.33-.63,23.56,8.66,24.56,5.62,1.66-5-11.89-7-19.19-10.78s-11-7.34-10.67-11.18c.14-1.92,7.05-.86,7.05-.86s6.77.69,11.38,2.91a1.82,1.82,0,0,0,2.65-1.52c0-3.78-7.26-6.79-10.73-7.94-10-3.31-30.09-5.23-30.09-5.23"/><path class="cls-9" d="M197.18,305a42.4,42.4,0,0,1,27.59,8.15,37,37,0,0,1,8.35,8.6c7.23,10.52,23.19,68.28,23.54,91.86l-60.93,13.52c4.41,1.8,70.56,38,70.56,38L254.76,488c-36.37-.78-121.21-42.07-128.41-70.71-5.5-21.86-10.66-54.85-10.9-68.09-.33-17.91,24.17-32.22,33.37-36.82s30.07-6.41,30.07-6.41Z"/><path class="cls-10" d="M165.24,321s15.88,24.95,40.28,22c16.84-2,1.76-31.68,1.76-31.68"/><path class="cls-11" d="M76.93,378.95l-2.31,12.27a61.07,61.07,0,0,0,6.56,40.86l62.23,108.81a22.65,22.65,0,0,0,19.66,11.41h16.07Z"/><circle class="cls-12" cx="259.58" cy="101.36" r="79.53"/><path class="cls-13" d="M529.16,223.5c-14.2,3.55-29.7-27.14-29.7-27.14l0-4.75,0-14,0-7.27a7.12,7.12,0,0,1-1.51-.1c-.67-.08-1.53-.21-2.53-.4-6.92-1.33-20.81-5.63-27.33-16.86-6-10.38-4.22-21.65-5.65-28.24s-5.15-10.66-8-17.75c-3.67-9.1-2.56-21.77,1.46-25.59,18.05-17.34,58.56-14.2,58.56-14.2s14,2.77,14.9,30.32c1.1-1.16-.21,5,1.49,4.25,3.57-1.53,6.88-1.68,9.44-.47,5.62,2.61,7.7,11.57,1.13,26.07l-.24.51a60.6,60.6,0,0,0,1.25,7.62q.12.57.24,1.17v0c1,4.64,2.34,10.65,3.62,16.45,1.87,8.39,3.78,15.55,4.49,18.33C552.35,178.19,543.39,219.95,529.16,223.5Z"/><path class="cls-14" d="M529.25,97.48c-.95-27.56-14.9-30.32-14.9-30.32S473.84,64,455.79,81.35c-2.84,2.7-2.24,7.94-2,12.48,6.85-8.55,24.37-9.58,37.81-12.15,6.43-1.23,5.08,6.24,6.94,6.17,13.61-5.7,24.51-.63,26.41,19.94l5.64-6C529.14,102.07,530.32,96.35,529.25,97.48Z"/><path class="cls-2" d="M507.25,46.49c-5.72-8.86-31.19-12.83-47.82-6.44-10.65,4.09-22.11,17.61-22.09,26.88,0,10.69,11.62,19.14,14.76,27,3.27-22.23,17,2.31,42.45-22.21,4.71-4.55,5.09,6.24,6.93,6.17,15.36-6.43,27.28.83,26.69,28.61.34-3.57,10.66-9.86,16.68.7C550,68.63,544.47,34,507.25,46.49Z"/><path class="cls-15" d="M542.57,136.63s0,0,0,0c-7,21.54-24.51,34.92-43.17,40.92l0-7.27a7.12,7.12,0,0,1-1.51-.1c19.64-6.72,34.81-30.41,43.45-42.87-.07.17-.15.34-.23.51a60.6,60.6,0,0,0,1.25,7.62C542.4,135.84,542.48,136.23,542.57,136.63Z"/><path class="cls-16" d="M533.55,109.91s2.43-5.68,5.77-2.54.87,10.35.87,10.35Z"/><path class="cls-17" d="M442.24,223.46c1.23.11,1.1-.05-.06-.42C442.14,223.31,442.16,223.46,442.24,223.46Z"/><path class="cls-18" d="M440.07,247c-8.3,29.62-14.36,61.35-14.36,61.35l-83.59,43.39a5.91,5.91,0,0,1-2.22,0c-14.91-8-25.52,5.07-36,4.73-4.43-.14-4.59-1.18-5.83.72s3.26,5.58,6.92,6.13a30.53,30.53,0,0,1,7.79,2.66,43.2,43.2,0,0,0-5.29,5.87c-2.22,3-11.59,5.64-15.3,5.27-7.78-.78-12.81-2.3-15.23-.39-1,.79-.85,2.2-.32,3.6a10,10,0,0,0,5.43,5.55c4.57,2,13.37,5.41,18.94,5.16,4.43-.19,11.45.09,18.31-3.82s22.2-12.14,22.2-12.14l7.06-1.75h0s100.56-23.39,107.56-30c4.76-4.51,10.5-63.75,13-86.37C457.07,249.35,453.86,250.91,440.07,247Z"/><path class="cls-19" d="M611.3,203c-6.36-9.08-48.2-37.93-60.33-44.68,0,2.11-32.8,53.34-32.8,53.34S498,178.64,497.85,175.84c0-.48-42.07,28.5-44.28,32.93-4.74,9.52-9.4,23.64-13.5,38.28,13.79,3.87,16.55,5.67,29.06,9.92C464,287.43,454.5,412.31,454.5,412.31c28.73,1.83,112.42,30.61,128.5,16.36,14.11-12.51,26.6-159.25,26.6-159.25s5.47-.31,6.81-.44C620.07,240.21,618.26,213,611.3,203Z"/><polygon class="cls-20" points="555.12 272.52 474.62 277.98 480.45 397.09 561.72 394.56 555.12 272.52"/><path class="cls-21" d="M570.37,276,564,317.3l-43.71,8.47v0c-.19-.42-8.65-5.86-13.26-10.47-5.21-5.21-15-10.13-19.32-8.54a2.37,2.37,0,0,0-1.35,2.61c1.19,5.66,9.4,6.62,7.65,8.53A127.27,127.27,0,0,1,479,314.43c-3.8-1.17-6.76,2.55-5.9,5.13a2.28,2.28,0,0,1-1.07,2.56c-2.48,1.62-1.68,5.06-.4,6.24,1.61,1.49-5,3.72-1.33,7.44s-2.31,6.77,1.78,10.12,10.14,7.27,19.07,6.15a140.56,140.56,0,0,1,30.9.19c10.43,1.27,46.87,8.31,60.38,3.71,4.73-1.61,15.75-4.61,17.81-11.95,4.48-15.94,9.7-46.38,13.35-75C597.1,270.63,570.37,276,570.37,276Z"/><path class="cls-22" d="M664.8,491.66S691,462.52,688.21,451s13.47-25.44,13.79-42.18c.36-19-9.77-13.89-13.27-22-5.19-12,6.37-22.65-11.11-27.25-11.94-3.14-20.33,3-19.24-11.78s-4.25-33-13.82-39.68c-13.66-9.48-30.92-9.51-21.56,9.59,9.84,20.08-17.67,46.46-23.25,71.55C578.29,485.65,664.8,491.66,664.8,491.66Z"/><path class="cls-23" d="M635.58,327.83c3,24.71,34,64.19,19.94,90.58s7.24,67.23,7.24,67.23"/><path class="cls-24" d="M722.22,428.84c-13.75,11.68,11.3,25.67-2.55,41.56s-34.33,29.08-37.07,25c-.69-1-17.47-28.11-11.28-44.54a14.8,14.8,0,0,1,1.67-3.24c8.87-13,10.66-10.39,5.84-22.77-8.28-21.21-3.43-26.7,4.5-27.32s13.73-2.15,11.77-10.42-21.76-40.85-5.54-47c28.08-10.61,27.56,30.6,26.94,37.49-1.48,16.52,5.48,18.92,9.74,22C732.24,404,736,417.16,722.22,428.84Z"/><path class="cls-25" d="M691.15,527.12s-19.2-37.53,2.27-70.86c9.7-15.06,21.26-60,4.39-97.44"/><path class="cls-26" d="M635.32,400.66c4-6.73,32.49,21,27.5,27.11S631.54,407.07,635.32,400.66Z"/><path class="cls-27" d="M628.12,438.51c.57-7.84,35,3.43,33.24,11.17S627.57,446,628.12,438.51Z"/><path class="cls-28" d="M630.4,466.67c-1.51-7.19,36.45-3.05,36.78,4.35S631.84,473.52,630.4,466.67Z"/><path class="cls-29" d="M673.11,368.31c7.66.56-2.25,39.16-9.82,37.38S665.81,367.77,673.11,368.31Z"/><path class="cls-30" d="M638.19,398.83c4-6.73,32.49,21,27.5,27.11S634.41,405.24,638.19,398.83Z"/><path class="cls-31" d="M630.41,436.9c.57-7.84,35,3.43,33.24,11.17S629.87,444.37,630.41,436.9Z"/><path class="cls-32" d="M694.28,402.2c6.1,4.78-24,30.71-29.38,25S688.47,397.65,694.28,402.2Z"/><path class="cls-33" d="M679.76,449.92c.53-5.26,2-10.1,5-13.58,3.64-.72,6.69-.58,8,.92C695.64,440.49,687.92,446.42,679.76,449.92Z"/><path class="cls-34" d="M691.4,435.37c5.13,5.79-23.95,20.36-28.31,13.79S686.52,429.85,691.4,435.37Z"/><path class="cls-35" d="M665.34,396.58s.88,20.05-1.78,37.56,4,47.12,15,56.59"/><path class="cls-36" d="M630.4,465.3c-1.51-7.19,36.45-3.05,36.78,4.35S631.84,472.15,630.4,465.3Z"/><path class="cls-37" d="M681.14,471c-.06-.33-.12-.68-.19-1a94.47,94.47,0,0,1-1.35-11.06c0-.11,0-.23,0-.34,6.2-3.43,12.81-5.16,14.56-2.19C696.36,460.12,688.78,467,681.14,471Z"/><path class="cls-38" d="M692.76,453.54c3.93,6.66-23.26,23.26-26.42,16S689,447.2,692.76,453.54Z"/><path class="cls-39" d="M675,367.8c7.66.56-2.25,39.16-9.82,37.38S667.67,367.26,675,367.8Z"/><path class="cls-40" d="M681.54,553H658a21.24,21.24,0,0,1-21.05-18.4L631,491.2a4.91,4.91,0,0,1,4.86-5.56h67.68a4.91,4.91,0,0,1,4.86,5.56l-5.85,43.42A21.24,21.24,0,0,1,681.54,553Z"/><path class="cls-41" d="M308.57,85.12H275.82V52.37a9.13,9.13,0,0,0-9.13-9.13H252.48a9.13,9.13,0,0,0-9.13,9.13V85.12H210.59a9.13,9.13,0,0,0-9.13,9.13v14.21a9.13,9.13,0,0,0,9.13,9.13h32.75v32.75a9.13,9.13,0,0,0,9.13,9.13h14.21a9.13,9.13,0,0,0,9.13-9.13V117.6h32.75a9.13,9.13,0,0,0,9.13-9.13V94.26A9.13,9.13,0,0,0,308.57,85.12Z"/><path class="cls-42" d="M166.12,240.12c2.47,5.26,8.77,10.84,9,12.53h0c2.6,5.4,8.4,17.16,12.22,23,5.05,7.75,20.13,9,25.62,1.43s17.76-17.05,17.76-17.05,5.92-4.59,5.94-7.69c0-5.94-9.61-8.55-11.27-18-1.88-10.63-.75-10-4.09-16.59l-.05-.1c-1.22-2.37-6-2.47-12.26-1.3-1.63.3-3.37.69-5.17,1.16h0c-13.65,3.49-31.06,11-36.38,14.7C164.54,234.26,164.72,237.13,166.12,240.12Z"/><path class="cls-43" d="M159,236.57l9.13,15.8,13.21-3.44,3.93-13.8,28.49-7.43,8.42,1.13c.72-3.37,1.18-6.92-.9-11L209,216.39l-5.17,1.16h0l-32.94,7.37Z"/><path class="cls-2" d="M164.12,259.92c4.13,1,9.4,3.37,11.85,8.07a21.48,21.48,0,0,1,2.16,12.45c.36-.14.57-.25.57-.25s5.17,17.44,10,21.42c2.27,1.87,11.3,2,20.81,1.23,10.75-.81,22.13-2.7,25-4.24,5.49-2.91,2.91-12.59,0-16.47a11.58,11.58,0,0,1-1.71-3.38c-4.24,1.64-10.49,3.66-11.53,1.77-1.21-2.18,6.34-7.84,11.53-10.64a5.11,5.11,0,0,1,.74-1.3c2.26-2.91-2.91-8.51-2.91-8.51s-12.27,9.44-17.76,17.05-20.56,6.32-25.61-1.43c-3.82-5.86-9.62-17.62-12.22-23,0,.27.05.41.05.41S169.72,258.5,164.12,259.92Z"/><path class="cls-44" d="M221.33,280.52c1,1.89,7.3-.13,11.53-1.77a13.53,13.53,0,0,1,0-8.87C227.67,272.68,220.11,278.34,221.33,280.52Z"/><path class="cls-45" d="M160,277.11a9,9,0,0,0,3.06,3.63c.27,1.62.64,3.85,1,6.43l.76,5.55c.9,7.15,1.59,15.18,1,19.88-1.29,9.9,33.27,20.88,40,17.34,4.78-2.5,4.59-15.5,4.06-23-.12-1.73-.26-3.17-.36-4.1-9.51.74-18.54.64-20.81-1.23a16.45,16.45,0,0,1-3.39-4.64c-3.59-6.57-6.62-16.78-6.62-16.78s.09-8.36-1.94-12.26a19,19,0,0,0-11.62-9c-.19,0-2.38,0-2.59,0C156.74,260.06,155.13,267.28,160,277.11Z"/><path class="cls-2" d="M189.06,177.21l2.81,23.94,20.59,21.4,20.79-2.86,7.07,8.06h.74a62.5,62.5,0,0,1,5.7,12c1-3.84-2.85-10.91-2.85-10.91h1.61s-4.84-7.65-5.58-9.18a4.31,4.31,0,0,0,.74-3s7.44,3.22,7.81.74-5.75-3.27-5.75-3.27l0-2.31L234.17,210l-.62-2,8.64-1.12s.41.54,1.32,1.86c1.61-4.84-3.51-9.09-3.51-9.09a1.64,1.64,0,0,1,1.2-.41c-2.23-4-11.28-8.68-11.28-8.68l4.09-1v-1.61s8.56,1.24,7.94,0-6.45-1-6.45-1v-1.49l-10.17.25s-.25,1.24-2.48,1.24-2-.74-2.48-.74-4,.74-4,.74,0-2.44-.87-2.44-5.33.83-5.52-.66,3.66,0,3.66,0l6.2-1.12-.5-2.73L230,177.77v-1.05a.64.64,0,0,0-1,0c-.5.56-1.86-1.8-1.86-1.8l-6,1.12v-2.6l-13.76,2V177l-1.36.12-1.24-1-4.71,1.55-.5-2.29Zm24.54,24s8.74.43,9.18.43S224,199.9,224,199.9h-1.12L223,199,232,200.4l.31-1.8L231,198l-3.41-1.12.31-1.61,2.61,1.35,6,3.11,1.18-.93,3.91,5.21-6.39.43s.5-2.6,0-2-10.91-.93-10.91-.93l-.93,2.23-7.32-.62Z"/><path class="cls-2" d="M147.18,207.92,170,215.66l18.57-5.37,15.94-24.06,10.31-2.93.32-.67a62.5,62.5,0,0,1,13.31,0c-3-2.55-11.08-2.11-11.08-2.11l.69-1.46s-9,1.09-10.68,1.1a4.31,4.31,0,0,0-2.37-1.95s6.1-5.34,4-6.74-5.41,3.79-5.41,3.79l-2.11-1-5.35,6.93-2.1-.31,2.7-8.28s.66-.14,2.25-.4c-3.68-3.53-9.72-.73-9.72-.73a1.64,1.64,0,0,1,.14-1.26c-4.54.31-12.68,6.47-12.68,6.47l.86-4.12-1.46-.69s4.79-7.2,3.41-7.17-3.66,5.4-3.66,5.4l-1.34-.64-4.14,9.29s1,.76.06,2.77-1.52,1.47-1.74,1.92-1,3.9-1,3.9-2.2-1-2.58-.26-1.54,5.17-3,4.7,1.57-3.3,1.57-3.3l1.65-6.08-2.68-.72,2.56-10.59-1-.45a.64.64,0,0,0-.43.9c.29.69-2.42.91-2.42.91l-1.55,5.86-2.35-1.12-4.11,13.28,1.46.69-.47,1.29-1.43.69-.62,4.92-2.29-.54Zm32.21-11.87s4.14-7.71,4.33-8.1-1.06-1.81-1.06-1.81l-.48,1-.7-.54,5.06-7.48L185,178.08l-1,.88-2.47,2.6-1.32-1,2.34-1.78,5.39-4.09-.33-1.46L194,172l-2.35,6s-2.14-1.57-1.79-.85-5.52,9.46-5.52,9.46l1.62,1.8-3.7,6.34Z"/><path class="cls-2" d="M160.29,194.5l-5.56-2.14-1.24,2.14s-6.8-1.9-7.79-1.07S145,195,145,195l-7.91,1,.87,1.11s-2.47,1.85-2.1,1.85a31.06,31.06,0,0,1,3.34.49,19.76,19.76,0,0,0,2.72,0l.62,1.24,2,.62s-5.19.25-5.81,2.1-8.16,1.36-7.54,2.84a4.12,4.12,0,0,0,1.48,2s-6.06,1.73-5.81,2.6,2,1.24,2,1.24l3.58-.49a3.09,3.09,0,0,1-.12,2.35c-.62.87-4,2.72-4,2.72l.12,1.24s-2.6,1.61-2.35,2.72l.25,1.11s-2.84,3-2.72,3.71,1.85.87,1.85.87-.12,1.11.62,1.24a4.39,4.39,0,0,0,2-.49l1.61.51,1.85-1.5s-6.18,8.9-4.82,9.39l1.36.49s-4.08,7.91-2.1,7.91,2.35-.53,2.35-.53l2-5,1.85.62,2.47-4.08,7.35.25,5.26-10.63Z"/><path class="cls-2" d="M148.61,210.46c1-.51,0-3-1-4.56a7,7,0,0,1-1-1.84c.8,1,1.32,1.63,1.32,1.63s.29-3.63.46-7.1a11.28,11.28,0,0,0,1.79-.29c10.87-2.17,20.8-5.49,30.93-7.85a2.22,2.22,0,0,0,.78-.18,101.58,101.58,0,0,1,16.48-2.5c1.27,12.12,7.81,23.86,14.14,34.78-8.91,2.73-24.94,7.17-24.94,7.17l-23.41,5.84,24-3,1.19,5.87-16.1,3.92,5.08,16.86-7.09,2.54s-5.61-4.42-9.69-1S159,275,164.12,281.28a48.58,48.58,0,0,0,1,11.36s-15.91-28.35-22.37-34.9-8.54-14.75-8.61-18.16c0-2.18-2.66-6.26-4.94-9.58C136.19,224.08,141,216.39,148.61,210.46Z"/><path class="cls-46" d="M164.12,281.28l.69,11.44,0,.09.42,1.08c16.34,13.14,32.52,14.43,44.63,13.06-.12-1.73-.26-3.17-.36-4.1-9.51.74-18.54.64-20.81-1.23a16.45,16.45,0,0,1-3.39-4.64A44,44,0,0,1,164.12,281.28Z"/><path class="cls-47" d="M551.19,193.83s8-23.36,7-41.39"/><path class="cls-48" d="M567.2,262.31s-22,8.07-27.36-32.43,10.2-38.07,17.36-34c7.87,4.48,20,43.3-13.4,69.55"/><circle class="cls-2" cx="567.2" cy="262.31" r="3.62" transform="translate(264.11 808.8) rotate(-85.81)"/><circle class="cls-2" cx="541.32" cy="266.89" r="3.62" transform="translate(235.55 787.24) rotate(-85.81)"/><path class="cls-49" d="M494.18,176.3s-21.52,42.08-11.68,74.1"/><circle class="cls-50" cx="482.5" cy="250.39" r="11.68"/></g></svg>