<svg xmlns="http://www.w3.org/2000/svg" xmlns:xlink="http://www.w3.org/1999/xlink" viewBox="0 0 736 574.85"><defs><style>.cls-1{fill:url(#Безымянный_градиент_263);}.cls-2{fill:url(#Безымянный_градиент_263-2);}.cls-3{fill:url(#Безымянный_градиент_17);}.cls-4{fill:url(#Безымянный_градиент_9);}.cls-5{fill:url(#Безымянный_градиент_271);}.cls-6{fill:url(#Безымянный_градиент_138);}.cls-15,.cls-32,.cls-34,.cls-44,.cls-50,.cls-51,.cls-52,.cls-54,.cls-55,.cls-56,.cls-57,.cls-58,.cls-59,.cls-60,.cls-61,.cls-62,.cls-63,.cls-64,.cls-65,.cls-66,.cls-67,.cls-68,.cls-69,.cls-7{fill:none;stroke-miterlimit:10;}.cls-15,.cls-7{stroke:#fff;}.cls-7{stroke-width:2px;}.cls-8{fill:url(#Безымянный_градиент_250);}.cls-9{fill:url(#Безымянный_градиент_144);}.cls-10{fill:url(#Безымянный_градиент_123);}.cls-11{fill:url(#Безымянный_градиент_250-2);}.cls-12{fill:url(#Безымянный_градиент_123-2);}.cls-13{fill:url(#Безымянный_градиент_48);}.cls-14{fill:url(#Безымянный_градиент_123-3);}.cls-15{stroke-width:1.17px;}.cls-16{fill:url(#Безымянный_градиент_139);}.cls-17{fill:url(#Безымянный_градиент_123-4);}.cls-18{fill:url(#Безымянный_градиент_123-5);}.cls-19{fill:url(#Безымянный_градиент_140);}.cls-20{fill:url(#Безымянный_градиент_48-2);}.cls-21{fill:url(#Безымянный_градиент_139-2);}.cls-22{fill:url(#Безымянный_градиент_157);}.cls-23{fill:url(#Безымянный_градиент_162);}.cls-24{fill:url(#Безымянный_градиент_162-2);}.cls-25{fill:#1f1844;}.cls-26{fill:url(#Безымянный_градиент_250-3);}.cls-27{fill:url(#Безымянный_градиент_157-2);}.cls-28{fill:url(#Безымянный_градиент_250-4);}.cls-29{fill:url(#Безымянный_градиент_9-2);}.cls-30{fill:url(#Безымянный_градиент_157-3);}.cls-31{fill:url(#Безымянный_градиент_5);}.cls-32{stroke-width:0.9px;stroke:url(#Безымянный_градиент_2);}.cls-33{fill:url(#Безымянный_градиент_17-2);}.cls-34{stroke-width:2.59px;stroke:url(#Безымянный_градиент_164);}.cls-35{fill:url(#Безымянный_градиент_5-2);}.cls-36{fill:url(#Безымянный_градиент_5-3);}.cls-37{fill:url(#Безымянный_градиент_5-4);}.cls-38{fill:url(#Безымянный_градиент_18);}.cls-39{fill:url(#Безымянный_градиент_33);}.cls-40{fill:url(#Безымянный_градиент_33-2);}.cls-41{fill:url(#Безымянный_градиент_33-3);}.cls-42{fill:url(#Безымянный_градиент_17-3);}.cls-43{fill:url(#Безымянный_градиент_33-4);}.cls-44{stroke-width:1.51px;stroke:url(#Безымянный_градиент_33-5);}.cls-45{fill:url(#Безымянный_градиент_33-6);}.cls-46{fill:url(#Безымянный_градиент_17-4);}.cls-47{fill:url(#Безымянный_градиент_33-7);}.cls-48{fill:url(#Безымянный_градиент_11);}.cls-49{fill:url(#Безымянный_градиент_144-2);}.cls-50,.cls-52,.cls-54,.cls-55,.cls-56,.cls-57,.cls-58,.cls-59,.cls-60,.cls-61,.cls-62,.cls-63,.cls-64,.cls-65,.cls-66,.cls-67,.cls-68,.cls-69{stroke-linecap:round;}.cls-50,.cls-51,.cls-52{stroke-width:3.1px;}.cls-50{stroke:url(#Безымянный_градиент_263-3);}.cls-51{stroke:url(#Безымянный_градиент_263-4);}.cls-52{stroke:url(#Безымянный_градиент_263-5);}.cls-53{fill:url(#Безымянный_градиент_263-6);}.cls-54,.cls-55,.cls-56,.cls-57,.cls-58,.cls-59,.cls-60,.cls-61,.cls-62,.cls-63,.cls-64,.cls-65,.cls-67,.cls-68,.cls-69{stroke-width:6px;}.cls-54{stroke:url(#Безымянный_градиент_139-3);}.cls-55{stroke:url(#Безымянный_градиент_139-4);}.cls-56{stroke:url(#Безымянный_градиент_139-5);}.cls-57{stroke:url(#Безымянный_градиент_139-6);}.cls-58{stroke:url(#Безымянный_градиент_139-7);}.cls-59{stroke:url(#Безымянный_градиент_139-8);}.cls-60{stroke:url(#Безымянный_градиент_139-9);}.cls-61{stroke:url(#Безымянный_градиент_139-10);}.cls-62{stroke:url(#Безымянный_градиент_139-11);}.cls-63{stroke:url(#Безымянный_градиент_139-12);}.cls-64{stroke:url(#Безымянный_градиент_41);}.cls-65{stroke:url(#Безымянный_градиент_31);}.cls-66{stroke-width:5.89px;stroke:url(#Безымянный_градиент_31-2);}.cls-67{stroke:url(#Безымянный_градиент_139-13);}.cls-68{stroke:url(#Безымянный_градиент_45);}.cls-69{stroke:url(#Безымянный_градиент_139-14);}.cls-70{fill:url(#Безымянный_градиент_55);}</style><linearGradient id="Безымянный_градиент_263" x1="12.93" y1="276.33" x2="658.67" y2="276.33" gradientUnits="userSpaceOnUse"><stop offset="0" stop-color="#f0f2f5"/><stop offset="0.99" stop-color="#f5f7f8"/></linearGradient><linearGradient id="Безымянный_градиент_263-2" x1="270.91" y1="188.85" x2="251.4" y2="40.84" xlink:href="#Безымянный_градиент_263"/><linearGradient id="Безымянный_градиент_17" x1="268.21" y1="168.4" x2="253.83" y2="59.3" gradientUnits="userSpaceOnUse"><stop offset="0.01" stop-color="#bbc0d9"/><stop offset="1" stop-color="#d6dbf8"/></linearGradient><linearGradient id="Безымянный_градиент_9" x1="66.67" y1="412.03" x2="322.92" y2="412.03" gradientUnits="userSpaceOnUse"><stop offset="0.09" stop-color="#d9d9d9"/><stop offset="1" stop-color="#e6e6e6"/></linearGradient><linearGradient id="Безымянный_градиент_271" x1="76.11" y1="357.23" x2="192.39" y2="316.25" gradientUnits="userSpaceOnUse"><stop offset="0.01" stop-color="#bbbfd9"/><stop offset="0.29" stop-color="#cacde2"/><stop offset="0.84" stop-color="#f2f3f8"/><stop offset="1" stop-color="#fff"/></linearGradient><linearGradient id="Безымянный_градиент_138" x1="169.81" y1="326.74" x2="186.24" y2="236.73" gradientUnits="userSpaceOnUse"><stop offset="0.38" stop-color="#201f4f"/><stop offset="0.54" stop-color="#27275a"/><stop offset="0.83" stop-color="#393c76"/><stop offset="1" stop-color="#464b8b"/></linearGradient><linearGradient id="Безымянный_градиент_250" x1="111.19" y1="486.47" x2="407.17" y2="486.47" gradientUnits="userSpaceOnUse"><stop offset="0" stop-color="#a7a5ee"/><stop offset="0.44" stop-color="#9d9ce8"/><stop offset="0.89" stop-color="#8988d5"/></linearGradient><linearGradient id="Безымянный_градиент_144" x1="218.57" y1="420.35" x2="228.21" y2="371.13" gradientUnits="userSpaceOnUse"><stop offset="0.11" stop-color="#8988d5"/><stop offset="0.56" stop-color="#9d9ce8"/><stop offset="1" stop-color="#a7a5ee"/></linearGradient><linearGradient id="Безымянный_градиент_123" x1="642.89" y1="-276.01" x2="705.48" y2="-276.01" gradientTransform="translate(-474.8 473.7) rotate(22.79)" gradientUnits="userSpaceOnUse"><stop offset="0" stop-color="#753200"/><stop offset="1" stop-color="#a04400"/></linearGradient><linearGradient id="Безымянный_градиент_250-2" x1="115.1" y1="397.35" x2="240.08" y2="397.35" xlink:href="#Безымянный_градиент_250"/><linearGradient id="Безымянный_градиент_123-2" x1="109.5" y1="256.51" x2="187.49" y2="220.42" gradientTransform="matrix(1, 0, 0, 1, 0, 0)" xlink:href="#Безымянный_градиент_123"/><linearGradient id="Безымянный_градиент_48" x1="-4232.32" y1="918.51" x2="-4260.14" y2="945.82" gradientTransform="matrix(-0.98, 0.21, 0.21, 0.98, -4186.25, 278.97)" gradientUnits="userSpaceOnUse"><stop offset="0" stop-color="#a04400"/><stop offset="1" stop-color="#753200"/></linearGradient><linearGradient id="Безымянный_градиент_123-3" x1="-4232.39" y1="899.09" x2="-4235.98" y2="902.62" gradientTransform="matrix(-0.98, 0.21, 0.21, 0.98, -4186.25, 278.97)" xlink:href="#Безымянный_градиент_123"/><linearGradient id="Безымянный_градиент_139" x1="-151.54" y1="417.53" x2="-2.02" y2="417.53" gradientTransform="matrix(0.99, -0.16, 0.16, 0.99, 165, -121.92)" gradientUnits="userSpaceOnUse"><stop offset="0" stop-color="#201f4f"/><stop offset="0.26" stop-color="#27275a"/><stop offset="0.72" stop-color="#393c76"/><stop offset="1" stop-color="#464b8b"/></linearGradient><linearGradient id="Безымянный_градиент_123-4" x1="154" y1="300.1" x2="143.23" y2="297.7" gradientTransform="matrix(1, 0, 0, 1, 0, 0)" xlink:href="#Безымянный_градиент_123"/><linearGradient id="Безымянный_градиент_123-5" x1="208.83" y1="291.44" x2="134.34" y2="274.84" gradientTransform="matrix(1, 0, 0, 1, 0, 0)" xlink:href="#Безымянный_градиент_123"/><linearGradient id="Безымянный_градиент_140" x1="-44.16" y1="363.07" x2="-81.84" y2="380.99" gradientTransform="matrix(0.99, -0.16, 0.16, 0.99, 165, -121.92)" gradientUnits="userSpaceOnUse"><stop offset="0.1" stop-color="#753200"/><stop offset="0.48" stop-color="#8a3b00" stop-opacity="0.52"/><stop offset="0.82" stop-color="#9a4100" stop-opacity="0.14"/><stop offset="1" stop-color="#a04400" stop-opacity="0"/></linearGradient><linearGradient id="Безымянный_градиент_48-2" x1="147.9" y1="290.31" x2="183.12" y2="309.88" gradientTransform="matrix(1, 0, 0, 1, 0, 0)" xlink:href="#Безымянный_градиент_48"/><linearGradient id="Безымянный_градиент_139-2" x1="63.3" y1="474.13" x2="168.89" y2="474.13" gradientTransform="matrix(1, 0, 0, 1, 0, 0)" xlink:href="#Безымянный_градиент_139"/><linearGradient id="Безымянный_градиент_157" x1="454.65" y1="171.37" x2="553.76" y2="171.37" gradientUnits="userSpaceOnUse"><stop offset="0" stop-color="#a96e46"/><stop offset="1" stop-color="#ffd0b9"/></linearGradient><linearGradient id="Безымянный_градиент_162" x1="541.96" y1="149.89" x2="502.58" y2="188.54" gradientUnits="userSpaceOnUse"><stop offset="0" stop-color="#a96e46"/><stop offset="1" stop-color="#ffd0b9" stop-opacity="0"/></linearGradient><linearGradient id="Безымянный_градиент_162-2" x1="336.95" y1="556.39" x2="332.2" y2="561.05" gradientTransform="translate(160.54 -406.24) rotate(-4.83)" xlink:href="#Безымянный_градиент_162"/><linearGradient id="Безымянный_градиент_250-3" x1="443.23" y1="232.96" x2="444.17" y2="232.96" xlink:href="#Безымянный_градиент_250"/><linearGradient id="Безымянный_градиент_157-2" x1="302.54" y1="325.07" x2="475.35" y2="325.07" xlink:href="#Безымянный_градиент_157"/><linearGradient id="Безымянный_градиент_250-4" x1="441.14" y1="301.36" x2="618.4" y2="301.36" xlink:href="#Безымянный_градиент_250"/><linearGradient id="Безымянный_градиент_9-2" x1="475.69" y1="344.5" x2="562.79" y2="344.5" xlink:href="#Безымянный_градиент_9"/><linearGradient id="Безымянный_градиент_157-3" x1="520.51" y1="287.41" x2="586.74" y2="365.48" xlink:href="#Безымянный_градиент_157"/><linearGradient id="Безымянный_градиент_5" x1="660.28" y1="500.78" x2="636.61" y2="321.16" gradientUnits="userSpaceOnUse"><stop offset="0" stop-color="#1f1844"/><stop offset="0.99" stop-color="#3d3c99"/></linearGradient><linearGradient id="Безымянный_градиент_2" x1="664.4" y1="495.42" x2="643.47" y2="336.62" gradientUnits="userSpaceOnUse"><stop offset="0" stop-color="#3f3d9e"/><stop offset="0.99" stop-color="#423e9f"/></linearGradient><linearGradient id="Безымянный_градиент_17-2" x1="25.96" y1="1158.5" x2="114.03" y2="1138.26" gradientTransform="translate(217.79 -622) rotate(-20.88)" xlink:href="#Безымянный_градиент_17"/><linearGradient id="Безымянный_градиент_164" x1="-380.23" y1="1406.6" x2="-312.68" y2="1418.97" gradientTransform="matrix(0.86, -0.52, 0.52, 0.86, 263.44, -936.28)" gradientUnits="userSpaceOnUse"><stop offset="0" stop-color="#bac6d8"/><stop offset="0.99" stop-color="#d6dbf8"/></linearGradient><linearGradient id="Безымянный_градиент_5-2" x1="663.92" y1="437.36" x2="636.85" y2="410.76" xlink:href="#Безымянный_градиент_5"/><linearGradient id="Безымянный_градиент_5-3" x1="663.06" y1="459.72" x2="631.56" y2="448.75" xlink:href="#Безымянный_градиент_5"/><linearGradient id="Безымянный_градиент_5-4" x1="668.29" y1="480.68" x2="631.26" y2="476.26" xlink:href="#Безымянный_градиент_5"/><linearGradient id="Безымянный_градиент_18" x1="673.66" y1="378.98" x2="665.01" y2="414.37" gradientUnits="userSpaceOnUse"><stop offset="0.01" stop-color="#3d3c99"/><stop offset="1" stop-color="#1f1844"/></linearGradient><linearGradient id="Безымянный_градиент_33" x1="-1132.43" y1="1726.77" x2="-1120.99" y2="1726.77" gradientTransform="translate(213.02 -1590.29) rotate(-45.37)" gradientUnits="userSpaceOnUse"><stop offset="0" stop-color="#e0e4eb"/><stop offset="0.99" stop-color="#f3f6fd"/></linearGradient><linearGradient id="Безымянный_градиент_33-2" x1="-2498.91" y1="1827.12" x2="-2487.37" y2="1827.12" gradientTransform="translate(-331.48 -2476.4) rotate(-72.22)" xlink:href="#Безымянный_градиент_33"/><linearGradient id="Безымянный_градиент_33-3" x1="859.39" y1="-2039.79" x2="870.84" y2="-2039.79" gradientTransform="matrix(0.63, 0.78, -0.78, 0.63, -1450.83, 1034.34)" xlink:href="#Безымянный_градиент_33"/><linearGradient id="Безымянный_градиент_17-3" x1="679.95" y1="458.57" x2="691.88" y2="446.33" xlink:href="#Безымянный_градиент_17"/><linearGradient id="Безымянный_градиент_33-4" x1="678.01" y1="-2568.57" x2="689.73" y2="-2568.57" gradientTransform="matrix(0.5, 0.87, -0.77, 0.45, -1643.21, 1001.86)" xlink:href="#Безымянный_градиент_33"/><linearGradient id="Безымянный_градиент_33-5" x1="266.78" y1="935.89" x2="283.63" y2="935.89" gradientTransform="translate(185.57 -392.55) rotate(-13.38)" xlink:href="#Безымянный_градиент_33"/><linearGradient id="Безымянный_градиент_33-6" x1="-3282.35" y1="1551.42" x2="-3270.36" y2="1551.42" gradientTransform="matrix(0.04, -0.93, 1, 0.04, -777.81, -2635.83)" xlink:href="#Безымянный_градиент_33"/><linearGradient id="Безымянный_градиент_17-4" x1="680.22" y1="477.79" x2="692.12" y2="464.58" xlink:href="#Безымянный_градиент_17"/><linearGradient id="Безымянный_градиент_33-7" x1="457.91" y1="-3212.84" x2="470.89" y2="-3212.84" gradientTransform="matrix(0.35, 0.94, -0.74, 0.28, -1865.26, 916.82)" xlink:href="#Безымянный_градиент_33"/><linearGradient id="Безымянный_градиент_11" x1="675.52" y1="378.47" x2="666.86" y2="413.86" gradientUnits="userSpaceOnUse"><stop offset="0" stop-color="#e6eaf1"/><stop offset="0.99" stop-color="#f3f6fd"/></linearGradient><linearGradient id="Безымянный_градиент_144-2" x1="640.13" y1="533.76" x2="706.08" y2="518.61" xlink:href="#Безымянный_градиент_144"/><linearGradient id="Безымянный_градиент_263-3" x1="550.71" y1="182.83" x2="560.88" y2="182.83" xlink:href="#Безымянный_градиент_263"/><linearGradient id="Безымянный_градиент_263-4" x1="636.12" y1="232.94" x2="670.32" y2="232.94" gradientTransform="translate(-80.28 -40.57) rotate(4.19)" xlink:href="#Безымянный_градиент_263"/><linearGradient id="Безымянный_градиент_263-5" x1="479.45" y1="223.04" x2="496.8" y2="223.04" xlink:href="#Безымянный_градиент_263"/><linearGradient id="Безымянный_градиент_263-6" x1="471.89" y1="260.09" x2="495.25" y2="260.09" xlink:href="#Безымянный_градиент_263"/><linearGradient id="Безымянный_градиент_139-3" x1="2553" y1="363.02" x2="2440.23" y2="234.58" gradientTransform="translate(-2274.94)" xlink:href="#Безымянный_градиент_139"/><linearGradient id="Безымянный_градиент_139-4" x1="2459.68" y1="401.18" x2="2408.96" y2="343.42" gradientTransform="translate(-2274.94)" xlink:href="#Безымянный_градиент_139"/><linearGradient id="Безымянный_градиент_139-5" x1="2461.91" y1="406.12" x2="2418.83" y2="357.06" gradientTransform="translate(-2274.94)" xlink:href="#Безымянный_градиент_139"/><linearGradient id="Безымянный_градиент_139-6" x1="2478.89" y1="362.42" x2="2390.32" y2="261.56" gradientTransform="translate(-2274.94)" xlink:href="#Безымянный_градиент_139"/><linearGradient id="Безымянный_градиент_139-7" x1="2471.81" y1="354.27" x2="2385.41" y2="255.87" gradientTransform="translate(-2274.94)" xlink:href="#Безымянный_градиент_139"/><linearGradient id="Безымянный_градиент_139-8" x1="2463.48" y1="347.17" x2="2376.29" y2="247.87" gradientTransform="translate(-2274.94)" xlink:href="#Безымянный_градиент_139"/><linearGradient id="Безымянный_градиент_139-9" x1="2447.13" y1="340.67" x2="2365.91" y2="248.17" gradientTransform="translate(-2274.94)" xlink:href="#Безымянный_градиент_139"/><linearGradient id="Безымянный_градиент_139-10" x1="2434.5" y1="330.84" x2="2358.79" y2="244.62" gradientTransform="translate(-2274.94)" xlink:href="#Безымянный_градиент_139"/><linearGradient id="Безымянный_градиент_139-11" x1="2410.58" y1="312.7" x2="2353.59" y2="247.8" gradientTransform="translate(-2274.94)" xlink:href="#Безымянный_градиент_139"/><linearGradient id="Безымянный_градиент_139-12" x1="2537.94" y1="365.78" x2="2430.25" y2="243.13" gradientTransform="translate(-2274.94)" xlink:href="#Безымянный_градиент_139"/><linearGradient id="Безымянный_градиент_41" x1="2278.13" y1="472.63" x2="2246.82" y2="436.98" gradientTransform="translate(-2101.5 450.73) rotate(-16.56)" gradientUnits="userSpaceOnUse"><stop offset="0" stop-color="#33366e"/><stop offset="1" stop-color="#464b8b"/></linearGradient><linearGradient id="Безымянный_градиент_31" x1="2499.72" y1="350.5" x2="2463.65" y2="309.42" gradientTransform="translate(-2274.94)" gradientUnits="userSpaceOnUse"><stop offset="0" stop-color="#464b8b"/><stop offset="0.28" stop-color="#393c76"/><stop offset="0.74" stop-color="#27275a"/><stop offset="1" stop-color="#201f4f"/></linearGradient><linearGradient id="Безымянный_градиент_31-2" x1="2491.39" y1="355.16" x2="2456.46" y2="315.38" xlink:href="#Безымянный_градиент_31"/><linearGradient id="Безымянный_градиент_139-13" x1="2544.17" y1="358.39" x2="2431.4" y2="229.95" gradientTransform="translate(-2274.94)" xlink:href="#Безымянный_градиент_139"/><linearGradient id="Безымянный_градиент_45" x1="2473.31" y1="214.62" x2="2448.43" y2="186.29" gradientTransform="translate(-2274.94)" gradientUnits="userSpaceOnUse"><stop offset="0" stop-color="#464b8b"/><stop offset="1" stop-color="#3a3d79"/></linearGradient><linearGradient id="Безымянный_градиент_139-14" x1="2489.94" y1="368.35" x2="2398.7" y2="264.44" gradientTransform="translate(-2274.94)" xlink:href="#Безымянный_градиент_139"/><linearGradient id="Безымянный_градиент_55" x1="415.43" y1="142.78" x2="542.23" y2="70.63" gradientUnits="userSpaceOnUse"><stop offset="0" stop-color="#1f1844"/><stop offset="0.11" stop-color="#1f1844"/><stop offset="1" stop-color="#1f1844"/></linearGradient></defs><title>01</title><g id="_01" data-name="01"><path class="cls-1" d="M587.27,311C705.8,250.42,684.54,32.32,464.62,32.77,253.88,33.21,91.69,203,35,318.92c-13.32,27.22-24.61,70.46-21.55,113.85,2.23,31.59,23.12,57.95,45.33,83.59l464.55,3.54c49.17-32.32,46-64.55,35.93-95.55-1.61-4.95-3.39-9.86-5.16-14.74-19.84.16-40.25-2.19-59.94.79,19.69-3,40.1-.63,59.94-.79C541.28,374.3,529,340.86,587.27,311Z"/><circle class="cls-2" cx="260.65" cy="111.05" r="79.53"/><path class="cls-3" d="M309.64,94.82H276.89V62.06a9.13,9.13,0,0,0-9.13-9.13H253.55a9.13,9.13,0,0,0-9.13,9.13V94.82H211.66a9.13,9.13,0,0,0-9.13,9.13v14.21a9.13,9.13,0,0,0,9.13,9.13h32.75V160a9.13,9.13,0,0,0,9.13,9.13h14.21a9.13,9.13,0,0,0,9.13-9.13V127.29h32.75a9.13,9.13,0,0,0,9.13-9.13V103.95A9.13,9.13,0,0,0,309.64,94.82Z"/><path class="cls-4" d="M66.67,387.46l46.85,79.46,209.39-36.69-44-65.85a21.16,21.16,0,0,0-20.71-6.69Z"/><path class="cls-5" d="M89.8,275.48c-32.41,8.45-33.21,32.3-25.47,56.39l15.54,48.35a34.28,34.28,0,0,0,39.55,23.08L227.61,381,166.19,266.25Z"/><path class="cls-6" d="M199.11,233.89C171,209.26,144,231.5,137,263.17c-2,8.58-15.74,28.69-17.4,41.71-2.64,20.78,62.15,14.44,63,15.1s18.15,17.75,27.48,21.18C242.69,318.82,223.18,256.87,199.11,233.89Z"/><path class="cls-7" d="M74.66,289.14s15-5.46,19.84,6.24c11,26.56,11.44,66.22,10.58,88.94"/><path class="cls-8" d="M317,421.1a27.08,27.08,0,0,0-25.68-8.39L121.7,448.22c-7.74,1.62-13.23,10.36-9.11,17.11L169,560.8H407.17Z"/><path class="cls-9" d="M221.48,332.8c-9.84-11.9-20.06-9.67-23.81-11.34l36,73.2,1.81,29.82,23.53-5C247,397.35,235.42,349.66,221.48,332.8Z"/><path class="cls-10" d="M237.64,458.46s-5.21,0-7.65,1.38l-8.51,16.32s8.08,10.25,15,15.82c3.21,2.58,8.7,5.71,14,8.44,6.18,3.17,14.26,7.2,15,4.63.67-2.37-10.5-7.4-10.6-7.93-.18-1,17.86,7.49,19.27,3.62,1-2.87-17.64-8.83-17.44-9.54s22.61,9.55,23.95,5.64c1.19-3.47-21.22-11.33-20.65-12.43.3-.57,21.09,7.75,22,5,1.49-4.49-10.65-6.24-17.17-9.65s-9.8-6.57-9.55-10c.13-1.72,6.31-.77,6.31-.77s6.06.62,10.19,2.61a1.63,1.63,0,0,0,2.38-1.36c0-3.38-6.5-6.08-9.6-7.11-9-3-26.93-4.68-26.93-4.68"/><path class="cls-11" d="M186.92,313.53a42.4,42.4,0,0,1,27.59,8.15,37,37,0,0,1,8.35,8.6c7.23,10.52,16.87,69.59,17.22,93.17l-54.61,12.21c4.41,1.8,33.55,22.21,49.07,22.81-8.77,4.87-11.52,22.78-11.52,22.78-36.37-.78-91.91-29.67-99.11-58.31-5.5-21.86-8.56-54.07-8.8-67.31-.33-17.91,14.25-30.17,23.46-34.77s30.07-6.41,30.07-6.41Z"/><path class="cls-12" d="M202,234.86c-.13,1.49-.32,3-.53,4.43-2-7.59-14.92-16.18-29.59-14.84,0,0,0,1.77-2.76,2.27s-4-2.95-4.6,0-.61,6.93-4,6.93-5.52,2.14-5.82,4.29,5.39,9.85,2.54,11.75c-3.27,2.16-5.63,10.27-5.63,10.27s-2.55-18.81-12.68-7.79c-.71,2-1.32,4.06-1.82,6.09-.47-2.95.29-5.25,1.92-6.71a6.14,6.14,0,0,1,1.54-1,52.5,52.5,0,0,1-2.45-15.46,35.67,35.67,0,0,1,1.06-8.93c4-15.47,24.06-20,37.1-19.1S203.24,220.36,202,234.86Z"/><path class="cls-13" d="M145.18,277.64a45.27,45.27,0,0,0,32.5,19.59l-.09-1.74-.11-2.14c-9.32-2.75-20.47-9.2-33.46-22.72l.28.32a45.65,45.65,0,0,1,.8,5.79C145.12,277,145.15,277.32,145.18,277.64Z"/><path class="cls-14" d="M145.75,256.31s-3-3.56-4.74-.55,1.67,7.68,1.67,7.68Z"/><path class="cls-15" d="M155,329.55s32.36,23.52,40.28,22S197,319.88,197,319.88"/><path class="cls-16" d="M211.42,332.74c4.75-44.87-23.16-77.36-26.34-84.6L152.19,277.3s15.48,31.83,9.3,51.87c-.65,2.14,11,72.74,9.88,74.85-.39.73-13.41,9.68-22.21,6.93-52.78-16.53-58.61-41.1-59-45.53-8.75-99.16,36.48-167.18,62.63-171.14,24.34-3.68,52.86-1.05,67,42.11,6.16,18.77,10.12,77.68,13.59,106.74C235,356.62,219.7,338.87,211.42,332.74Z"/><path class="cls-17" d="M145.53,287.36c.25.64.74,2.22,1.18,3.81.23.79.45,1.58.61,2.25.08.32.17.65.26,1,.33,1.33.65,2.62,1,3.85,1.21,4.83,2.27,8.85,3.17,12.18C153.19,301.22,154.6,291.18,145.53,287.36Z"/><path class="cls-18" d="M204.94,254.62c-1.05-4.14-1-8.72-1.07-13.49h0c-2.88-7.52-8.91-3.64-12.73-5.48-5.09-2.48-7.85-9.18-9.5-8.42-1.73,35.37-30,46.15-30,46.15s-5-16.6-12.83-9.82a10.22,10.22,0,0,0-3.31,6.41v0a12.75,12.75,0,0,0,2.19,9.15,40.08,40.08,0,0,0,7.35,7.59,2,2,0,0,0,.38.32,1.26,1.26,0,0,1,.14.3c7.26,7.25,7.66,13.86,6.17,23.08,2.78,10.24,4.1,13.87,4.1,13.87.94,4.27,19.14,14.25,32.72,20.81a3.64,3.64,0,0,0,4.94-4.67l-4.89-26.13-.62-2.7-.08-.32-.64-2.7-.4-1.91-.1-.49q.45-.11,1-.27c.71-.19,1.46-.45,2.26-.75,8.26-3.2,20.43-11.81,21.41-26.6C212,268.27,206.37,260.27,204.94,254.62Z"/><path class="cls-19" d="M191.14,235.63a55.78,55.78,0,0,1-18.77,27c-14.2,11.42-20.75,10.69-20.75,10.69s28.3-10.78,30-46.15C183.29,226.46,186,233.15,191.14,235.63Z"/><path class="cls-20" d="M188,312.87c-11.22-1.33-24.66-6-36.78-19.47,13.13,6.55,25.35,10.21,35.62,13.29l.4,1.91.64,2.7Z"/><path class="cls-21" d="M66.67,387.46l-2.31,12.27a61.07,61.07,0,0,0,6.56,40.86L133.15,549.4a22.65,22.65,0,0,0,19.66,11.41h16.07Z"/><path class="cls-22" d="M526.81,265.09c-14.2,3.56-24.8-58.16-24.8-58.16l0-4.75-.05-14,0-7.27a6.85,6.85,0,0,1-1.48-.1c-.67-.08-1.54-.21-2.56-.4-6.92-1.33-16.69-7.39-23.2-18.62-6-10.38-4.23-21.65-5.65-28.24s-9.28-8.9-12.14-16c-3.67-9.1-2.56-21.77,1.46-25.59,18.05-17.34,58.57-14.2,58.57-14.2S530.85,80.5,531.8,108c1.1-1.16-.21,5,1.49,4.25,3.57-1.53,6.88-1.68,9.45-.47,5.61,2.61,6.23,9.27-.34,23.76a42.3,42.3,0,0,0-1.28,6.27,45.26,45.26,0,0,0,.47,13.87c2.63,14.42,11,25.19,11.63,26.27C556.93,187.9,541,261.55,526.81,265.09Z"/><path class="cls-23" d="M541.59,155.73c-8.4,16.61-23.58,27.24-39.65,32.41l0-7.27a6.85,6.85,0,0,1-1.48-.1c17.7-6.08,31.77-25.94,40.69-38.91A45.26,45.26,0,0,0,541.59,155.73Z"/><path class="cls-24" d="M536.11,120.48s2.43-5.68,5.77-2.54.87,10.35.87,10.35Z"/><path class="cls-25" d="M497.07,412.41c26.76-4.06,54.84,1.75,81-2.31-2-30.61-7.91-49.05-7.91-49.05l-104.86,9.78L453,562h53.42s5.57-70.8,9-70.8,7,70.8,7,70.8h52.29s14.38-116.37,3.42-151.88C551.92,414.16,523.83,408.35,497.07,412.41Z"/><path class="cls-26" d="M443.31,233.16c1.23.11,1.1-.05-.06-.42C443.21,233,443.23,233.15,443.31,233.16Z"/><path class="cls-27" d="M444.17,257.6c-8.3,29.62-17.39,60.48-17.39,60.48l-58.32,35.15a5.91,5.91,0,0,1-2.22,0c-14.91-8-25.52,5.07-36,4.73-4.43-.14-4.59-1.18-5.83.72s3.26,5.58,6.92,6.13a30.53,30.53,0,0,1,7.79,2.66,43.2,43.2,0,0,0-5.29,5.87c-2.22,3-11.59,5.64-15.3,5.27-7.78-.78-12.81-2.3-15.23-.39-1,.79-.85,2.2-.32,3.6a10,10,0,0,0,5.43,5.55c4.57,2,13.37,5.41,18.94,5.16,4.43-.19,11.45.09,18.31-3.82s26.88-15.54,26.88-15.54,72.65-27.87,79.65-34.5c4.76-4.51,20.68-47.65,23.18-70.28C463.29,260.76,458,261.47,444.17,257.6Z"/><path class="cls-28" d="M606.17,211.66c-6.36-9.08-42-36.85-54.13-43.59,0,2.11-41,56.68-41,56.68s-11.89-36.41-12.08-39.21c0-.48-39,29.2-41.25,33.63-4.74,9.52-12.42,22.94-16.53,37.58,13.79,3.87,14.36,4.25,26.86,8.5-12.2,27.75,2.6,43.84.33,68.17-4.22,45.33-12.76,88.6-12.76,88.6,28.73,1.83,115.33,21.81,131.4,7.55,5.78-5.12-3-31.33,1.44-62.15,6.48-44.49,9-83.48,9-83.48s18.75-5.12,20.09-5.26C621.14,249.9,613.13,221.6,606.17,211.66Z"/><polygon class="cls-29" points="556.19 282.21 475.69 287.68 481.52 406.79 562.79 404.25 556.19 282.21"/><path class="cls-30" d="M581.5,283.58l-4.83,51.5-54.34,2.45s-9.62-7.88-14.23-12.5c-5.21-5.21-15-10.13-19.32-8.54a2.37,2.37,0,0,0-1.35,2.61c1.19,5.66,9.4,6.62,7.65,8.53A89.35,89.35,0,0,1,480,325.07c-3.8-1.17-6.72,1.6-5.86,4.18a2.28,2.28,0,0,1-1.07,2.56c-2.48,1.62-1.68,5.06-.4,6.24,1.61,1.49-4.45,2.73-.77,6.45s-2.09,4.08,2,7.43,11.68,4.6,20.61,3.48c8-1,17.4.46,27.83,1.74s52.49,8.5,66,3.9c17.4-5.92,17-13,26.27-82.38C598.17,280.33,581.5,283.58,581.5,283.58Z"/><path class="cls-31" d="M665.87,501.36s26.19-29.15,23.41-40.64,13.47-25.44,13.79-42.18c.36-19-9.77-13.89-13.27-22-5.19-12,6.37-22.65-11.11-27.25-11.94-3.14-20.33,3-19.24-11.78s-4.25-33-13.82-39.68c-13.66-9.48-30.92-9.51-21.56,9.59,9.84,20.08-17.67,46.46-23.25,71.55C579.36,495.34,665.87,501.36,665.87,501.36Z"/><path class="cls-32" d="M636.65,337.53c3,24.71,34,64.19,19.94,90.58s7.24,67.23,7.24,67.23"/><path class="cls-33" d="M723.29,438.53c-13.75,11.68,11.3,25.67-2.55,41.56s-34.33,29.08-37.07,25c-.69-1-17.47-28.11-11.28-44.54a14.8,14.8,0,0,1,1.67-3.24c8.87-13,10.66-10.39,5.84-22.77-8.28-21.21-3.43-26.7,4.5-27.32s13.73-2.15,11.77-10.42-21.76-40.85-5.54-47c28.08-10.61,27.56,30.6,26.94,37.49-1.48,16.52,5.48,18.92,9.74,22C733.31,413.65,737,426.85,723.29,438.53Z"/><path class="cls-34" d="M692.22,536.81S673,499.28,694.49,466c9.7-15.06,21.26-60,4.39-97.44"/><path class="cls-35" d="M636.39,410.35c4-6.73,32.49,21,27.5,27.11S632.61,416.76,636.39,410.35Z"/><path class="cls-36" d="M629.19,448.2c.57-7.84,35,3.43,33.24,11.17S628.65,455.67,629.19,448.2Z"/><path class="cls-37" d="M631.47,476.37c-1.51-7.19,36.45-3.05,36.78,4.35S632.91,483.22,631.47,476.37Z"/><path class="cls-38" d="M674.18,378c7.66.56-2.25,39.16-9.82,37.38S666.88,377.47,674.18,378Z"/><path class="cls-39" d="M639.26,408.52c4-6.73,32.49,21,27.5,27.11S635.48,414.93,639.26,408.52Z"/><path class="cls-40" d="M631.48,446.59c.57-7.84,35,3.43,33.24,11.17S630.94,454.06,631.48,446.59Z"/><path class="cls-41" d="M695.35,411.9c6.1,4.78-24,30.71-29.38,25S689.54,407.35,695.35,411.9Z"/><path class="cls-42" d="M680.83,459.62c.53-5.26,2-10.1,5-13.58,3.64-.72,6.69-.58,8,.92C696.71,450.18,689,456.11,680.83,459.62Z"/><path class="cls-43" d="M692.47,445.06c5.13,5.79-23.95,20.36-28.31,13.79S687.59,439.54,692.47,445.06Z"/><path class="cls-44" d="M666.41,406.27s.88,20.05-1.78,37.56,4,47.12,15,56.59"/><path class="cls-45" d="M631.47,475c-1.51-7.19,36.45-3.05,36.78,4.35S632.91,481.84,631.47,475Z"/><path class="cls-46" d="M682.21,480.69c-.06-.33-.12-.68-.19-1a94.47,94.47,0,0,1-1.35-11.06c0-.11,0-.23,0-.34,6.2-3.43,12.81-5.16,14.56-2.19C697.43,469.82,689.85,476.67,682.21,480.69Z"/><path class="cls-47" d="M693.83,463.24c3.93,6.66-23.26,23.26-26.42,16S690.08,456.89,693.83,463.24Z"/><path class="cls-48" d="M676,377.49c7.66.56-2.25,39.16-9.82,37.38S668.74,377,676,377.49Z"/><path class="cls-49" d="M682.62,562.72H659A21.24,21.24,0,0,1,638,544.32l-5.85-43.42a4.91,4.91,0,0,1,4.86-5.56h67.68a4.91,4.91,0,0,1,4.86,5.56l-5.85,43.42A21.24,21.24,0,0,1,682.62,562.72Z"/><path class="cls-50" d="M552.26,203.53s8-23.36,7-41.39"/><path class="cls-51" d="M568.27,272s-22,8.07-27.36-32.43,10.2-38.07,17.36-34c7.87,4.48,20,43.3-13.4,69.55"/><circle class="cls-25" cx="568.27" cy="272" r="3.62" transform="translate(255.43 818.85) rotate(-85.81)"/><circle class="cls-25" cx="542.39" cy="276.59" r="3.62" transform="translate(226.88 797.3) rotate(-85.81)"/><path class="cls-52" d="M495.25,186s-21.52,42.08-11.68,74.1"/><circle class="cls-53" cx="483.57" cy="260.09" r="11.68"/><path class="cls-54" d="M196.58,211.09l6.18-2a2.74,2.74,0,0,1,2.76.63l6,5.76a2.74,2.74,0,0,0,1.13.66l2.23.65a2.74,2.74,0,0,1,2,2.63v5.06a2.74,2.74,0,0,0,.21,1c.71,1.71,3,7.19,4,7.43.73.18,1.34,2.11,1.68,3.47a2.74,2.74,0,0,1-.52,2.38l-.86,1.07a2.74,2.74,0,0,0,.44,3.86l1.88,1.5a2.74,2.74,0,0,1,.54,3.72l-1.43,2a2.74,2.74,0,0,0,.08,3.26l4.4,5.64a2.72,2.72,0,0,1,.14,3.17,5,5,0,0,1-1.82,1.63c-1.55.85-.17,3.4,1.09,5.2a2.74,2.74,0,0,1-.42,3.59l-2.07,1.87a2.74,2.74,0,0,0-.22,3.84l2.36,2.69a2.74,2.74,0,0,1-.27,3.88L223.5,288a2.74,2.74,0,0,0-.68,3.27l2.24,4.64c.12.26,3.83,1.73,3.87,2,.26,1.84-1.83,9-3.06,9.17-.69.07.77,1,2.46,2a2.74,2.74,0,0,1,.2,4.61l-.42.3a2.74,2.74,0,0,0-.53,4l2.76,3.36a2.74,2.74,0,0,1-.41,3.89h0a2.74,2.74,0,0,0-.06,4.25l1.71,1.43a2.74,2.74,0,0,1,.82,3c-.34,1-.72,2-.86,2.46s2.05,3.06,3.54,4.64a2.74,2.74,0,0,1,.51,3l-1.72,3.82a2.74,2.74,0,0,0,.7,3.19l2.91,2.55a2.74,2.74,0,0,1,.55,3.47l-2.12,3.57a2.74,2.74,0,0,0,.71,3.59l3.59,2.69a2.74,2.74,0,0,1,.41,4L237.92,374a2.74,2.74,0,0,0,.26,3.89l.85.74a2.74,2.74,0,0,1,.85,2.8l-2.16,7.85a2.75,2.75,0,0,0,.62,2.58,2.2,2.2,0,0,1,.58,1.51"/><path class="cls-55" d="M158.93,325.54l2.56,3.63a1.5,1.5,0,0,1-.33,2.06l-1.1.83a1.5,1.5,0,0,0-.35,2l2.1,3.15a1.5,1.5,0,0,1,.05,1.58l-2.51,4.39a1.5,1.5,0,0,0,0,1.52l2.39,4a1.5,1.5,0,0,1-.16,1.76l-4.6,5.23a1.5,1.5,0,0,0,0,2l4.22,4.42a1.5,1.5,0,0,1-.07,2.15l-1.28,1.16a1.5,1.5,0,0,0-.42,1.57c.54,1.69,1.77,5.1,2.83,5.31,1.22.24-2,3.65-2.89,4.59a1.48,1.48,0,0,0-.35.57c-.35,1.08-1.3,4.43.12,5.62.74.62.57,1.12.14,1.5a1.49,1.49,0,0,0,0,2.21l2.61,2.47a1.5,1.5,0,0,1,.41,1.51l-.92,3.14a1.5,1.5,0,0,1-1,1l-.62.17a1.5,1.5,0,0,0-.29,2.78l.87.45a1.5,1.5,0,0,1-.43,2.81h0a1.5,1.5,0,0,0-.55,2.74l1.86,1.18a1.5,1.5,0,0,1,.55,1.91c-.42.89-1,2.1-1.57,3s.84,3.21,2.15,5a1.5,1.5,0,0,1-1.2,2.4h-2.8"/><path class="cls-56" d="M164.31,343.12l4.21,7.3a2.28,2.28,0,0,1-.91,3.15l-.29.15a2.28,2.28,0,0,0-.4,3.76l3.55,3a2.28,2.28,0,0,1-.43,3.78l-.14.07a2.28,2.28,0,0,0-.51,3.7l1.71,1.59a2.28,2.28,0,0,1-.19,3.5l-3.53,2.62a2.28,2.28,0,0,0,.38,3.89l3.21,1.52a2.28,2.28,0,0,1,.33,3.93l-1.93,1.35a2.28,2.28,0,0,0-.08,3.68l1.46,1.12a2.28,2.28,0,0,1,0,3.62l-1.32,1a2.28,2.28,0,0,0,.18,3.74l3,1.87a2.28,2.28,0,0,1,.73,3.13L170.58,409a2.28,2.28,0,0,0,.67,3.1h0A2.28,2.28,0,0,1,171,416l-5.56,2.78"/><path class="cls-57" d="M185,209.3h-5a1.53,1.53,0,0,0-1.53,1.53v1.91a1.53,1.53,0,0,1-.67,1.26l-3.5,2.4a1.53,1.53,0,0,0-.43,2.08l1.68,2.67a1.53,1.53,0,0,1-.65,2.21l-8.33,3.87a1.53,1.53,0,0,0-.29,2.6l3.66,2.82a1.53,1.53,0,0,1-.1,2.5l-4.53,3a1.53,1.53,0,0,0-.59,1.83l2.63,6.88a1.53,1.53,0,0,1-1.05,2l-3.56.91a1.53,1.53,0,0,0-.72,2.55l3.42,3.52a1.53,1.53,0,0,1-.31,2.38L160.53,261a1.53,1.53,0,0,0-.52.52l-1.7,2.79a1.53,1.53,0,0,0,.05,1.67l2.78,4a1.53,1.53,0,0,1-.79,2.33l-1.28.41a1.53,1.53,0,0,0-.41,2.72h0a1.53,1.53,0,0,1,.19,2.36l-1.9,1.83a1.53,1.53,0,0,0-.26,1.88l3.39,5.75a1.53,1.53,0,0,1-.9,2.25l-3.1.88c-1.15.33-1,1.23-.61,1.93a1.54,1.54,0,0,1-.27,1.79l-2.6,2.6a1.53,1.53,0,0,0,0,2.13l2.56,2.72a1.53,1.53,0,0,1,0,2.07l-2.84,3.19a1.53,1.53,0,0,0-.15,1.84l.63,1a1.53,1.53,0,0,1-.33,2l-5.69,4.57a1.53,1.53,0,0,0-.46,1.78l1.3,3.15a1.53,1.53,0,0,1-.68,1.93l-3.24,1.78a1.53,1.53,0,0,0-.66,2l2.46,5.53a1.53,1.53,0,0,1-.19,1.57l-3.52,4.5a1.53,1.53,0,0,0,.36,2.22l2.08,1.39a1.53,1.53,0,0,1,.17,2.42l-2.69,2.39a1.53,1.53,0,0,0-.31,1.9l1.92,3.37a1.53,1.53,0,0,1-.74,2.17L138.51,356a1.53,1.53,0,0,0-.3,2.66l1.67,1.19a1.53,1.53,0,0,1-.19,2.61l-3.36,1.74a1.53,1.53,0,0,0-.26,2.55l4.36,3.55a1.53,1.53,0,0,1,0,2.4l-4.52,3.52a1.53,1.53,0,0,0,0,2.45l3.54,2.55a1.53,1.53,0,0,1-.11,2.56l-4.42,2.65a1.53,1.53,0,0,0-.05,2.59l5.46,3.58a1.53,1.53,0,0,1,.24,2.36L137.52,398a1.53,1.53,0,0,0,.19,2.33l1.13.81a1.53,1.53,0,0,1,.27,2.25l-6.44,7.45a1.53,1.53,0,0,0,.7,2.46l6,1.86"/><path class="cls-58" d="M185,203.63l-4.17-1.45a1.77,1.77,0,0,0-2.35,1.67h0a1.77,1.77,0,0,1-1.77,1.77h-3a1.77,1.77,0,0,0-1.77,1.77v1.85A1.77,1.77,0,0,1,170.2,211h-3.42a1.77,1.77,0,0,0-1.67,2.34l1,3a1.77,1.77,0,0,1-1.45,2.32l-4.24.55a1.77,1.77,0,0,0-1.39,2.48l1.83,4.08a1.77,1.77,0,0,1-1.22,2.45l-4.08.92a1.77,1.77,0,0,0-1,2.76l2.3,3.2a1.77,1.77,0,0,1-.68,2.63l-4.57,2.16a1.77,1.77,0,0,0,.11,3.24l2.74,1.07a1.77,1.77,0,0,1,.17,3.21l-1.27.66A1.77,1.77,0,0,0,153,251l.47.39a1.77,1.77,0,0,1-.66,3.06l-1.2.33a1.77,1.77,0,0,0-.5,3.18l1.45.95a1.77,1.77,0,0,1-.59,3.2l-2.31.51a1.77,1.77,0,0,0-.66,3.15l2.21,1.62a1.77,1.77,0,0,1,0,2.88l-3.73,2.59a1.77,1.77,0,0,0-.35,2.59l3,3.53a1.77,1.77,0,0,1-.86,2.83l-3.45,1a1.77,1.77,0,0,0-.81,2.89l3.22,3.51a1.77,1.77,0,0,1,0,2.39l-1.83,2a1.77,1.77,0,0,0-.47,1.2V299a1.77,1.77,0,0,1-1.21,1.68l-2.2.73a1.77,1.77,0,0,0-1.11,2.26l1.2,3.46a1.77,1.77,0,0,1-.77,2.1l-3.45,2a1.77,1.77,0,0,0-.61,2.44l2.23,3.66a1.77,1.77,0,0,1-.41,2.3l-3.6,2.88a1.77,1.77,0,0,0-.62,1.75l1.25,5.84a1.77,1.77,0,0,1-.58,1.72l-3.46,2.94a1.77,1.77,0,0,0-.15,2.55l1.66,1.78a1.77,1.77,0,0,1,.08,2.32l-4.12,5.1a1.77,1.77,0,0,0,0,2.18l2.56,3.36a1.77,1.77,0,0,1-.42,2.53l-5.8,3.92a1.77,1.77,0,0,0,.08,3l3.15,1.89a1.77,1.77,0,0,1,.58,2.47l-2.79,4.36a1.77,1.77,0,0,0,.24,2.2l2,2a1.77,1.77,0,0,1-.24,2.7l-3.58,2.51a1.77,1.77,0,0,0-.2,2.74l3.66,3.44a1.77,1.77,0,0,1-.42,2.87l-.73.36a1.77,1.77,0,0,0-.5,2.78l.7.75a1.77,1.77,0,0,1-.28,2.65l-2.32,1.63a1.77,1.77,0,0,0-.27,2.67l2.79,2.93a1.77,1.77,0,0,1-.32,2.7l-2.34,1.52a1.77,1.77,0,0,0-.47,2.51l1.76,2.47"/><path class="cls-59" d="M185,198.81l-9.83-1.59a1.49,1.49,0,0,0-1.18.31l-5.83,4.72a1.49,1.49,0,0,1-2.23-.41l-1.34-2.3a1.49,1.49,0,0,0-2.63.11l-1.51,3.17a1.49,1.49,0,0,1-.79.74l-5.84,2.34a1.49,1.49,0,0,0-.82,2L155.2,213a1.49,1.49,0,0,1-1.37,2.08h-3.44a1.49,1.49,0,0,0-1.44,1.89l1.67,6.06a1.49,1.49,0,0,1-.91,1.79l-4.36,1.63a1.49,1.49,0,0,0-.94,1.67l1.27,6.8a1.49,1.49,0,0,1-.73,1.57l-7.07,4a1.49,1.49,0,0,0-.18,2.47l2.14,1.66a1.49,1.49,0,0,1,.24,2.12L136.63,251a1.49,1.49,0,0,0-.12,1.72l6.15,10a1.49,1.49,0,0,1-.75,2.18l-6.58,2.44a1.49,1.49,0,0,0-.78,2.14l3.08,5.39a1.49,1.49,0,0,1-.28,1.83L130.66,283a1.49,1.49,0,0,0-.22,1.93l4,5.94a1.49,1.49,0,0,1-.11,1.81l-3.81,4.41a1.49,1.49,0,0,0,0,1.93l3.12,3.7a1.48,1.48,0,0,1,.2,1.62,8.32,8.32,0,0,1-4.14,4.2c-2.2.8-1.3,4.65-.57,6.86a1.49,1.49,0,0,1-1.1,1.92l-2.24.49a1.49,1.49,0,0,0-1.06,2l3.87,9.25a1.49,1.49,0,0,1-.71,1.91L125,332.44a1.49,1.49,0,0,0-.81,1.5l.89,8a1.49,1.49,0,0,1-1,1.57l-1.87.67a1.49,1.49,0,0,0-1,1.4V354a1.49,1.49,0,0,1-1,1.41l-2.7.94a1.49,1.49,0,0,0-.68,2.33l2.21,2.8a1.49,1.49,0,0,1,0,1.88l-2.61,3.13a1.49,1.49,0,0,0,.09,2l5.87,5.87a1.49,1.49,0,0,1-.56,2.46L112.69,380a1.49,1.49,0,0,0-.34,2.64l5.53,3.72a1.5,1.5,0,0,1,.4.39c.58.84,2.26,3.57.11,4.29a59.69,59.69,0,0,0-7.85,4.22,1.49,1.49,0,0,0,.13,2.62l6.86,3.24a1.49,1.49,0,0,1,.85,1.35h0a1.49,1.49,0,0,1-.27.86L115,407.76"/><path class="cls-60" d="M166.82,192.85h-7.63a1.8,1.8,0,0,0-1.61,1l-2.55,5.1a1.8,1.8,0,0,1-1.61,1h-1.71a1.8,1.8,0,0,0-1.78,1.56l-1,7.65a1.8,1.8,0,0,1-1.78,1.56H141.8a1.8,1.8,0,0,0-1.71,1.24l-4.29,13.12a1.8,1.8,0,0,1-1.71,1.24h0a1.8,1.8,0,0,0-1.6,2.62L135,233.8a1.8,1.8,0,0,1-.47,2.22L131,238.89a1.8,1.8,0,0,0-.37,2.38l4.05,6.18a1.8,1.8,0,0,1-.55,2.51l-5.81,3.63a1.8,1.8,0,0,0-.46,2.64l4,5a1.8,1.8,0,0,1-.53,2.68l-4.91,2.76a1.8,1.8,0,0,0-.24,3l4.93,3.91a1.8,1.8,0,0,1-.56,3.12L123.27,279a1.8,1.8,0,0,0-1.07,2.48,3.8,3.8,0,0,0,1.85,2.06c1.19.4-3.16,3.28-5.88,5a1.8,1.8,0,0,0-.25,2.87l4.43,4a1.8,1.8,0,0,1-.17,2.82l-4.89,3.41a1.8,1.8,0,0,0-.64,2.15l2.26,5.55a1.8,1.8,0,0,1-.8,2.25l-3.28,1.79a1.8,1.8,0,0,0-.73,2.41l4.06,7.73a1.8,1.8,0,0,1-1.17,2.58l-1.36.32a1.8,1.8,0,0,0-1.14,2.65l2.39,4.14a1.8,1.8,0,0,1-.24,2.12l-4.76,5.16a1.8,1.8,0,0,0,0,2.46l3.38,3.53a1.8,1.8,0,0,1-.93,3l-2.2.46a1.8,1.8,0,0,0-1.43,1.76v6a1.8,1.8,0,0,1-1.23,1.7l-4.22,1.41a1.8,1.8,0,0,0-.58,3.09l4.26,3.55a1.8,1.8,0,0,1-.09,2.83l-5.44,4a1.8,1.8,0,0,0-.55,2.24l1.49,3.06a1.8,1.8,0,0,1-.6,2.27l-6.61,4.5a1.8,1.8,0,0,0,.08,3l5.38,3.26a1.8,1.8,0,0,1,.57,2.52l-3.24,5"/><path class="cls-61" d="M151.56,194.27H148.9a2.54,2.54,0,0,0-2.53,2.29l-.2,2a2.54,2.54,0,0,1-3,2.24l-2.71-.54a2.54,2.54,0,0,0-3,2.49v1.16a2.54,2.54,0,0,1-2.54,2.54H132.9a2.54,2.54,0,0,0-2.37,3.48l.94,2.37a2.54,2.54,0,0,1-1.74,3.4c-1.8.45-3.82,1.06-4,1.53s.66,3.56,1.3,5.72a2.54,2.54,0,0,1-1.49,3.09L120.73,228a2.54,2.54,0,0,0-1.17,3.77l2.32,3.48a2.54,2.54,0,0,1,.42,1.56l-.42,6.94a2.54,2.54,0,0,1-1.54,2.18l-1.28.55a2.54,2.54,0,0,0-.91,4l.16.18a2.54,2.54,0,0,1-.32,3.67l-.69.56a2.54,2.54,0,0,0-.77,2.93L117.8,261a2.54,2.54,0,0,1-1.22,3.22l-2.79,1.4a2.54,2.54,0,0,0-1,3.61l1.6,2.6a2.54,2.54,0,0,1-1.06,3.62l-2.13,1a2.54,2.54,0,0,0-.83,3.95l2.6,3a2.54,2.54,0,0,1-.72,3.89l-1.38.75a2.54,2.54,0,0,0-.79,3.81l3.36,4.26a2.54,2.54,0,0,1-1.1,4l-3.21,1.22a2.54,2.54,0,0,0-1.25,3.73l1.32,2.11a2.54,2.54,0,0,1-1.13,3.68l-3.45,1.52a2.54,2.54,0,0,0-.72,4.17l1.57,1.49a2.54,2.54,0,0,1,.74,2.39l-.91,4.16a2.54,2.54,0,0,1-1,1.5c-1.59,1.18-5,3.89-3.21,4.56a19.86,19.86,0,0,1,2.41,1.15,2.55,2.55,0,0,1,.35,4.24l-1.9,1.48a2.54,2.54,0,0,0-.87,2.73l.29,1a2.54,2.54,0,0,1-1.13,2.91l-3,1.79a2.54,2.54,0,0,0-.73,3.71l1.69,2.25a2.54,2.54,0,0,1-1.48,4l-.51.11A2.54,2.54,0,0,0,95,360.28h0a2.54,2.54,0,0,1-.31,3.86l-3.47,2.49a2.54,2.54,0,0,0,.2,4.26l2,1.2a2.54,2.54,0,0,1,.55,4,24.82,24.82,0,0,0-3.13,3.65c-.28.85,4,4,4,4"/><path class="cls-62" d="M128.59,212.7l-5.89.95a2.63,2.63,0,0,0-2.11,3.3l1.34,4.83a2.63,2.63,0,0,1-1.84,3.24l-4.87,1.33a2.63,2.63,0,0,0-1.94,2.53v7.44a2.63,2.63,0,0,1-.72,1.81L108.9,242a2.63,2.63,0,0,0-.72,1.81v13.06a2.63,2.63,0,0,1-2,2.55l-1,.24a2.63,2.63,0,0,0-1.86,3.35l1,3.11a2.62,2.62,0,0,1-1.25,3.11c-1.31.7-2.84,1.66-3.16,2.45s2.26,3.85,4.28,6a2.63,2.63,0,0,1-.47,4l-2.1,1.36a2.63,2.63,0,0,0-1,3.09l1.62,4.51a2.63,2.63,0,0,1-1.43,3.3l-3.16,1.36a2.63,2.63,0,0,0-1.19,3.8l.68,1.11a2.63,2.63,0,0,1-.88,3.63l-2.47,1.49a2.63,2.63,0,0,0-1,3.41l3.14,6.4a2.63,2.63,0,0,1-.66,3.16l-3.33,2.82a2.63,2.63,0,0,0-.38,3.61l1.74,2.25a2.63,2.63,0,0,1-.39,3.62l-4.42,3.71a2.63,2.63,0,0,0,0,4l2.2,1.8a2.63,2.63,0,0,1,.72,3.15L88,350.49"/><path class="cls-63" d="M191.81,215.06l4.24-2.08a.75.75,0,0,1,.95.24l2.81,4a.75.75,0,0,0,.62.32h0a.75.75,0,0,1,.6,1.21c-1.17,1.51-2.73,3.89-1,3.89,2.55,0,6.52,2,6.52,2.84s-2.55,9.07,0,10.21a21.25,21.25,0,0,1,5,3.64.75.75,0,0,1,.2.76l-1.44,4.79a.75.75,0,0,0,.19.75c1.1,1.08,4.56,4.59,3.36,5.07s-1.66,2.66-1.88,3.71a.75.75,0,0,0,.36.81c1.58.9,6.51,3.88,4.35,4.84a20.76,20.76,0,0,0-3.93,2.36.75.75,0,0,0-.14,1.06c1,1.31,3.32,4.42,2.65,5.09s-4.83,4.1-6.45,5.43a.75.75,0,0,0-.05,1.12l5.61,5.61a.75.75,0,0,1-.31,1.25l-3.91,1.19a.75.75,0,0,0-.24,1.32l5.15,3.91a.75.75,0,0,1,0,1.19l-7.92,6.36a.75.75,0,0,0,0,1.14l4.44,4.05a.75.75,0,0,1-.51,1.31H211a.75.75,0,0,0-.52,1.3l2.4,2.32a.75.75,0,0,1,.05,1l-3.82,4.5a.75.75,0,0,0,.14,1.11l5.41,3.75a.75.75,0,0,1,.12,1.13l-4.45,4.75a.75.75,0,0,0,.15,1.15l4.38,2.78a.75.75,0,0,1,0,1.3c-2.22,1.18-6.81,3.72-5.94,3.93s7.1,3.69,10.06,5.36a.75.75,0,0,1-.16,1.38l-5.61,1.63a.75.75,0,0,0-.24,1.33l6.74,5a.75.75,0,0,1,0,1.22l-3.69,2.67a.75.75,0,0,0-.2,1l6.08,9.63a.75.75,0,0,1-.14,1l-4.12,3.66a.75.75,0,0,0-.11,1l6.33,8.86a.75.75,0,0,1-.07,1l-4.15,4.27a.75.75,0,0,0,0,1c1.15,1.19,3.93,4.05,4.6,4.72s-3.17,4.44-4.88,6.06a.75.75,0,0,0,.19,1.22l4.77,2.35"/><path class="cls-64" d="M181,227.8l3.47-3.2a.75.75,0,0,1,1,0l3.82,3a.75.75,0,0,0,.68.13h0a.75.75,0,0,1,.92,1c-.69,1.78-1.51,4.51.16,4,2.45-.73,6.82,0,7.06.86s.14,9.42,2.91,9.78a21.25,21.25,0,0,1,5.88,2.05.75.75,0,0,1,.41.67v5a.75.75,0,0,0,.4.67c1.36.72,3,7.41,2,8.21"/><path class="cls-65" d="M202.67,301.16l-1.4,7.19a3.12,3.12,0,0,0,0,2.15l.94,2.47a3.12,3.12,0,0,1-.12,2.51l-.3.6a3.12,3.12,0,0,0,.43,3.44l.24.28a3.12,3.12,0,0,1-.36,4.44l-1,.81a3.12,3.12,0,0,0-.52,4.24l3.74,5.08a3.12,3.12,0,0,1-.72,4.4h0a3.12,3.12,0,0,0-.41,4.77l3.85,3.83a3.12,3.12,0,0,1,.92,2.21v4a3.12,3.12,0,0,0,.51,1.71l2.28,3.47"/><path class="cls-66" d="M194.91,307.53l-1.4,6.93a2.9,2.9,0,0,0,0,2.07l.94,2.38a2.9,2.9,0,0,1-.12,2.42l-.3.57a2.92,2.92,0,0,0,.43,3.31l.24.26a2.93,2.93,0,0,1-.36,4.27l-1,.78a2.93,2.93,0,0,0-.52,4.09l3.74,4.89a2.93,2.93,0,0,1-.72,4.24h0a2.93,2.93,0,0,0-.41,4.59l3.85,3.69a3,3,0,0,1,.92,2.13V358a2.92,2.92,0,0,0,.51,1.65l2.28,3.34"/><path class="cls-67" d="M187.75,206.46l6.18-2a2.74,2.74,0,0,1,2.76.63l6,5.76a2.74,2.74,0,0,0,1.13.66l2.23.65a2.74,2.74,0,0,1,2,2.63v5.06a2.74,2.74,0,0,0,.21,1c.71,1.71,3,7.19,4,7.43.73.18,1.34,2.11,1.68,3.47a2.74,2.74,0,0,1-.52,2.38l-.86,1.07a2.74,2.74,0,0,0,.44,3.86l1.88,1.5a2.74,2.74,0,0,1,.54,3.72l-1.43,2a2.74,2.74,0,0,0,.08,3.26l4.4,5.64a2.72,2.72,0,0,1,.14,3.17,5,5,0,0,1-1.82,1.63c-1.55.85-.17,3.4,1.09,5.2a2.74,2.74,0,0,1-.42,3.59l-2.07,1.87a2.74,2.74,0,0,0-.22,3.84l2.36,2.69a2.74,2.74,0,0,1-.27,3.88l-2.55,2.21a2.74,2.74,0,0,0-.68,3.27l2.87,5.95a2.74,2.74,0,0,1,.25.81c.26,1.84,1.17,8.94-.06,9.07-.69.07.77,1,2.46,2a2.74,2.74,0,0,1,.2,4.61l-.42.3a2.74,2.74,0,0,0-.53,4l2.76,3.36a2.74,2.74,0,0,1-.41,3.89h0a2.74,2.74,0,0,0-.06,4.25l1.71,1.43a2.74,2.74,0,0,1,.82,3c-.34,1-.72,2-.86,2.46s2.05,3.06,3.54,4.64a2.74,2.74,0,0,1,.51,3L225,343.24a2.74,2.74,0,0,0,.7,3.19l2.91,2.55a2.74,2.74,0,0,1,.55,3.47L227.09,356a2.74,2.74,0,0,0,.71,3.59l3.59,2.69a2.74,2.74,0,0,1,.41,4l-2.71,3.07a2.74,2.74,0,0,0,.26,3.89l.85.74a2.74,2.74,0,0,1,.85,2.8l-2.16,7.85a2.75,2.75,0,0,0,.62,2.58,2.2,2.2,0,0,1,.58,1.51"/><path class="cls-68" d="M168.6,194.93c0-.51,2.24-2.34,4-3.73a2,2,0,0,1,3.16.9s5.77,1.35,6.86.54h0a2,2,0,0,1,3.18,1.06l1.17,4a2,2,0,0,0,3,1.18l1.47-.88a2,2,0,0,1,2.59.41l4.57,5.22a2,2,0,0,0,.62.48l4.18,2.09"/><path class="cls-69" d="M187.75,215.06c-2.65,0-7.18,1.89-6.43,4.54s-1.51,4.54-2.65,4.91c-.68.23-.54,2.1-.32,3.55a2.46,2.46,0,0,1-1.34,2.57h0a2.47,2.47,0,0,0-1.36,2.21v6.49a2.47,2.47,0,0,1-.77,1.79l-1.78,1.68a2.47,2.47,0,0,0-.7,2.39l1.4,5.6a2.47,2.47,0,0,1-.61,2.3l-2.12,2.22a2.47,2.47,0,0,0-.62,2.24l1.21,5.43a2.47,2.47,0,0,1-1.2,2.68l-2.88,1.62a2.47,2.47,0,0,0-1.21,2.65l.64,3.12a2.47,2.47,0,0,1-1,2.48l-1,.7a2.47,2.47,0,0,0-.91,2.65l1.35,4.84a2.47,2.47,0,0,1-.92,2.65l-1.89,1.38a2.47,2.47,0,0,0-.78,3l1.56,3.31A2.47,2.47,0,0,1,163,297l-1.53,1.39a2.47,2.47,0,0,0-.62,2.76L162,304a2.47,2.47,0,0,1-1,3.07l-.07,0a2.47,2.47,0,0,0-1.14,2.8l.73,2.6a2.47,2.47,0,0,1-.87,2.63l-2,1.56a2.47,2.47,0,0,0-.18,3.76l.29.27a2.47,2.47,0,0,1,.1,3.51L154.12,328a2.47,2.47,0,0,0-.22,3.16l1.9,2.61a2.47,2.47,0,0,1-.5,3.42l-4,3a2.47,2.47,0,0,0-.2,3.76l.92.87a2.47,2.47,0,0,1-.16,3.73l-4.11,3.26a2.47,2.47,0,0,0-.44,3.41l1.06,1.42a2.47,2.47,0,0,1,.25,2.55l-1.94,4a2.47,2.47,0,0,0,.61,2.94l4.67,4a2.47,2.47,0,0,1,0,3.7l-4.43,4a2.47,2.47,0,0,0-.29,3.37c1.26,1.59,3,3.66,3.69,3.83s-1.76,3.53-3.53,5.73a2.47,2.47,0,0,0,.4,3.48l1.29,1a2.47,2.47,0,0,1,.26,3.63l-1.94,2a2.47,2.47,0,0,0,0,3.37l2.47,2.7a2.47,2.47,0,0,1-.72,3.87l0,0a2.47,2.47,0,0,0-.53,4.06l4.34,3.82"/><path class="cls-70" d="M562.09,74.46c1,3.23-3.82,6.61-3.82,6.61s0,7.63-5.28,9.25c1.53,4,.31,14.45-1.21,23.47-.6,3.55-1.24,6.89-1.79,9.55a13.2,13.2,0,0,1-6.37,8.82h0c4.62-8.08,2.92-15.15.71-18a5.33,5.33,0,0,0-3.39-2.07c-4.91-.81-7.76.69-9.36,3.14-3.51,5.36-6.24-8.38-10.58-19.37-14.84,21.1-52.84-1.49-64.84,19.61-5.07-2.18-13.65-8.1-7.4-27.6s29.91-34.5,57.1-33c-4.49-7.17-3.62-14.71-.75-20.62,3.25-6.66,9.06-11.26,12.64-11,1.91-3.23,11.16-3.23,13.51,1.47,7.34-.74,12.18,5.28,12.18,5.28s2.21-.58,7.93,1.91c2.51,1.09,2.76,3.2,2.26,5.22a16.12,16.12,0,0,1-2.55,5.06A57.29,57.29,0,0,1,564,49.65c6.31,4.85,2.49,10.13,2.49,10.13s4,4.7,4.56,8.08S567.08,74.46,562.09,74.46Z"/></g></svg>