<svg xmlns="http://www.w3.org/2000/svg" xmlns:xlink="http://www.w3.org/1999/xlink" viewBox="0 0 736 574.85"><defs><style>.cls-1{fill:url(#Безымянный_градиент_263);}.cls-2{fill:url(#Безымянный_градиент_5);}.cls-18,.cls-3,.cls-34,.cls-5{fill:none;stroke-miterlimit:10;}.cls-3{stroke-width:1.19px;stroke:url(#Безымянный_градиент_2);}.cls-4{fill:url(#Безымянный_градиент_17);}.cls-5{stroke-width:3.44px;stroke:url(#Безымянный_градиент_164);}.cls-6{fill:url(#Безымянный_градиент_5-2);}.cls-7{fill:url(#Безымянный_градиент_5-3);}.cls-8{fill:url(#Безымянный_градиент_5-4);}.cls-9{fill:url(#Безымянный_градиент_5-5);}.cls-10{fill:url(#Безымянный_градиент_5-6);}.cls-11{fill:url(#Безымянный_градиент_5-7);}.cls-12{fill:url(#Безымянный_градиент_18);}.cls-13{fill:url(#Безымянный_градиент_33);}.cls-14{fill:url(#Безымянный_градиент_33-2);}.cls-15{fill:url(#Безымянный_градиент_33-3);}.cls-16{fill:url(#Безымянный_градиент_17-2);}.cls-17{fill:url(#Безымянный_градиент_33-4);}.cls-18{stroke-width:2px;stroke:url(#Безымянный_градиент_33-5);}.cls-19{fill:url(#Безымянный_градиент_33-6);}.cls-20{fill:url(#Безымянный_градиент_17-3);}.cls-21{fill:url(#Безымянный_градиент_33-7);}.cls-22{fill:url(#Безымянный_градиент_11);}.cls-23{fill:url(#Безымянный_градиент_144);}.cls-24{fill:url(#Безымянный_градиент_170);}.cls-25{fill:#fff;}.cls-26{fill:#1f1844;}.cls-27{fill:url(#Безымянный_градиент_123);}.cls-28{fill:url(#Безымянный_градиент_216);}.cls-29{fill:url(#Безымянный_градиент_40);}.cls-30{fill:url(#Безымянный_градиент_250);}.cls-31{fill:url(#Безымянный_градиент_64);}.cls-32{fill:url(#Безымянный_градиент_71);}.cls-33{fill:url(#Безымянный_градиент_250-2);}.cls-34{stroke:#fff;stroke-linecap:round;stroke-width:1.68px;}.cls-35{fill:url(#Безымянный_градиент_71-2);}.cls-36{fill:url(#Безымянный_градиент_123-2);}.cls-37{fill:url(#Безымянный_градиент_170-2);}.cls-38{fill:url(#Безымянный_градиент_250-3);}.cls-39{fill:url(#Безымянный_градиент_64-2);}.cls-40{fill:url(#Безымянный_градиент_64-3);}.cls-41{fill:url(#Безымянный_градиент_170-3);}.cls-42{fill:url(#Безымянный_градиент_170-4);}</style><linearGradient id="Безымянный_градиент_263" x1="104.25" y1="291.91" x2="730.76" y2="291.91" gradientUnits="userSpaceOnUse"><stop offset="0" stop-color="#f0f2f5"/><stop offset="0.99" stop-color="#f5f7f8"/></linearGradient><linearGradient id="Безымянный_градиент_5" x1="111.85" y1="466" x2="80.25" y2="226.27" gradientUnits="userSpaceOnUse"><stop offset="0" stop-color="#1f1844"/><stop offset="0.99" stop-color="#3d3c99"/></linearGradient><linearGradient id="Безымянный_градиент_2" x1="110.25" y1="459.82" x2="82.47" y2="248.95" gradientUnits="userSpaceOnUse"><stop offset="0" stop-color="#3f3d9e"/><stop offset="0.99" stop-color="#423e9f"/></linearGradient><linearGradient id="Безымянный_градиент_17" x1="126.45" y1="377.82" x2="243.68" y2="350.88" gradientUnits="userSpaceOnUse"><stop offset="0.01" stop-color="#bbc0d9"/><stop offset="1" stop-color="#d6dbf8"/></linearGradient><linearGradient id="Безымянный_градиент_164" x1="-167.74" y1="939.58" x2="-78.04" y2="956" gradientTransform="translate(129.86 -555.72) rotate(-10.18)" gradientUnits="userSpaceOnUse"><stop offset="0" stop-color="#bac6d8"/><stop offset="0.99" stop-color="#d6dbf8"/></linearGradient><linearGradient id="Безымянный_градиент_5-2" x1="109.61" y1="382.73" x2="73.67" y2="347.41" xlink:href="#Безымянный_градиент_5"/><linearGradient id="Безымянный_градиент_5-3" x1="108.47" y1="412.42" x2="66.64" y2="397.85" xlink:href="#Безымянный_градиент_5"/><linearGradient id="Безымянный_градиент_5-4" x1="111.59" y1="382.64" x2="149.64" y2="352.7" xlink:href="#Безымянный_градиент_5"/><linearGradient id="Безымянный_градиент_5-5" x1="108.82" y1="412.47" x2="145.75" y2="394.78" xlink:href="#Безымянный_градиент_5"/><linearGradient id="Безымянный_градиент_5-6" x1="115.41" y1="440.26" x2="66.25" y2="434.38" xlink:href="#Безымянный_градиент_5"/><linearGradient id="Безымянный_градиент_5-7" x1="109.96" y1="443.71" x2="143.55" y2="423.18" xlink:href="#Безымянный_градиент_5"/><linearGradient id="Безымянный_градиент_18" x1="122.55" y1="305.2" x2="111.06" y2="352.2" gradientUnits="userSpaceOnUse"><stop offset="0.01" stop-color="#3d3c99"/><stop offset="1" stop-color="#1f1844"/></linearGradient><linearGradient id="Безымянный_градиент_33" x1="-1953.48" y1="2408.64" x2="-1938.29" y2="2408.64" gradientTransform="translate(-255.52 -2711.11) rotate(-45.37)" gradientUnits="userSpaceOnUse"><stop offset="0" stop-color="#e0e4eb"/><stop offset="0.99" stop-color="#f3f6fd"/></linearGradient><linearGradient id="Безымянный_градиент_33-2" x1="-3719.37" y1="2778.77" x2="-3704.04" y2="2778.77" gradientTransform="translate(-1425.38 -3976.01) rotate(-72.22)" xlink:href="#Безымянный_градиент_33"/><linearGradient id="Безымянный_градиент_33-3" x1="-118.03" y1="-2873.85" x2="-102.83" y2="-2873.85" gradientTransform="matrix(0.63, 0.78, -0.78, 0.63, -2033.79, 2257.58)" xlink:href="#Безымянный_градиент_33"/><linearGradient id="Безымянный_градиент_17-2" x1="130.9" y1="410.9" x2="146.74" y2="394.64" xlink:href="#Безымянный_градиент_17"/><linearGradient id="Безымянный_градиент_33-4" x1="-429.3" y1="-3594.19" x2="-413.73" y2="-3594.19" gradientTransform="matrix(0.5, 0.87, -0.77, 0.45, -2428.81, 2364.67)" xlink:href="#Безымянный_градиент_33"/><linearGradient id="Безымянный_градиент_33-5" x1="-304.72" y1="1124.78" x2="-282.35" y2="1124.78" gradientTransform="translate(142.81 -757.05) rotate(-13.38)" xlink:href="#Безымянный_градиент_33"/><linearGradient id="Безымянный_градиент_33-6" x1="-4769.14" y1="2559.31" x2="-4753.22" y2="2559.31" gradientTransform="matrix(0.04, -0.93, 1, 0.04, -2289.83, -4101.77)" xlink:href="#Безымянный_градиент_33"/><linearGradient id="Безымянный_градиент_17-3" x1="131.26" y1="436.41" x2="147.07" y2="418.88" xlink:href="#Безымянный_градиент_17"/><linearGradient id="Безымянный_градиент_33-7" x1="-804.06" y1="-4447.8" x2="-786.83" y2="-4447.8" gradientTransform="matrix(0.35, 0.94, -0.74, 0.28, -2891.94, 2393.19)" xlink:href="#Безымянный_градиент_33"/><linearGradient id="Безымянный_градиент_11" x1="125.02" y1="304.52" x2="113.53" y2="351.52" gradientUnits="userSpaceOnUse"><stop offset="0" stop-color="#e6eaf1"/><stop offset="0.99" stop-color="#f3f6fd"/></linearGradient><linearGradient id="Безымянный_градиент_144" x1="78.03" y1="510.74" x2="165.61" y2="490.62" gradientUnits="userSpaceOnUse"><stop offset="0.11" stop-color="#8988d5"/><stop offset="0.56" stop-color="#9d9ce8"/><stop offset="1" stop-color="#a7a5ee"/></linearGradient><linearGradient id="Безымянный_градиент_170" x1="299.69" y1="240.76" x2="375.77" y2="240.76" gradientUnits="userSpaceOnUse"><stop offset="0.01" stop-color="#bbbfd9"/><stop offset="1" stop-color="#d6dbf8"/></linearGradient><linearGradient id="Безымянный_градиент_123" x1="550.13" y1="133.99" x2="561.94" y2="133.99" gradientUnits="userSpaceOnUse"><stop offset="0" stop-color="#753200"/><stop offset="1" stop-color="#a04400"/></linearGradient><linearGradient id="Безымянный_градиент_216" x1="549.55" y1="525.72" x2="549.55" y2="248.62" gradientUnits="userSpaceOnUse"><stop offset="0" stop-color="#201f4f"/><stop offset="0.39" stop-color="#3d3c99"/><stop offset="1" stop-color="#403da0"/></linearGradient><linearGradient id="Безымянный_градиент_40" x1="636.59" y1="393.14" x2="661.77" y2="395.66" gradientUnits="userSpaceOnUse"><stop offset="0.11" stop-color="#343381"/><stop offset="0.56" stop-color="#3d3c99"/><stop offset="1" stop-color="#403da0"/></linearGradient><linearGradient id="Безымянный_градиент_250" x1="569.06" y1="303.25" x2="811.47" y2="303.25" gradientUnits="userSpaceOnUse"><stop offset="0" stop-color="#a7a5ee"/><stop offset="0.44" stop-color="#9d9ce8"/><stop offset="0.89" stop-color="#8988d5"/></linearGradient><linearGradient id="Безымянный_градиент_64" x1="415.41" y1="224.87" x2="514.3" y2="168.36" gradientUnits="userSpaceOnUse"><stop offset="0" stop-color="#592600"/><stop offset="1" stop-color="#773200"/></linearGradient><linearGradient id="Безымянный_градиент_71" x1="486.77" y1="131.6" x2="547.29" y2="92.5" gradientUnits="userSpaceOnUse"><stop offset="0" stop-color="#a04400" stop-opacity="0"/><stop offset="0.22" stop-color="#7c3500" stop-opacity="0.39"/><stop offset="0.47" stop-color="#5e2800" stop-opacity="0.73"/><stop offset="0.7" stop-color="#4b2000" stop-opacity="0.93"/><stop offset="0.9" stop-color="#451d00"/></linearGradient><linearGradient id="Безымянный_градиент_250-2" x1="458.55" y1="394.33" x2="617.06" y2="394.33" xlink:href="#Безымянный_градиент_250"/><linearGradient id="Безымянный_градиент_71-2" x1="555.64" y1="180.5" x2="510.3" y2="224.99" xlink:href="#Безымянный_градиент_71"/><linearGradient id="Безымянный_градиент_123-2" x1="555.85" y1="149.16" x2="549.99" y2="154.9" xlink:href="#Безымянный_градиент_123"/><linearGradient id="Безымянный_градиент_170-2" x1="422.91" y1="252.1" x2="473.82" y2="252.1" xlink:href="#Безымянный_градиент_170"/><linearGradient id="Безымянный_градиент_250-3" x1="391.31" y1="358.94" x2="447.11" y2="358.94" xlink:href="#Безымянный_градиент_250"/><linearGradient id="Безымянный_градиент_64-2" x1="394.86" y1="253.78" x2="473.82" y2="253.78" xlink:href="#Безымянный_градиент_64"/><linearGradient id="Безымянный_градиент_64-3" x1="453.6" y1="298.49" x2="512.5" y2="298.49" xlink:href="#Безымянный_градиент_64"/><linearGradient id="Безымянный_градиент_170-3" x1="67.64" y1="123.44" x2="196.04" y2="123.44" xlink:href="#Безымянный_градиент_170"/><linearGradient id="Безымянный_градиент_170-4" x1="243.03" y1="81.77" x2="346.74" y2="81.77" xlink:href="#Безымянный_градиент_170"/></defs><title>01</title><g id="Слой_1" data-name="Слой 1"><path class="cls-1" d="M709.37,304.4C654.35,191.93,497,27.19,292.53,26.77c-213.36-.44-234,211.17-119,270S120.38,428.9,240.58,502.56c121.66,74.56,381.67,67.56,445.67,9.56S733.14,353,709.37,304.4Z"/><path class="cls-2" d="M112.2,467.71s34.78-38.71,31.09-54,17.89-33.79,18.31-56c.48-25.17-13-18.44-17.62-29.2-6.9-16,8.46-30.08-14.76-36.18-15.85-4.17-27,4-25.55-15.65S98,232.82,85.32,224c-18.14-12.59-55.06-13.58-42.62,11.8,13.06,26.66,1.55,70.58-1.49,82.6C9,445.5,112.2,467.71,112.2,467.71Z"/><path class="cls-3" d="M73.4,250.15c4,32.81,45.13,85.24,26.48,120.28s9.62,89.28,9.62,89.28"/><path class="cls-4" d="M217.59,394.41c-22.59,8,1.87,37.2-22.83,50.36s-56.36,19.83-57.82,13.44c-.1-.42-1.43-4.66-2.83-10.85-.32-1.43-.64-3-1-4.6-.08-.45-.17-.91-.26-1.38A125,125,0,0,1,131,426.43c0-.15,0-.31,0-.46-.12-2-.15-4-.12-6s.14-3.84.35-5.7c.73-7.11,2.77-13.66,6.93-18.36a19.66,19.66,0,0,1,3.61-3.23c17.16-11.94,24-6.14,23.89-23.78-.23-30.23,8.38-34.75,18.52-31.77s18.05,3.82,19.53-7.35-7.66-61,15.35-60.89c39.87.13,19.71,51,15.68,59.27-9.66,19.79,10.43,22.89,15.21,37.32S240.16,386.42,217.59,394.41Z"/><path class="cls-5" d="M132.52,501.65s-6.07-55.65,36.35-86.84C188,400.72,223.65,350.41,220.42,296"/><path class="cls-6" d="M73.05,346.86c5.27-8.93,43.14,27.92,36.51,36S68,355.38,73.05,346.86Z"/><path class="cls-7" d="M63.5,397.12c.76-10.41,46.48,4.55,44.14,14.83S62.77,407,63.5,397.12Z"/><path class="cls-8" d="M149.81,351.2c8.1,6.34-31.89,40.78-39,33.15S142.1,345.16,149.81,351.2Z"/><path class="cls-9" d="M145.62,394.59c6.81,7.69-31.8,27-37.6,18.32S139.14,387.26,145.62,394.59Z"/><path class="cls-10" d="M66.53,434.52c-2-9.55,48.41-4.05,48.84,5.78S68.44,443.62,66.53,434.52Z"/><path class="cls-11" d="M143.16,423.4c5.22,8.84-30.89,30.89-35.09,21.26S138.19,415,143.16,423.4Z"/><path class="cls-12" d="M123.24,303.9c10.18.74-3,52-13,49.64S113.55,303.19,123.24,303.9Z"/><path class="cls-13" d="M76.87,344.43c5.27-8.93,43.14,27.92,36.51,36S71.85,352.94,76.87,344.43Z"/><path class="cls-14" d="M66.54,395c.76-10.41,46.48,4.55,44.14,14.83S65.82,404.9,66.54,395Z"/><path class="cls-15" d="M151.35,348.91c8.1,6.34-31.89,40.78-39,33.15S143.64,342.87,151.35,348.91Z"/><path class="cls-16" d="M132.07,412.28c.7-7,2.66-13.42,6.65-18,4.83-1,8.89-.77,10.66,1.23C153.16,399.75,142.91,407.63,132.07,412.28Z"/><path class="cls-17" d="M147.53,393c6.81,7.69-31.8,27-37.6,18.32S141,385.63,147.53,393Z"/><path class="cls-18" d="M112.92,341.44s1.16,26.63-2.37,49.87,5.37,62.58,19.85,75.15"/><path class="cls-19" d="M66.53,432.7c-2-9.55,48.41-4.05,48.84,5.78S68.44,441.8,66.53,432.7Z"/><path class="cls-20" d="M133.91,440.27c-.07-.44-.16-.9-.25-1.35a125.45,125.45,0,0,1-1.79-14.68c0-.15,0-.3,0-.46,8.23-4.55,17-6.85,19.34-2.91C154.11,425.83,144,434.93,133.91,440.27Z"/><path class="cls-21" d="M149.33,417.09c5.22,8.84-30.89,30.89-35.09,21.26S144.36,408.67,149.33,417.09Z"/><path class="cls-22" d="M125.71,303.22c10.18.74-3,52-13,49.64S116,302.52,125.71,303.22Z"/><path class="cls-23" d="M134.44,549.2H103.11a28.21,28.21,0,0,1-28-24.44L67.38,467.1a6.51,6.51,0,0,1,6.46-7.38h89.88a6.51,6.51,0,0,1,6.46,7.38l-7.77,57.66A28.21,28.21,0,0,1,134.44,549.2Z"/><rect class="cls-24" x="299.69" y="189.61" width="76.08" height="102.3" rx="3.87" ry="3.87"/><rect class="cls-25" x="306.07" y="197.16" width="63.32" height="87.21" rx="2.09" ry="2.09"/></g><g id="Слой_2" data-name="Слой 2"><path class="cls-26" d="M585.57,208.68S481.52,227.75,442,240.76,298.69,461,294.88,497s122.62,15.67,122.62,15.67S586.39,215.35,585.57,208.68Z"/><path class="cls-27" d="M558.74,144.54c1.53-4.73,2.4-17.19,3.2-21.1-6.29.85-11.8,10.26-11.81,16C551.78,139.18,557,143.31,558.74,144.54Z"/><path class="cls-28" d="M645.28,489.66c-4.38,32.39-52,37-107.5,38.74-1.68.84-62.9.47-91.41-9.13l1-219.34c.07-18.52,7.92-49.09,34.94-49.54,45.38-.75,129.55-7.67,162.51,2.51,7.53,27.06,13,57,.47,135.13C638.11,432.79,647.4,474.12,645.28,489.66Z"/><path class="cls-29" d="M632.79,266.51c10,30.18,8.79,47.68-4.62,96.51C605.82,444.37,642.5,486.14,565,527.17c47-2.68,76.57-9.93,80.3-37.5,2.12-15.55-7.17-56.87,0-101.62,9.25-57.58,26.51-104.63,3.56-132.44C642.49,247.91,629.4,256.31,632.79,266.51Z"/><path class="cls-30" d="M645.28,333c-11.84,2-48.38,6.87-59.81,1.78,1.19,11.32,2.41,31.38,2.41,31.38s-111.2.16-147.8,14.15c0-1.19-7.36-59.68-7.6-60.06.81-6.78,8.9-34.84,23.81-57.88C468.87,243,486.76,234.13,519,229.54l42.74-3s42.54-4.5,62.18,16.93S645.28,333,645.28,333Z"/><path class="cls-31" d="M537.41,249.07c-17.82,2.89-24.47-12.22-24.47-12.22s-.84-1.54-1.95-8.36l-.49-3-.45-2.8-.57-3.44a40.46,40.46,0,0,1-4.84.32c-12.68.07-33.4-5.05-42.45-24.23-6.33-13.37-2.94-27-4-35.26s-5.23-13.62-8-22.63c-3.57-11.54-.88-27,4.45-31.27C478.6,86.72,540.92,82,540.92,82s3.95,17.61,2.25,51.55c1.48-1.31-.77,6.13,1.39,5.37,4.53-1.51,8.61-1.34,11.64.4,6.63,3.78,8.26,15-1.33,32.12-.1.2-.22.4-.34.6-.18.35.3,6.08.74,9.49.07.47.12,1,.18,1.46.77,5.81,1.76,13.33,2.74,20.6,1.41,10.49,3,19.47,3.6,23C563.15,235,555.24,246.18,537.41,249.07Z"/><path class="cls-32" d="M543.17,133.55c1.7-33.94-.25-47.38-.25-47.38s-64.31.55-88.27,20c-3.76,3-3.58,9.52-3.74,15.11,9.3-9.79,30.91-9.24,47.69-11,8-.84,5.59,8.19,7.88,8.3,17.3-5.58,30.16,1.77,30.36,27.23l7.55-6.81C542.55,139.18,544.6,132.28,543.17,133.55Z"/><polygon class="cls-33" points="600.72 425.65 458.55 410.04 458.55 363.02 617.06 376.26 600.72 425.65"/><line class="cls-34" x1="585.57" y1="334.2" x2="581.59" y2="311.19"/><path class="cls-26" d="M561.94,149.57c0-1,5.6-70-23.05-83.57-32-15.1-109.91-10.14-90.08,55.22,6.32-27,20.66,4.6,54.42-22.87,3.34-2.72,19.86-11.35,36.19-5.24C514.58,96.33,510,106.6,511.1,106.64c19.52-6.3,33.41,3.84,29.81,37.89,5.07-3,9.23-4.45,12.18-4.1C558.71,141.12,560.52,144.87,561.94,149.57Z"/><path class="cls-35" d="M555.46,183c-11.08,26.22-30.12,37.13-45,42.45l-.45-2.8-.57-3.44a40.46,40.46,0,0,1-4.84.32c9.91-8.53,37.46-32.64,50.22-48.07-.1.2-.22.4-.34.6-.18.35.3,6.08.74,9.49C555.34,182,555.39,182.5,555.46,183Z"/><path class="cls-26" d="M544.38,143c.61-.69,2.48-2.38,2.48-2.38l-1.45-6.28-8.86,5.92a5.39,5.39,0,0,0-2.35,5.2l3,22.32c-12.29,7.54-40.31,29.19-45.6,30.08-6.72,1.13-9-7.27-12.59-5.32s-3.09,7-5.61,7c-1.31,0-9.89-5.37-12.71-9,0,0,4.36,14.24,5.3,16.74,2.17,5.8,14.82,17.51,14.82,17.51a5.93,5.93,0,0,0,4.93,1.72l15.86-1.91,8-5c11.12-6.39,36.85-31.59,36.94-35C547.06,164.49,538.34,149.84,544.38,143Z"/><path class="cls-36" d="M547.16,149.26s3.57-6.72,7.35-2.52,0,12.8,0,12.8Z"/><path class="cls-26" d="M552.57,54.12c3.38,38.76-24.81,32.73-42.57,32.73A32.15,32.15,0,0,1,477.85,54.7c0-17.76,39.05-5.91,45.05-35.58C526.42,1.72,551.43,41.09,552.57,54.12Z"/><circle class="cls-26" cx="512.73" cy="48.95" r="28.5"/></g><g id="Слой_4" data-name="Слой 4"><polygon class="cls-37" points="422.91 281.82 450 286.29 473.82 225.87 432.44 217.9 422.91 281.82"/><rect class="cls-25" x="466.86" y="256.52" width="7.14" height="13.49" rx="3.57" ry="3.57" transform="translate(105 -133.06) rotate(18.09)"/><path class="cls-38" d="M391.31,289.84S393,358,398.51,391.36s19.15,41,34,38.23c18.52-3.41,15.17-47.13,12.6-64.82-4-27.49-14.93-77-14.93-77Z"/><path class="cls-39" d="M394.86,289.65c.9-1.39,3.56-23.37,7.72-35.87s13.73-19.07,20.65-23.34c8.09-5,23.86-12,30.37-12s17.33-2.08,16.83,2.08-17.24,6.34-19.63,6.64-10.3,5.71-10.3,5.71,32.7,3.43,33.3,9.68-36-1.77-36.31,3.27c-.24,3.65,28.87-.3,27.68,6.25s-32.14.6-33.34,3.27,19.74,3.2,19,7.94-24.15.77-24.75,5.23.21,19.48.21,19.48Z"/><path class="cls-40" d="M512.5,309.8s-16.07-35.12-22.62-38.1-16.07-8.33-16.07-8.33-3.57,3.27,0,6,17,17,11.31,17.26-8.53-7.14-12.9-9.82-4-5.38-2-7.44-1.49-5.36-3.57-4.46-8.93,6.25-8.93,11.61c-3.27,6-5.06,10.42-1.49,13.69-2,3.87-3.63,4.76-2,8s11.19,11.61,8.51,14-.89,6.85,4.46,9.82,27.09,11.61,27.09,11.61Z"/><path class="cls-26" d="M605.69,211c-3.91-17.58-27.33-3.33-32,18S512.5,309.8,512.5,309.8l-18.16,23.81S467.12,345,457,361.15c-13.23,21.12-32.55,57-50,90.49-19.31,37,7.46,81.34,49.21,81.53l206,.91a65.46,65.46,0,0,0,65-55.61c4.64-30.64,6.34-65.28-5.82-79.83-24-28.71-19.76-56.93-25.1-86.27s8-24.84-26.67-44.75S607,217,605.69,211Z"/></g><g id="_01" data-name="01"><rect class="cls-41" x="67.64" y="42.83" width="128.4" height="161.22" rx="6.31" ry="6.31"/><rect class="cls-25" x="74.46" y="49.75" width="114.76" height="147.39" rx="3.67" ry="3.67"/><rect class="cls-42" x="243.03" y="16.65" width="103.72" height="130.23" rx="5.09" ry="5.09"/><rect class="cls-25" x="250.19" y="24.36" width="89.4" height="114.81" rx="2.85" ry="2.85"/></g></svg>