<svg xmlns="http://www.w3.org/2000/svg" xmlns:xlink="http://www.w3.org/1999/xlink" viewBox="0 0 650 650"><defs><style>.cls-1{fill:url(#Безымянный_градиент_263);}.cls-2{fill:url(#Безымянный_градиент_17);}.cls-3{fill:url(#Безымянный_градиент_31);}.cls-4{fill:url(#Безымянный_градиент_33);}.cls-5{fill:url(#Безымянный_градиент_33-2);}.cls-6{fill:url(#Безымянный_градиент_33-3);}.cls-7{fill:url(#Безымянный_градиент_33-4);}.cls-8{fill:url(#Безымянный_градиент_33-5);}.cls-9{fill:url(#Безымянный_градиент_33-6);}.cls-10{fill:url(#Безымянный_градиент_33-7);}.cls-11{fill:url(#Безымянный_градиент_11);}.cls-12{fill:url(#Безымянный_градиент_26);}.cls-13{fill:url(#Безымянный_градиент_26-2);}.cls-14{fill:url(#Безымянный_градиент_26-3);}.cls-15{fill:url(#Безымянный_градиент_26-4);}.cls-16{fill:#e7e9eb;}.cls-17{fill:url(#Безымянный_градиент_26-5);}.cls-18{fill:url(#Безымянный_градиент_26-6);}.cls-19{fill:url(#Безымянный_градиент_26-7);}.cls-20{fill:url(#Безымянный_градиент_123);}.cls-21{fill:url(#Безымянный_градиент_123-2);}.cls-22{fill:url(#Безымянный_градиент_29);}.cls-23{fill:url(#Безымянный_градиент_29-2);}.cls-24{fill:url(#Безымянный_градиент_123-3);}.cls-25{fill:url(#Безымянный_градиент_123-4);}.cls-26{fill:url(#Безымянный_градиент_29-3);}.cls-27{fill:url(#Безымянный_градиент_48);}.cls-28{fill:url(#Безымянный_градиент_123-5);}.cls-29{fill:url(#Безымянный_градиент_48-2);}.cls-30{fill:url(#Безымянный_градиент_14);}.cls-31{fill:url(#Безымянный_градиент_29-4);}.cls-32{fill:url(#Безымянный_градиент_29-5);}.cls-33{fill:url(#Безымянный_градиент_29-6);}.cls-34{fill:url(#Безымянный_градиент_29-7);}.cls-35{fill:url(#Безымянный_градиент_29-8);}.cls-36{fill:url(#Безымянный_градиент_29-9);}.cls-37{fill:url(#Безымянный_градиент_29-10);}.cls-38{fill:url(#Безымянный_градиент_29-11);}.cls-39{fill:url(#Безымянный_градиент_29-12);}.cls-40{fill:url(#Безымянный_градиент_29-13);}.cls-41{fill:url(#Безымянный_градиент_29-14);}.cls-42{fill:url(#Безымянный_градиент_29-15);}.cls-43{fill:url(#Безымянный_градиент_29-16);}.cls-44{fill:url(#Безымянный_градиент_29-17);}.cls-45{fill:url(#Безымянный_градиент_29-18);}.cls-46{fill:url(#Безымянный_градиент_29-19);}.cls-47{fill:url(#Безымянный_градиент_29-20);}.cls-48{fill:url(#Безымянный_градиент_29-21);}.cls-49{fill:url(#Безымянный_градиент_29-22);}.cls-50{fill:url(#Безымянный_градиент_29-23);}.cls-51{fill:url(#Безымянный_градиент_123-6);}.cls-52{fill:url(#Безымянный_градиент_3);}.cls-53{fill:url(#Безымянный_градиент_123-7);}.cls-54{fill:url(#Безымянный_градиент_3-2);}.cls-55{fill:url(#Безымянный_градиент_123-8);}.cls-56{fill:url(#Безымянный_градиент_123-9);}.cls-57{fill:url(#Безымянный_градиент_250);}.cls-58{fill:#d5527e;}.cls-59{fill:#fff;}.cls-60,.cls-61,.cls-62,.cls-70,.cls-71,.cls-72,.cls-73,.cls-74,.cls-75,.cls-76,.cls-77,.cls-78,.cls-79,.cls-80,.cls-81,.cls-82,.cls-83,.cls-87,.cls-89{fill:none;stroke-miterlimit:10;}.cls-60,.cls-61,.cls-62,.cls-70,.cls-71,.cls-72,.cls-73,.cls-74,.cls-75,.cls-76,.cls-77,.cls-78,.cls-79,.cls-80,.cls-81,.cls-82,.cls-83,.cls-87{stroke-linecap:round;}.cls-60,.cls-61,.cls-62,.cls-70,.cls-71,.cls-72,.cls-73,.cls-74,.cls-75,.cls-76,.cls-77,.cls-78,.cls-79,.cls-80,.cls-81,.cls-82,.cls-83{stroke-width:4.92px;}.cls-60{stroke:url(#Безымянный_градиент_139);}.cls-61{stroke:url(#Безымянный_градиент_139-2);}.cls-62{stroke:url(#Безымянный_градиент_139-3);}.cls-63{fill:url(#Безымянный_градиент_29-24);}.cls-64{fill:url(#Безымянный_градиент_29-25);}.cls-65{fill:url(#Безымянный_градиент_48-3);}.cls-66{fill:url(#Безымянный_градиент_123-10);}.cls-67{fill:url(#Безымянный_градиент_140);}.cls-68{fill:url(#Безымянный_градиент_48-4);}.cls-69{fill:url(#Безымянный_градиент_157);}.cls-70{stroke:url(#Безымянный_градиент_139-4);}.cls-71{stroke:url(#Безымянный_градиент_139-5);}.cls-72{stroke:url(#Безымянный_градиент_139-6);}.cls-73{stroke:url(#Безымянный_градиент_139-7);}.cls-74{stroke:url(#Безымянный_градиент_139-8);}.cls-75{stroke:url(#Безымянный_градиент_139-9);}.cls-76{stroke:url(#Безымянный_градиент_139-10);}.cls-77{stroke:url(#Безымянный_градиент_139-11);}.cls-78{stroke:url(#Безымянный_градиент_39);}.cls-79{stroke:url(#Безымянный_градиент_39-2);}.cls-80{stroke:url(#Безымянный_градиент_39-3);}.cls-81{stroke:url(#Безымянный_градиент_139-12);}.cls-82{stroke:url(#Безымянный_градиент_38);}.cls-83{stroke:url(#Безымянный_градиент_37);}.cls-84{fill:url(#Безымянный_градиент_250-2);}.cls-85{fill:url(#Безымянный_градиент_250-3);}.cls-86{fill:url(#Безымянный_градиент_3-3);}.cls-87{stroke:#fff;stroke-width:0.91px;}.cls-88{fill:url(#Безымянный_градиент_17-2);}.cls-89{stroke:#d5527e;stroke-width:1.95px;}.cls-90{fill:url(#Безымянный_градиент_29-26);}.cls-91{fill:url(#Безымянный_градиент_29-27);}.cls-92{fill:url(#Безымянный_градиент_17-3);}.cls-93{fill:url(#Безымянный_градиент_17-4);}.cls-94{fill:url(#Безымянный_градиент_17-5);}.cls-95{fill:url(#Безымянный_градиент_17-6);}</style><linearGradient id="Безымянный_градиент_263" x1="84.55" y1="331.73" x2="632.66" y2="331.73" gradientUnits="userSpaceOnUse"><stop offset="0" stop-color="#f0f2f5"/><stop offset="0.99" stop-color="#f5f7f8"/></linearGradient><linearGradient id="Безымянный_градиент_17" x1="552.7" y1="814.54" x2="728.94" y2="774.04" gradientTransform="translate(-306.88 -421.96) rotate(-9.62)" gradientUnits="userSpaceOnUse"><stop offset="0.01" stop-color="#bbc0d9"/><stop offset="1" stop-color="#d6dbf8"/></linearGradient><linearGradient id="Безымянный_градиент_31" x1="385.91" y1="318.55" x2="521.16" y2="296.1" gradientUnits="userSpaceOnUse"><stop offset="0" stop-color="#d6dbf8"/><stop offset="0.99" stop-color="#d6dbf8"/></linearGradient><linearGradient id="Безымянный_градиент_33" x1="-2413.5" y1="-861.4" x2="-2387.86" y2="-861.4" gradientTransform="matrix(-0.3, -0.95, -0.95, 0.3, -937.3, -1659.41)" gradientUnits="userSpaceOnUse"><stop offset="0" stop-color="#e0e4eb"/><stop offset="0.99" stop-color="#f3f6fd"/></linearGradient><linearGradient id="Безымянный_градиент_33-2" x1="-1433.11" y1="-99.28" x2="-1407.22" y2="-99.28" gradientTransform="matrix(0.16, -0.99, -0.99, -0.16, 713.81, -980.25)" xlink:href="#Безымянный_градиент_33"/><linearGradient id="Безымянный_градиент_33-3" x1="-5891.88" y1="1077.22" x2="-5866.2" y2="1077.22" gradientTransform="matrix(-0.91, 0.4, 0.4, 0.91, -5260.64, 1725.45)" xlink:href="#Безымянный_градиент_33"/><linearGradient id="Безымянный_градиент_33-4" x1="-5921.46" y1="1538.78" x2="-5895.17" y2="1538.78" gradientTransform="matrix(-0.84, 0.54, 0.48, 0.75, -5179.69, 2441.05)" xlink:href="#Безымянный_градиент_33"/><linearGradient id="Безымянный_градиент_33-5" x1="550.89" y1="422.88" x2="522.16" y2="398.32" gradientTransform="matrix(1, 0, 0, 1, 0, 0)" xlink:href="#Безымянный_градиент_33"/><linearGradient id="Безымянный_градиент_33-6" x1="-838.6" y1="483.15" x2="-811.71" y2="483.15" gradientTransform="matrix(0.39, -0.85, -0.91, -0.42, 1312.05, -11.19)" xlink:href="#Безымянный_градиент_33"/><linearGradient id="Безымянный_градиент_33-7" x1="-5840.07" y1="2144.51" x2="-5810.96" y2="2144.51" gradientTransform="matrix(-0.74, 0.68, 0.53, 0.58, -4937.76, 3110.98)" xlink:href="#Безымянный_градиент_33"/><linearGradient id="Безымянный_градиент_11" x1="-4409.34" y1="-809.79" x2="-4428.75" y2="-730.41" gradientTransform="matrix(-0.89, -0.46, -0.46, 0.89, -3690.45, -1037.32)" gradientUnits="userSpaceOnUse"><stop offset="0" stop-color="#e6eaf1"/><stop offset="0.99" stop-color="#f3f6fd"/></linearGradient><linearGradient id="Безымянный_градиент_26" x1="90.37" y1="590.24" x2="195.64" y2="590.24" gradientTransform="translate(-131.59 -216.52) rotate(-4.18)" gradientUnits="userSpaceOnUse"><stop offset="0.01" stop-color="#edeff0"/><stop offset="1" stop-color="#e1e3e6"/></linearGradient><linearGradient id="Безымянный_градиент_26-2" x1="126.68" y1="668.92" x2="223.4" y2="668.92" xlink:href="#Безымянный_градиент_26"/><linearGradient id="Безымянный_градиент_26-3" x1="188.81" y1="555.53" x2="236.01" y2="555.53" xlink:href="#Безымянный_градиент_26"/><linearGradient id="Безымянный_градиент_26-4" x1="218.47" y1="624.87" x2="275.75" y2="624.87" xlink:href="#Безымянный_градиент_26"/><linearGradient id="Безымянный_градиент_26-5" x1="167.45" y1="725.96" x2="263.97" y2="725.96" xlink:href="#Безымянный_градиент_26"/><linearGradient id="Безымянный_градиент_26-6" x1="256.16" y1="667.57" x2="305.46" y2="667.57" xlink:href="#Безымянный_градиент_26"/><linearGradient id="Безымянный_градиент_26-7" x1="127.01" y1="501.91" x2="170.55" y2="501.91" xlink:href="#Безымянный_градиент_26"/><linearGradient id="Безымянный_градиент_123" x1="274.09" y1="510.18" x2="323.16" y2="510.18" gradientUnits="userSpaceOnUse"><stop offset="0" stop-color="#753200"/><stop offset="1" stop-color="#a04400"/></linearGradient><linearGradient id="Безымянный_градиент_123-2" x1="327.24" y1="517.14" x2="351.16" y2="517.14" xlink:href="#Безымянный_градиент_123"/><linearGradient id="Безымянный_градиент_29" x1="265.51" y1="548.92" x2="284.9" y2="548.92" gradientUnits="userSpaceOnUse"><stop offset="0.28" stop-color="#201f4f"/><stop offset="1" stop-color="#201f4f"/></linearGradient><linearGradient id="Безымянный_градиент_29-2" x1="451.88" y1="2834.96" x2="471.27" y2="2834.96" gradientTransform="matrix(0.62, -0.79, 0.79, 0.62, -2171.84, -817.41)" xlink:href="#Безымянный_градиент_29"/><linearGradient id="Безымянный_градиент_123-3" x1="349.29" y1="427.83" x2="420.14" y2="427.83" xlink:href="#Безымянный_градиент_123"/><linearGradient id="Безымянный_градиент_123-4" x1="272.5" y1="381.78" x2="244.22" y2="330.39" xlink:href="#Безымянный_градиент_123"/><linearGradient id="Безымянный_градиент_29-3" x1="282.55" y1="425.96" x2="370.63" y2="425.96" xlink:href="#Безымянный_градиент_29"/><linearGradient id="Безымянный_градиент_48" x1="-8836.39" y1="1614.42" x2="-8854.61" y2="1632.29" gradientTransform="matrix(-0.98, 0.21, 0.21, 0.98, -8658.56, 650.35)" gradientUnits="userSpaceOnUse"><stop offset="0" stop-color="#a04400"/><stop offset="1" stop-color="#753200"/></linearGradient><linearGradient id="Безымянный_градиент_123-5" x1="1375.5" y1="352.62" x2="1332.04" y2="342.94" gradientTransform="translate(-1019.72)" xlink:href="#Безымянный_градиент_123"/><linearGradient id="Безымянный_градиент_48-2" x1="1335.55" y1="348.13" x2="1356.93" y2="360.01" gradientTransform="translate(-1019.72)" xlink:href="#Безымянный_градиент_48"/><linearGradient id="Безымянный_градиент_14" x1="-8836.34" y1="1601.45" x2="-8841.05" y2="1606.08" gradientTransform="matrix(-0.98, 0.21, 0.21, 0.98, -8658.56, 650.35)" gradientUnits="userSpaceOnUse"><stop offset="0" stop-color="#974000"/><stop offset="1" stop-color="#d5a080"/></linearGradient><linearGradient id="Безымянный_градиент_29-4" x1="303.74" y1="317.73" x2="362.92" y2="317.73" xlink:href="#Безымянный_градиент_29"/><linearGradient id="Безымянный_градиент_29-5" x1="307.77" y1="328.38" x2="315.06" y2="328.38" xlink:href="#Безымянный_градиент_29"/><linearGradient id="Безымянный_градиент_29-6" x1="304.12" y1="322.81" x2="311.41" y2="322.81" xlink:href="#Безымянный_градиент_29"/><linearGradient id="Безымянный_градиент_29-7" x1="301.69" y1="316.63" x2="308.98" y2="316.63" xlink:href="#Безымянный_градиент_29"/><linearGradient id="Безымянный_градиент_29-8" x1="301.69" y1="310.31" x2="308.98" y2="310.31" xlink:href="#Безымянный_градиент_29"/><linearGradient id="Безымянный_градиент_29-9" x1="303.21" y1="304.03" x2="310.5" y2="304.03" xlink:href="#Безымянный_градиент_29"/><linearGradient id="Безымянный_градиент_29-10" x1="308.58" y1="300.38" x2="315.87" y2="300.38" xlink:href="#Безымянный_градиент_29"/><linearGradient id="Безымянный_градиент_29-11" x1="314.48" y1="299.88" x2="321.77" y2="299.88" xlink:href="#Безымянный_градиент_29"/><linearGradient id="Безымянный_градиент_29-12" x1="319.84" y1="300.38" x2="327.13" y2="300.38" xlink:href="#Безымянный_градиент_29"/><linearGradient id="Безымянный_градиент_29-13" x1="323.48" y1="302.61" x2="330.78" y2="302.61" xlink:href="#Безымянный_градиент_29"/><linearGradient id="Безымянный_градиент_29-14" x1="326.6" y1="305.04" x2="333.9" y2="305.04" xlink:href="#Безымянный_градиент_29"/><linearGradient id="Безымянный_градиент_29-15" x1="333.33" y1="303.52" x2="340.62" y2="303.52" xlink:href="#Безымянный_градиент_29"/><linearGradient id="Безымянный_градиент_29-16" x1="338.39" y1="300.38" x2="345.69" y2="300.38" xlink:href="#Безымянный_градиент_29"/><linearGradient id="Безымянный_градиент_29-17" x1="344.57" y1="299.88" x2="351.86" y2="299.88" xlink:href="#Безымянный_градиент_29"/><linearGradient id="Безымянный_градиент_29-18" x1="350.31" y1="299.88" x2="357.6" y2="299.88" xlink:href="#Безымянный_градиент_29"/><linearGradient id="Безымянный_градиент_29-19" x1="353.96" y1="303.02" x2="361.25" y2="303.02" xlink:href="#Безымянный_градиент_29"/><linearGradient id="Безымянный_градиент_29-20" x1="357.6" y1="307.17" x2="364.89" y2="307.17" xlink:href="#Безымянный_градиент_29"/><linearGradient id="Безымянный_градиент_29-21" x1="358.11" y1="312.33" x2="365.4" y2="312.33" xlink:href="#Безымянный_градиент_29"/><linearGradient id="Безымянный_градиент_29-22" x1="357.6" y1="318.27" x2="364.89" y2="318.27" xlink:href="#Безымянный_градиент_29"/><linearGradient id="Безымянный_градиент_29-23" x1="354.82" y1="323.38" x2="362.11" y2="323.38" xlink:href="#Безымянный_градиент_29"/><linearGradient id="Безымянный_градиент_123-6" x1="-5782.82" y1="1505.46" x2="-5751.91" y2="1505.46" gradientTransform="matrix(-0.95, 0.32, 0.32, 0.95, -5811.76, 952.19)" xlink:href="#Безымянный_градиент_123"/><linearGradient id="Безымянный_градиент_3" x1="117.27" y1="555.12" x2="167.82" y2="555.12" gradientUnits="userSpaceOnUse"><stop offset="0.09" stop-color="#d9d9d9"/><stop offset="0.12" stop-color="#d6d6d6"/><stop offset="0.7" stop-color="#aeaeae"/><stop offset="1" stop-color="#9f9f9f"/></linearGradient><linearGradient id="Безымянный_градиент_123-7" x1="-5841.04" y1="1525.01" x2="-5810.12" y2="1525.01" gradientTransform="matrix(-0.95, 0.32, 0.32, 0.95, -5811.76, 952.19)" xlink:href="#Безымянный_градиент_123"/><linearGradient id="Безымянный_градиент_3-2" x1="178.77" y1="555.35" x2="229.23" y2="555.35" xlink:href="#Безымянный_градиент_3"/><linearGradient id="Безымянный_градиент_123-8" x1="367.63" y1="701.35" x2="393.02" y2="701.35" gradientTransform="translate(-221.62 -313.75) rotate(-6.91)" xlink:href="#Безымянный_градиент_123"/><linearGradient id="Безымянный_градиент_123-9" x1="84.83" y1="344.65" x2="116.82" y2="344.65" xlink:href="#Безымянный_градиент_123"/><linearGradient id="Безымянный_градиент_250" x1="119.53" y1="413.67" x2="212.73" y2="413.67" gradientUnits="userSpaceOnUse"><stop offset="0" stop-color="#a7a5ee"/><stop offset="0.44" stop-color="#9d9ce8"/><stop offset="0.89" stop-color="#8988d5"/></linearGradient><linearGradient id="Безымянный_градиент_139" x1="-6920.56" y1="-559.18" x2="-6877.54" y2="-559.18" gradientTransform="matrix(-0.99, -0.17, -0.17, 0.99, -6703.86, -471.44)" gradientUnits="userSpaceOnUse"><stop offset="0" stop-color="#201f4f"/><stop offset="0.26" stop-color="#27275a"/><stop offset="0.72" stop-color="#393c76"/><stop offset="1" stop-color="#464b8b"/></linearGradient><linearGradient id="Безымянный_градиент_139-2" x1="-6914.12" y1="-558.07" x2="-6871.1" y2="-558.07" xlink:href="#Безымянный_градиент_139"/><linearGradient id="Безымянный_градиент_139-3" x1="-6928.12" y1="-562.86" x2="-6885.11" y2="-562.86" xlink:href="#Безымянный_градиент_139"/><linearGradient id="Безымянный_градиент_29-24" x1="1188.74" y1="181.33" x2="1199.13" y2="124.38" gradientTransform="translate(-1019.72)" xlink:href="#Безымянный_градиент_29"/><linearGradient id="Безымянный_градиент_29-25" x1="1149.65" y1="146.79" x2="1210.55" y2="118.6" gradientTransform="translate(-1019.72)" xlink:href="#Безымянный_градиент_29"/><linearGradient id="Безымянный_градиент_48-3" x1="-8718.79" y1="1401.44" x2="-8740.12" y2="1422.38" xlink:href="#Безымянный_градиент_48"/><linearGradient id="Безымянный_градиент_123-10" x1="1220.66" y1="173.81" x2="1170.37" y2="162.61" gradientTransform="translate(-1019.72)" xlink:href="#Безымянный_градиент_123"/><linearGradient id="Безымянный_градиент_140" x1="1208.24" y1="134.74" x2="1179.99" y2="148.18" gradientTransform="translate(-1019.72)" gradientUnits="userSpaceOnUse"><stop offset="0.1" stop-color="#753200"/><stop offset="0.48" stop-color="#8a3b00" stop-opacity="0.52"/><stop offset="0.82" stop-color="#9a4100" stop-opacity="0.14"/><stop offset="1" stop-color="#a04400" stop-opacity="0"/></linearGradient><linearGradient id="Безымянный_градиент_48-4" x1="1174.73" y1="165.04" x2="1199.84" y2="178.99" gradientTransform="translate(-1019.72)" xlink:href="#Безымянный_градиент_48"/><linearGradient id="Безымянный_градиент_157" x1="-8718.84" y1="1386.55" x2="-8721.59" y2="1389.25" gradientTransform="matrix(-0.98, 0.21, 0.21, 0.98, -8658.56, 650.35)" gradientUnits="userSpaceOnUse"><stop offset="0" stop-color="#a96e46"/><stop offset="1" stop-color="#ffd0b9"/></linearGradient><linearGradient id="Безымянный_градиент_139-4" x1="1152.3" y1="141.68" x2="1195.32" y2="141.68" gradientTransform="translate(-1019.72)" xlink:href="#Безымянный_градиент_139"/><linearGradient id="Безымянный_градиент_139-5" x1="1157.93" y1="148.21" x2="1200.94" y2="148.21" gradientTransform="translate(-1019.72)" xlink:href="#Безымянный_градиент_139"/><linearGradient id="Безымянный_градиент_139-6" x1="1145.39" y1="143.64" x2="1188.4" y2="143.64" gradientTransform="translate(-1019.72)" xlink:href="#Безымянный_градиент_139"/><linearGradient id="Безымянный_градиент_139-7" x1="1012.33" y1="-214.73" x2="1055.67" y2="-214.73" gradientTransform="translate(-903.44 264.8) rotate(4.85)" xlink:href="#Безымянный_градиент_139"/><linearGradient id="Безымянный_градиент_139-8" x1="1156.19" y1="141.68" x2="1198.68" y2="141.68" gradientTransform="translate(-1019.72)" xlink:href="#Безымянный_градиент_139"/><linearGradient id="Безымянный_градиент_139-9" x1="1178.03" y1="125.47" x2="1202.67" y2="125.47" gradientTransform="translate(-1019.72)" xlink:href="#Безымянный_градиент_139"/><linearGradient id="Безымянный_градиент_139-10" x1="1163.6" y1="146.42" x2="1194.46" y2="146.42" gradientTransform="translate(-1019.72)" xlink:href="#Безымянный_градиент_139"/><linearGradient id="Безымянный_градиент_139-11" x1="1171.35" y1="146.42" x2="1202.21" y2="146.42" gradientTransform="translate(-1019.72)" xlink:href="#Безымянный_градиент_139"/><linearGradient id="Безымянный_градиент_39" x1="1201.98" y1="140" x2="1231.82" y2="140" gradientTransform="translate(-1019.72)" gradientUnits="userSpaceOnUse"><stop offset="0" stop-color="#464b8b"/><stop offset="0.28" stop-color="#393c76"/><stop offset="0.74" stop-color="#27275a"/><stop offset="1" stop-color="#201f4f"/></linearGradient><linearGradient id="Безымянный_градиент_39-2" x1="1297.64" y1="470.25" x2="1330.79" y2="470.25" gradientTransform="matrix(1, -0.08, 0.08, 1, -1146.12, -229.8)" xlink:href="#Безымянный_градиент_39"/><linearGradient id="Безымянный_градиент_39-3" x1="1204.04" y1="126.53" x2="1224.15" y2="126.53" xlink:href="#Безымянный_градиент_39"/><linearGradient id="Безымянный_градиент_139-12" x1="1181.44" y1="131.07" x2="1208.77" y2="131.07" gradientTransform="translate(-1019.72)" xlink:href="#Безымянный_градиент_139"/><linearGradient id="Безымянный_градиент_38" x1="1193.75" y1="127.39" x2="1215.07" y2="127.39" gradientTransform="translate(-1019.72)" gradientUnits="userSpaceOnUse"><stop offset="0" stop-color="#201f4f"/><stop offset="0.12" stop-color="#252558"/><stop offset="0.7" stop-color="#3d417d"/><stop offset="1" stop-color="#464b8b"/></linearGradient><linearGradient id="Безымянный_градиент_37" x1="1170.45" y1="139.94" x2="1216.92" y2="139.94" gradientTransform="translate(-1019.72)" gradientUnits="userSpaceOnUse"><stop offset="0" stop-color="#201f4f"/><stop offset="0.23" stop-color="#303168"/><stop offset="0.48" stop-color="#3c407b"/><stop offset="0.74" stop-color="#444887"/><stop offset="1" stop-color="#464b8b"/></linearGradient><linearGradient id="Безымянный_градиент_250-2" x1="145.74" y1="534.84" x2="116.41" y2="528.3" xlink:href="#Безымянный_градиент_250"/><linearGradient id="Безымянный_градиент_250-3" x1="207.17" y1="534.84" x2="177.83" y2="528.3" xlink:href="#Безымянный_градиент_250"/><linearGradient id="Безымянный_градиент_3-3" x1="155.84" y1="324.52" x2="191.45" y2="324.52" xlink:href="#Безымянный_градиент_3"/><linearGradient id="Безымянный_градиент_17-2" x1="402.18" y1="520.2" x2="488.91" y2="520.2" gradientTransform="matrix(1, 0, 0, 1, 0, 0)" xlink:href="#Безымянный_градиент_17"/><linearGradient id="Безымянный_градиент_29-26" x1="149.12" y1="22.3" x2="155.6" y2="22.3" gradientTransform="translate(258.25 458.61) rotate(9.05)" xlink:href="#Безымянный_градиент_29"/><linearGradient id="Безымянный_градиент_29-27" x1="169.99" y1="14.52" x2="175.23" y2="14.52" gradientTransform="translate(440.95 327.5) rotate(90)" xlink:href="#Безымянный_градиент_29"/><linearGradient id="Безымянный_градиент_17-3" x1="436.45" y1="491.75" x2="436.56" y2="480.65" gradientTransform="matrix(1, 0, 0, 1, 0, 0)" xlink:href="#Безымянный_градиент_17"/><linearGradient id="Безымянный_градиент_17-4" x1="420.12" y1="487.39" x2="420.2" y2="479.22" gradientTransform="matrix(1, 0, 0, 1, 0, 0)" xlink:href="#Безымянный_градиент_17"/><linearGradient id="Безымянный_градиент_17-5" x1="423.76" y1="564.12" x2="425.58" y2="548.16" gradientTransform="matrix(1, 0, 0, 1, 0, 0)" xlink:href="#Безымянный_градиент_17"/><linearGradient id="Безымянный_градиент_17-6" x1="467.39" y1="564.56" x2="467.5" y2="548.14" gradientTransform="matrix(1, 0, 0, 1, 0, 0)" xlink:href="#Безымянный_градиент_17"/></defs><title>1</title><g id="_2" data-name="2"><path class="cls-1" d="M613.94,343.12C565.8,240.51,428.14,90.22,249.26,89.84,62.6,89.43,44.54,282.49,145.15,336.14S98.65,456.7,203.82,523.9c106.44,68,333.91,61.64,389.9,8.72S634.73,387.45,613.94,343.12Z"/><path class="cls-2" d="M513.44,290.44c-31.47,17.51,12.11,54.67-21.19,80.38s-78.56,43.55-82.32,34.45c-.26-.6-3.29-6.55-6.93-15.38-.84-2-1.7-4.25-2.59-6.57-.23-.65-.48-1.31-.73-2a187.92,187.92,0,0,1-6.52-21.69c-.06-.23-.1-.45-.15-.68-.67-2.93-1.24-5.9-1.68-8.86s-.75-5.72-.92-8.54c-.7-10.72.67-20.95,5.65-29a29.55,29.55,0,0,1,4.53-5.7c22.44-22,34.05-15.14,29.43-41.25-7.94-44.76,3.69-53.62,19.46-51.74s27.72,1.13,27.11-15.81-26.68-88.46,7.45-94.11c59.12-9.83,42,70.66,38.14,83.91-9.34,31.76,21.21,31.31,31.92,51.49S544.89,272.93,513.44,290.44Z"/><path class="cls-3" d="M414.29,470.77a139.65,139.65,0,0,1-4.45-21.38,174,174,0,0,1-1.54-21.86A153.65,153.65,0,0,1,414.18,384a129.93,129.93,0,0,1,8-20.64c1.57-3.35,3.42-6.56,5.26-9.77l3-4.69c1-1.57,2.12-3,3.18-4.55.54-.75,1.06-1.52,1.63-2.25l1.74-2.16,1.75-2.16.87-1.08.93-1,3.74-4.11c1.2-1.36,2.41-2.56,3.53-4A134.68,134.68,0,0,0,460,310.13a240.42,240.42,0,0,0,18.82-38.74q3.89-10.07,7-20.44l1.48-5.2c.49-1.73.9-3.49,1.37-5.23s.88-3.49,1.29-5.25.85-3.5,1.19-5.27c5.94-28.18,7.22-57.55,1.75-86.16a180.7,180.7,0,0,1,4.29,21.41c.28,1.8.43,3.62.64,5.44l.29,2.72c.09.91.13,1.82.2,2.73l.36,5.47.17,5.48a220.5,220.5,0,0,1-3.73,43.69,249,249,0,0,1-30.68,82,139.63,139.63,0,0,1-12.87,18.06c-1.16,1.44-2.54,2.8-3.75,4.15L444.21,339l-.9,1-.85,1L440.77,343l-1.7,2.06c-.56.7-1.06,1.43-1.6,2.14-1,1.45-2.16,2.84-3.13,4.33L431.41,356c-1.82,3.06-3.66,6.13-5.22,9.33a139.47,139.47,0,0,0-8.16,19.8,160,160,0,0,0-7.19,42.39,183.48,183.48,0,0,0,.43,21.67c.28,3.61.65,7.21,1.15,10.81S413.49,467.23,414.29,470.77Z"/><path class="cls-4" d="M644.27,351c-1-17.49-86.36,8.71-82.63,26S645.25,367.66,644.27,351Z"/><path class="cls-5" d="M620.84,434.94c6.88-16.22-73.37-29-77.77-11.72S614.28,450.4,620.84,434.94Z"/><path class="cls-6" d="M528.87,300.33c-17.06,3.29,16.5,85.87,33.09,79.89S545.12,297.19,528.87,300.33Z"/><path class="cls-7" d="M500.68,369.47c-16.16,6.32,27,65.15,42.4,56.51S516.07,363.45,500.68,369.47Z"/><path class="cls-8" d="M592.4,318.72c-4.13,8.16-8.18,16.36-12,24.66s-7.54,16.63-11,25.05-6.77,16.93-9.63,25.56c-.73,2.13-1.48,4.37-2.31,6.52-.43,1.08-.84,2.16-1.29,3.23l-1.37,3.19c-1.9,4.22-4,8.34-6.23,12.38a212.75,212.75,0,0,1-33.16,44c-3.25,3.26-6.57,6.44-10,9.47s-7.1,5.87-10.86,8.53a94.48,94.48,0,0,1-11.81,7.13,52.9,52.9,0,0,1-12.91,4.71c8.77-2.68,16.6-7.58,23.73-13.17a172,172,0,0,0,20-18.49q4.61-5,9-10.25c2.88-3.51,5.69-7.08,8.36-10.75a216.2,216.2,0,0,0,14.78-22.83c2.21-4,4.29-8,6.17-12.08l1.36-3.1c.44-1,.84-2.09,1.27-3.13.82-2.11,1.53-4.2,2.33-6.38q4.61-13,10.24-25.56A448.26,448.26,0,0,1,592.4,318.72Z"/><path class="cls-9" d="M591.79,491.63c10.37-12.81-69.63-43.4-77.86-29S581.92,503.83,591.79,491.63Z"/><path class="cls-10" d="M479.37,404.35c-14.66,9.26,22.62,70.23,36.35,59S493.34,395.53,479.37,404.35Z"/><path class="cls-11" d="M602.63,251.42C586.76,244.69,567,331.88,584,336.08S617.74,257.83,602.63,251.42Z"/><path class="cls-12" d="M.71,353.4c-2-21.77,108.14-5.19,106.72,16.8S2.57,374.14.71,353.4Z"/><path class="cls-13" d="M45.1,452.64c-11.48-18.74,85.16-49.28,93.77-28.81S56,470.5,45.1,452.64Z"/><path class="cls-14" d="M133.71,269.62c21.66.91-4.51,109-26.08,104.65S113.08,268.75,133.71,269.62Z"/><path class="cls-15" d="M181.25,349.7c21.1,4.81-21.23,85.34-41.87,77.53S161.15,345.12,181.25,349.7Z"/><path class="cls-16" d="M58.74,304a559.1,559.1,0,0,1,40.36,55.35q9.29,14.43,17.35,29.64c1.39,2.54,2.65,5,4.05,7.45.72,1.21,1.4,2.43,2.14,3.63l2.25,3.57c3.08,4.72,6.38,9.3,9.84,13.77a269.68,269.68,0,0,0,22.44,25.44c4,4,8.1,7.92,12.3,11.72s8.55,7.43,13,11a214.44,214.44,0,0,0,28.06,19.12c9.83,5.59,20.39,10.19,31.7,11.87-1.42-.14-2.85-.24-4.26-.43s-2.83-.42-4.23-.73-2.8-.62-4.18-1-2.76-.78-4.12-1.24a117.82,117.82,0,0,1-15.88-6.62c-5.13-2.59-10.11-5.46-15-8.52s-9.53-6.4-14.14-9.82a265.36,265.36,0,0,1-49-48.17c-3.5-4.57-6.84-9.26-10-14.12l-2.28-3.68c-.75-1.23-1.45-2.5-2.18-3.75-1.42-2.51-2.76-5.13-4.05-7.62-5.13-10.12-10.78-20-16.6-29.75s-12-19.36-18.24-28.86S65.35,313.34,58.74,304Z"/><path class="cls-17" d="M91.4,517.2c-15.15-13.89,77.89-66.38,90.7-50.08S105.83,530.44,91.4,517.2Z"/><path class="cls-18" d="M214,388.8c19.79,8.72-14.94,90.81-34,79.49S195.11,380.49,214,388.8Z"/><path class="cls-19" d="M33.71,222.89c18.33-11.23,58.75,92.69,38.62,101S16.24,233.59,33.71,222.89Z"/><path class="cls-20" d="M299.67,477l1.77,20.52-27.35,39.9,8.3,5.87,30-31.69a30,30,0,0,0,7.8-15.67l3-17.71Z"/><polygon class="cls-21" points="327.24 481.7 328.86 498.71 336.15 557.25 345.93 555.07 348.5 495.67 351.16 477.04 327.24 481.7"/><path class="cls-22" d="M275.77,535.6s-7.15,1.92-10.26,5.29c4.32,7.7,16.07,21.74,17.55,21.33s2.84-5.67.81-9.59-.86-9.8-.86-9.8Z"/><path class="cls-23" d="M335.76,556.32s-2.89,6.82-2.15,11.34c8.72,1.34,27,.73,27.62-.69s-2.72-5.73-7.05-6.54-8.25-5.36-8.25-5.36Z"/><path class="cls-24" d="M367.79,398.19l8.1,22.14,23,25.74s9.72-1.42,12.15-.68a13.1,13.1,0,0,1,9.05,9.88,1.32,1.32,0,0,1-2.12,1.29c-3.11-2.47-6.3-6.15-8-6-2.16.14,3.92,6.35,2.3,6.89s-6.08-3.78-7.83-4.46a16,16,0,0,0-3.64-.64,11.74,11.74,0,0,1-5.28-1.81c-7.31-4.69-27.91-18-31.12-20.72-3.92-3.38-11-17.52-11-17.52l-4.15-9.62Z"/><path class="cls-25" d="M284.08,372.67l-13.5,2.7-19.58-28s-.27-10.23-.95-13.21-12.69-8.52-14.18-8.12,7,9.59,7,9.59.81,5.4.41,5.54-8-3.38-9.32-2.57,8.37,8.1,8.37,8.1,13.77,40.64,18.9,42.94,27.27.85,27.27.85Z"/><path class="cls-26" d="M370.63,397.65c-9.75-21.46-24.71-34.1-48.61-33.62-1.42,0-2.83.35-4.24.47h0s-30.48,3.42-34.13,6.25,3,23.26,3,23.26l18-3.48c2.53,7.49,5.28,15.16,3.31,24.07-3.23,14.58-26.32,48.61-22.67,63.6,14.58,6.48,29,13.83,69.54,6.95,3.46-10.62,2.55-48.37,1.4-76.75A69.66,69.66,0,0,0,370.63,397.65Z"/><path class="cls-27" d="M319.46,349.34c6.6,9.37,14.74,12.41,21,13.23l.16-2.92c-6.12-1.8-13.43-6-21.95-14.9l.18.21a30,30,0,0,1,.52,3.8C319.43,348.94,319.45,349.14,319.46,349.34Z"/><path class="cls-28" d="M357.21,346.19c-1.91,8.32-9.63,12.11-14.62,13.17-.48.09-.93.17-1.35.22l-.57.07-.06,1.41-1.79,24.23a2.2,2.2,0,0,1-3.93,1.19c-4.95-6.41-13.38-17.58-13.48-19.36,0,0-.74-3.83-1.74-15.49-.06-.73-.12-1.49-.19-2.28,0-.2,0-.4-.05-.59,0-.39-.09-.87-.14-1.34a17.55,17.55,0,0,0-.38-2.46,1.76,1.76,0,0,1-.18-.21c-2.79-3.15-4.19-5.92-4.53-8.12,0-2.73,0-4.75,3.14-6.47.26-16.36,10.68-22.53,28.19-18.79,1-.28,3.36,2.43,6,4.3,2,1.41,3.91,4,4.86,8.52h0a34.74,34.74,0,0,0-.63,7.78C356.05,335.31,358.55,340.39,357.21,346.19Z"/><path class="cls-29" d="M340.6,361.05s-14-1.64-20.94-9.43c-.06-.73-.12-1.49-.19-2.28,0-.2,0-.4-.05-.59,0-.39-.09-.87-.14-1.34,8.55,6.9,15.81,10.51,22,12.16l-.57.07Z"/><path class="cls-30" d="M319.84,335.36s-2-2.34-3.11-.36,1.1,5,1.1,5Z"/><path class="cls-31" d="M348.07,317.73s-9.53,9.85-15.39,12.63c-6.68,3.18-10.43,3.38-10.43,3.38s-3.08-3.76-4.76-3.09c-2.94,1.16-3.53,3.29-3.22,6.46-2.82-1.55-1.59-5.65-1.59-5.65s-16.46-17.23-4.71-28.59,25.52,2.41,25.52,2.41,10.26-11.22,21.6-5.13,9.17,21.59,1.06,25.64A43.59,43.59,0,0,1,348.07,317.73Z"/><circle class="cls-32" cx="311.41" cy="328.38" r="3.65"/><circle class="cls-33" cx="307.77" cy="322.81" r="3.65"/><circle class="cls-34" cx="305.34" cy="316.63" r="3.65"/><circle class="cls-35" cx="305.34" cy="310.31" r="3.65"/><circle class="cls-36" cx="306.86" cy="304.03" r="3.65"/><circle class="cls-37" cx="312.22" cy="300.38" r="3.65"/><circle class="cls-38" cx="318.13" cy="299.88" r="3.65"/><circle class="cls-39" cx="323.48" cy="300.38" r="3.65"/><circle class="cls-40" cx="327.13" cy="302.61" r="3.65"/><circle class="cls-41" cx="330.25" cy="305.04" r="3.65"/><circle class="cls-42" cx="336.98" cy="303.52" r="3.65"/><circle class="cls-43" cx="342.04" cy="300.38" r="3.65"/><circle class="cls-44" cx="348.22" cy="299.88" r="3.65"/><circle class="cls-45" cx="353.96" cy="299.88" r="3.65"/><circle class="cls-46" cx="357.6" cy="303.02" r="3.65"/><circle class="cls-47" cx="361.25" cy="307.17" r="3.65"/><circle class="cls-48" cx="361.75" cy="312.33" r="3.65"/><circle class="cls-49" cx="361.25" cy="318.27" r="3.65"/><circle class="cls-50" cx="358.47" cy="323.38" r="3.65"/><path class="cls-51" d="M119.55,546.61a89.31,89.31,0,0,0,11,9.93c3.71,2.51,14.69,4.43,24.32-1.86a15.12,15.12,0,0,1-8.89-7.56c-3.14-6.11-5.49-9.39-6.33-15.61S122.43,529,122.43,529,123.08,542.65,119.55,546.61Z"/><path class="cls-52" d="M119.84,543.45a42.26,42.26,0,0,0,11.86,8.7c4.07,1.86,9.47,4.5,19.52.49a3.07,3.07,0,0,0,.52-.35s13.28,5.5,13.88,6.06c1.25,1.15,3.26,3.77,1.47,6.62-.94,1.5-10.61,2-16.82,1.77-5.74-.17-27.38-6.65-27.38-6.65C115.37,556.31,116.51,551.17,119.84,543.45Z"/><path class="cls-53" d="M181,546.61a89.31,89.31,0,0,0,11,9.93c3.71,2.51,14.69,4.43,24.32-1.86a15.12,15.12,0,0,1-8.89-7.56c-3.14-6.11-5.49-9.39-6.33-15.61S183.84,529,183.84,529,184.49,542.65,181,546.61Z"/><path class="cls-54" d="M181.42,543.91a42.51,42.51,0,0,0,11.7,8.25c4.07,1.86,9.47,4.5,19.52.49a3.07,3.07,0,0,0,.52-.35s13.28,5.5,13.88,6.06c1.25,1.15,3.26,3.77,1.47,6.62-.94,1.5-10.61,2-16.82,1.77-5.74-.17-27.38-6.65-27.38-6.65C176.78,556.31,178.09,551.63,181.42,543.91Z"/><path class="cls-55" d="M253.11,338.41a5.26,5.26,0,0,0-1.92-3.16L238,323.54l-2.09-10.88a106.93,106.93,0,0,0-10.71,4.05c2.93,9.08,6.13,18.67,6.89,19.75,1.48,2.09,5.25,3.17,6.85,5s6.72,12.33,9,11.26-1.09-6-1.15-6.5-3.62-4.55-3-5.93,4.07,2.57,4.37,2.79a11.68,11.68,0,0,1,2.82,8.06c-.08,2.92,1.93,6.08,3.49,8.07a.8.8,0,0,0,1.42-.6c-.42-3.22-1.1-8.26-1.19-8.54S253.77,341.87,253.11,338.41Z"/><path class="cls-56" d="M108.26,323.71a36.89,36.89,0,0,1-2.32,3.45c-2.31,2.89-16.18,13.05-16.18,13.05s-5.05,16.57-4.93,17,7.17,5.86,10.89,7.56c9.46,4.33-1-10.39,10.43-15.82a10,10,0,0,0,6.19-9.49c0-1.53,2.19-6.58,4.48-11.37Z"/><path class="cls-57" d="M200.41,297.71c14.85,44.55,12.13,129.82,12.13,129.82l-8.72,108h-23.2c-3.15-36.14-2.27-64.3-.87-82.23a271.75,271.75,0,0,0-.93-52.74s-1-41.38-4.8-41.2-11.61,73.05-11.61,73.05L143.26,535.52H119.6c-.53-13.19,2-41.37,7.12-74.14a239,239,0,0,0,2-60.15c-2.43-25.19-1.17-43.2.71-56.68,4.8-34.44,21.38-52.73,21.38-52.73Z"/><path class="cls-58" d="M148.77,190.77c-5,1.83-13.95,10.16-16.23,13.81C113.72,234.69,99.75,329.1,99.75,329.1l16.42,7.08,24.18-82.74c1.11,6.43-20.82,134.44-20.82,134.44l31.86,4.24,13.95-209A17.47,17.47,0,0,0,148.77,190.77Z"/><path class="cls-58" d="M225.53,328.58,241.09,323s-21.86-121.72-52.78-128h0a23.62,23.62,0,0,0-6-6.26l13.58,208.73,21.93-8.19S198.89,263.7,200.13,251.1Z"/><path class="cls-59" d="M173.56,184.79,167,183.38c-.56-.12-1.13-.21-1.69-.27l-8.94,134,34.41,2.58-8.52-131.07A23.58,23.58,0,0,0,173.56,184.79Z"/><path class="cls-60" d="M176.88,112.39l5.61-1.16A1.41,1.41,0,0,1,184,112l2,4.06a1.41,1.41,0,0,0,1,.76l3.13.54a1.41,1.41,0,0,1,1.17,1.48l-.24,3.72a1.41,1.41,0,0,0,1.17,1.48l2.83.49a1.41,1.41,0,0,1,1.17,1.46l-.15,3.06a1.41,1.41,0,0,0,.67,1.27l3.4,2.1a1.41,1.41,0,0,1,.32,2.13l-2.18,2.48a1.41,1.41,0,0,0,.25,2.08l3.88,2.75a1.41,1.41,0,0,1,.4,1.87l-1.67,2.86a1.41,1.41,0,0,0,.14,1.62l2,2.4a1.41,1.41,0,0,1-.29,2.08L201,154.15a1.41,1.41,0,0,0-.35,2l3.32,4.59a1.41,1.41,0,0,1-.1,1.77l-2,2.25a1.41,1.41,0,0,0-.06,1.82l3.13,4a1.41,1.41,0,0,1,0,1.78l-3,3.58a1.41,1.41,0,0,0-.06,1.72l1.65,2.31a1.41,1.41,0,0,1,.08,1.52L202.11,184c-.1.18.15.62.17,1.2a8.29,8.29,0,0,1,0,1.11"/><path class="cls-61" d="M170.34,112.39l5.61-1.16a1.41,1.41,0,0,1,1.55.76l2,4.06a1.41,1.41,0,0,0,1,.76l3.13.54a1.41,1.41,0,0,1,1.17,1.48l-.24,3.72a1.41,1.41,0,0,0,1.17,1.48l2.83.49a1.41,1.41,0,0,1,1.17,1.46l-.15,3.06a1.41,1.41,0,0,0,.67,1.27l3.4,2.1a1.41,1.41,0,0,1,.32,2.13l-2.18,2.48a1.41,1.41,0,0,0,.25,2.08l3.88,2.75a1.41,1.41,0,0,1,.4,1.87l-1.67,2.86a1.41,1.41,0,0,0,.14,1.62l2,2.4a1.41,1.41,0,0,1-.29,2.08l-2.12,1.44a1.41,1.41,0,0,0-.35,2l3.32,4.59a1.41,1.41,0,0,1-.1,1.77l-2,2.25a1.41,1.41,0,0,0-.06,1.82l3.13,4a1.41,1.41,0,0,1,0,1.78l-3,3.58a1.41,1.41,0,0,0-.06,1.72l1.65,2.31a1.41,1.41,0,0,1,.08,1.52L195.57,184c-.1.18.15.62.17,1.2a8.29,8.29,0,0,1,0,1.11"/><path class="cls-62" d="M185,110l5.61-1.16a1.41,1.41,0,0,1,1.55.76l2,4.06a1.41,1.41,0,0,0,1,.76l3.13.54a1.41,1.41,0,0,1,1.17,1.48l-.24,3.72a1.41,1.41,0,0,0,1.17,1.48l2.83.49a1.41,1.41,0,0,1,1.17,1.46l-.15,3.06a1.41,1.41,0,0,0,.67,1.27l3.4,2.1a1.41,1.41,0,0,1,.32,2.13l-2.18,2.48a1.41,1.41,0,0,0,.25,2.08l3.88,2.75a1.41,1.41,0,0,1,.4,1.87l-1.67,2.86a1.41,1.41,0,0,0,.14,1.62l2,2.4a1.41,1.41,0,0,1-.29,2.08L209,151.81a1.41,1.41,0,0,0-.35,2l3.32,4.59a1.41,1.41,0,0,1-.1,1.77l-2,2.25a1.41,1.41,0,0,0-.06,1.82l3.13,4a1.41,1.41,0,0,1,0,1.78l-3,3.58a1.41,1.41,0,0,0-.06,1.72l1.65,2.31a1.41,1.41,0,0,1,.08,1.52l-1.44,2.55c-.1.18.15.62.17,1.2a8.29,8.29,0,0,1,0,1.11"/><path class="cls-63" d="M197.08,125.1c-19-16.6-47.22-6.81-53.87,14-15.08,47.21,39.36,48,45.64,50.31C210.85,174.38,213.29,140.58,197.08,125.1Z"/><path class="cls-64" d="M202.84,133.67c-.1,1.15-.24,2.28-.4,3.4-1.52-5.82-11.44-12.41-22.69-11.38,0,0,0,1.36-2.12,1.74s-3.05-2.26-3.52,0-.47,5.31-3.05,5.31-4.24,1.64-4.47,3.29,4.13,7.56,1.94,9c-2.51,1.66-4.32,7.87-4.32,7.87s-2-14.42-9.72-6c-.55,1.55-1,3.11-1.4,4.67a5.44,5.44,0,0,1,1.47-5.15,4.7,4.7,0,0,1,1.18-.78,40.25,40.25,0,0,1-1.88-11.85c0-2.22-5-10.37-4.42-12.65,3.07-11.86,23.75-19,33.75-18.32S203.79,122.55,202.84,133.67Z"/><path class="cls-65" d="M159.27,166.47a34.71,34.71,0,0,0,24.92,15l-.07-1.34-.08-1.64c-7.15-2.11-15.7-7.05-25.65-17.42l.21.24a35,35,0,0,1,.61,4.44C159.23,166,159.25,166.23,159.27,166.47Z"/><path class="cls-66" d="M203.39,162.78c-2.24,9.73-11.25,14.15-17.09,15.4-.56.11-1.09.2-1.58.25-.24,0-.46.06-.67.08l.08,1.64.15,2.09.13,1.86-8.25,30.63c.52,2.19-14.44-24.57-14.61-27.51,0,0-.86-4.48-2-18.11-.07-.85-.14-1.74-.22-2.66,0-.24,0-.47-.06-.69,0-.46-.1-1-.17-1.56a20.51,20.51,0,0,0-.44-2.88,2.06,2.06,0,0,1-.21-.24c-3.26-3.68-4.9-6.92-5.3-9.49.22-.9.47-1.8.75-2.69a6.92,6.92,0,0,1,2.89-3.91c5.91-3.67,7.48,7.91,7.48,7.91s20-4.13,24.92-27.47a9.83,9.83,0,0,1,7.62,1.68c2.35,1.64,4.57,4.65,5.68,10h0a40.61,40.61,0,0,0-.74,9.09C202,150.07,205,156,203.39,162.78Z"/><path class="cls-67" d="M196.75,127.11c-3.07,8-7.94,15.42-17.59,20.91-10.67,6.07-14.95,4.88-14.95,4.88s20-4.13,24.92-27.47A9.83,9.83,0,0,1,196.75,127.11Z"/><path class="cls-68" d="M184.12,180.16s-16.46-1.92-24.63-11c-.07-.85-.14-1.74-.22-2.66,0-.24,0-.47-.06-.69,0-.46-.1-1-.17-1.56,10,8.07,18.49,12.28,25.67,14.22-.24,0-.46.06-.67.08Z"/><path class="cls-69" d="M159.71,150.12s-2.31-2.73-3.63-.42,1.28,5.89,1.28,5.89Z"/><path class="cls-70" d="M173.14,105.16l-5.33-2.09a1.41,1.41,0,0,0-1.66.48l-2.67,3.66a1.41,1.41,0,0,1-1.14.58h-3.18a1.41,1.41,0,0,0-1.41,1.26l-.39,3.71A1.41,1.41,0,0,1,156,114h-2.87a1.41,1.41,0,0,0-1.4,1.24l-.37,3a1.41,1.41,0,0,1-.87,1.14l-3.71,1.49a1.41,1.41,0,0,0-.68,2l1.72,2.82a1.41,1.41,0,0,1-.6,2l-4.29,2a1.41,1.41,0,0,0-.71,1.77l1.16,3.1a1.41,1.41,0,0,1-.41,1.58l-2.39,2a1.41,1.41,0,0,0-.07,2.1l1.85,1.78a1.41,1.41,0,0,1,0,2l-4,4a1.41,1.41,0,0,0-.21,1.76l1.62,2.57a1.41,1.41,0,0,1-.25,1.8l-3.76,3.38a1.41,1.41,0,0,0-.28,1.76l2.32,4a1.41,1.41,0,0,1-.23,1.71l-2,2a1.41,1.41,0,0,0-.34,1.48l1,2.76a2,2,0,0,1-.37,1.15,3.44,3.44,0,0,0,1,4.43l.16,3.35"/><path class="cls-71" d="M178.76,111.69l-5.33-2.09a1.41,1.41,0,0,0-1.66.48l-2.67,3.66a1.41,1.41,0,0,1-1.14.58h-3.18a1.41,1.41,0,0,0-1.41,1.26l-.39,3.71a1.41,1.41,0,0,1-1.41,1.26H158.7a1.41,1.41,0,0,0-1.4,1.24l-.37,3a1.41,1.41,0,0,1-.87,1.14l-3.71,1.49a1.41,1.41,0,0,0-.68,2l1.72,2.82a1.41,1.41,0,0,1-.6,2l-4.29,2a1.41,1.41,0,0,0-.71,1.77l1.16,3.1a1.41,1.41,0,0,1-.41,1.58l-2.39,2a1.41,1.41,0,0,0-.07,2.1l1.85,1.78a1.41,1.41,0,0,1,0,2l-4,4a1.41,1.41,0,0,0-.21,1.76l1.62,2.57a1.41,1.41,0,0,1-.25,1.8l-3.76,3.38A1.41,1.41,0,0,0,141,166l2.32,4a1.41,1.41,0,0,1-.23,1.71l-2,2a1.41,1.41,0,0,0-.34,1.48l1,2.76a2,2,0,0,1-.37,1.15,3.44,3.44,0,0,0,1,4.43l.16,3.35"/><path class="cls-72" d="M166.22,109.33l-5.33-2.09a1.41,1.41,0,0,0-1.66.48l-2.67,3.66a1.41,1.41,0,0,1-1.14.58h-3.18a1.41,1.41,0,0,0-1.41,1.26l-.39,3.71a1.41,1.41,0,0,1-1.41,1.26h-2.87a1.41,1.41,0,0,0-1.4,1.24l-.37,3a1.41,1.41,0,0,1-.87,1.14l-3.71,1.49a1.41,1.41,0,0,0-.68,2l1.72,2.82a1.41,1.41,0,0,1-.6,2L136,134a1.41,1.41,0,0,0-.71,1.77l1.16,3.1a1.41,1.41,0,0,1-.41,1.58l-2.39,2a1.41,1.41,0,0,0-.07,2.1l1.85,1.78a1.41,1.41,0,0,1,0,2l-4,4a1.41,1.41,0,0,0-.21,1.76l1.62,2.57a1.41,1.41,0,0,1-.25,1.8l-3.76,3.38a1.41,1.41,0,0,0-.28,1.76l2.32,4a1.41,1.41,0,0,1-.23,1.71l-2,2a1.41,1.41,0,0,0-.34,1.48l1,2.76a2,2,0,0,1-.37,1.15c-.54,1,2.41,2.39,2.89,3.36"/><path class="cls-73" d="M167.06,105.53,161.92,103a1.41,1.41,0,0,0-1.69.34l-3,3.42a1.41,1.41,0,0,1-1.19.48L152.9,107a1.41,1.41,0,0,0-1.51,1.14l-.7,3.66a1.41,1.41,0,0,1-1.51,1.14l-2.86-.24a1.41,1.41,0,0,0-1.5,1.12l-.63,3a1.41,1.41,0,0,1-1,1.06L139.4,119a1.41,1.41,0,0,0-.85,2l1.48,3a1.41,1.41,0,0,1-.76,2l-4.45,1.68a1.41,1.41,0,0,0-.86,1.7l.9,3.19a1.41,1.41,0,0,1-.54,1.54l-2.56,1.81a1.41,1.41,0,0,0-.25,2.09l1.69,1.93a1.41,1.41,0,0,1-.16,2l-4.37,3.6a1.41,1.41,0,0,0-.36,1.74l1.4,2.69a1.41,1.41,0,0,1-.4,1.78l-4,3a1.41,1.41,0,0,0-.43,1.73l2,4.21a1.41,1.41,0,0,1-.37,1.68l-2.18,1.82a1.41,1.41,0,0,0-.46,1.45l.75,2.83c.05.2-.3.56-.47,1.12-.69,2.22-1.92,3.43-.91,3.59"/><path class="cls-74" d="M144.36,176.8l.93-7c0-.2-3.21.74-3.39.64l-2.7-4.09a.48.48,0,0,1-.08-.81l6.68-5.27a.48.48,0,0,0,.09-.66l-2-2.8a.48.48,0,0,1,0-.56l3.59-5a.48.48,0,0,0,.06-.45l-1.77-4.85a.48.48,0,0,1,.14-.53l2.93-2.51a.48.48,0,0,0,.13-.55l-2-5a.48.48,0,0,1,.11-.53l3-2.88a.48.48,0,0,0,0-.68l-1.41-1.48a.48.48,0,0,1,0-.71l3.68-2.94a.48.48,0,0,0,.11-.63l-1.65-2.71a.48.48,0,0,1,.41-.74h3.35a.48.48,0,0,0,.48-.41l.59-3.74a.48.48,0,0,1,.48-.41h4.19a.48.48,0,0,0,.48-.58l-.6-3.12a.48.48,0,0,1,.48-.58H165a.48.48,0,0,0,.48-.48v-3.19a.48.48,0,0,1,.48-.48h3.42a.48.48,0,0,0,.48-.48V107a.48.48,0,0,1,.48-.48h6.11"/><path class="cls-75" d="M180.48,102.73l-2.24,2.51a1,1,0,0,0-.24.77l.35,2.61a1,1,0,0,1-.76,1.08l-.43.09a1,1,0,0,0-.47,1.64l2.59,2.5a1,1,0,0,1-.4,1.63l-1.15.33a1,1,0,0,0-.55,1.44l1.35,2.18a1,1,0,0,1-.48,1.42l-.65.24a1,1,0,0,0-.58,1.22l1.36,3.91a1,1,0,0,1-.56,1.22l-1.27.5a1,1,0,0,0-.53,1.3l1.5,3.28a1,1,0,0,1-.88,1.37h-2.68a1,1,0,0,0-.62.22c-1,.8-4,3.51-2.66,4.21s-1.65.9-3.07,1a1,1,0,0,0-.88.77l-.91,4.39a1,1,0,0,1-.43.62l-4.41,3"/><path class="cls-76" d="M172.27,111.36l-8.89,9.06a1.58,1.58,0,0,0-.14,1.93h0a1.58,1.58,0,0,1-.57,2.26l-2.91,1.55a1.57,1.57,0,0,0-.67,2.09,4.55,4.55,0,0,1,.6,1.61c-.09.49-3.65,4.27-4,4.76-.22.31.21,2.14.57,3.45a1.57,1.57,0,0,1-1,1.88l-1.33.51a1.58,1.58,0,0,0-1,1.47v5a1.56,1.56,0,0,1-.25.85,18.91,18.91,0,0,1-2.48,3.22c-.79.66-.32,3.63-.09,4.79a1.56,1.56,0,0,1-.11.93l-1.24,2.75a1.58,1.58,0,0,0-.12.91l1.13,6.75a1.58,1.58,0,0,1-.23,1.12l-1.57,2.4a1.58,1.58,0,0,0-.2,1.29l1.52,5.4a1.58,1.58,0,0,1-.41,1.55l-2.6,2.56"/><path class="cls-77" d="M180,111.36l-8.89,9.06a1.58,1.58,0,0,0-.14,1.93h0a1.58,1.58,0,0,1-.57,2.26l-2.91,1.55a1.57,1.57,0,0,0-.67,2.09,4.55,4.55,0,0,1,.6,1.61c-.09.49-3.65,4.27-4,4.76-.22.31.21,2.14.57,3.45a1.57,1.57,0,0,1-1,1.88l-1.33.51a1.58,1.58,0,0,0-1,1.47v5a1.56,1.56,0,0,1-.25.85A18.91,18.91,0,0,1,158,151c-.79.66-.32,3.63-.09,4.79a1.56,1.56,0,0,1-.11.93l-1.24,2.75a1.58,1.58,0,0,0-.12.91l1.13,6.75a1.58,1.58,0,0,1-.23,1.12l-1.57,2.4a1.58,1.58,0,0,0-.2,1.29l1.52,5.4a1.58,1.58,0,0,1-.41,1.55l-2.6,2.56"/><path class="cls-78" d="M184.72,104.76l4.08,2.38a1.76,1.76,0,0,1,1.62,1.07l.8,1.89a1.76,1.76,0,0,0,.92.93h0a1.76,1.76,0,0,1,1,1.32l-2.46,3.41c.15.84,3.63-.25,4.48-.25H196a1.75,1.75,0,0,1,1.32.59c.9,1,2.63,3,2.55,3.38a4.5,4.5,0,0,1-1,1.15,1.75,1.75,0,0,0,.12,2.61,5.9,5.9,0,0,0,2.56,1.48c1.14,0,1.76,3.28,1.4,3.45-2.3,1.11,1.76,3,2.58,4.29a1.75,1.75,0,0,1,.18,1.47,9.46,9.46,0,0,0-.61,2.51c.11.25,1.64,2.77,2.54,4.26a1.75,1.75,0,0,1-.16,2l-2.14,2.55a1.76,1.76,0,0,0-.2,2l4.43,2.1c.19.35-2.33,2.07-2.4,2.46l-.8,4.62a1.76,1.76,0,0,0,.08.9l1.58,4.4a1.76,1.76,0,0,1-.1,1.42l-1.32,2.5a1.76,1.76,0,0,1-.32.43l-1.14,1.12a1.76,1.76,0,0,0,.24,2.71l.13,5.36"/><path class="cls-79" d="M184.49,110.52l3.17-2.42a2,2,0,0,0,.22-.2c.36-.36,1.62-1.61,2-1.22s1.45.1,2.44-.09a2,2,0,0,1,2.09.9l.71,1.12a2,2,0,0,0,.63.63l2.82,1.77a2,2,0,0,1,.84,1.07l.86,2.58a2,2,0,0,0,.73,1l1.87,1.36a2,2,0,0,1,.4.39l1.25,1.59a2,2,0,0,1,.43,1.17l.06,1.66a2,2,0,0,0,1.66,1.91h0a2,2,0,0,1,1.58,2.58l-.23.77a2,2,0,0,0,.73,2.21l2.19,1.62a2,2,0,0,1,.71,2.27l-.14.41a2,2,0,0,0,.61,2.19l2.23,1.88a2,2,0,0,1,.3,2.77l-1.34,1.75a2,2,0,0,0,.35,2.82l.21.16a2,2,0,0,1,.71,2.08l-.61,2.43a2,2,0,0,0,.83,2.17l.45.3a2,2,0,0,1,.54,2.82L213.65,158a2,2,0,0,0-.24,1.81l1.08,3.08a2,2,0,0,1,.07.24l.77,3.51"/><path class="cls-80" d="M186.78,120.68l1.46-1.19a1.4,1.4,0,0,1,1.85.06l1.4,1.31a1.4,1.4,0,0,0,1.65.19h0a1.4,1.4,0,0,1,2.05.88l.64,2.55a1.72,1.72,0,0,0,1.52,1,2.25,2.25,0,0,1,1.89,1.59l.4,1.33c.13.45,1.24.74,1.73,1.38a2.85,2.85,0,0,1,.23,3.13l-.55,1"/><path class="cls-81" d="M182,106.56l1.75,2.44a1.51,1.51,0,0,1,.17,1.44l-.35.86A1.51,1.51,0,0,0,184,113l1.7,1.41a1.51,1.51,0,0,1-.29,2.5l-.39.19a1.51,1.51,0,0,0-.42,2.38l.91,1a1.51,1.51,0,0,1-.14,2.19l-.23.19a1.5,1.5,0,0,0-.4,1.81,29.48,29.48,0,0,1,1.87,4.36c0,.3-1.58.91-2.78,1.34a1.5,1.5,0,0,0-.94,1.84c.47,1.58,1.05,4,.32,4.21a25.52,25.52,0,0,1-4.73.09,1.5,1.5,0,0,0-1.52,1.85l.57,2.45a1.51,1.51,0,0,1-1.47,1.85h-3.1a1.51,1.51,0,0,0-1.5,1.65l.31,3.2a1.51,1.51,0,0,1-1.09,1.59l-3.76,1.06a1.51,1.51,0,0,0-1,.91l-1.73,4.5"/><path class="cls-82" d="M188.26,106.56,190,109a1.51,1.51,0,0,1,.17,1.44l-.35.86a1.51,1.51,0,0,0,.43,1.72l1.7,1.41a1.51,1.51,0,0,1-.29,2.5l-.39.19a1.51,1.51,0,0,0-.42,2.38l.91,1a1.51,1.51,0,0,1-.14,2.19l-.23.19a1.5,1.5,0,0,0-.4,1.81,29.48,29.48,0,0,1,1.87,4.36c0,.3-1.58.91-2.78,1.34a1.5,1.5,0,0,0-.94,1.84c.47,1.58,1.05,4,.32,4.21a25.52,25.52,0,0,1-4.73.09,1.5,1.5,0,0,0-1.52,1.85l.57,2.45a1.51,1.51,0,0,1-1.47,1.85l-2.78,1.23c-.89,0-3.15,3.43-3.07,4.31"/><path class="cls-83" d="M194.74,107.14l-6.16-3a8.58,8.58,0,0,0-5.39-2.49l-1.75,1.12c-1.07-.22-2.68-1.05-3,0-.16.57-1.18-1.06-1.63-1.08h-.11a2.05,2.05,0,0,0-2.09,2.35l.52,3.52a2.05,2.05,0,0,1-1.16,2.15l-.61.28a2.05,2.05,0,0,0-1.12,2.34l.32,1.32a2.05,2.05,0,0,1-.77,2.13l-2,1.49a2.05,2.05,0,0,0-.65,2.49l.8,1.79c.32.7,1,3.13.51,3.73L165,129.5a2.05,2.05,0,0,0-.23,2.19l1,2a2,2,0,0,1-.2,2.15c-1,1.33-2.72,3.46-3.18,3.31s-1,1.21-1.3,2a2,2,0,0,1-.66.94l-3.38,2.67a2.05,2.05,0,0,0-.53.63l-1.72,3.18a2.05,2.05,0,0,0-.18.46l-1.08,4.14a2.05,2.05,0,0,0-.06.32l-.3,3.12a2.05,2.05,0,0,0,.68,1.74l1.49,1.31a2.05,2.05,0,0,1-.48,3.39h0a2.05,2.05,0,0,0-.64,3.24l1.1,1.21a2.05,2.05,0,0,1-.06,2.83l-1.14,1.14a2.05,2.05,0,0,0-.57,1.76l.79,5.07"/><rect class="cls-84" x="115.79" y="526.99" width="30.56" height="9.16" rx="4.58" ry="4.58"/><rect class="cls-85" x="177.22" y="526.99" width="30.56" height="9.16" rx="4.58" ry="4.58"/><path class="cls-58" d="M159.26,183c-.47.59-11.68,4-11.68,4l15.57,24.08,1.36-15.49Z"/><polygon class="cls-58" points="182.28 188.65 191.28 191.65 184.32 216.51 182.28 188.65"/><polygon class="cls-86" points="156.05 320.29 191.28 323.93 191.44 328.76 155.84 325.28 156.05 320.29"/><path class="cls-87" d="M180.41,332.27s.15,16.73-6.38,27.08"/><path class="cls-88" d="M483.05,565c-2.72.81-6.64,1.21-6.67-2.86,0-2.85,2.18-3.49,3-4.14,1.89-1.43-.53-9.34-5.7-9.34a3.86,3.86,0,0,0-.57,0,2.63,2.63,0,0,0-.61.17c-3.28,1.24-3.24,9.57-4.4,12.51l-.08.2h0a2.61,2.61,0,0,1-.61.91,8.36,8.36,0,0,1-5.71,2.24,8.57,8.57,0,0,1-3.45-.85c-3.8-1.76-3-5.42,1.26-6.1,2.83-.45,2.76-7,.73-8.06-1.77-.94-11.48,1.83-15.85,1.34a1.13,1.13,0,0,0-1.25,1.39c1.1,4.63,2.56,9.25.14,11.3-2.72,2.31-11.7,3.54-11.43-.81s4.21-1.64,3.13-5.86-1.37-7.76-3.14-8a1.14,1.14,0,0,0-.57.07c-1.82.66-4.52,5.2-5,8.64-.55,3.81-2.32,9-8.3,6.66l-.12,0-.25-.1-.09,0-.28-.12h0c-5.19-2.4-4.69-6.77-1.69-7s6.57-2.78,7.12-9.3c.2-2.45.09-4.36-1.12-8.55-2-6.74.22-12.45-.16-15.69a21,21,0,0,1-.05-2.3l0,0-.4-3.82s-1.7,1.21-7.55,2.25-6.51-1-6.51-1A78.88,78.88,0,0,1,418,512.59a82.68,82.68,0,0,0-12-3h0a5.23,5.23,0,0,1-2.48-2.29,10.81,10.81,0,0,1-1.28-3.88,2,2,0,0,1,.9-1.85c1.76-1.46,5.7-2.68,9.84-5.07,1.08-3.78,7.12-7.5,7.12-7.5s-2.31-8.79-4-12.25c9.41-1.7,11,9.9,11,9.9l5.11,2.06s2.44-12.2,4-14.19c4.59,2.22,7.83,14.48,6,21.54,5.22,6-1,23.45-1,23.45-.6.51-1.2,1-1.77,1.41,1.19-.74,1.88-1.27,1.92-1.27a13.53,13.53,0,0,0,1.06.91c.16.12.32.25.5.36,2.45,1.72,16.42,3,22.66,2.21,4.79-.57,7.3-4.19,8.3-5.67,3-4.42,8.5-14.37,4.61-23.56a.51.51,0,0,1,.78-.63c11.76,9.41,4.18,28.28,1.43,34.1a3.3,3.3,0,0,0,.22,3.19,41,41,0,0,1,4.73,10.66c3,11.63.57,13.75,2.75,17S485.78,564.22,483.05,565Z"/><path class="cls-58" d="M398.85,523.87c4.69-3.15,7.33-4.72,7.92-5.06a.52.52,0,0,1,.13-.08A79,79,0,0,1,418,512.6a82.69,82.69,0,0,0-12-3,4.91,4.91,0,0,0,1.83.41C400.62,512.79,395.17,521.8,398.85,523.87Z"/><path class="cls-89" d="M406,509.57h0"/><path class="cls-90" d="M402.2,503.4a10.94,10.94,0,0,0,1.28,3.88c2.48-1.2,5.51-3,5.19-4.19s-3.11-1.46-5.56-1.54A2,2,0,0,0,402.2,503.4Z"/><circle class="cls-91" cx="426.43" cy="500.11" r="2.62" transform="translate(-134.54 842.54) rotate(-80.95)"/><path class="cls-58" d="M442.89,520.91c-4.35,4.6-12.91,7.22-20.17,5.1,0,0-.8-.24-1.2-.38,0-.15-.29-3.91-.19-4.31.41.15.81.28,1.16.37h0c6.16,1.8,13.81,1.92,18.68-2.19l.15.14C441.71,520,442.46,520.58,442.89,520.91Z"/><path class="cls-92" d="M433.46,489.42l3-9.12s3.94,10.44,2.72,13.63C436.79,492.26,433.46,489.42,433.46,489.42Z"/><polygon class="cls-93" points="416.99 478.93 423.33 486.85 420.06 488.98 416.99 478.93"/><path class="cls-94" d="M431.31,549.19c-1.82.66-4.52,5.2-5,8.64-.55,3.81-2.32,9-8.3,6.66l-.12,0c1.76.57,3.66-.92,4.79-2.4,2.34-3.08,2.13-5.23,3-8.53C426.44,550.87,429.68,548.72,431.31,549.19Z"/><path class="cls-95" d="M473.15,548.75a2.63,2.63,0,0,0-.61.17c-3.28,1.24-3.24,9.57-4.4,12.51l-.08.2h0a2.61,2.61,0,0,1-.61.91,8.36,8.36,0,0,1-5.71,2.24c5-.18,6-6.17,6.17-11.74C468,548.24,473.15,548.75,473.15,548.75Z"/></g></svg>