<svg xmlns="http://www.w3.org/2000/svg" xmlns:xlink="http://www.w3.org/1999/xlink" viewBox="0 0 736 574.85"><defs><style>.cls-1{fill:url(#Безымянный_градиент_263);}.cls-2{fill:url(#Безымянный_градиент_5);}.cls-18,.cls-3,.cls-34,.cls-5{fill:none;stroke-miterlimit:10;}.cls-3{stroke-width:1.19px;stroke:url(#Безымянный_градиент_2);}.cls-4{fill:url(#Безымянный_градиент_17);}.cls-5{stroke-width:3.44px;stroke:url(#Безымянный_градиент_164);}.cls-6{fill:url(#Безымянный_градиент_5-2);}.cls-7{fill:url(#Безымянный_градиент_5-3);}.cls-8{fill:url(#Безымянный_градиент_5-4);}.cls-9{fill:url(#Безымянный_градиент_5-5);}.cls-10{fill:url(#Безымянный_градиент_5-6);}.cls-11{fill:url(#Безымянный_градиент_5-7);}.cls-12{fill:url(#Безымянный_градиент_18);}.cls-13{fill:url(#Безымянный_градиент_33);}.cls-14{fill:url(#Безымянный_градиент_33-2);}.cls-15{fill:url(#Безымянный_градиент_33-3);}.cls-16{fill:url(#Безымянный_градиент_17-2);}.cls-17{fill:url(#Безымянный_градиент_33-4);}.cls-18{stroke-width:2px;stroke:url(#Безымянный_градиент_33-5);}.cls-19{fill:url(#Безымянный_градиент_33-6);}.cls-20{fill:url(#Безымянный_градиент_17-3);}.cls-21{fill:url(#Безымянный_градиент_33-7);}.cls-22{fill:url(#Безымянный_градиент_11);}.cls-23{fill:url(#Безымянный_градиент_144);}.cls-24{fill:url(#Безымянный_градиент_170);}.cls-25{fill:#fff;}.cls-26{fill:#1f1844;}.cls-27{fill:url(#Безымянный_градиент_123);}.cls-28{fill:url(#Безымянный_градиент_216);}.cls-29{fill:url(#Безымянный_градиент_40);}.cls-30{fill:url(#Безымянный_градиент_250);}.cls-31{fill:url(#Безымянный_градиент_123-2);}.cls-32{fill:url(#Безымянный_градиент_122);}.cls-33{fill:url(#Безымянный_градиент_250-2);}.cls-34{stroke:#fff;stroke-linecap:round;stroke-width:1.68px;}.cls-35{fill:url(#Безымянный_градиент_48);}.cls-36{fill:url(#Безымянный_градиент_123-3);}.cls-37{fill:url(#Безымянный_градиент_170-2);}.cls-38{fill:url(#Безымянный_градиент_250-3);}.cls-39{fill:url(#Безымянный_градиент_123-4);}.cls-40{fill:url(#Безымянный_градиент_123-5);}.cls-41{fill:url(#Безымянный_градиент_170-3);}.cls-42{fill:url(#Безымянный_градиент_170-4);}</style><linearGradient id="Безымянный_градиент_263" x1="94.38" y1="291.91" x2="720.89" y2="291.91" gradientUnits="userSpaceOnUse"><stop offset="0" stop-color="#f0f2f5"/><stop offset="0.99" stop-color="#f5f7f8"/></linearGradient><linearGradient id="Безымянный_градиент_5" x1="101.97" y1="466" x2="70.38" y2="226.27" gradientUnits="userSpaceOnUse"><stop offset="0" stop-color="#1f1844"/><stop offset="0.99" stop-color="#3d3c99"/></linearGradient><linearGradient id="Безымянный_градиент_2" x1="100.38" y1="459.82" x2="72.59" y2="248.95" gradientUnits="userSpaceOnUse"><stop offset="0" stop-color="#3f3d9e"/><stop offset="0.99" stop-color="#423e9f"/></linearGradient><linearGradient id="Безымянный_градиент_17" x1="116.58" y1="377.82" x2="233.81" y2="350.88" gradientUnits="userSpaceOnUse"><stop offset="0.01" stop-color="#bbc0d9"/><stop offset="1" stop-color="#d6dbf8"/></linearGradient><linearGradient id="Безымянный_градиент_164" x1="-113.6" y1="220.94" x2="-23.9" y2="237.37" gradientTransform="translate(193.72 161.17) rotate(-10.18)" gradientUnits="userSpaceOnUse"><stop offset="0" stop-color="#bac6d8"/><stop offset="0.99" stop-color="#d6dbf8"/></linearGradient><linearGradient id="Безымянный_градиент_5-2" x1="99.74" y1="382.73" x2="63.79" y2="347.41" xlink:href="#Безымянный_градиент_5"/><linearGradient id="Безымянный_градиент_5-3" x1="98.6" y1="412.42" x2="56.77" y2="397.85" xlink:href="#Безымянный_градиент_5"/><linearGradient id="Безымянный_градиент_5-4" x1="101.72" y1="382.64" x2="139.76" y2="352.7" xlink:href="#Безымянный_градиент_5"/><linearGradient id="Безымянный_градиент_5-5" x1="98.95" y1="412.47" x2="135.88" y2="394.78" xlink:href="#Безымянный_градиент_5"/><linearGradient id="Безымянный_градиент_5-6" x1="105.54" y1="440.26" x2="56.38" y2="434.38" xlink:href="#Безымянный_градиент_5"/><linearGradient id="Безымянный_градиент_5-7" x1="100.08" y1="443.71" x2="133.67" y2="423.18" xlink:href="#Безымянный_градиент_5"/><linearGradient id="Безымянный_градиент_18" x1="112.68" y1="305.2" x2="101.19" y2="352.2" gradientUnits="userSpaceOnUse"><stop offset="0.01" stop-color="#3d3c99"/><stop offset="1" stop-color="#1f1844"/></linearGradient><linearGradient id="Безымянный_градиент_33" x1="-753.66" y1="-485.11" x2="-738.48" y2="-485.11" gradientTransform="translate(951.23 175.61) rotate(-45.37)" gradientUnits="userSpaceOnUse"><stop offset="0" stop-color="#e0e4eb"/><stop offset="0.99" stop-color="#f3f6fd"/></linearGradient><linearGradient id="Безымянный_градиент_33-2" x1="-905" y1="-1092.96" x2="-889.67" y2="-1092.96" gradientTransform="translate(1392.01 -113.69) rotate(-72.22)" xlink:href="#Безымянный_градиент_33"/><linearGradient id="Безымянный_градиент_33-3" x1="1377.2" y1="284.32" x2="1392.4" y2="284.32" gradientTransform="matrix(0.63, 0.78, -0.78, 0.63, -532.35, -892.93)" xlink:href="#Безымянный_градиент_33"/><linearGradient id="Безымянный_градиент_17-2" x1="121.03" y1="410.9" x2="136.87" y2="394.64" xlink:href="#Безымянный_градиент_17"/><linearGradient id="Безымянный_градиент_33-4" x1="1589.11" y1="361.75" x2="1604.67" y2="361.75" gradientTransform="matrix(0.5, 0.87, -0.77, 0.45, -405.46, -1145.3)" xlink:href="#Безымянный_градиент_33"/><linearGradient id="Безымянный_градиент_33-5" x1="-204.19" y1="183.71" x2="-181.81" y2="183.71" gradientTransform="translate(252.95 181.74) rotate(-13.38)" xlink:href="#Безымянный_градиент_33"/><linearGradient id="Безымянный_градиент_33-6" x1="-899.9" y1="-1481.56" x2="-883.98" y2="-1481.56" gradientTransform="matrix(0.04, -0.93, 1, 0.04, 1604.46, -326.19)" xlink:href="#Безымянный_градиент_33"/><linearGradient id="Безымянный_градиент_17-3" x1="121.39" y1="436.41" x2="137.2" y2="418.88" xlink:href="#Безымянный_градиент_17"/><linearGradient id="Безымянный_градиент_33-7" x1="1836.77" y1="370.24" x2="1854" y2="370.24" gradientTransform="matrix(0.35, 0.94, -0.74, 0.28, -247.67, -1409.27)" xlink:href="#Безымянный_градиент_33"/><linearGradient id="Безымянный_градиент_11" x1="115.15" y1="304.52" x2="103.65" y2="351.52" gradientUnits="userSpaceOnUse"><stop offset="0" stop-color="#e6eaf1"/><stop offset="0.99" stop-color="#f3f6fd"/></linearGradient><linearGradient id="Безымянный_градиент_144" x1="68.16" y1="510.74" x2="155.74" y2="490.62" gradientUnits="userSpaceOnUse"><stop offset="0.11" stop-color="#8988d5"/><stop offset="0.56" stop-color="#9d9ce8"/><stop offset="1" stop-color="#a7a5ee"/></linearGradient><linearGradient id="Безымянный_градиент_170" x1="289.82" y1="240.76" x2="365.9" y2="240.76" gradientUnits="userSpaceOnUse"><stop offset="0.01" stop-color="#bbbfd9"/><stop offset="1" stop-color="#d6dbf8"/></linearGradient><linearGradient id="Безымянный_градиент_123" x1="540.26" y1="133.99" x2="552.07" y2="133.99" gradientUnits="userSpaceOnUse"><stop offset="0" stop-color="#753200"/><stop offset="1" stop-color="#a04400"/></linearGradient><linearGradient id="Безымянный_градиент_216" x1="539.68" y1="525.72" x2="539.68" y2="248.62" gradientUnits="userSpaceOnUse"><stop offset="0" stop-color="#201f4f"/><stop offset="0.39" stop-color="#3d3c99"/><stop offset="1" stop-color="#403da0"/></linearGradient><linearGradient id="Безымянный_градиент_40" x1="626.72" y1="393.14" x2="651.9" y2="395.66" gradientUnits="userSpaceOnUse"><stop offset="0.11" stop-color="#343381"/><stop offset="0.56" stop-color="#3d3c99"/><stop offset="1" stop-color="#403da0"/></linearGradient><linearGradient id="Безымянный_градиент_250" x1="559.19" y1="303.25" x2="801.6" y2="303.25" gradientUnits="userSpaceOnUse"><stop offset="0" stop-color="#a7a5ee"/><stop offset="0.44" stop-color="#9d9ce8"/><stop offset="0.89" stop-color="#8988d5"/></linearGradient><linearGradient id="Безымянный_градиент_123-2" x1="405.54" y1="224.87" x2="504.43" y2="168.36" xlink:href="#Безымянный_градиент_123"/><linearGradient id="Безымянный_градиент_122" x1="476.9" y1="131.6" x2="537.41" y2="92.5" gradientUnits="userSpaceOnUse"><stop offset="0" stop-color="#a04400" stop-opacity="0"/><stop offset="0.18" stop-color="#9a4100" stop-opacity="0.14"/><stop offset="0.52" stop-color="#8a3b00" stop-opacity="0.52"/><stop offset="0.9" stop-color="#753200"/></linearGradient><linearGradient id="Безымянный_градиент_250-2" x1="448.68" y1="394.33" x2="607.19" y2="394.33" xlink:href="#Безымянный_градиент_250"/><linearGradient id="Безымянный_градиент_48" x1="545.77" y1="180.5" x2="500.43" y2="224.99" gradientUnits="userSpaceOnUse"><stop offset="0" stop-color="#a04400"/><stop offset="1" stop-color="#753200"/></linearGradient><linearGradient id="Безымянный_градиент_123-3" x1="545.97" y1="149.16" x2="540.12" y2="154.9" xlink:href="#Безымянный_градиент_123"/><linearGradient id="Безымянный_градиент_170-2" x1="413.04" y1="252.1" x2="463.95" y2="252.1" xlink:href="#Безымянный_градиент_170"/><linearGradient id="Безымянный_градиент_250-3" x1="381.44" y1="358.94" x2="437.24" y2="358.94" xlink:href="#Безымянный_градиент_250"/><linearGradient id="Безымянный_градиент_123-4" x1="384.99" y1="253.78" x2="463.95" y2="253.78" xlink:href="#Безымянный_градиент_123"/><linearGradient id="Безымянный_градиент_123-5" x1="443.73" y1="298.49" x2="502.63" y2="298.49" xlink:href="#Безымянный_градиент_123"/><linearGradient id="Безымянный_градиент_170-3" x1="57.77" y1="123.44" x2="186.17" y2="123.44" xlink:href="#Безымянный_градиент_170"/><linearGradient id="Безымянный_градиент_170-4" x1="233.15" y1="81.77" x2="336.87" y2="81.77" xlink:href="#Безымянный_градиент_170"/></defs><title>01</title><g id="Слой_1" data-name="Слой 1"><path class="cls-1" d="M699.5,304.4c-55-112.47-212.37-277.21-416.84-277.63-213.36-.44-234,211.17-119,270S110.51,428.9,230.71,502.56c121.66,74.56,381.67,67.56,445.67,9.56S723.26,353,699.5,304.4Z"/><path class="cls-2" d="M102.33,467.71s34.78-38.71,31.09-54,17.89-33.79,18.31-56c.48-25.17-13-18.44-17.62-29.2-6.9-16,8.46-30.08-14.76-36.18-15.85-4.17-27,4-25.55-15.65S88.15,232.82,75.44,224c-18.14-12.59-55.06-13.58-42.62,11.8,13.06,26.66,1.55,70.58-1.49,82.6C-.86,445.5,102.33,467.71,102.33,467.71Z"/><path class="cls-3" d="M63.53,250.15c4,32.81,45.13,85.24,26.48,120.28s9.62,89.28,9.62,89.28"/><path class="cls-4" d="M207.71,394.41c-22.59,8,1.87,37.2-22.83,50.36s-56.36,19.83-57.82,13.44c-.1-.42-1.43-4.66-2.83-10.85-.32-1.43-.64-3-1-4.6-.08-.45-.17-.91-.26-1.38a125,125,0,0,1-1.87-14.95c0-.15,0-.31,0-.46-.12-2-.15-4-.12-6s.14-3.84.35-5.7c.73-7.11,2.77-13.66,6.93-18.36a19.66,19.66,0,0,1,3.61-3.23c17.16-11.94,24-6.14,23.89-23.78-.23-30.23,8.38-34.75,18.52-31.77s18.05,3.82,19.53-7.35-7.66-61,15.35-60.89c39.87.13,19.71,51,15.68,59.27-9.66,19.79,10.43,22.89,15.21,37.32S230.29,386.42,207.71,394.41Z"/><path class="cls-5" d="M122.65,501.65S116.58,446,159,414.81c19.16-14.09,54.78-64.4,51.56-118.82"/><path class="cls-6" d="M63.18,346.86c5.27-8.93,43.14,27.92,36.51,36S58.16,355.38,63.18,346.86Z"/><path class="cls-7" d="M53.62,397.12c.76-10.41,46.48,4.55,44.14,14.83S52.9,407,53.62,397.12Z"/><path class="cls-8" d="M139.94,351.2c8.1,6.34-31.89,40.78-39,33.15S132.23,345.16,139.94,351.2Z"/><path class="cls-9" d="M135.75,394.59c6.81,7.69-31.8,27-37.6,18.32S129.26,387.26,135.75,394.59Z"/><path class="cls-10" d="M56.66,434.52c-2-9.55,48.41-4.05,48.84,5.78S58.56,443.62,56.66,434.52Z"/><path class="cls-11" d="M133.29,423.4c5.22,8.84-30.89,30.89-35.09,21.26S128.32,415,133.29,423.4Z"/><path class="cls-12" d="M113.37,303.9c10.18.74-3,52-13,49.64S103.68,303.19,113.37,303.9Z"/><path class="cls-13" d="M67,344.43c5.27-8.93,43.14,27.92,36.51,36S62,352.94,67,344.43Z"/><path class="cls-14" d="M56.67,395c.76-10.41,46.48,4.55,44.14,14.83S55.95,404.9,56.67,395Z"/><path class="cls-15" d="M141.48,348.91c8.1,6.34-31.89,40.78-39,33.15S133.77,342.87,141.48,348.91Z"/><path class="cls-16" d="M122.2,412.28c.7-7,2.66-13.42,6.65-18,4.83-1,8.89-.77,10.66,1.23C143.29,399.75,133,407.63,122.2,412.28Z"/><path class="cls-17" d="M137.66,393c6.81,7.69-31.8,27-37.6,18.32S131.17,385.63,137.66,393Z"/><path class="cls-18" d="M103,341.44s1.16,26.63-2.37,49.87,5.37,62.58,19.85,75.15"/><path class="cls-19" d="M56.66,432.7c-2-9.55,48.41-4.05,48.84,5.78S58.56,441.8,56.66,432.7Z"/><path class="cls-20" d="M124,440.27c-.07-.44-.16-.9-.25-1.35A125.45,125.45,0,0,1,122,424.23c0-.15,0-.3,0-.46,8.23-4.55,17-6.85,19.34-2.91C144.24,425.83,134.18,434.93,124,440.27Z"/><path class="cls-21" d="M139.46,417.09c5.22,8.84-30.89,30.89-35.09,21.26S134.49,408.67,139.46,417.09Z"/><path class="cls-22" d="M115.84,303.22c10.18.74-3,52-13,49.64S106.14,302.52,115.84,303.22Z"/><path class="cls-23" d="M124.57,549.2H93.24a28.21,28.21,0,0,1-28-24.44L57.51,467.1A6.51,6.51,0,0,1,64,459.72h89.88a6.51,6.51,0,0,1,6.46,7.38l-7.77,57.66A28.21,28.21,0,0,1,124.57,549.2Z"/><rect class="cls-24" x="289.82" y="189.61" width="76.08" height="102.3" rx="3.87" ry="3.87"/><rect class="cls-25" x="296.2" y="197.16" width="63.32" height="87.21" rx="2.09" ry="2.09"/></g><g id="Слой_2" data-name="Слой 2"><path class="cls-26" d="M575.7,208.68s-104.05,19.07-143.52,32.09S288.82,461,285,497s122.62,15.67,122.62,15.67S576.52,215.35,575.7,208.68Z"/><path class="cls-27" d="M548.87,144.54c1.53-4.73,2.4-17.19,3.2-21.1-6.29.85-11.8,10.26-11.81,16C541.91,139.18,547.1,143.31,548.87,144.54Z"/><path class="cls-28" d="M635.41,489.66c-4.38,32.39-52,37-107.5,38.74-1.68.84-62.9.47-91.41-9.13l1-219.34c.07-18.52,7.92-49.09,34.94-49.54,45.38-.75,129.55-7.67,162.51,2.51,7.53,27.06,13,57,.47,135.13C628.24,432.79,637.52,474.12,635.41,489.66Z"/><path class="cls-29" d="M622.92,266.51c10,30.18,8.79,47.68-4.62,96.51C596,444.37,632.63,486.14,555.11,527.17c47-2.68,76.57-9.93,80.3-37.5,2.12-15.55-7.17-56.87,0-101.62,9.25-57.58,26.51-104.63,3.56-132.44C632.62,247.91,619.53,256.31,622.92,266.51Z"/><path class="cls-30" d="M635.41,333c-11.84,2-48.38,6.87-59.81,1.78,1.19,11.32,2.41,31.38,2.41,31.38s-111.2.16-147.8,14.15c0-1.19-7.36-59.68-7.6-60.06.81-6.78,8.9-34.84,23.81-57.88C459,243,476.89,234.13,509.18,229.54l42.74-3s42.54-4.5,62.18,16.93S635.41,333,635.41,333Z"/><path class="cls-31" d="M527.54,249.07c-17.82,2.89-24.47-12.22-24.47-12.22s-.84-1.54-1.95-8.36l-.49-3-.45-2.8-.57-3.44a40.46,40.46,0,0,1-4.84.32c-12.68.07-33.4-5.05-42.45-24.23-6.33-13.37-2.94-27-4-35.26s-5.23-13.62-8-22.63c-3.57-11.54-.88-27,4.45-31.27C468.73,86.72,531,82,531,82s3.95,17.61,2.25,51.55c1.48-1.31-.77,6.13,1.39,5.37,4.53-1.51,8.61-1.34,11.64.4,6.63,3.78,8.26,15-1.33,32.12-.1.2-.22.4-.34.6-.18.35.3,6.08.74,9.49.07.47.12,1,.18,1.46.77,5.81,1.76,13.33,2.74,20.6,1.41,10.49,3,19.47,3.6,23C553.28,235,545.37,246.18,527.54,249.07Z"/><path class="cls-32" d="M533.3,133.55C535,99.61,533,86.17,533,86.17s-64.31.55-88.27,20c-3.76,3-3.58,9.52-3.74,15.11,9.3-9.79,30.91-9.24,47.69-11,8-.84,5.59,8.19,7.88,8.3,17.3-5.58,30.16,1.77,30.36,27.23l7.55-6.81C532.68,139.18,534.73,132.28,533.3,133.55Z"/><polygon class="cls-33" points="590.85 425.65 448.68 410.04 448.68 363.02 607.19 376.26 590.85 425.65"/><line class="cls-34" x1="575.7" y1="334.2" x2="571.72" y2="311.19"/><path class="cls-26" d="M552.78,121.44c0-1-5.7-44.82-23.77-55.44-30.5-17.92-109.91-10.14-90.08,55.22,6.32-27,20.66,4.6,54.42-22.87,3.34-2.72,19.86-11.35,36.19-5.24-24.83,3.22-29.38,13.48-28.32,13.53,19.52-6.3,33.41,3.84,29.81,37.89,5.07-3,8.34-6.12,11.41-6.52C546.32,133.2,552.66,124.56,552.78,121.44Z"/><path class="cls-35" d="M545.59,183c-11.08,26.22-30.12,37.13-45,42.45l-.45-2.8-.57-3.44a40.46,40.46,0,0,1-4.84.32c9.91-8.53,37.46-32.64,50.22-48.07-.1.2-.22.4-.34.6-.18.35.3,6.08.74,9.49C545.47,182,545.52,182.5,545.59,183Z"/><path class="cls-26" d="M534.51,143c.61-.69,2.48-2.38,2.48-2.38l-1.45-6.28-8.86,5.92a5.39,5.39,0,0,0-2.35,5.2l3,22.32C515,175.33,487,197,481.71,197.86c-6.72,1.13-9-7.27-12.59-5.32s-3.09,7-5.61,7c-1.31,0-9.89-5.37-12.71-9,0,0,4.36,14.24,5.3,16.74,2.17,5.8,14.82,17.51,14.82,17.51a5.93,5.93,0,0,0,4.93,1.72l15.86-1.91,8-5c11.12-6.39,36.85-31.59,36.94-35C537.18,164.49,528.46,149.84,534.51,143Z"/><path class="cls-36" d="M537.29,149.26s3.57-6.72,7.35-2.52,0,12.8,0,12.8Z"/></g><g id="Слой_4" data-name="Слой 4"><polygon class="cls-37" points="413.04 281.82 440.13 286.29 463.95 225.87 422.57 217.9 413.04 281.82"/><rect class="cls-25" x="456.99" y="256.52" width="7.14" height="13.49" rx="3.57" ry="3.57" transform="translate(104.52 -130) rotate(18.09)"/><path class="cls-38" d="M381.44,289.84s1.64,68.18,7.2,101.52,19.15,41,34,38.23c18.52-3.41,15.17-47.13,12.6-64.82-4-27.49-14.93-77-14.93-77Z"/><path class="cls-39" d="M385,289.65c.9-1.39,3.56-23.37,7.72-35.87s13.73-19.07,20.65-23.34c8.09-5,23.86-12,30.37-12s17.33-2.08,16.83,2.08-17.24,6.34-19.63,6.64-10.3,5.71-10.3,5.71,32.7,3.43,33.3,9.68-36-1.77-36.31,3.27c-.24,3.65,28.87-.3,27.68,6.25s-32.14.6-33.34,3.27,19.74,3.2,19,7.94-24.15.77-24.75,5.23.21,19.48.21,19.48Z"/><path class="cls-40" d="M502.63,309.8S486.56,274.68,480,271.7s-16.07-8.33-16.07-8.33-3.57,3.27,0,6,17,17,11.31,17.26-8.53-7.14-12.9-9.82-4-5.38-2-7.44-1.49-5.36-3.57-4.46-8.93,6.25-8.93,11.61c-3.27,6-5.06,10.42-1.49,13.69-2,3.87-3.63,4.76-2,8s11.19,11.61,8.51,14S452,319,457.39,322s27.09,11.61,27.09,11.61Z"/><path class="cls-26" d="M595.82,211c-3.91-17.58-27.33-3.33-32,18s-61.19,80.76-61.19,80.76l-18.16,23.81S457.25,345,447.15,361.15c-13.23,21.12-32.55,57-50,90.49-19.31,37,7.46,81.34,49.21,81.53l206,.91a65.46,65.46,0,0,0,65-55.61c4.64-30.64,6.34-65.28-5.82-79.83-24-28.71-19.76-56.93-25.1-86.27s8-24.84-26.67-44.75S597.15,217,595.82,211Z"/></g><g id="_01" data-name="01"><rect class="cls-41" x="57.77" y="42.83" width="128.4" height="161.22" rx="6.31" ry="6.31"/><rect class="cls-25" x="64.59" y="49.75" width="114.76" height="147.39" rx="3.67" ry="3.67"/><rect class="cls-42" x="233.15" y="16.65" width="103.72" height="130.23" rx="5.09" ry="5.09"/><rect class="cls-25" x="240.32" y="24.36" width="89.4" height="114.81" rx="2.85" ry="2.85"/></g></svg>