<svg xmlns="http://www.w3.org/2000/svg" xmlns:xlink="http://www.w3.org/1999/xlink" viewBox="0 0 736 574.85"><defs><style>.cls-1{fill:url(#Безымянный_градиент_263);}.cls-2{fill:#1f1844;}.cls-3{fill:url(#Безымянный_градиент_9);}.cls-4{fill:url(#Безымянный_градиент_271);}.cls-5{fill:url(#Безымянный_градиент_138);}.cls-14,.cls-37,.cls-39,.cls-49,.cls-56,.cls-57,.cls-58,.cls-6,.cls-61,.cls-62,.cls-63,.cls-64,.cls-65,.cls-66,.cls-67,.cls-68,.cls-69,.cls-70,.cls-71,.cls-72,.cls-73,.cls-74{fill:none;stroke-miterlimit:10;}.cls-14,.cls-6{stroke:#fff;}.cls-6{stroke-width:2px;}.cls-7{fill:url(#Безымянный_градиент_250);}.cls-8{fill:url(#Безымянный_градиент_144);}.cls-9{fill:url(#Безымянный_градиент_123);}.cls-10{fill:url(#Безымянный_градиент_250-2);}.cls-11{fill:url(#Безымянный_градиент_123-2);}.cls-12{fill:url(#Безымянный_градиент_48);}.cls-13{fill:url(#Безымянный_градиент_123-3);}.cls-14{stroke-width:1.17px;}.cls-15{fill:#201f4f;}.cls-16{fill:url(#Безымянный_градиент_123-4);}.cls-17{fill:url(#Безымянный_градиент_123-5);}.cls-18{fill:url(#Безымянный_градиент_48-2);}.cls-19{fill:url(#Безымянный_градиент_139);}.cls-20{fill:url(#Безымянный_градиент_263-2);}.cls-21{fill:url(#Безымянный_градиент_64);}.cls-22{fill:url(#Безымянный_градиент_64-2);}.cls-23{fill:url(#Безымянный_градиент_71);}.cls-24{fill:url(#Безымянный_градиент_71-2);}.cls-25{fill:url(#Безымянный_градиент_71-3);}.cls-26{fill:url(#Безымянный_градиент_9-2);}.cls-27{fill:url(#Безымянный_градиент_250-3);}.cls-28{fill:url(#Безымянный_градиент_250-4);}.cls-29{fill:url(#Безымянный_градиент_250-5);}.cls-30{fill:url(#Безымянный_градиент_250-6);}.cls-31{fill:url(#Безымянный_градиент_3);}.cls-32{fill:url(#Безымянный_градиент_250-7);}.cls-33{fill:url(#Безымянный_градиент_9-3);}.cls-34{fill:url(#Безымянный_градиент_16);}.cls-35{fill:url(#Безымянный_градиент_64-3);}.cls-36{fill:url(#Безымянный_градиент_5);}.cls-37{stroke-width:0.9px;stroke:url(#Безымянный_градиент_2);}.cls-38{fill:url(#Безымянный_градиент_17);}.cls-39{stroke-width:2.59px;stroke:url(#Безымянный_градиент_164);}.cls-40{fill:url(#Безымянный_градиент_5-2);}.cls-41{fill:url(#Безымянный_градиент_5-3);}.cls-42{fill:url(#Безымянный_градиент_5-4);}.cls-43{fill:url(#Безымянный_градиент_18);}.cls-44{fill:url(#Безымянный_градиент_33);}.cls-45{fill:url(#Безымянный_градиент_33-2);}.cls-46{fill:url(#Безымянный_градиент_33-3);}.cls-47{fill:url(#Безымянный_градиент_17-2);}.cls-48{fill:url(#Безымянный_градиент_33-4);}.cls-49{stroke-width:1.51px;stroke:url(#Безымянный_градиент_33-5);}.cls-50{fill:url(#Безымянный_градиент_33-6);}.cls-51{fill:url(#Безымянный_градиент_17-3);}.cls-52{fill:url(#Безымянный_градиент_33-7);}.cls-53{fill:url(#Безымянный_градиент_11);}.cls-54{fill:url(#Безымянный_градиент_144-2);}.cls-55{fill:url(#Безымянный_градиент_17-4);}.cls-56,.cls-57,.cls-58,.cls-61,.cls-62,.cls-63,.cls-64,.cls-65,.cls-66,.cls-67,.cls-68,.cls-69,.cls-70,.cls-71,.cls-72,.cls-73,.cls-74{stroke-linecap:round;stroke-width:7.65px;}.cls-56{stroke:url(#Безымянный_градиент_139-2);}.cls-57{stroke:url(#Безымянный_градиент_139-3);}.cls-58{stroke:url(#Безымянный_градиент_139-4);}.cls-59{fill:url(#Безымянный_градиент_29);}.cls-60{fill:url(#Безымянный_градиент_157);}.cls-61{stroke:url(#Безымянный_градиент_139-5);}.cls-62{stroke:url(#Безымянный_градиент_139-6);}.cls-63{stroke:url(#Безымянный_градиент_139-7);}.cls-64{stroke:url(#Безымянный_градиент_139-8);}.cls-65{stroke:url(#Безымянный_градиент_139-9);}.cls-66{stroke:url(#Безымянный_градиент_139-10);}.cls-67{stroke:url(#Безымянный_градиент_139-11);}.cls-68{stroke:url(#Безымянный_градиент_139-12);}.cls-69{stroke:url(#Безымянный_градиент_31);}.cls-70{stroke:url(#Безымянный_градиент_31-2);}.cls-71{stroke:url(#Безымянный_градиент_31-3);}.cls-72{stroke:url(#Безымянный_градиент_28);}.cls-73{stroke:url(#Безымянный_градиент_34);}.cls-74{stroke:url(#Безымянный_градиент_37);}</style><linearGradient id="Безымянный_градиент_263" x1="10.46" y1="276.34" x2="656.2" y2="276.34" gradientUnits="userSpaceOnUse"><stop offset="0" stop-color="#f0f2f5"/><stop offset="0.99" stop-color="#f5f7f8"/></linearGradient><linearGradient id="Безымянный_градиент_9" x1="71.15" y1="410.29" x2="327.39" y2="410.29" gradientUnits="userSpaceOnUse"><stop offset="0.09" stop-color="#d9d9d9"/><stop offset="1" stop-color="#e6e6e6"/></linearGradient><linearGradient id="Безымянный_градиент_271" x1="80.58" y1="355.49" x2="196.86" y2="314.51" gradientUnits="userSpaceOnUse"><stop offset="0.01" stop-color="#bbbfd9"/><stop offset="0.29" stop-color="#cacde2"/><stop offset="0.84" stop-color="#f2f3f8"/><stop offset="1" stop-color="#fff"/></linearGradient><linearGradient id="Безымянный_градиент_138" x1="178.1" y1="316.87" x2="193.14" y2="234.45" gradientUnits="userSpaceOnUse"><stop offset="0.38" stop-color="#201f4f"/><stop offset="0.54" stop-color="#27275a"/><stop offset="0.83" stop-color="#393c76"/><stop offset="1" stop-color="#464b8b"/></linearGradient><linearGradient id="Безымянный_градиент_250" x1="115.66" y1="484.73" x2="411.64" y2="484.73" gradientUnits="userSpaceOnUse"><stop offset="0" stop-color="#a7a5ee"/><stop offset="0.44" stop-color="#9d9ce8"/><stop offset="0.89" stop-color="#8988d5"/></linearGradient><linearGradient id="Безымянный_градиент_144" x1="226.77" y1="419.37" x2="236.13" y2="371.58" gradientUnits="userSpaceOnUse"><stop offset="0.11" stop-color="#8988d5"/><stop offset="0.56" stop-color="#9d9ce8"/><stop offset="1" stop-color="#a7a5ee"/></linearGradient><linearGradient id="Безымянный_градиент_123" x1="187" y1="156.61" x2="249.58" y2="156.61" gradientTransform="translate(117.54 249.66) rotate(22.79)" gradientUnits="userSpaceOnUse"><stop offset="0" stop-color="#753200"/><stop offset="1" stop-color="#a04400"/></linearGradient><linearGradient id="Безымянный_градиент_250-2" x1="119.58" y1="395.62" x2="244.56" y2="395.62" xlink:href="#Безымянный_градиент_250"/><linearGradient id="Безымянный_градиент_123-2" x1="113.98" y1="254.78" x2="191.96" y2="218.68" gradientTransform="matrix(1, 0, 0, 1, 0, 0)" xlink:href="#Безымянный_градиент_123"/><linearGradient id="Безымянный_градиент_48" x1="-2841.14" y1="767.62" x2="-2868.96" y2="794.92" gradientTransform="matrix(-0.98, 0.21, 0.21, 0.98, -2790.32, 128.81)" gradientUnits="userSpaceOnUse"><stop offset="0" stop-color="#a04400"/><stop offset="1" stop-color="#753200"/></linearGradient><linearGradient id="Безымянный_градиент_123-3" x1="-2841.2" y1="748.19" x2="-2844.8" y2="751.72" gradientTransform="matrix(-0.98, 0.21, 0.21, 0.98, -2790.32, 128.81)" xlink:href="#Безымянный_градиент_123"/><linearGradient id="Безымянный_градиент_123-4" x1="158.48" y1="298.36" x2="147.7" y2="295.96" gradientTransform="matrix(1, 0, 0, 1, 0, 0)" xlink:href="#Безымянный_градиент_123"/><linearGradient id="Безымянный_градиент_123-5" x1="213.54" y1="288.6" x2="139.06" y2="272" gradientTransform="matrix(1, 0, 0, 1, 0, 0)" xlink:href="#Безымянный_градиент_123"/><linearGradient id="Безымянный_градиент_48-2" x1="152.37" y1="288.58" x2="187.59" y2="308.14" gradientTransform="matrix(1, 0, 0, 1, 0, 0)" xlink:href="#Безымянный_градиент_48"/><linearGradient id="Безымянный_градиент_139" x1="67.77" y1="472.39" x2="173.36" y2="472.39" gradientUnits="userSpaceOnUse"><stop offset="0" stop-color="#201f4f"/><stop offset="0.26" stop-color="#27275a"/><stop offset="0.72" stop-color="#393c76"/><stop offset="1" stop-color="#464b8b"/></linearGradient><linearGradient id="Безымянный_градиент_263-2" x1="264.05" y1="185.93" x2="244.54" y2="37.92" xlink:href="#Безымянный_градиент_263"/><linearGradient id="Безымянный_градиент_64" x1="446.31" y1="164.12" x2="545.43" y2="164.12" gradientUnits="userSpaceOnUse"><stop offset="0" stop-color="#592600"/><stop offset="1" stop-color="#773200"/></linearGradient><linearGradient id="Безымянный_градиент_64-2" x1="-439.95" y1="1970.46" x2="-374.31" y2="1970.46" gradientTransform="translate(-35.94 -1608.06) rotate(-21.83)" xlink:href="#Безымянный_градиент_64"/><linearGradient id="Безымянный_градиент_71" x1="390.69" y1="470.43" x2="441.22" y2="437.78" gradientTransform="translate(49.28 -329.71) rotate(-4.83)" gradientUnits="userSpaceOnUse"><stop offset="0" stop-color="#a04400" stop-opacity="0"/><stop offset="0.22" stop-color="#7c3500" stop-opacity="0.39"/><stop offset="0.47" stop-color="#5e2800" stop-opacity="0.73"/><stop offset="0.7" stop-color="#4b2000" stop-opacity="0.93"/><stop offset="0.9" stop-color="#451d00"/></linearGradient><linearGradient id="Безымянный_градиент_71-2" x1="532.81" y1="145.38" x2="492.78" y2="184.67" gradientTransform="matrix(1, 0, 0, 1, 0, 0)" xlink:href="#Безымянный_градиент_71"/><linearGradient id="Безымянный_градиент_71-3" x1="446.26" y1="485" x2="441.51" y2="489.66" xlink:href="#Безымянный_градиент_71"/><linearGradient id="Безымянный_градиент_9-2" x1="477.19" y1="281.6" x2="530.08" y2="281.6" xlink:href="#Безымянный_градиент_9"/><linearGradient id="Безымянный_градиент_250-3" x1="436.37" y1="230.04" x2="437.32" y2="230.04" xlink:href="#Безымянный_градиент_250"/><linearGradient id="Безымянный_градиент_250-4" x1="492.54" y1="357.76" x2="602.68" y2="357.76" xlink:href="#Безымянный_градиент_250"/><linearGradient id="Безымянный_градиент_250-5" x1="335.92" y1="363.08" x2="492.54" y2="363.08" xlink:href="#Безымянный_градиент_250"/><linearGradient id="Безымянный_градиент_250-6" x1="463.51" y1="222.97" x2="493.65" y2="222.97" xlink:href="#Безымянный_градиент_250"/><linearGradient id="Безымянный_градиент_3" x1="913.76" y1="230.2" x2="963.24" y2="230.2" gradientTransform="translate(-406.08)" xlink:href="#Безымянный_градиент_250"/><linearGradient id="Безымянный_градиент_250-7" x1="503.64" y1="302.54" x2="562.45" y2="302.54" xlink:href="#Безымянный_градиент_250"/><linearGradient id="Безымянный_градиент_9-3" x1="470.62" y1="340.68" x2="555.94" y2="340.68" xlink:href="#Безымянный_градиент_9"/><linearGradient id="Безымянный_градиент_16" x1="514.35" y1="343.06" x2="557.16" y2="343.06" gradientUnits="userSpaceOnUse"><stop offset="0.11" stop-color="#8988d5"/><stop offset="1" stop-color="#9695e1"/></linearGradient><linearGradient id="Безымянный_градиент_64-3" x1="477.18" y1="325.13" x2="510.47" y2="364.36" xlink:href="#Безымянный_градиент_64"/><linearGradient id="Безымянный_градиент_5" x1="653.43" y1="497.86" x2="629.76" y2="318.24" gradientUnits="userSpaceOnUse"><stop offset="0" stop-color="#1f1844"/><stop offset="0.99" stop-color="#3d3c99"/></linearGradient><linearGradient id="Безымянный_градиент_2" x1="657.54" y1="492.5" x2="636.62" y2="333.7" gradientUnits="userSpaceOnUse"><stop offset="0" stop-color="#3f3d9e"/><stop offset="0.99" stop-color="#423e9f"/></linearGradient><linearGradient id="Безымянный_градиент_17" x1="560.42" y1="938.81" x2="648.5" y2="918.57" gradientTransform="translate(-210.14 -229.18) rotate(-20.88)" gradientUnits="userSpaceOnUse"><stop offset="0.01" stop-color="#bbc0d9"/><stop offset="1" stop-color="#d6dbf8"/></linearGradient><linearGradient id="Безымянный_градиент_164" x1="438.04" y1="1155.61" x2="505.59" y2="1167.98" gradientTransform="matrix(0.86, -0.52, 0.52, 0.86, -314.89, -302.04)" gradientUnits="userSpaceOnUse"><stop offset="0" stop-color="#bac6d8"/><stop offset="0.99" stop-color="#d6dbf8"/></linearGradient><linearGradient id="Безымянный_градиент_5-2" x1="657.06" y1="434.44" x2="629.99" y2="407.84" xlink:href="#Безымянный_градиент_5"/><linearGradient id="Безымянный_градиент_5-3" x1="656.2" y1="456.8" x2="624.7" y2="445.83" xlink:href="#Безымянный_градиент_5"/><linearGradient id="Безымянный_градиент_5-4" x1="661.43" y1="477.76" x2="624.41" y2="473.34" xlink:href="#Безымянный_градиент_5"/><linearGradient id="Безымянный_градиент_18" x1="666.81" y1="376.06" x2="658.15" y2="411.45" gradientUnits="userSpaceOnUse"><stop offset="0.01" stop-color="#3d3c99"/><stop offset="1" stop-color="#1f1844"/></linearGradient><linearGradient id="Безымянный_градиент_33" x1="84.67" y1="1517.37" x2="96.1" y2="1517.37" gradientTransform="translate(-499.79 -579.9) rotate(-45.37)" gradientUnits="userSpaceOnUse"><stop offset="0" stop-color="#e0e4eb"/><stop offset="0.99" stop-color="#f3f6fd"/></linearGradient><linearGradient id="Безымянный_градиент_33-2" x1="-613.46" y1="1951.44" x2="-601.92" y2="1951.44" gradientTransform="translate(-1032.52 -721.91) rotate(-72.22)" xlink:href="#Безымянный_градиент_33"/><linearGradient id="Безымянный_градиент_33-3" x1="113.6" y1="-871.86" x2="125.04" y2="-871.86" gradientTransform="matrix(0.63, 0.78, -0.78, 0.63, -80.79, 875.1)" xlink:href="#Безымянный_градиент_33"/><linearGradient id="Безымянный_градиент_17-2" x1="673.09" y1="455.65" x2="685.02" y2="443.41" gradientTransform="matrix(1, 0, 0, 1, 0, 0)" xlink:href="#Безымянный_градиент_17"/><linearGradient id="Безымянный_градиент_33-4" x1="-77.85" y1="-1141.81" x2="-66.13" y2="-1141.81" gradientTransform="matrix(0.5, 0.87, -0.77, 0.45, -173.12, 1017.06)" xlink:href="#Безымянный_градиент_33"/><linearGradient id="Безымянный_градиент_33-5" x1="598.18" y1="771.11" x2="615.03" y2="771.11" gradientTransform="translate(-105.54 -158.46) rotate(-13.38)" xlink:href="#Безымянный_градиент_33"/><linearGradient id="Безымянный_градиент_33-6" x1="-1010.63" y1="1997.6" x2="-998.64" y2="1997.6" gradientTransform="matrix(0.04, -0.93, 1, 0.04, -1323.41, -543.35)" xlink:href="#Безымянный_градиент_33"/><linearGradient id="Безымянный_градиент_17-3" x1="673.36" y1="474.87" x2="685.27" y2="461.66" gradientTransform="matrix(1, 0, 0, 1, 0, 0)" xlink:href="#Безымянный_градиент_17"/><linearGradient id="Безымянный_градиент_33-7" x1="-264.58" y1="-1435.92" x2="-251.6" y2="-1435.92" gradientTransform="matrix(0.35, 0.94, -0.74, 0.28, -302.76, 1101.89)" xlink:href="#Безымянный_градиент_33"/><linearGradient id="Безымянный_градиент_11" x1="668.66" y1="375.55" x2="660.01" y2="410.94" gradientUnits="userSpaceOnUse"><stop offset="0" stop-color="#e6eaf1"/><stop offset="0.99" stop-color="#f3f6fd"/></linearGradient><linearGradient id="Безымянный_градиент_144-2" x1="633.28" y1="530.84" x2="699.23" y2="515.69" xlink:href="#Безымянный_градиент_144"/><linearGradient id="Безымянный_градиент_17-4" x1="261.35" y1="165.48" x2="246.98" y2="56.38" gradientTransform="matrix(1, 0, 0, 1, 0, 0)" xlink:href="#Безымянный_градиент_17"/><linearGradient id="Безымянный_градиент_139-2" x1="-1618.72" y1="86.06" x2="-1550.22" y2="86.06" gradientTransform="matrix(-1, -0.01, -0.01, 1, -1381.55, 150.14)" xlink:href="#Безымянный_градиент_139"/><linearGradient id="Безымянный_градиент_139-3" x1="-1611.9" y1="88.86" x2="-1543.4" y2="88.86" gradientTransform="matrix(-1, 0.01, 0.01, 1, -1382.8, 172.16)" xlink:href="#Безымянный_градиент_139"/><linearGradient id="Безымянный_градиент_139-4" x1="-1630.81" y1="79.63" x2="-1562.31" y2="79.63" gradientTransform="matrix(-1, -0.01, -0.01, 1, -1381.55, 150.14)" xlink:href="#Безымянный_градиент_139"/><linearGradient id="Безымянный_градиент_29" x1="109.19" y1="252.84" x2="204.4" y2="208.76" gradientTransform="translate(-39.76 31.53) rotate(-9.33)" gradientUnits="userSpaceOnUse"><stop offset="0.28" stop-color="#201f4f"/><stop offset="1" stop-color="#201f4f"/></linearGradient><linearGradient id="Безымянный_градиент_157" x1="-2844.52" y1="750.84" x2="-2848.8" y2="755.04" gradientTransform="matrix(-0.93, 0.37, 0.37, 0.93, -2772.32, 610.85)" gradientUnits="userSpaceOnUse"><stop offset="0" stop-color="#a96e46"/><stop offset="1" stop-color="#ffd0b9"/></linearGradient><linearGradient id="Безымянный_градиент_139-5" x1="112.17" y1="243.54" x2="179.73" y2="243.54" gradientTransform="translate(-39.76 31.53) rotate(-9.33)" xlink:href="#Безымянный_градиент_139"/><linearGradient id="Безымянный_градиент_139-6" x1="121.24" y1="252.02" x2="188.79" y2="252.02" gradientTransform="translate(-39.76 31.53) rotate(-9.33)" xlink:href="#Безымянный_градиент_139"/><linearGradient id="Безымянный_градиент_139-7" x1="101.19" y1="246.41" x2="168.75" y2="246.41" gradientTransform="translate(-39.76 31.53) rotate(-9.33)" xlink:href="#Безымянный_градиент_139"/><linearGradient id="Безымянный_градиент_139-8" x1="103.36" y1="162.06" x2="171.9" y2="162.06" gradientTransform="translate(-21.27 94.47) rotate(-4.48)" xlink:href="#Безымянный_градиент_139"/><linearGradient id="Безымянный_градиент_139-9" x1="118.33" y1="243.62" x2="185.11" y2="243.62" gradientTransform="translate(-39.76 31.53) rotate(-9.33)" xlink:href="#Безымянный_градиент_139"/><linearGradient id="Безымянный_градиент_139-10" x1="152.58" y1="224.25" x2="191.42" y2="224.25" gradientTransform="translate(-39.76 31.53) rotate(-9.33)" xlink:href="#Безымянный_градиент_139"/><linearGradient id="Безымянный_градиент_139-11" x1="130.39" y1="250.81" x2="178.44" y2="250.81" gradientTransform="translate(-39.76 31.53) rotate(-9.33)" xlink:href="#Безымянный_градиент_139"/><linearGradient id="Безымянный_градиент_139-12" x1="142.76" y1="250.93" x2="190.81" y2="250.93" gradientTransform="translate(-39.76 31.53) rotate(-9.33)" xlink:href="#Безымянный_градиент_139"/><linearGradient id="Безымянный_градиент_31" x1="190.56" y1="241.61" x2="240.29" y2="241.61" gradientTransform="translate(-39.76 31.53) rotate(-9.33)" gradientUnits="userSpaceOnUse"><stop offset="0" stop-color="#464b8b"/><stop offset="0.28" stop-color="#393c76"/><stop offset="0.74" stop-color="#27275a"/><stop offset="1" stop-color="#201f4f"/></linearGradient><linearGradient id="Безымянный_градиент_31-2" x1="182.29" y1="308.8" x2="235.75" y2="308.8" gradientTransform="translate(-60.67 -20.5) rotate(-13.79)" xlink:href="#Безымянный_градиент_31"/><linearGradient id="Безымянный_градиент_31-3" x1="194.08" y1="221.24" x2="226.13" y2="221.24" xlink:href="#Безымянный_градиент_31"/><linearGradient id="Безымянный_градиент_28" x1="203.65" y1="212.36" x2="183.16" y2="209" gradientTransform="translate(-39.76 31.53) rotate(-9.33)" gradientUnits="userSpaceOnUse"><stop offset="0" stop-color="#373973"/><stop offset="1" stop-color="#464b8b"/></linearGradient><linearGradient id="Безымянный_градиент_34" x1="196.24" y1="210.36" x2="211.59" y2="210.36" gradientTransform="translate(-39.76 31.53) rotate(-9.33)" gradientUnits="userSpaceOnUse"><stop offset="0" stop-color="#34366e"/><stop offset="0.45" stop-color="#3d417d"/><stop offset="1" stop-color="#464b8b"/></linearGradient><linearGradient id="Безымянный_градиент_37" x1="140.97" y1="241.14" x2="211.79" y2="241.14" gradientTransform="translate(-39.76 31.53) rotate(-9.33)" gradientUnits="userSpaceOnUse"><stop offset="0" stop-color="#201f4f"/><stop offset="0.23" stop-color="#303168"/><stop offset="0.48" stop-color="#3c407b"/><stop offset="0.74" stop-color="#444887"/><stop offset="1" stop-color="#464b8b"/></linearGradient></defs><title>01</title><g id="Слой_4" data-name="Слой 4"><path class="cls-1" d="M584.8,311.06c-66.36,33.93-41.25,72.56-28,113.31,10.06,31,13.24,63.22-35.93,95.55L56.3,516.38c-22.21-25.64-43.1-52-45.33-83.59C7.9,389.39,19.2,346.15,32.52,318.93,89.22,203,251.41,33.22,462.15,32.78,682.07,32.32,703.33,250.43,584.8,311.06Z"/><path class="cls-2" d="M549,507.46c22.68-88,14.32-149.33,14.32-149.33l-104.86,9.78s-32.84,126.55-15.34,191.16h121.7C563.2,548,543.79,527.76,549,507.46Z"/><path class="cls-3" d="M71.15,385.72,118,465.18l209.39-36.69-44-65.85A21.16,21.16,0,0,0,262.66,356Z"/><path class="cls-4" d="M94.28,273.74c-32.41,8.45-33.21,32.3-25.47,56.39l15.54,48.35a34.28,34.28,0,0,0,39.55,23.08l108.18-22.3L170.67,264.51Z"/><path class="cls-5" d="M203.58,232.15c-28.16-24.64-55.09-2.39-62.13,29.28-2,8.58-15.74,28.69-17.4,41.71-2.64,20.78,62.15,14.44,63,15.1S219,313.81,226.1,307C258.75,284.62,227.65,255.13,203.58,232.15Z"/><path class="cls-6" d="M79.13,287.4s15-5.46,19.84,6.24c11,26.56,11.44,66.22,10.58,88.94"/><path class="cls-7" d="M321.5,419.36A27.08,27.08,0,0,0,295.83,411L126.18,446.49c-7.74,1.62-13.23,10.36-9.11,17.11l56.38,95.47H411.64Z"/><path class="cls-8" d="M228.14,335.51c-7.38-13.56-15.37-9.67-19.12-11.34l29.12,68.74L240,422.73l23.53-5C252.47,393.63,239,355.41,228.14,335.51Z"/><path class="cls-9" d="M242.11,456.72s-5.21,0-7.65,1.38L226,474.42s8.08,10.25,15,15.82c3.21,2.58,8.7,5.71,14,8.44,6.18,3.17,14.26,7.2,15,4.63.67-2.37-10.5-7.4-10.6-7.93-.18-1,17.86,7.49,19.27,3.62,1-2.87-17.64-8.83-17.44-9.54s22.61,9.55,23.95,5.64c1.19-3.47-21.22-11.33-20.65-12.43.3-.57,21.09,7.75,22,5,1.49-4.49-10.65-6.24-17.17-9.65s-9.8-6.57-9.55-10c.13-1.72,6.31-.77,6.31-.77s6.06.62,10.19,2.61a1.63,1.63,0,0,0,2.38-1.36c0-3.38-6.5-6.08-9.6-7.11-9-3-26.93-4.68-26.93-4.68"/><path class="cls-10" d="M191.4,311.79A42.4,42.4,0,0,1,219,319.94a37,37,0,0,1,8.35,8.6c7.23,10.52,16.87,69.59,17.22,93.17l-54.61,12.21c4.41,1.8,33.55,22.21,49.07,22.81-8.77,4.87-11.52,22.78-11.52,22.78-36.37-.78-91.91-29.67-99.11-58.31-5.5-21.86-8.56-54.07-8.8-67.31-.33-17.91,14.25-30.17,23.46-34.77s30.07-6.41,30.07-6.41Z"/><path class="cls-11" d="M206.47,233.13c-.13,1.49-.32,3-.53,4.43-2-7.59-14.92-16.18-29.59-14.84,0,0,0,1.77-2.76,2.27s-4-2.95-4.6,0-.61,6.93-4,6.93-5.52,2.14-5.82,4.29,5.39,9.85,2.54,11.75c-3.27,2.16-5.63,10.27-5.63,10.27s-2.55-18.81-12.68-7.79c-.71,2-1.32,4.06-1.82,6.09-.47-2.95.29-5.25,1.92-6.71a6.14,6.14,0,0,1,1.54-1,52.5,52.5,0,0,1-2.45-15.46,35.67,35.67,0,0,1,1.06-8.93c4-15.47,24.06-20,37.1-19.1S207.72,218.62,206.47,233.13Z"/><path class="cls-12" d="M149.65,275.9a45.27,45.27,0,0,0,32.5,19.59l-.09-1.74-.11-2.14c-9.32-2.75-20.47-9.2-33.46-22.72l.28.32a45.65,45.65,0,0,1,.8,5.79C149.59,275.29,149.63,275.59,149.65,275.9Z"/><path class="cls-13" d="M150.22,254.58s-3-3.56-4.74-.55,1.67,7.68,1.67,7.68Z"/><path class="cls-14" d="M159.45,327.82s32.36,23.52,40.28,22,1.76-31.68,1.76-31.68"/><path class="cls-15" d="M218.14,304.12c15.56-23.8-22.81-50.47-26-57.72l-32.88,29.16s10.22,13.81,4,33.85c-.65,2.14-12.63,11-21.85,10.83-14.57-.27-29.29-2.32-31.61-6.12C99.39,297,100.08,296.41,112.17,244c6.56-28.47,26.6-47.64,52.9-50.42,2.41-.25,27.63,5.1,46.32,28.82,4,5.07,13,4.68,15.51,12.28,6.16,18.77,11.43,24.92,14.9,54C243.42,302.13,226.42,310.24,218.14,304.12Z"/><path class="cls-16" d="M150,285.62c.25.64.74,2.22,1.18,3.81.23.79.45,1.58.61,2.25.08.32.17.65.26,1,.33,1.33.65,2.62,1,3.85,1.21,4.83,2.27,8.85,3.17,12.18C157.67,299.49,159.07,289.44,150,285.62Z"/><path class="cls-17" d="M209.41,252.88c-1.05-4.14-1-8.72-1.07-13.49h0c-2.88-7.52-8.91-10.91-12.73-12.75-5.09-2.48-11.89-4.7-13.54-3.94a321.53,321.53,0,0,1-26,48.95s-5-16.6-12.83-9.82a10.22,10.22,0,0,0-3.31,6.41v0a12.75,12.75,0,0,0,2.19,9.15,40.08,40.08,0,0,0,7.35,7.59,2,2,0,0,0,.38.32,1.26,1.26,0,0,1,.14.3c7.26,7.25,7.66,13.86,6.17,23.08,2.78,10.24,4.1,13.87,4.1,13.87.94,4.27,19.14,14.25,32.72,20.81a3.64,3.64,0,0,0,4.94-4.67L193,312.58l-.62-2.7-.08-.32-.64-2.7-.4-1.91-.1-.49q.45-.11,1-.27c.71-.19,1.46-.45,2.26-.75,8.26-3.2,20.43-11.81,21.41-26.6C216.52,266.53,210.84,258.53,209.41,252.88Z"/><path class="cls-18" d="M192.46,311.13c-11.22-1.33-24.66-6-36.78-19.47,13.13,6.55,25.35,10.21,35.62,13.29l.4,1.91.64,2.7Z"/><path class="cls-19" d="M71.15,385.72,68.83,398a61.07,61.07,0,0,0,6.56,40.86l62.23,108.81a22.65,22.65,0,0,0,19.66,11.41h16.07Z"/><circle class="cls-20" cx="253.8" cy="108.13" r="79.53"/><path class="cls-21" d="M518.47,261.29c-14.2,3.56-24.8-58.16-24.8-58.16l0-4.75-.05-14,0-7.27a6.85,6.85,0,0,1-1.48-.1c-.67-.08-1.54-.21-2.56-.4-6.92-1.33-16.69-7.39-23.2-18.62-6-10.38-4.23-21.65-5.65-28.24s-9.28-8.9-12.14-16c-3.67-9.1-2.56-21.77,1.46-25.59C468.05,70.79,526.22,70,526.22,70s6.22-13.2,7.17,14.35c1.1-1.16-10.14,24.95-8.44,24.19,3.57-1.53,6.88-1.68,9.45-.47,5.61,2.61,6.23,9.27-.34,23.76a42.32,42.32,0,0,0-1.28,6.27,45.26,45.26,0,0,0,.47,13.87c2.63,14.42,11,25.19,11.63,26.27C548.59,184.1,532.7,257.75,518.47,261.29Z"/><path class="cls-22" d="M338.74,358.13c-12.2-6.55-20.88,4.15-29.47,3.87-3.62-.12-3.76-1-4.77.59s2.67,4.57,5.66,5a25,25,0,0,1,6.38,2.18,35.35,35.35,0,0,0-4.33,4.81c-1.82,2.45-9.49,4.61-12.52,4.31-6.37-.64-10.48-1.88-12.46-.32-.82.65-.7,1.8-.27,2.95a8.16,8.16,0,0,0,4.44,4.54c3.74,1.62,10.94,4.42,15.5,4.22,3.62-.16,9.37.07,15-3.12S340,377.24,340,377.24l10-2.49s-1.47-10.68-1.74-16.57C345.53,357.18,339.56,358.57,338.74,358.13Z"/><path class="cls-23" d="M530,83.46c-.95-27.56-21.41-9.53-21.41-9.53S468.06,70.79,450,88.12c-2.84,2.7-2.24,7.94-2,12.48C454.86,92,472.38,91,485.82,88.45c6.43-1.23,5.08,6.24,6.94,6.17,13.61-5.7,24.51-.63,26.41,19.94l5.64-6C523.35,108.84,531,82.34,530,83.46Z"/><path class="cls-2" d="M453.89,60c-29.42,23.83-11.49,54.6-11.49,54.6s10.74,3.84,61.24-20.85c-3.25-4.5,8.09-17.42,19.5-16.33-8.92,3.83-14.12,11-14.33,13.25-.69,7.26,13.92,6.52,13.57,22.66.28-2.86,6.74-7.58,12.4-3.85,1.38.91,3.8,3.14,3.79,9,3.83-9.59,9.3-21.06,9-22.6C535.29,22.29,467.73,48.74,453.89,60Z"/><path class="cls-24" d="M533.25,151.93c-8.4,16.61-23.58,27.24-39.65,32.41l-1.06.34a29.64,29.64,0,0,1-4.73-6.53,33.47,33.47,0,0,0,4.28-1.18c17.7-6.08,31.77-25.94,40.69-38.91A45.26,45.26,0,0,0,533.25,151.93Z"/><path class="cls-25" d="M527.77,116.68s2.43-5.68,5.77-2.54.87,10.35.87,10.35Z"/><path class="cls-26" d="M529.13,190.05a13.92,13.92,0,0,1-2.58,2.72L523.06,195c-4.69,3-19.42,37.26-19.42,37.26s-6.4-36.4-10.4-40.4l-.7-.7c-.71,14.38.09,28.75-.86,43.13-4.12,36.07-9.1,72.32-14.26,109.43-1.63,15.51,6.17,28.74,6.17,28.74l17.11.67s13-21.8,17.09-42.81c7.77-48.55,2.59-94.65,12.3-140.19Z"/><path class="cls-27" d="M436.45,230.24c1.23.11,1.1-.05-.06-.42C436.36,230.08,436.37,230.23,436.45,230.24Z"/><path class="cls-28" d="M594.81,209c-6.36-9.08-40.79-35-52.92-41.75,0,2.77-14.88,30.53-21.8,29.75-3.4,15.94-16.45,139.14-16.45,139.14s-3.48-.15-6.3-.12c-2.41,6.13-4.79,25.32-4.79,25.32l8.44,1.35s-1.35,167-3.9,182.94c13.19.34,32.72,2.66,50.07,2.72,25.95.09,43.19-12.78,42.44-32.89-2-53-11.66-142.42-9.71-154.32.26-1.59,13.52-5.65,14.52-10.32C601.35,318.35,608.7,228.79,594.81,209Z"/><path class="cls-29" d="M488.58,343.58c5.15-37.11,3.25-138,4-152.39-3.83-3.84-6.92-7.07-6.95-7.53s-28.3,23.21-30.51,27.64C440.75,240.07,423.64,323,423.64,323l-87.73,34.2,7.7,25.8,102.69-29.54L417.52,515.65c-2.32,11.07,7.41,20.17,16.77,22.74a161.56,161.56,0,0,0,18.21,4.12C452.31,527,486.95,359.09,488.58,343.58Z"/><path class="cls-30" d="M492.12,269.38l-18-39.1,7.48-14.73-18.13-17.12s10.81-14.81,26-21.85a19,19,0,0,0,4,.49l.08,21.31C490.92,229.75,492.12,269.38,492.12,269.38Z"/><path class="cls-31" d="M557.16,195.59,538,206l7.22,18.56-37.49,70s10.06-82.67,12.4-97.6c5.17-6.52,17.92-24.32,22.35-30.51a1.48,1.48,0,0,1,2.57.29Z"/><polygon class="cls-32" points="562.45 267.82 557.16 323.82 503.64 337.26 545.63 324.38 562.45 267.82"/><path class="cls-14" d="M562.45,393.8h9.48s5.61,52.84-19.72,53.17-23.12-35-23.12-35"/><polygon class="cls-33" points="470.62 282.97 549.33 279.29 555.94 401.33 476.46 402.08 470.62 282.97"/><polygon class="cls-34" points="553.52 324.51 514.35 329.88 516.87 361.25 557.16 361.61 553.52 324.51"/><path class="cls-35" d="M515,336.73a2,2,0,0,0-1-1.57,58.41,58.41,0,0,1-10.74-8.21c-4.53-4.53-13-8.8-16.79-7.42a2.06,2.06,0,0,0-1.17,2.27c1,4.92,8.17,5.75,6.65,7.41a110.61,110.61,0,0,1-13.08-3.05c-3.3-1-5.87,2.21-5.13,4.46a2,2,0,0,1-.93,2.23c-2.15,1.41-1.46,4.4-.35,5.42,1.4,1.29-4.35,3.23-1.16,6.46s-2,5.89,1.54,8.79,8.82,6.32,16.57,5.35,27.42.08,27.42.08Z"/><path class="cls-36" d="M659,498.44s26.19-29.15,23.41-40.64,13.47-25.44,13.79-42.18c.36-19-9.77-13.89-13.27-22-5.19-12,6.37-22.65-11.11-27.25-11.94-3.14-20.33,3-19.24-11.78s-4.25-33-13.82-39.68c-13.66-9.48-30.92-9.51-21.56,9.59C627,344.59,599.54,371,594,396.05,572.51,492.42,659,498.44,659,498.44Z"/><path class="cls-37" d="M629.79,334.61c3,24.71,34,64.19,19.94,90.58S657,492.42,657,492.42"/><path class="cls-38" d="M716.44,435.61c-13.75,11.68,11.3,25.67-2.55,41.56s-34.33,29.08-37.07,25c-.69-1-17.47-28.11-11.28-44.54a14.8,14.8,0,0,1,1.67-3.24c8.87-13,10.66-10.39,5.84-22.77-8.28-21.21-3.43-26.7,4.5-27.32s13.73-2.15,11.77-10.42-21.76-40.85-5.54-47c28.08-10.61,27.56,30.6,26.94,37.49-1.48,16.52,5.48,18.92,9.74,22C726.45,410.73,730.18,423.93,716.44,435.61Z"/><path class="cls-39" d="M685.36,533.89s-19.2-37.53,2.27-70.86c9.7-15.06,21.26-60,4.39-97.44"/><path class="cls-40" d="M629.53,407.43c4-6.73,32.49,21,27.5,27.11S625.75,413.84,629.53,407.43Z"/><path class="cls-41" d="M622.33,445.28c.57-7.84,35,3.43,33.24,11.17S621.79,452.75,622.33,445.28Z"/><path class="cls-42" d="M624.62,473.45c-1.51-7.19,36.45-3.05,36.78,4.35S626.05,480.3,624.62,473.45Z"/><path class="cls-43" d="M667.33,375.08c7.66.56-2.25,39.16-9.82,37.38S660,374.55,667.33,375.08Z"/><path class="cls-44" d="M632.41,405.6c4-6.73,32.49,21,27.5,27.11S628.63,412,632.41,405.6Z"/><path class="cls-45" d="M624.63,443.67c.57-7.84,35,3.43,33.24,11.17S624.08,451.14,624.63,443.67Z"/><path class="cls-46" d="M688.49,409c6.1,4.78-24,30.71-29.38,25S682.68,404.43,688.49,409Z"/><path class="cls-47" d="M674,456.7c.53-5.26,2-10.1,5-13.58,3.64-.72,6.69-.58,8,.92C689.85,447.26,682.14,453.19,674,456.7Z"/><path class="cls-48" d="M685.61,442.14c5.13,5.79-23.95,20.36-28.31,13.79S680.73,436.62,685.61,442.14Z"/><path class="cls-49" d="M659.55,403.35s.88,20.05-1.78,37.56,4,47.12,15,56.59"/><path class="cls-50" d="M624.62,472.07c-1.51-7.19,36.45-3.05,36.78,4.35S626.05,478.92,624.62,472.07Z"/><path class="cls-51" d="M675.36,477.77c-.06-.33-.12-.68-.19-1a94.47,94.47,0,0,1-1.35-11.06c0-.11,0-.23,0-.34,6.2-3.43,12.81-5.16,14.56-2.19C690.57,466.9,683,473.75,675.36,477.77Z"/><path class="cls-52" d="M687,460.32c3.93,6.66-23.26,23.26-26.42,16S683.23,454,687,460.32Z"/><path class="cls-53" d="M669.18,374.57c7.66.56-2.25,39.16-9.82,37.38S661.88,374,669.18,374.57Z"/><path class="cls-54" d="M675.76,559.8H652.17a21.24,21.24,0,0,1-21.05-18.4L625.26,498a4.91,4.91,0,0,1,4.86-5.56H697.8a4.91,4.91,0,0,1,4.86,5.56l-5.85,43.42A21.24,21.24,0,0,1,675.76,559.8Z"/><path class="cls-55" d="M302.79,91.9H270V59.14A9.13,9.13,0,0,0,260.9,50H246.69a9.13,9.13,0,0,0-9.13,9.13V91.9H204.81a9.13,9.13,0,0,0-9.13,9.13v14.21a9.13,9.13,0,0,0,9.13,9.13h32.75v32.75a9.13,9.13,0,0,0,9.13,9.13H260.9a9.13,9.13,0,0,0,9.13-9.13V124.37h32.75a9.13,9.13,0,0,0,9.13-9.13V101A9.13,9.13,0,0,0,302.79,91.9Z"/><circle class="cls-2" cx="442.4" cy="83.17" r="7.29"/><circle class="cls-2" cx="444.77" cy="73.04" r="7.29"/><circle class="cls-2" cx="450.77" cy="65.17" r="7.29"/><circle class="cls-2" cx="459.34" cy="60.85" r="7.29"/><circle class="cls-2" cx="467.84" cy="56.35" r="7.29"/><circle class="cls-2" cx="478.47" cy="52.73" r="7.29"/><circle class="cls-2" cx="439.02" cy="102.85" r="7.29"/><circle class="cls-2" cx="443.49" cy="108.82" r="7.29"/><circle class="cls-2" cx="439.02" cy="91.35" r="7.29"/><circle class="cls-2" cx="488.58" cy="50.59" r="7.29"/><circle class="cls-2" cx="498.46" cy="50.59" r="7.29"/><circle class="cls-2" cx="507.83" cy="51.47" r="7.29"/><circle class="cls-2" cx="517.71" cy="53.56" r="7.29"/><circle class="cls-2" cx="526.83" cy="60.01" r="7.29"/><circle class="cls-2" cx="535.29" cy="68.59" r="7.29"/><circle class="cls-2" cx="538.81" cy="77.72" r="7.29"/><circle class="cls-2" cx="541.4" cy="85.84" r="7.29"/><path class="cls-56" d="M172.16,199l8.55-3.09a2.34,2.34,0,0,1,2.64.75l4.23,5.55a2.3,2.3,0,0,0,1.82.89l5.08,0a2.21,2.21,0,0,1,2.23,1.93l.58,5.6a2.21,2.21,0,0,0,2.23,1.93l4.6,0a2.22,2.22,0,0,1,2.23,1.89l.55,4.6a2.15,2.15,0,0,0,1.38,1.73l5.91,2.3a2.08,2.08,0,0,1,1.06,3.1l-2.79,4.23a2.08,2.08,0,0,0,.93,3l6.83,3.14a2.09,2.09,0,0,1,1.12,2.68l-1.9,4.67a2.06,2.06,0,0,0,.64,2.38l3.8,3.08a2.06,2.06,0,0,1,.08,3.17l-3,2.66a2.05,2.05,0,0,0,0,3.06l6.42,6a2,2,0,0,1,.31,2.67l-2.62,3.86a2,2,0,0,0,.38,2.73l6,5.14a2,2,0,0,1,.43,2.65l-3.76,6.06a2,2,0,0,0,.35,2.58l3.2,3a2,2,0,0,1,.52,2.24l-1.62,4.16c-.12.3.39.89.58,1.74"/><path class="cls-57" d="M164.64,201l8.5-3.22a2.34,2.34,0,0,1,2.65.71L180.1,204a2.3,2.3,0,0,0,1.83.86l5.08,0a2.21,2.21,0,0,1,2.26,1.89l.66,5.59a2.21,2.21,0,0,0,2.26,1.89l4.6,0a2.22,2.22,0,0,1,2.25,1.86l.62,4.59a2.15,2.15,0,0,0,1.41,1.71l5.94,2.22a2.08,2.08,0,0,1,1.1,3.08l-2.73,4.27a2.08,2.08,0,0,0,1,3l6.88,3a2.09,2.09,0,0,1,1.16,2.67l-1.83,4.7a2.06,2.06,0,0,0,.67,2.38l3.85,3a2.06,2.06,0,0,1,.13,3.17l-2.94,2.7a2.05,2.05,0,0,0,0,3.06l6.51,5.93a2,2,0,0,1,.35,2.66l-2.57,3.89a2,2,0,0,0,.42,2.72l6,5.06a2,2,0,0,1,.46,2.65l-3.67,6.11a2,2,0,0,0,.38,2.58l3.25,3a2,2,0,0,1,.55,2.23l-1.56,4.18c-.11.3.4.88.61,1.74a11.85,11.85,0,0,1,.27,1.66"/><path class="cls-58" d="M184.3,193.54l8.55-3.09a2.34,2.34,0,0,1,2.64.75l4.23,5.55a2.3,2.3,0,0,0,1.82.89l5.08,0a2.21,2.21,0,0,1,2.23,1.93l.58,5.6a2.21,2.21,0,0,0,2.23,1.93l4.6,0a2.22,2.22,0,0,1,2.23,1.89l.55,4.6a2.15,2.15,0,0,0,1.38,1.73l5.91,2.3a2.08,2.08,0,0,1,1.06,3.1L224.59,225a2.08,2.08,0,0,0,.93,3l6.83,3.14a2.09,2.09,0,0,1,1.12,2.68l-1.9,4.67a2.06,2.06,0,0,0,.64,2.38L236,244a2.06,2.06,0,0,1,.08,3.17l-3,2.66a2.05,2.05,0,0,0,0,3.06l6.42,6a2,2,0,0,1,.31,2.67l-2.62,3.86a2,2,0,0,0,.38,2.73l6,5.14A2,2,0,0,1,244,276L240.2,282a2,2,0,0,0,.35,2.58l3.2,3a2,2,0,0,1,.52,2.24l-1.62,4.16"/><path class="cls-59" d="M218.63,224.35c.13,1.73.21,3.46.24,5.16-3.9-8.29-21.27-15.68-38.74-11.4,0,0,.35,2-2.89,3.11s-5.4-2.62-5.56.86.64,8-3.44,8.66-6.26,3.49-6.19,6,8.48,10.24,5.4,12.95c-3.52,3.09-4.77,12.78-4.77,12.78s-6.82-21-16.88-6.52c-.46,2.44-.79,4.89-1,7.3-1.16-3.28-.69-6,1-8a7.37,7.37,0,0,1,1.65-1.45,58.58,58.58,0,0,1-6-17.2c-.58-3.31-10.59-14.22-10.25-17.77,1.78-18.42,32.55-34.12,48.5-35.54S217.26,207.55,218.63,224.35Z"/><path class="cls-60" d="M154.86,259.4s-4.36-3.5-5.84.26,3.55,8.46,3.55,8.46Z"/><path class="cls-61" d="M164.39,189.15l-8.95-1.81a2.3,2.3,0,0,0-2.49,1.12l-3.27,6.1A2.25,2.25,0,0,1,148,195.7l-5,.78a2.16,2.16,0,0,0-1.89,2.23l.34,5.62a2.16,2.16,0,0,1-1.89,2.23l-4.53.7a2.17,2.17,0,0,0-1.89,2.2l.21,4.63a2.11,2.11,0,0,1-1.08,1.91l-5.46,3.13a2.06,2.06,0,0,0-.54,3.22l3.45,3.78a2.06,2.06,0,0,1-.42,3.14l-6.24,4.1a2.06,2.06,0,0,0-.67,2.81l2.64,4.34a2,2,0,0,1-.24,2.45l-3.25,3.59a2.06,2.06,0,0,0,.43,3.14l3.38,2.2a2.06,2.06,0,0,1,.54,3l-5.36,6.88a2,2,0,0,0,.13,2.68l3.22,3.43a2,2,0,0,1,.07,2.75l-5,6a2,2,0,0,0,0,2.68l4.71,5.44a2,2,0,0,1,.08,2.6L121,290.81a2,2,0,0,0-.15,2.29l2.28,3.87a2.92,2.92,0,0,1-.29,1.81,5.09,5.09,0,0,0,2.8,6.34l1.13,5"/><path class="cls-62" d="M174.95,197.5,166,195.68a2.3,2.3,0,0,0-2.49,1.12l-3.27,6.1a2.25,2.25,0,0,1-1.65,1.14l-5,.78a2.16,2.16,0,0,0-1.89,2.23l.34,5.62a2.16,2.16,0,0,1-1.89,2.23l-4.53.7a2.17,2.17,0,0,0-1.89,2.2l.21,4.63a2.11,2.11,0,0,1-1.08,1.91l-5.46,3.13a2.06,2.06,0,0,0-.54,3.22l3.45,3.78a2.06,2.06,0,0,1-.42,3.14l-6.24,4.1a2.06,2.06,0,0,0-.67,2.81l2.64,4.34a2,2,0,0,1-.24,2.45l-3.25,3.59a2.06,2.06,0,0,0,.43,3.14l3.38,2.2a2.06,2.06,0,0,1,.54,3l-5.36,6.88a2,2,0,0,0,.13,2.68l3.22,3.43a2,2,0,0,1,.07,2.75l-5,6a2,2,0,0,0,0,2.68l4.71,5.44a2,2,0,0,1,.08,2.6l-2.67,3.47a2,2,0,0,0-.15,2.29l2.28,3.87a2.92,2.92,0,0,1-.29,1.81,5.09,5.09,0,0,0,2.8,6.34l.47,2.08"/><path class="cls-63" d="M154.56,197l-8.95-1.81a2.3,2.3,0,0,0-2.49,1.12l-3.27,6.1a2.25,2.25,0,0,1-1.65,1.14l-5,.78a2.16,2.16,0,0,0-1.89,2.23l.34,5.62a2.16,2.16,0,0,1-1.89,2.23l-4.53.7a2.17,2.17,0,0,0-1.89,2.2l.21,4.63a2.11,2.11,0,0,1-1.08,1.91L117,227a2.06,2.06,0,0,0-.54,3.22L119.9,234a2.06,2.06,0,0,1-.42,3.14l-6.24,4.1a2.06,2.06,0,0,0-.67,2.81l2.64,4.34a2,2,0,0,1-.24,2.45l-3.25,3.59a2.06,2.06,0,0,0,.43,3.14l3.38,2.2a2.06,2.06,0,0,1,.54,3l-5.36,6.88a2,2,0,0,0,.13,2.68l3.22,3.43a2,2,0,0,1,.07,2.75l-5,6a2,2,0,0,0,0,2.68l4.71,5.44a2,2,0,0,1,.08,2.6l-2.67,3.47a2,2,0,0,0-.15,2.29l2.28,3.87a2.92,2.92,0,0,1-.29,1.81c-.59,1.64,4.42,3,5.43,4.3"/><path class="cls-64" d="M154.9,191.19l-8.76-2.52a2.32,2.32,0,0,0-2.58.92l-3.81,5.82a2.28,2.28,0,0,1-1.75,1l-5.07.37a2.19,2.19,0,0,0-2.08,2.07l-.16,5.63a2.19,2.19,0,0,1-2.08,2.07l-4.58.34a2.19,2.19,0,0,0-2.08,2l-.21,4.63a2.13,2.13,0,0,1-1.25,1.82l-5.72,2.69a2.07,2.07,0,0,0-.82,3.16l3.1,4a2.07,2.07,0,0,1-.7,3.1L109.77,232a2.07,2.07,0,0,0-.92,2.75l2.24,4.54a2,2,0,0,1-.46,2.42L107.07,245a2.06,2.06,0,0,0,.15,3.17l3.17,2.46a2.05,2.05,0,0,1,.27,3.05l-6,6.43a2,2,0,0,0-.11,2.68l2.9,3.67a2,2,0,0,1-.17,2.75l-5.56,5.53a2,2,0,0,0-.23,2.68l4.2,5.79a2,2,0,0,1-.15,2.6l-3,3.24a2,2,0,0,0-.35,2.27l1.92,4c.14.29-.32.91-.45,1.78-.51,3.48-2.14,5.57-.51,5.57"/><path class="cls-65" d="M137.55,302.91l-.36-10.72c0-.31-4.87,1.88-5.18,1.79l-5.33-5.43a.72.72,0,0,1-.34-1.19l9.17-9.48a.7.7,0,0,0,0-1l-3.87-3.69a.7.7,0,0,1-.14-.84l4.37-8.28a.69.69,0,0,0,0-.68l-4-6.79a.7.7,0,0,1,.08-.83l4-4.45a.7.7,0,0,0,.07-.85l-4.5-6.88a.7.7,0,0,1,0-.82l4-5a.7.7,0,0,0-.15-1l-2.61-1.86a.7.7,0,0,1-.11-1.07l5.05-5.27a.7.7,0,0,0,0-1l-3.31-3.63a.72.72,0,0,1,.46-1.2l5.28-.82a.74.74,0,0,0,.65-.73l0-5.72a.74.74,0,0,1,.65-.73l6.61-1a.73.73,0,0,0,.6-1l-1.75-4.5a.73.73,0,0,1,.6-1l6.86-1.06a.74.74,0,0,0,.64-.84l-.83-4.76a.74.74,0,0,1,.64-.84l5.39-.84a.74.74,0,0,0,.64-.84l-.92-5.32a.74.74,0,0,1,.64-.84l9.64-1.49"/><path class="cls-66" d="M175.35,183.73,172.46,188a1.39,1.39,0,0,0-.17,1.21l1.23,3.8a1.44,1.44,0,0,1-.92,1.79l-.66.24a1.43,1.43,0,0,0-.32,2.56l4.73,3.09a1.42,1.42,0,0,1-.22,2.52l-1.73.78a1.42,1.42,0,0,0-.5,2.28l2.7,2.91a1.41,1.41,0,0,1-.4,2.23l-1,.52a1.42,1.42,0,0,0-.59,2l3.16,5.49a1.42,1.42,0,0,1-.57,2l-1.88,1.05a1.41,1.41,0,0,0-.49,2.07l3.21,4.52a1.44,1.44,0,0,1-1,2.26l-4.22.66c-.36.06,3.53,3.87,3.3,4.13-1.3,1.42-5.45,6.22-3.1,6.92,2.11.63-2.37,1.75-4.59,2.24a1.48,1.48,0,0,0-1.19,1.36l-.3,6.77a1.43,1.43,0,0,1-.52,1l-9.15,11.77"/><path class="cls-67" d="M164.63,198.59,153,214.27a2.28,2.28,0,0,0,.28,2.9h0a2.29,2.29,0,0,1-.31,3.51l-4.18,3a2.29,2.29,0,0,0-.51,3.28,6.77,6.77,0,0,1,1.36,2.25c0,.76-4.65,7.25-5.08,8.07-.27.52.89,3.14,1.79,5a2.31,2.31,0,0,1-1,3l-2,1.09a2.33,2.33,0,0,0-1.21,2.44l1.3,7.48a2.23,2.23,0,0,1-.17,1.33,28.06,28.06,0,0,1-3.07,5.4c-1.07,1.17.44,5.48,1.09,7.16a2.24,2.24,0,0,1,.06,1.42l3.65,5.8c-.13.45-5-.46-4.84,0l3.53,9.77a2.26,2.26,0,0,1-.08,1.73l-1.85,4a2.26,2.26,0,0,0,0,2l3.8,7.67a2.27,2.27,0,0,1-.25,2.41l-3.44,4.45"/><path class="cls-68" d="M176.86,196.69l-11.67,15.68a2.28,2.28,0,0,0,.28,2.9h0a2.29,2.29,0,0,1-.31,3.51l-4.18,3a2.29,2.29,0,0,0-.51,3.28,6.77,6.77,0,0,1,1.36,2.25c0,.76-4.65,7.25-5.08,8.07-.27.52.89,3.14,1.79,5a2.31,2.31,0,0,1-1,3l-2,1.09a2.33,2.33,0,0,0-1.21,2.44l1.3,7.48a2.23,2.23,0,0,1-.17,1.33,28.06,28.06,0,0,1-3.07,5.4c-1.07,1.17.44,5.48,1.09,7.16a2.24,2.24,0,0,1,.06,1.42l-1.24,4.4a2.25,2.25,0,0,0,.05,1.38l3.53,9.77a2.26,2.26,0,0,1-.08,1.73L154,291a2.26,2.26,0,0,0,0,2l3.8,7.67a2.27,2.27,0,0,1-.25,2.41l-3.44,4.45"/><path class="cls-69" d="M182.55,185.71l7.05,2.55a2.88,2.88,0,0,1,2.83,1.2l1.74,2.61a2.81,2.81,0,0,0,1.7,1.16h0a2.75,2.75,0,0,1,2,1.71l-3,5.68c.45,1.22,5.66-1.25,7-1.46l1.28-.2a2.92,2.92,0,0,1,2.23.56c1.69,1.3,4.93,3.88,4.9,4.4a6.71,6.71,0,0,1-1.23,2,2.56,2.56,0,0,0,.87,3.85c1.6.87,3.48,1.73,4.42,1.57,1.8-.3,3.62,4.46,3.11,4.8-3.33,2.22,3.55,4,5.18,5.75a2.54,2.54,0,0,1,.67,2.15c-.23,1.4-.53,3.56-.31,3.89s3.3,3.73,5.11,5.72a2.53,2.53,0,0,1,.28,3.08L225.67,241a2.53,2.53,0,0,0,.19,3l7.53,2a47.2,47.2,0,0,1,2.86,7l-6.08,4.28a2.54,2.54,0,0,0,.35,1.31l3.64,6.17a2.52,2.52,0,0,1,.21,2.13l-1.44,4a2.6,2.6,0,0,1-.4.73L231,273.69a2.58,2.58,0,0,0,1.08,4l1.59,7.95"/><path class="cls-70" d="M183.69,194.36l4.38-4.38a3.09,3.09,0,0,0,.3-.35c.47-.63,2.15-2.8,2.8-2.29.44.34,2.31-.21,3.82-.74a3.36,3.36,0,0,1,3.53.83l1.41,1.49a3.23,3.23,0,0,0,1.16.78l4.9,1.94a3.17,3.17,0,0,1,1.61,1.39l2,3.63A3.15,3.15,0,0,0,211,198l3.3,1.57a3.24,3.24,0,0,1,.73.48l2.38,2.06a3,3,0,0,1,1,1.64l.52,2.45a3.18,3.18,0,0,0,3.12,2.44h0a3.11,3.11,0,0,1,3.15,3.45l-.17,1.2a3,3,0,0,0,1.72,3.11l3.88,1.88a3,3,0,0,1,1.71,3.21l-.11.65a3,3,0,0,0,1.53,3.12l4,2.25a3,3,0,0,1,1.19,4.06l-1.67,2.94a3,3,0,0,0,1.29,4.11l.37.19a3,3,0,0,1,1.66,2.92l-.33,3.76a3,3,0,0,0,1.88,3l.78.34a3,3,0,0,1,1.58,4.07L242,258a2.9,2.9,0,0,0,.09,2.76l2.5,4.33a3,3,0,0,1,.17.33l2.12,5"/><path class="cls-71" d="M189.93,208.92l2-2.13a2.34,2.34,0,0,1,2.93-.36l2.54,1.6a2.35,2.35,0,0,0,2.66-.11h0a2.31,2.31,0,0,1,3.47.8l1.67,3.64a2.8,2.8,0,0,0,2.66,1.12,3.63,3.63,0,0,1,3.4,1.91l1,1.88c.33.64,2.15.79,3.09,1.63a4.14,4.14,0,0,1,1.18,4.6l-.61,1.6"/><path class="cls-72" d="M178.68,189.08l3.39,3.21a2.19,2.19,0,0,1,.64,2.11l-.33,1.37a2.23,2.23,0,0,0,1.13,2.46l3,1.69a2.21,2.21,0,0,1,.2,3.8l-.56.38a2.2,2.2,0,0,0,0,3.64l1.69,1.22a2.19,2.19,0,0,1,.35,3.3l-.32.34a2.17,2.17,0,0,0-.16,2.8c1.51,2,4.05,5.51,4.08,6s-2.25,1.74-4,2.67a2.2,2.2,0,0,0-1,3"/><path class="cls-73" d="M188.61,187.54l3.39,3.21a2.19,2.19,0,0,1,.64,2.11l-.33,1.37a2.23,2.23,0,0,0,1.13,2.46l3,1.69a2.21,2.21,0,0,1,.2,3.8l-.56.38a2.2,2.2,0,0,0,0,3.64l1.69,1.22a2.19,2.19,0,0,1,.35,3.3l-.32.34a2.17,2.17,0,0,0-.16,2.8c1.51,2,4.05,5.51,4.08,6s-2.25,1.74-4,2.67a2.2,2.2,0,0,0-1,3"/><path class="cls-74" d="M196.64,187.67l-8.16-3.88c-.59-.6-5.17-3-9.15-2.39l-2.47,2.1c-1.74-.07-4.51-.91-4.69.73-.1.89-2.13-1.3-2.86-1.21l-.17,0a3.1,3.1,0,0,0-2.68,4l1.72,5.12a3,3,0,0,1-1.27,3.49l-.88.57a3,3,0,0,0-1.17,3.76l.84,1.89a3,3,0,0,1-.67,3.36l-2.79,2.71a3,3,0,0,0-.38,3.87l1.73,2.46c.68,1,2.37,4.42,1.78,5.43l-7.49,7.68a3,3,0,0,0,.21,3.32l2.06,2.69a2.94,2.94,0,0,1,.25,3.25c-1.25,2.23-3.4,5.82-4.16,5.7s-1.3,2.05-1.53,3.31a3,3,0,0,1-.81,1.56L149.3,252a3.06,3.06,0,0,0-.67,1.07l-1.9,5.16a3,3,0,0,0-.17.73l-.63,6.43a2.92,2.92,0,0,0,0,.49l.33,4.72a3.07,3.07,0,0,0,1.53,2.42l2.69,1.59a3,3,0,0,1,.12,5.17h0a3,3,0,0,0-.17,5l2.06,1.53a3,3,0,0,1,.63,4.23l-1.5,2a3,3,0,0,0-.45,2.77l2.56,7.35"/></g></svg>