<svg xmlns="http://www.w3.org/2000/svg" xmlns:xlink="http://www.w3.org/1999/xlink" viewBox="0 0 736 574.85"><defs><style>.cls-1{fill:url(#Безымянный_градиент_263);}.cls-2{fill:#1f1844;}.cls-3{fill:url(#Безымянный_градиент_9);}.cls-4{fill:url(#Безымянный_градиент_271);}.cls-10,.cls-28,.cls-30,.cls-40,.cls-5{fill:none;stroke-miterlimit:10;}.cls-10,.cls-5{stroke:#fff;}.cls-5{stroke-width:2px;}.cls-6{fill:url(#Безымянный_градиент_250);}.cls-7{fill:url(#Безымянный_градиент_14);}.cls-8{fill:url(#Безымянный_градиент_123);}.cls-9{fill:url(#Безымянный_градиент_9-2);}.cls-10{stroke-width:1.17px;}.cls-11{fill:url(#Безымянный_градиент_139);}.cls-12{fill:url(#Безымянный_градиент_263-2);}.cls-13{fill:url(#Безымянный_градиент_123-2);}.cls-14{fill:url(#Безымянный_градиент_13);}.cls-15{fill:url(#Безымянный_градиент_48);}.cls-16{fill:url(#Безымянный_градиент_123-3);}.cls-17{fill:url(#Безымянный_градиент_9-3);}.cls-18{fill:url(#Безымянный_градиент_250-2);}.cls-19{fill:url(#Безымянный_градиент_250-3);}.cls-20{fill:url(#Безымянный_градиент_250-4);}.cls-21{fill:url(#Безымянный_градиент_250-5);}.cls-22{fill:url(#Безымянный_градиент_3);}.cls-23{fill:url(#Безымянный_градиент_250-6);}.cls-24{fill:url(#Безымянный_градиент_9-4);}.cls-25{fill:url(#Безымянный_градиент_16);}.cls-26{fill:url(#Безымянный_градиент_13-2);}.cls-27{fill:url(#Безымянный_градиент_5);}.cls-28{stroke-width:0.9px;stroke:url(#Безымянный_градиент_2);}.cls-29{fill:url(#Безымянный_градиент_17);}.cls-30{stroke-width:2.59px;stroke:url(#Безымянный_градиент_164);}.cls-31{fill:url(#Безымянный_градиент_5-2);}.cls-32{fill:url(#Безымянный_градиент_5-3);}.cls-33{fill:url(#Безымянный_градиент_5-4);}.cls-34{fill:url(#Безымянный_градиент_18);}.cls-35{fill:url(#Безымянный_градиент_33);}.cls-36{fill:url(#Безымянный_градиент_33-2);}.cls-37{fill:url(#Безымянный_градиент_33-3);}.cls-38{fill:url(#Безымянный_градиент_17-2);}.cls-39{fill:url(#Безымянный_градиент_33-4);}.cls-40{stroke-width:1.51px;stroke:url(#Безымянный_градиент_33-5);}.cls-41{fill:url(#Безымянный_градиент_33-6);}.cls-42{fill:url(#Безымянный_градиент_17-3);}.cls-43{fill:url(#Безымянный_градиент_33-7);}.cls-44{fill:url(#Безымянный_градиент_11);}.cls-45{fill:url(#Безымянный_градиент_144);}.cls-46{fill:url(#Безымянный_градиент_17-4);}.cls-47{fill:url(#Безымянный_градиент_123-4);}.cls-48{fill:url(#Безымянный_градиент_123-5);}.cls-49{fill:url(#Безымянный_градиент_123-6);}.cls-50{fill:url(#Безымянный_градиент_122);}</style><linearGradient id="Безымянный_градиент_263" x1="9.79" y1="267.07" x2="655.53" y2="267.07" gradientUnits="userSpaceOnUse"><stop offset="0" stop-color="#f0f2f5"/><stop offset="0.99" stop-color="#f5f7f8"/></linearGradient><linearGradient id="Безымянный_градиент_9" x1="71.94" y1="401.95" x2="328.19" y2="401.95" gradientUnits="userSpaceOnUse"><stop offset="0.09" stop-color="#d9d9d9"/><stop offset="1" stop-color="#e6e6e6"/></linearGradient><linearGradient id="Безымянный_градиент_271" x1="81.38" y1="347.15" x2="197.66" y2="306.17" gradientUnits="userSpaceOnUse"><stop offset="0.01" stop-color="#bbbfd9"/><stop offset="0.29" stop-color="#cacde2"/><stop offset="0.84" stop-color="#f2f3f8"/><stop offset="1" stop-color="#fff"/></linearGradient><linearGradient id="Безымянный_градиент_250" x1="116.46" y1="476.39" x2="412.44" y2="476.39" gradientUnits="userSpaceOnUse"><stop offset="0" stop-color="#a7a5ee"/><stop offset="0.44" stop-color="#9d9ce8"/><stop offset="0.89" stop-color="#8988d5"/></linearGradient><linearGradient id="Безымянный_градиент_14" x1="207.91" y1="368.08" x2="239.63" y2="359.62" gradientUnits="userSpaceOnUse"><stop offset="0" stop-color="#9c9c9c"/><stop offset="0.58" stop-color="#c6c6c6"/><stop offset="0.91" stop-color="#d9d9d9"/></linearGradient><linearGradient id="Безымянный_градиент_123" x1="283.35" y1="489.62" x2="353.28" y2="489.62" gradientTransform="translate(183.79 -79.09) rotate(22.79)" gradientUnits="userSpaceOnUse"><stop offset="0" stop-color="#753200"/><stop offset="1" stop-color="#a04400"/></linearGradient><linearGradient id="Безымянный_градиент_9-2" x1="110.46" y1="398.67" x2="263.19" y2="398.67" xlink:href="#Безымянный_градиент_9"/><linearGradient id="Безымянный_градиент_139" x1="68.57" y1="464.05" x2="174.16" y2="464.05" gradientUnits="userSpaceOnUse"><stop offset="0" stop-color="#201f4f"/><stop offset="0.26" stop-color="#27275a"/><stop offset="0.72" stop-color="#393c76"/><stop offset="1" stop-color="#464b8b"/></linearGradient><linearGradient id="Безымянный_градиент_263-2" x1="264.85" y1="177.59" x2="245.34" y2="29.58" xlink:href="#Безымянный_градиент_263"/><linearGradient id="Безымянный_градиент_123-2" x1="447.11" y1="137.41" x2="545.98" y2="137.41" gradientTransform="matrix(1, 0, 0, 1, 0, 0)" xlink:href="#Безымянный_градиент_123"/><linearGradient id="Безымянный_градиент_13" x1="-392.31" y1="1647.39" x2="-312.09" y2="1647.39" gradientTransform="translate(24.91 -1292.47) rotate(-21.83)" gradientUnits="userSpaceOnUse"><stop offset="0" stop-color="#a04400"/><stop offset="0.3" stop-color="#9c4200"/><stop offset="0.62" stop-color="#8e3d00"/><stop offset="0.95" stop-color="#793300"/><stop offset="1" stop-color="#753200"/></linearGradient><linearGradient id="Безымянный_градиент_48" x1="447.51" y1="428.76" x2="404.23" y2="471.25" gradientTransform="translate(52.29 -258.26) rotate(-4.83)" gradientUnits="userSpaceOnUse"><stop offset="0" stop-color="#a04400"/><stop offset="1" stop-color="#753200"/></linearGradient><linearGradient id="Безымянный_градиент_123-3" x1="450.77" y1="405.3" x2="446.02" y2="409.96" gradientTransform="translate(52.29 -258.26) rotate(-4.83)" xlink:href="#Безымянный_градиент_123"/><linearGradient id="Безымянный_градиент_9-3" x1="477.99" y1="273.26" x2="530.88" y2="273.26" xlink:href="#Безымянный_градиент_9"/><linearGradient id="Безымянный_градиент_250-2" x1="437.17" y1="221.7" x2="438.11" y2="221.7" xlink:href="#Безымянный_градиент_250"/><linearGradient id="Безымянный_градиент_250-3" x1="493.33" y1="348.39" x2="606.31" y2="348.39" xlink:href="#Безымянный_градиент_250"/><linearGradient id="Безымянный_градиент_250-4" x1="336.71" y1="354.74" x2="493.33" y2="354.74" xlink:href="#Безымянный_градиент_250"/><linearGradient id="Безымянный_градиент_250-5" x1="464.3" y1="214.63" x2="494.45" y2="214.63" xlink:href="#Безымянный_градиент_250"/><linearGradient id="Безымянный_градиент_3" x1="914.56" y1="221.51" x2="964.03" y2="221.51" gradientTransform="translate(-406.08)" xlink:href="#Безымянный_градиент_250"/><linearGradient id="Безымянный_градиент_250-6" x1="504.43" y1="294.2" x2="563.25" y2="294.2" xlink:href="#Безымянный_градиент_250"/><linearGradient id="Безымянный_градиент_9-4" x1="469.63" y1="333.24" x2="556.73" y2="333.24" xlink:href="#Безымянный_градиент_9"/><linearGradient id="Безымянный_градиент_16" x1="515.15" y1="334.72" x2="557.96" y2="334.72" gradientUnits="userSpaceOnUse"><stop offset="0.11" stop-color="#8988d5"/><stop offset="1" stop-color="#9695e1"/></linearGradient><linearGradient id="Безымянный_градиент_13-2" x1="472" y1="311.69" x2="510.3" y2="356.83" gradientTransform="matrix(1, 0, 0, 1, 0, 0)" xlink:href="#Безымянный_градиент_13"/><linearGradient id="Безымянный_градиент_5" x1="654.22" y1="489.51" x2="630.55" y2="309.9" gradientUnits="userSpaceOnUse"><stop offset="0" stop-color="#1f1844"/><stop offset="0.99" stop-color="#3d3c99"/></linearGradient><linearGradient id="Безымянный_градиент_2" x1="658.34" y1="484.16" x2="637.41" y2="325.36" gradientUnits="userSpaceOnUse"><stop offset="0" stop-color="#3f3d9e"/><stop offset="0.99" stop-color="#423e9f"/></linearGradient><linearGradient id="Безымянный_градиент_17" x1="619.88" y1="628.78" x2="707.95" y2="608.54" gradientTransform="translate(-154.41 73.34) rotate(-20.88)" gradientUnits="userSpaceOnUse"><stop offset="0.01" stop-color="#bbc0d9"/><stop offset="1" stop-color="#d6dbf8"/></linearGradient><linearGradient id="Безымянный_градиент_164" x1="564.72" y1="710.94" x2="632.27" y2="723.31" gradientTransform="matrix(0.86, -0.52, 0.52, 0.86, -193.2, 135.9)" gradientUnits="userSpaceOnUse"><stop offset="0" stop-color="#bac6d8"/><stop offset="0.99" stop-color="#d6dbf8"/></linearGradient><linearGradient id="Безымянный_градиент_5-2" x1="657.86" y1="426.1" x2="630.79" y2="399.5" xlink:href="#Безымянный_градиент_5"/><linearGradient id="Безымянный_градиент_5-3" x1="657" y1="448.46" x2="625.5" y2="437.49" xlink:href="#Безымянный_градиент_5"/><linearGradient id="Безымянный_градиент_5-4" x1="662.23" y1="469.42" x2="625.2" y2="465" xlink:href="#Безымянный_градиент_5"/><linearGradient id="Безымянный_градиент_18" x1="667.6" y1="367.72" x2="658.95" y2="403.11" gradientUnits="userSpaceOnUse"><stop offset="0.01" stop-color="#3d3c99"/><stop offset="1" stop-color="#1f1844"/></linearGradient><linearGradient id="Безымянный_градиент_33" x1="343.71" y1="907.94" x2="355.14" y2="907.94" gradientTransform="translate(-247.24 24.23) rotate(-45.37)" gradientUnits="userSpaceOnUse"><stop offset="0" stop-color="#e0e4eb"/><stop offset="0.99" stop-color="#f3f6fd"/></linearGradient><linearGradient id="Безымянный_градиент_33-2" x1="-15.66" y1="1141.34" x2="-4.11" y2="1141.34" gradientTransform="translate(-442.9 86.4) rotate(-72.22)" xlink:href="#Безымянный_градиент_33"/><linearGradient id="Безымянный_градиент_33-3" x1="421.84" y1="-218.4" x2="433.29" y2="-218.4" gradientTransform="matrix(0.63, 0.78, -0.78, 0.63, 233.43, 215.76)" xlink:href="#Безымянный_градиент_33"/><linearGradient id="Безымянный_градиент_17-2" x1="673.89" y1="447.31" x2="685.82" y2="435.07" gradientTransform="matrix(1, 0, 0, 1, 0, 0)" xlink:href="#Безымянный_градиент_17"/><linearGradient id="Безымянный_градиент_33-4" x1="338.77" y1="-321.39" x2="350.5" y2="-321.39" gradientTransform="matrix(0.5, 0.87, -0.77, 0.45, 250.33, 282.5)" xlink:href="#Безымянный_градиент_33"/><linearGradient id="Безымянный_градиент_33-5" x1="623.93" y1="566.71" x2="640.78" y2="566.71" gradientTransform="translate(-82.5 38) rotate(-13.38)" xlink:href="#Безымянный_градиент_33"/><linearGradient id="Безымянный_градиент_33-6" x1="-191.8" y1="1154.41" x2="-179.82" y2="1154.41" gradientTransform="matrix(0.04, -0.93, 1, 0.04, -508.42, 246.8)" xlink:href="#Безымянный_градиент_33"/><linearGradient id="Безымянный_градиент_17-3" x1="674.16" y1="466.53" x2="686.07" y2="453.32" gradientTransform="matrix(1, 0, 0, 1, 0, 0)" xlink:href="#Безымянный_градиент_17"/><linearGradient id="Безымянный_градиент_33-7" x1="281.27" y1="-434.66" x2="294.25" y2="-434.66" gradientTransform="matrix(0.35, 0.94, -0.74, 0.28, 250.63, 306.11)" xlink:href="#Безымянный_градиент_33"/><linearGradient id="Безымянный_градиент_11" x1="669.46" y1="367.21" x2="660.8" y2="402.6" gradientUnits="userSpaceOnUse"><stop offset="0" stop-color="#e6eaf1"/><stop offset="0.99" stop-color="#f3f6fd"/></linearGradient><linearGradient id="Безымянный_градиент_144" x1="634.08" y1="522.5" x2="700.02" y2="507.35" gradientUnits="userSpaceOnUse"><stop offset="0.11" stop-color="#8988d5"/><stop offset="0.56" stop-color="#9d9ce8"/><stop offset="1" stop-color="#a7a5ee"/></linearGradient><linearGradient id="Безымянный_градиент_17-4" x1="262.15" y1="157.14" x2="247.77" y2="48.04" gradientTransform="matrix(1, 0, 0, 1, 0, 0)" xlink:href="#Безымянный_градиент_17"/><linearGradient id="Безымянный_градиент_123-4" x1="-650.04" y1="296.58" x2="-730.36" y2="221.17" gradientTransform="matrix(-1, 0, 0, 1, -530.34, 0)" xlink:href="#Безымянный_градиент_123"/><linearGradient id="Безымянный_градиент_123-5" x1="-758.21" y1="274.01" x2="-746.54" y2="274.01" gradientTransform="matrix(-1, 0, 0, 1, -530.34, 0)" xlink:href="#Безымянный_градиент_123"/><linearGradient id="Безымянный_градиент_123-6" x1="-703.85" y1="309.35" x2="-761.97" y2="254.78" gradientTransform="matrix(-1, 0, 0, 1, -530.34, 0)" xlink:href="#Безымянный_градиент_123"/><linearGradient id="Безымянный_градиент_122" x1="504.25" y1="104.6" x2="537.58" y2="104.6" gradientUnits="userSpaceOnUse"><stop offset="0" stop-color="#a04400" stop-opacity="0"/><stop offset="0.18" stop-color="#9a4100" stop-opacity="0.14"/><stop offset="0.52" stop-color="#8a3b00" stop-opacity="0.52"/><stop offset="0.9" stop-color="#753200"/></linearGradient></defs><title>01</title><g id="_01" data-name="01"><path class="cls-1" d="M584.13,301.79c-66.36,33.93-41.25,72.56-28,113.31,10.06,31,13.24,63.22-35.93,95.55L55.62,507.11c-22.21-25.64-43.1-52-45.33-83.59-3.06-43.39,8.24-86.63,21.55-113.85C88.55,193.74,250.74,24,461.48,23.51,681.4,23.05,702.66,241.16,584.13,301.79Z"/><path class="cls-2" d="M562.08,502.32c22.68-88,2.05-152.54,2.05-152.54l-104.86,9.78s-17.94,162-21.63,179.75c-.29,1.41-.51,8.36-.66,11.41H490.4c2.85-29.23,10.47-99.37,10.47-99.37S502,511,506.37,550.72h52.29C557,539.68,556.85,522.63,562.08,502.32Z"/><path class="cls-3" d="M71.94,377.38l46.85,79.46,209.39-36.69-44-65.85a21.16,21.16,0,0,0-20.71-6.69Z"/><path class="cls-4" d="M95.07,265.4c-32.41,8.45-33.21,32.3-25.47,56.39l15.54,48.35a34.28,34.28,0,0,0,39.55,23.08l108.18-22.3L171.46,256.17Z"/><path class="cls-5" d="M79.93,279.06s15-5.46,19.84,6.24c11,26.56,6.59,69.36,5.73,92.08"/><path class="cls-6" d="M322.3,411a27.08,27.08,0,0,0-25.68-8.39L127,438.14c-7.74,1.62-13.23,10.36-9.11,17.11l56.38,95.47H412.44Z"/><path class="cls-7" d="M229.5,325.77C219.13,314.33,214.71,312.63,211,311l28,73.61,1.81,29.82,23.53-5C262.44,387.89,249,347.27,229.5,325.77Z"/><path class="cls-8" d="M269.72,471.16s-5.82,0-8.54,1.54l-9.51,18.23s9,11.45,16.79,17.67c3.59,2.88,9.72,6.38,15.66,9.43,6.91,3.54,15.94,8,16.74,5.17.74-2.65-11.73-8.27-11.84-8.86-.2-1.08,20,8.37,21.52,4,1.16-3.21-19.71-9.87-19.49-10.66s25.26,10.67,26.75,6.3c1.33-3.88-23.71-12.66-23.07-13.89.33-.63,23.56,8.66,24.56,5.62,1.66-5-11.89-7-19.19-10.78s-11-7.34-10.67-11.18c.14-1.92,7.05-.86,7.05-.86s6.77.69,11.38,2.91a1.82,1.82,0,0,0,2.65-1.52c0-3.78-7.26-6.79-10.73-7.94-10-3.31-30.09-5.23-30.09-5.23"/><path class="cls-9" d="M192.19,303.45a42.4,42.4,0,0,1,27.59,8.15,37,37,0,0,1,8.35,8.6c7.23,10.52,23.19,68.28,23.54,91.86l-67.3,15.05c4.41,1.8,78.82,44.06,78.82,44.06l-11.52,22.78S134,471.16,121.36,415.69c-5-22-10.66-54.85-10.9-68.09-.33-17.91,24.17-32.22,33.37-36.82s30.07-6.41,30.07-6.41Z"/><path class="cls-10" d="M160.25,319.47s15.88,24.95,40.28,22c16.84-2,1.76-31.68,1.76-31.68"/><path class="cls-11" d="M71.94,377.38l-2.31,12.27a61.07,61.07,0,0,0,6.56,40.86l62.23,108.81a22.65,22.65,0,0,0,19.66,11.41h16.07Z"/><circle class="cls-12" cx="254.59" cy="99.79" r="79.53"/><path class="cls-13" d="M527.77,206.67c-14.2,3.55-33.3-11.88-33.3-11.88l0-4.75-.08-21.31a19.48,19.48,0,0,1-4-.5c-6.92-1.33-20.81-5.63-27.33-16.86-6-10.38-4.22-21.65-5.65-28.24s-5.15-10.66-8-17.75c-3.67-9.1-2.56-21.77,1.46-25.59,18-17.34,86.42-11,86.42-11s.54,8.41.12,17c-.24,5.23-.85,10.52-2.15,14a7.85,7.85,0,0,1,3.12,2.62h0c3,4.18,3.13,12.12-2,23.45-.07.17-.16.34-.24.51a60.6,60.6,0,0,0,1.25,7.62l.24,1.17c1,4.64,2.34,10.66,3.62,16.47,1.87,8.39,3.79,15.55,4.49,18.33C547.36,176.62,542,203.12,527.77,206.67Z"/><path class="cls-14" d="M334.91,350.19c-14.91-8-25.52,5.07-36,4.73-4.43-.14-4.59-1.18-5.83.72s3.26,5.58,6.92,6.13a30.53,30.53,0,0,1,7.79,2.66,43.2,43.2,0,0,0-5.29,5.87c-2.22,3-11.59,5.64-15.3,5.27-7.78-.78-12.81-2.3-15.23-.39-1,.79-.85,2.2-.32,3.6a10,10,0,0,0,5.43,5.55c4.57,2,13.37,5.41,18.94,5.16,4.43-.19,11.45.09,18.31-3.82s22.2-12.14,22.2-12.14l12.23-3s-1.79-13.06-2.13-20.25C343.21,349,335.91,350.73,334.91,350.19Z"/><path class="cls-15" d="M537.58,135.06c-7.17,22-25.18,35.44-44.24,41.28a29.84,29.84,0,0,1-4.73-6.53c21.71-4.47,38.44-30.7,47.71-44.05-.07.17-.15.34-.23.51a60.36,60.36,0,0,0,1.25,7.62C537.41,134.27,537.49,134.66,537.58,135.06Z"/><path class="cls-16" d="M528.56,108.34s2.43-5.68,5.77-2.54.87,10.35.87,10.35Z"/><path class="cls-17" d="M529.92,181.71a13.92,13.92,0,0,1-2.58,2.72l-3.48,2.26A23.84,23.84,0,0,1,494,183.55l-.7-.7c-.71,14.38.09,28.75-.86,43.13-4.12,36.07-9.1,72.32-14.26,109.43-1.63,15.51,6.17,28.74,6.17,28.74l17.11.67s13-21.8,17.09-42.81c7.77-48.55,2.59-94.65,12.3-140.19Z"/><path class="cls-18" d="M437.25,221.89c1.23.11,1.1-.05-.06-.42C437.15,221.74,437.17,221.89,437.25,221.89Z"/><path class="cls-19" d="M599.77,200.22c-6.36-9.08-45.23-36.67-57.36-43.42,0,2.77-14.6,32.6-21.52,31.82-3.4,15.94-16.45,139.14-16.45,139.14s-3.48-.15-6.3-.12c-2.41,6.13-4.79,25.32-4.79,25.32l8.44,1.35s-1.35,167-3.9,182.94c13.19.34,32.72,2.66,50.07,2.72,25.95.09,43.19-12.78,42.44-32.89-2-53-11.66-142.42-9.71-154.32.26-1.59,13.52-5.65,14.52-10.32C602.15,310,613.66,220.06,599.77,200.22Z"/><path class="cls-20" d="M489.38,335.23c5.15-37.11,3.25-138,4-152.39-3.83-3.84-6.92-7.07-6.95-7.53s-28.3,23.21-30.51,27.64c-14.34,28.77-35.16,103.87-35.16,103.87l-84,42,7.7,25.8L447.1,345.09,418.32,507.31C416,518.38,425.73,527.47,435.1,530a161.56,161.56,0,0,0,18.21,4.12C453.11,518.66,487.75,350.75,489.38,335.23Z"/><path class="cls-21" d="M492.91,261l-18-39.1,7.48-14.73L464.3,190.08s10.81-14.81,26-21.85a19,19,0,0,0,4,.49l.08,21.31C491.72,221.41,492.91,261,492.91,261Z"/><path class="cls-22" d="M558,187.25l-19.21,10.38L546,216.19l-37.49,70s10.06-82.67,12.4-97.6c6.3-8,21.52-31.82,21.52-31.82Z"/><polygon class="cls-23" points="563.25 259.48 557.96 315.48 504.43 328.92 546.43 316.04 563.25 259.48"/><path class="cls-10" d="M563.25,385.46h9.48s5.61,52.84-19.72,53.17-23.12-35-23.12-35"/><polygon class="cls-24" points="469.63 276.42 550.13 270.95 556.74 392.99 475.46 395.53 469.63 276.42"/><polygon class="cls-25" points="554.31 316.17 515.15 321.54 517.66 352.91 557.96 353.27 554.31 316.17"/><path class="cls-26" d="M515.53,325a2.33,2.33,0,0,0-1.13-1.81A67.2,67.2,0,0,1,502,313.77c-5.21-5.21-15-10.13-19.32-8.54a2.37,2.37,0,0,0-1.35,2.61c1.19,5.66,9.4,6.62,7.65,8.53A127.27,127.27,0,0,1,474,312.86c-3.8-1.17-6.76,2.55-5.9,5.13a2.28,2.28,0,0,1-1.07,2.56c-2.48,1.62-1.68,5.06-.4,6.24,1.61,1.49-5,3.72-1.33,7.44S463,341,467,344.34s10.14,7.27,19.07,6.15,31.55.09,31.55.09Z"/><path class="cls-27" d="M659.81,490.1s26.19-29.15,23.41-40.64S696.69,424,697,407.28c.36-19-9.77-13.89-13.27-22-5.19-12,6.37-22.65-11.11-27.25-11.94-3.14-20.33,3-19.24-11.78s-4.25-33-13.82-39.68c-13.66-9.48-30.92-9.51-21.56,9.59,9.84,20.08-17.67,46.46-23.25,71.55C573.3,484.08,659.81,490.1,659.81,490.1Z"/><path class="cls-28" d="M630.59,326.27c3,24.71,34,64.19,19.94,90.58s7.24,67.23,7.24,67.23"/><path class="cls-29" d="M717.23,427.27c-13.75,11.68,11.3,25.67-2.55,41.56s-34.33,29.08-37.07,25c-.69-1-17.47-28.11-11.28-44.54A14.8,14.8,0,0,1,668,446c8.87-13,10.66-10.39,5.84-22.77-8.28-21.21-3.43-26.7,4.5-27.32s13.73-2.15,11.77-10.42-21.76-40.85-5.54-47c28.08-10.61,27.56,30.6,26.94,37.49C710,392.56,717,395,721.25,398,727.25,402.39,731,415.59,717.23,427.27Z"/><path class="cls-30" d="M686.16,525.55S667,488,688.43,454.7c9.7-15.06,21.26-60,4.39-97.44"/><path class="cls-31" d="M630.33,399.09c4-6.73,32.49,21,27.5,27.11S626.55,405.5,630.33,399.09Z"/><path class="cls-32" d="M623.13,436.94c.57-7.84,35,3.43,33.24,11.17S622.59,444.41,623.13,436.94Z"/><path class="cls-33" d="M625.41,465.1c-1.51-7.19,36.45-3.05,36.78,4.35S626.85,472,625.41,465.1Z"/><path class="cls-34" d="M668.12,366.74c7.66.56-2.25,39.16-9.82,37.38S660.82,366.21,668.12,366.74Z"/><path class="cls-35" d="M633.2,397.26c4-6.73,32.49,21,27.5,27.11S629.42,403.67,633.2,397.26Z"/><path class="cls-36" d="M625.42,435.33c.57-7.84,35,3.43,33.24,11.17S624.88,442.8,625.42,435.33Z"/><path class="cls-37" d="M689.29,400.64c6.1,4.78-24,30.71-29.38,25S683.48,396.09,689.29,400.64Z"/><path class="cls-38" d="M674.77,448.36c.53-5.26,2-10.1,5-13.58,3.64-.72,6.69-.58,8,.92C690.65,438.92,682.93,444.85,674.77,448.36Z"/><path class="cls-39" d="M686.41,433.8c5.13,5.79-23.95,20.36-28.31,13.79S681.53,428.28,686.41,433.8Z"/><path class="cls-40" d="M660.35,395s.88,20.05-1.78,37.56,4,47.12,15,56.59"/><path class="cls-41" d="M625.41,463.73c-1.51-7.19,36.45-3.05,36.78,4.35S626.85,470.58,625.41,463.73Z"/><path class="cls-42" d="M676.15,469.43c-.06-.33-.12-.68-.19-1a94.47,94.47,0,0,1-1.35-11.06c0-.11,0-.23,0-.34,6.2-3.43,12.81-5.16,14.56-2.19C691.37,458.56,683.79,465.41,676.15,469.43Z"/><path class="cls-43" d="M687.77,452c3.93,6.66-23.26,23.26-26.42,16S684,445.63,687.77,452Z"/><path class="cls-44" d="M670,366.23c7.66.56-2.25,39.16-9.82,37.38S662.68,365.7,670,366.23Z"/><path class="cls-45" d="M676.56,551.46H653a21.24,21.24,0,0,1-21.05-18.4l-5.85-43.42a4.91,4.91,0,0,1,4.86-5.56H698.6a4.91,4.91,0,0,1,4.86,5.56l-5.85,43.42A21.24,21.24,0,0,1,676.56,551.46Z"/><path class="cls-46" d="M303.58,83.56H270.83V50.8a9.13,9.13,0,0,0-9.13-9.13H247.49a9.13,9.13,0,0,0-9.13,9.13V83.56H205.6a9.13,9.13,0,0,0-9.13,9.13V106.9A9.13,9.13,0,0,0,205.6,116h32.75v32.75a9.13,9.13,0,0,0,9.13,9.13H261.7a9.13,9.13,0,0,0,9.13-9.13V116h32.75a9.13,9.13,0,0,0,9.13-9.13V92.69A9.13,9.13,0,0,0,303.58,83.56Z"/><path class="cls-47" d="M146.67,263.63c2.47,5.26,14.3,4.79,14.51,6.48l6.82.84c2.6,5.4,5.68,14.4,9.5,20.26,5.05,7.75,25-8.06,30.44-15.66s17.76-17.05,17.76-17.05,5.92-4.59,5.94-7.69c0-5.94-9.61-8.55-11.27-18-1.88-10.63-.75-10-4.09-16.59l-.05-.1c-1.22-2.37-13.49-19.34-19.76-18.16-1.63.3-16-2.13-17.83-1.67L159.13,200c-13.65,3.49-17.47,22.59-22.8,26.33C133.48,228.31,145.27,260.64,146.67,263.63Z"/><path class="cls-48" d="M216.34,279c1,1.89,7.3-.13,11.53-1.77a13.53,13.53,0,0,1,0-8.87C222.68,271.11,215.12,276.77,216.34,279Z"/><path class="cls-49" d="M158,279.17c.27,1.62.64,3.85,1,6.43l.76,5.55c.9,7.15,1.59,15.18,1,19.88-1.29,9.9,33.27,20.88,40,17.34,4.78-2.5,4.59-15.5,4.06-23-.12-1.73-.26-3.17-.36-4.1-9.51.74-18.54.64-20.81-1.23a16.45,16.45,0,0,1-3.39-4.64c-3.59-6.57-6.62-16.78-6.62-16.78S156.84,278.35,158,279.17Z"/><path class="cls-50" d="M525,101.25c-4.07,3.24-3.57,20.33-3.57,20.33s-3.34.63-8.15,1.91c4.93-20.4-9.07-29.23-9.07-29.23V85.71h33.09c0,4,.18,8.92.24,15.7C535.53,99,529,98.11,525,101.25Z"/><path class="cls-2" d="M446.71,93.73s-12.43-9.88-5.37-17.58-4-7.66,7.65-13.57c1.89-5.72,4.05-7.45,7.28-7.92,1.12-5.24,8-10.29,13-8.14,3.18-5.13,12.33-8.27,14.41-7.73s3.91,4.11,3.91,4.11,1.24-6.22,5.58-5.53c4.89.77,9.11,1.35,9,4.62s6.56-6.67,14,.61,5.69.68,10.27,5.69S535.45,62,536.88,67c2.37,8.22.42,20,.42,20l-33.06,7.3-5.07-13.08S456,86.48,446.71,93.73Z"/><path class="cls-2" d="M229.58,280.57a11.58,11.58,0,0,1-1.71-3.38c-4.24,1.64-10.49,3.66-11.53,1.77-1.21-2.18,6.34-7.84,11.53-10.64a5.1,5.1,0,0,1,.74-1.3c2.26-2.91-2.91-8.51-2.91-8.51s-12.27,9.44-17.76,17.05-25.57,11.17-30.62,3.42c-3.82-5.86-6.33-9.9-6.33-9.9h0a10.66,10.66,0,0,1-9.2-6.7c-2.23-5.68-3.43-11.16-1.55-14.15,6.15-9.8,13.19-1.37,17.51,4.86a38,38,0,0,1,5.08-1.78l-1.57-25s-19.64-13.17-38,.12c14.86-16.43,36.89-2.2,36.89-2.2s32.13-11.3,32.61-17.05-4.22-27.9-10.61-25.19-10.36-5.73-15.32-3.49-8-1.61-14.74.79-9.75-5.11-18.22,1.92-11.18-4.31-20.29,4-16.14,12-18.38,20.45-4.79,13.26-1.76,24.45,27.56,43.88,34,47.3c.29.16,11.93,2.14,19.08,3.35.33.93.66,1.89,1,2.92,3.25,10.51,14.77,21.42,37.24,19.68,10.75-.81,21.92-4.82,24.84-6.35C235.07,294.13,232.48,284.44,229.58,280.57Z"/></g></svg>